<svg width="281" height="210" viewBox="0 0 281 210" fill="none" xmlns="http://www.w3.org/2000/svg">
<path d="M41.1511 186.896C96.0131 215.56 184.972 215.56 239.847 186.896C294.721 158.233 294.715 111.76 239.847 83.0964C184.978 54.4327 96.0254 54.4327 41.1511 83.0964C-13.7232 111.76 -13.7109 158.257 41.1511 186.896Z" fill="#E2E2E2"/>
<path d="M38.0358 138.946C45.8189 138.946 52.1284 135.939 52.1284 132.231C52.1284 128.522 45.8189 125.516 38.0358 125.516C30.2526 125.516 23.9431 128.522 23.9431 132.231C23.9431 135.939 30.2526 138.946 38.0358 138.946Z" fill="#EBEBEB"/>
<path d="M198.856 147.912C209.244 147.912 217.665 143.898 217.665 138.946C217.665 133.995 209.244 129.98 198.856 129.98C188.469 129.98 180.048 133.995 180.048 138.946C180.048 143.898 188.469 147.912 198.856 147.912Z" fill="#EBEBEB"/>
<path d="M255.086 102.059C255.086 102.059 256.54 97.5696 261.268 92.7862C263.353 90.6766 264.715 89.2048 264.279 87.9476C263.887 86.8376 262.562 86.2612 260.667 87.1565C257.975 88.4321 256.16 90.7993 255.086 95.552V102.059Z" fill="#ECEFF1"/>
<path opacity="0.1" d="M255.086 102.059C255.086 102.059 256.54 97.5696 261.268 92.7862C263.353 90.6766 264.715 89.2048 264.279 87.9476C263.887 86.8376 262.562 86.2612 260.667 87.1565C257.975 88.4321 256.16 90.7993 255.086 95.552V102.059Z" fill="black"/>
<path d="M254.786 99.238H254.731C254.672 99.2222 254.621 99.1837 254.59 99.1309C254.559 99.0781 254.55 99.0153 254.565 98.956C256.252 92.4432 260.612 88.4079 262.458 87.4758C262.513 87.4497 262.577 87.446 262.635 87.4654C262.693 87.4848 262.742 87.5258 262.771 87.58C262.796 87.6347 262.8 87.6972 262.78 87.7544C262.761 87.8116 262.72 87.859 262.666 87.8867C260.882 88.7881 256.656 92.713 255.013 99.0725C254.998 99.121 254.968 99.1634 254.927 99.1933C254.886 99.2232 254.837 99.2389 254.786 99.238Z" fill="white"/>
<path d="M255.086 107.634C255.086 107.634 257.104 103.678 259.539 101.575C261.973 99.4715 265.101 97.3251 262.452 95.6816C259.802 94.0381 255.442 97.2638 255.093 100.447L255.086 107.634Z" fill="#ECEFF1"/>
<path d="M254.786 104.818H254.737C254.678 104.804 254.627 104.767 254.595 104.715C254.563 104.664 254.552 104.602 254.565 104.542C255.712 99.6361 259.827 96.8642 261.194 96.4043C261.251 96.3926 261.309 96.4022 261.359 96.4312C261.409 96.4602 261.446 96.5067 261.464 96.5615C261.481 96.6164 261.478 96.6758 261.454 96.7283C261.43 96.7808 261.388 96.8227 261.335 96.8458C260.109 97.2628 256.098 99.9918 255.013 104.646C254.999 104.696 254.969 104.74 254.928 104.771C254.887 104.802 254.837 104.819 254.786 104.818Z" fill="white"/>
<path d="M75.7326 147.39C75.7326 147.39 74.8005 145.317 70.9063 144.44C67.1164 143.588 65.2337 144.44 62.6764 143.998C60.1191 143.557 60.7875 138.78 67.6683 139.276C73.9665 139.73 75.7326 144.685 75.7326 144.685V147.39Z" fill="#ECEFF1"/>
<path d="M76.1072 146.25C76.0626 146.249 76.0192 146.235 75.9822 146.21C75.9453 146.185 75.9163 146.15 75.8987 146.109C75.2854 144.643 73.0164 142.251 69.8213 141.521C65.8535 140.62 63.7439 141.521 63.7255 141.521C63.6706 141.54 63.6109 141.537 63.5578 141.514C63.5047 141.491 63.4622 141.449 63.4384 141.396C63.4147 141.343 63.4115 141.284 63.4294 141.229C63.4473 141.173 63.4851 141.127 63.5354 141.098C63.6274 141.062 65.8106 140.111 69.9194 141.049C73.4702 141.859 75.7331 144.459 76.3218 145.912C76.3339 145.94 76.3402 145.97 76.3406 146C76.3409 146.03 76.3352 146.06 76.3237 146.088C76.3123 146.116 76.2954 146.142 76.274 146.163C76.2526 146.185 76.2272 146.202 76.1992 146.213L76.1072 146.25Z" fill="white"/>
<path d="M75.7329 145.03C74.9566 143.64 73.9628 142.383 72.7892 141.307C69.1097 137.738 64.2036 136.616 61.7506 134.666C59.0523 132.562 62.3209 130.134 65.792 130.287C67.7789 130.379 69.8763 131.692 71.0292 132.636C75.0889 135.954 75.7574 141.307 75.7574 141.307L75.7329 145.03Z" fill="#ECEFF1"/>
<path opacity="0.5" d="M75.7329 145.03C74.9566 143.64 73.9628 142.383 72.7892 141.307C69.1097 137.738 64.2036 136.616 61.7506 134.666C59.0523 132.562 62.3209 130.134 65.792 130.287C67.7789 130.379 69.8763 131.692 71.0292 132.636C75.0889 135.954 75.7574 141.307 75.7574 141.307L75.7329 145.03Z" fill="white"/>
<path d="M76.1069 144.668C76.0521 144.667 75.9992 144.647 75.9577 144.611C75.9162 144.575 75.8887 144.526 75.88 144.471C75.3968 141.893 74.2274 139.493 72.4949 137.523C69.6003 134.23 64.6513 132.464 64.5961 132.445C64.5401 132.425 64.4943 132.383 64.4681 132.329C64.4418 132.276 64.4372 132.214 64.455 132.157C64.4647 132.128 64.48 132.102 64.5001 132.079C64.5203 132.056 64.5448 132.037 64.5723 132.024C64.5998 132.011 64.6296 132.004 64.66 132.002C64.6905 132.001 64.7209 132.006 64.7494 132.016C64.9579 132.084 69.864 133.856 72.8383 137.217C74.642 139.249 75.8533 141.737 76.34 144.41C76.3443 144.44 76.3424 144.471 76.3344 144.501C76.3265 144.53 76.3126 144.558 76.2937 144.582C76.2748 144.606 76.2512 144.626 76.2244 144.641C76.1976 144.656 76.1681 144.665 76.1376 144.668H76.1069Z" fill="white"/>
<path d="M159.896 183.143C159.896 183.143 160.939 181.12 164.876 180.451C168.703 179.801 170.537 180.727 173.118 180.451C175.7 180.175 175.283 175.337 168.384 175.465C162.074 175.582 160.044 180.433 160.044 180.433L159.896 183.143Z" fill="#ECEFF1"/>
<path opacity="0.1" d="M159.896 183.143C159.896 183.143 160.939 181.12 164.876 180.451C168.703 179.801 170.537 180.727 173.118 180.451C175.7 180.175 175.283 175.337 168.384 175.465C162.074 175.582 160.044 180.433 160.044 180.433L159.896 183.143Z" fill="black"/>
<path d="M159.596 182.175C159.548 182.173 159.501 182.158 159.461 182.132C159.436 182.115 159.415 182.093 159.399 182.067C159.383 182.042 159.371 182.013 159.366 181.984C159.361 181.954 159.362 181.924 159.369 181.894C159.376 181.865 159.388 181.837 159.406 181.813C160.871 179.715 163.539 178.133 166.55 177.606C170.42 176.913 172.683 178.139 172.781 178.219C172.807 178.234 172.83 178.253 172.849 178.277C172.867 178.3 172.881 178.327 172.889 178.356C172.898 178.384 172.9 178.414 172.897 178.444C172.893 178.474 172.884 178.503 172.87 178.529C172.855 178.555 172.836 178.578 172.812 178.597C172.789 178.615 172.762 178.629 172.733 178.637C172.704 178.646 172.674 178.648 172.645 178.645C172.615 178.641 172.586 178.632 172.56 178.618C172.56 178.618 170.334 177.422 166.63 178.084C163.741 178.599 161.178 180.102 159.786 182.101C159.761 182.126 159.732 182.146 159.699 182.159C159.666 182.171 159.631 182.177 159.596 182.175Z" fill="white"/>
<path d="M160.172 180.304C161.063 179.184 162.075 178.166 163.19 177.269C167.072 173.908 171.984 173.362 174.584 171.547C177.393 169.591 174.259 166.991 170.782 166.96C168.795 166.96 166.63 168.144 165.422 169.027C162.848 170.955 160.922 173.623 159.903 176.674L160.172 180.304Z" fill="#ECEFF1"/>
<path opacity="0.5" d="M160.172 180.304C161.063 179.184 162.075 178.166 163.19 177.269C167.072 173.908 171.984 173.362 174.584 171.547C177.393 169.591 174.259 166.991 170.782 166.96C168.795 166.96 166.63 168.144 165.422 169.027C162.848 170.955 160.922 173.623 159.903 176.674L160.172 180.304Z" fill="white"/>
<path d="M159.596 180.255H159.51C159.453 180.234 159.407 180.193 159.38 180.139C159.353 180.086 159.346 180.024 159.362 179.967C160.321 177.334 161.835 174.939 163.802 172.945C165.936 170.744 168.708 169.27 171.726 168.732C171.755 168.728 171.785 168.729 171.814 168.737C171.843 168.745 171.87 168.758 171.893 168.776C171.917 168.795 171.936 168.817 171.951 168.844C171.965 168.87 171.974 168.898 171.977 168.928C171.981 168.958 171.98 168.989 171.972 169.019C171.964 169.048 171.95 169.076 171.931 169.1C171.912 169.124 171.888 169.144 171.862 169.159C171.835 169.173 171.805 169.183 171.775 169.186C168.869 169.737 166.202 171.162 164.127 173.27C162.222 175.21 160.758 177.538 159.835 180.095C159.818 180.145 159.786 180.188 159.743 180.216C159.699 180.245 159.647 180.259 159.596 180.255Z" fill="white"/>
<path d="M100.637 147.906V101.574H75.7322V147.912C75.7322 149.752 76.9587 151.591 79.4117 152.99C84.2749 155.798 92.1614 155.798 97.0245 152.99C99.4775 151.585 100.667 149.752 100.673 147.912L100.637 147.906Z" fill="#37474F"/>
<path d="M79.3812 106.971C74.5119 104.163 74.5119 99.6122 79.3812 96.7973C84.2505 93.9825 92.1308 93.9886 96.994 96.7973C101.857 99.606 101.857 104.156 96.994 106.971C92.1308 109.786 84.2443 109.774 79.3812 106.971Z" fill="#455A64"/>
<path d="M130.533 165.17V131.44H105.623V165.17C105.623 167.009 106.849 168.849 109.302 170.247C114.165 173.056 122.052 173.056 126.915 170.247C129.368 168.849 130.564 167.009 130.564 165.17H130.533Z" fill="#37474F"/>
<path d="M109.272 136.842C104.409 134.034 104.409 129.483 109.272 126.668C114.135 123.854 122.021 123.86 126.885 126.668C131.748 129.477 131.754 134.027 126.885 136.842C122.015 139.657 114.129 139.676 109.272 136.842Z" fill="#455A64"/>
<path d="M160.43 182.427V156.234H135.519V182.433C135.519 184.273 136.746 186.112 139.199 187.517C144.062 190.325 151.948 190.325 156.812 187.517C159.265 186.112 160.454 184.273 160.46 182.433L160.43 182.427Z" fill="#37474F"/>
<path d="M147.975 163.728C154.853 163.728 160.43 160.507 160.43 156.534C160.43 152.561 154.853 149.341 147.975 149.341C141.096 149.341 135.519 152.561 135.519 156.534C135.519 160.507 141.096 163.728 147.975 163.728Z" fill="#455A64"/>
<path d="M74.1381 164.243L68.2569 160.852L71.5133 156.633C71.9303 156.093 71.7341 155.799 71.0779 155.964L63.2773 157.976L57.3961 154.578C56.9021 154.327 56.3558 154.196 55.8017 154.196C55.2475 154.196 54.7012 154.327 54.2072 154.578L44.9409 159.913C44.0578 160.422 44.0578 161.244 44.9409 161.753L61.6828 171.418C62.1768 171.669 62.7232 171.8 63.2773 171.8C63.8314 171.8 64.3777 171.669 64.8718 171.418L74.1381 166.064C75.015 165.574 75.015 164.752 74.1381 164.243Z" fill="#ECEFF1"/>
<path d="M64.7306 162.164C64.8265 162.154 64.923 162.154 65.0189 162.164C65.1141 162.176 65.2059 162.207 65.2887 162.256L66.1289 162.74C66.1856 162.768 66.2295 162.816 66.2515 162.875C66.2515 162.924 66.2515 162.967 66.1656 162.998C66.1456 163.003 66.1244 163.003 66.1043 162.998C66.0741 163.005 66.0426 163.005 66.0123 162.998L54.3604 163.918H54.0293C53.9337 163.903 53.8419 163.87 53.7594 163.82L52.9193 163.335C52.8626 163.308 52.8187 163.259 52.7966 163.2C52.7966 163.151 52.7966 163.108 52.8825 163.078C52.9026 163.072 52.9237 163.072 52.9438 163.078H53.0358L64.7306 162.164ZM60.9775 161.385C60.7282 161.552 60.468 161.701 60.1987 161.833C59.9811 161.943 59.7531 162.032 59.5179 162.096C59.2714 162.159 59.0179 162.19 58.7636 162.188C58.196 162.19 57.6386 162.037 57.1508 161.747C56.918 161.633 56.7097 161.475 56.5375 161.281C56.4257 161.153 56.3627 160.99 56.3597 160.821C56.3619 160.661 56.4206 160.507 56.5252 160.385C56.6472 160.227 56.7968 160.092 56.9668 159.987C57.0831 159.903 57.2039 159.825 57.3286 159.754C57.4451 159.686 57.5862 159.613 57.7395 159.539C57.9603 159.428 58.1927 159.342 58.4325 159.282C58.9419 159.155 59.4746 159.155 59.984 159.282C60.2673 159.358 60.5394 159.472 60.7935 159.619C61.0147 159.734 61.2107 159.893 61.37 160.085C61.4831 160.212 61.5481 160.375 61.5539 160.545C61.5461 160.704 61.4881 160.856 61.3884 160.98C61.276 161.138 61.137 161.275 60.9775 161.385ZM62.1365 166.181C61.899 166.358 61.649 166.518 61.3884 166.659C61.1693 166.769 60.939 166.856 60.7015 166.917C60.4559 166.984 60.202 167.017 59.9472 167.015C59.6757 167.014 59.4056 166.977 59.1438 166.904C58.8599 166.832 58.5874 166.721 58.3343 166.573C58.1155 166.454 57.9202 166.296 57.7579 166.107C57.6448 165.978 57.5817 165.813 57.58 165.641C57.5849 165.483 57.6408 165.33 57.7395 165.206C57.8644 165.049 58.0159 164.916 58.1872 164.813C58.3011 164.726 58.4221 164.648 58.549 164.58C58.6812 164.5 58.8184 164.428 58.9599 164.365C59.1785 164.254 59.4089 164.168 59.6467 164.108C59.8937 164.047 60.1467 164.014 60.401 164.01C60.9666 164.01 61.5217 164.162 62.0078 164.451C62.2417 164.564 62.4503 164.722 62.621 164.917C62.7293 165.041 62.7889 165.2 62.7889 165.365C62.7889 165.53 62.7293 165.689 62.621 165.813C62.4815 165.962 62.3177 166.086 62.1365 166.181ZM58.2301 160.661C58.1082 160.73 58.0082 160.832 57.9419 160.956C57.9419 161.042 57.9419 161.127 58.1197 161.213C58.2522 161.294 58.4068 161.33 58.5613 161.318C58.7394 161.289 58.9115 161.231 59.0703 161.146C59.3027 161.034 59.5261 160.905 59.7387 160.76C59.8635 160.692 59.9659 160.59 60.0331 160.465C60.0331 160.379 60.0024 160.293 59.8552 160.208C59.7209 160.126 59.5635 160.092 59.4075 160.109C59.2314 160.134 59.0611 160.19 58.9047 160.275C58.6704 160.377 58.4448 160.498 58.2301 160.637V160.661ZM59.3953 165.457C59.2704 165.524 59.1681 165.627 59.1009 165.751C59.1009 165.831 59.1009 165.917 59.2788 166.003C59.4114 166.088 59.5696 166.125 59.7264 166.107C59.9019 166.079 60.0717 166.023 60.2293 165.942C60.4644 165.831 60.69 165.702 60.9039 165.555C61.0274 165.488 61.1278 165.386 61.1921 165.261C61.1921 165.175 61.1921 165.089 61.0143 165.003C60.8818 164.923 60.7272 164.886 60.5727 164.899C60.3964 164.926 60.2262 164.985 60.0699 165.071C59.8356 165.173 59.61 165.294 59.3953 165.433V165.457Z" fill="white"/>
<path d="M106.53 182.936L100.637 179.539L103.893 175.326C104.304 174.786 104.108 174.486 103.452 174.657L95.651 176.663L89.7699 173.271C89.2769 173.02 88.7316 172.89 88.1785 172.89C87.6253 172.89 87.08 173.02 86.5871 173.271L77.333 178.619C76.4561 179.128 76.4561 179.956 77.333 180.459L94.0749 190.13C94.5698 190.378 95.1158 190.507 95.6694 190.507C96.223 190.507 96.769 190.378 97.2639 190.13L106.53 184.776C107.413 184.267 107.413 183.445 106.53 182.936Z" fill="#ECEFF1"/>
<path d="M97.1226 180.856H97.417C97.5123 180.872 97.6039 180.905 97.6868 180.955L98.5208 181.439C98.5944 181.482 98.6373 181.525 98.6435 181.574C98.6496 181.623 98.6435 181.66 98.5637 181.697C98.5436 181.701 98.5226 181.701 98.5024 181.697H98.4104L86.7585 182.616C86.6606 182.626 86.5621 182.626 86.4642 182.616C86.3684 182.603 86.2764 182.569 86.1943 182.518L85.3603 182.04C85.2867 181.997 85.2438 181.948 85.2377 181.905C85.2356 181.878 85.2423 181.851 85.2566 181.828C85.2709 181.805 85.2922 181.787 85.3174 181.776H85.3787H85.4707L97.1226 180.856ZM93.3695 180.078C93.1231 180.245 92.8649 180.395 92.5968 180.525C92.3777 180.635 92.1474 180.722 91.9099 180.783C91.6642 180.85 91.4103 180.883 91.1556 180.881C90.8841 180.88 90.6139 180.843 90.3522 180.771C90.0682 180.699 89.7958 180.587 89.5427 180.439C89.3222 180.32 89.1249 180.162 88.9601 179.973C88.8489 179.849 88.7874 179.689 88.7874 179.523C88.7874 179.356 88.8489 179.196 88.9601 179.072C89.0842 178.917 89.2334 178.784 89.4017 178.679C89.5175 178.594 89.6383 178.517 89.7635 178.446C89.8985 178.367 90.0377 178.296 90.1805 178.232C90.3992 178.121 90.6296 178.034 90.8674 177.974C91.2641 177.873 91.677 177.851 92.0821 177.91C92.4873 177.969 92.8769 178.108 93.2284 178.318C93.4502 178.435 93.6479 178.593 93.811 178.784C93.9237 178.91 93.9868 179.074 93.9888 179.244C93.9841 179.403 93.9258 179.556 93.8233 179.679C93.6976 179.838 93.5438 179.974 93.3695 180.078ZM94.5346 184.873C94.2856 185.04 94.0254 185.19 93.7558 185.321C93.5393 185.432 93.3109 185.518 93.0751 185.578C92.8285 185.641 92.5751 185.672 92.3208 185.67C91.7531 185.672 91.1957 185.519 90.7079 185.229C90.4866 185.114 90.2889 184.958 90.1253 184.769C90.0122 184.64 89.9491 184.475 89.9475 184.303C89.9545 184.144 90.0126 183.991 90.1131 183.867C90.2367 183.711 90.386 183.576 90.5546 183.469C90.6773 183.383 90.7999 183.309 90.9164 183.236C91.0329 183.162 91.174 183.095 91.3273 183.021C91.5481 182.91 91.7805 182.824 92.0203 182.764C92.2679 182.707 92.5207 182.677 92.7746 182.672C93.0438 182.671 93.3119 182.706 93.5718 182.776C93.8564 182.849 94.1291 182.963 94.3813 183.113C94.6031 183.23 94.8008 183.389 94.9639 183.579C95.0747 183.702 95.136 183.862 95.136 184.027C95.136 184.192 95.0747 184.352 94.9639 184.475C94.8439 184.63 94.6989 184.765 94.5346 184.873ZM90.6282 179.354C90.5034 179.421 90.401 179.523 90.3338 179.648C90.3338 179.728 90.3645 179.814 90.5117 179.9C90.6443 179.985 90.8026 180.022 90.9594 180.004C91.1346 179.975 91.3042 179.919 91.4622 179.838C91.6987 179.729 91.9245 179.597 92.1368 179.446C92.2594 179.381 92.3597 179.28 92.425 179.158C92.425 179.072 92.3944 178.986 92.2472 178.9C92.1159 178.817 91.9604 178.78 91.8057 178.796C91.6273 178.823 91.455 178.881 91.2966 178.968C91.0643 179.07 90.8408 179.191 90.6282 179.329V179.354ZM91.7873 184.15C91.6673 184.218 91.5678 184.318 91.499 184.438C91.499 184.524 91.5297 184.61 91.6769 184.695C91.8082 184.779 91.9637 184.815 92.1184 184.8C92.2958 184.772 92.4677 184.716 92.6274 184.634C92.8595 184.52 93.0829 184.388 93.2959 184.242C93.4186 184.174 93.5205 184.075 93.5902 183.953C93.6209 183.867 93.5902 183.782 93.4124 183.696C93.2786 183.613 93.1213 183.576 92.9647 183.592C92.7895 183.62 92.6198 183.676 92.4618 183.757C92.2292 183.865 92.0039 183.988 91.7873 184.125V184.15Z" fill="white"/>
<path d="M138.898 201.614L133.017 198.223L136.279 193.997C136.69 193.464 136.494 193.163 135.837 193.335L128.037 195.341L122.156 191.949C121.662 191.698 121.115 191.567 120.561 191.567C120.007 191.567 119.461 191.698 118.967 191.949L109.7 197.321C108.823 197.83 108.823 198.658 109.7 199.161L126.442 208.832C126.937 209.08 127.483 209.21 128.037 209.21C128.59 209.21 129.136 209.08 129.631 208.832L138.898 203.454C139.781 202.963 139.781 202.142 138.898 201.614Z" fill="#ECEFF1"/>
<path d="M129.491 199.555H129.779C129.875 199.569 129.966 199.602 130.049 199.653L130.889 200.137C130.963 200.18 131.005 200.223 131.012 200.272C131.018 200.321 131.012 200.358 130.932 200.395H130.871H130.779L119.127 201.315C119.031 201.324 118.934 201.324 118.838 201.315C118.742 201.302 118.65 201.269 118.569 201.217L117.735 200.738C117.661 200.695 117.618 200.646 117.612 200.603C117.61 200.576 117.617 200.549 117.631 200.526C117.645 200.503 117.666 200.485 117.692 200.475H117.753C117.783 200.467 117.815 200.467 117.845 200.475L129.491 199.555ZM125.738 198.776C125.49 198.945 125.23 199.095 124.959 199.223C124.742 199.335 124.514 199.421 124.278 199.481C124.032 199.548 123.778 199.581 123.524 199.579C123.25 199.578 122.978 199.541 122.714 199.469C122.432 199.397 122.162 199.286 121.911 199.138C121.69 199.018 121.493 198.86 121.328 198.672C121.215 198.542 121.152 198.377 121.15 198.205C121.157 198.046 121.216 197.894 121.316 197.77C121.441 197.615 121.59 197.48 121.758 197.371C121.88 197.286 122.003 197.212 122.119 197.145C122.236 197.077 122.377 197.004 122.53 196.924C122.981 196.703 123.475 196.583 123.978 196.574C124.543 196.576 125.097 196.729 125.584 197.016C125.806 197.133 126.004 197.291 126.167 197.482C126.278 197.61 126.341 197.772 126.345 197.942C126.337 198.101 126.279 198.253 126.179 198.377C126.057 198.536 125.908 198.671 125.738 198.776ZM126.897 203.571C126.649 203.737 126.391 203.887 126.124 204.019C125.907 204.129 125.679 204.216 125.443 204.277C124.93 204.407 124.393 204.407 123.879 204.277C123.597 204.202 123.327 204.089 123.076 203.939C122.842 203.827 122.634 203.669 122.463 203.473C122.349 203.347 122.286 203.183 122.285 203.013C122.288 202.855 122.345 202.702 122.444 202.578C122.572 202.423 122.723 202.288 122.892 202.179C123.008 202.095 123.129 202.017 123.254 201.946C123.37 201.879 123.511 201.805 123.665 201.732C124.112 201.501 124.609 201.381 125.112 201.382C125.381 201.381 125.649 201.416 125.909 201.486C126.192 201.561 126.462 201.674 126.713 201.824C126.947 201.936 127.155 202.094 127.326 202.29C127.44 202.416 127.503 202.58 127.504 202.75C127.5 202.909 127.444 203.062 127.344 203.185C127.219 203.339 127.067 203.47 126.897 203.571ZM122.99 198.052C122.868 198.121 122.768 198.223 122.702 198.347C122.702 198.426 122.733 198.512 122.88 198.598C123.011 198.68 123.167 198.717 123.321 198.702C123.499 198.675 123.671 198.619 123.83 198.537C124.066 198.426 124.292 198.294 124.505 198.144C124.628 198.079 124.728 197.978 124.793 197.856C124.824 197.77 124.793 197.684 124.615 197.598C124.482 197.515 124.324 197.479 124.168 197.494C123.992 197.522 123.821 197.581 123.665 197.666C123.431 197.769 123.206 197.89 122.99 198.028V198.052ZM124.155 202.848C124.034 202.917 123.933 203.016 123.861 203.136C123.861 203.222 123.861 203.308 124.045 203.394C124.176 203.477 124.332 203.514 124.487 203.498C124.662 203.47 124.832 203.414 124.989 203.332C125.223 203.218 125.449 203.087 125.664 202.94C125.787 202.873 125.889 202.773 125.958 202.652C125.991 202.566 125.93 202.48 125.774 202.394C125.643 202.311 125.488 202.274 125.333 202.29C125.157 202.318 124.988 202.373 124.83 202.455C124.596 202.568 124.371 202.697 124.155 202.842V202.848Z" fill="white"/>
<path d="M222.706 100.445L212.74 94.6927V65.9248L222.706 71.6772V100.445Z" fill="#37474F"/>
<path d="M222.706 100.445L232.671 94.6927V65.9248L222.706 71.6772V100.445Z" fill="#455A64"/>
<path d="M212.74 65.9262L222.706 71.6785L232.671 65.9262L222.706 60.1738L212.74 65.9262Z" fill="#455A64"/>
<path d="M200.286 87.5008L190.32 81.7484V24.2188L200.286 29.9711V87.5008Z" fill="#37474F"/>
<path d="M200.286 87.5008L210.251 81.7484V24.2188L200.286 29.9711V87.5008Z" fill="#455A64"/>
<path d="M190.32 24.2182L200.286 29.9705L210.251 24.2182L200.286 18.4658L190.32 24.2182Z" fill="#455A64"/>
<path d="M177.864 74.5545L167.899 68.8022V48.6689L177.864 54.4213V74.5545Z" fill="#37474F"/>
<path d="M177.865 74.5545L187.83 68.8022V48.6689L177.865 54.4213V74.5545Z" fill="#455A64"/>
<path d="M167.899 48.6684L177.864 54.4207L187.83 48.6684L177.864 42.916L167.899 48.6684Z" fill="#455A64"/>
<path d="M245.127 113.392L235.161 107.634V52.9863L245.12 58.7387L245.127 113.392Z" fill="#37474F"/>
<path d="M245.121 113.392L255.086 107.634V52.9863L245.121 58.7387V113.392Z" fill="#455A64"/>
<path d="M235.161 52.987L245.12 58.7394L255.086 52.987L245.127 47.2285L235.161 52.987Z" fill="#455A64"/>
<g opacity="0.3">
<path opacity="0.3" d="M175.455 109.215L175.35 45.51C175.329 45.1412 175.221 44.7827 175.036 44.4631C174.85 44.1436 174.593 43.872 174.283 43.6702L99.1225 0.466219C98.5092 0.128928 98.0615 0.404894 98.0615 1.07948L98.1842 64.7601C98.2043 65.1292 98.3114 65.4883 98.4969 65.8081C98.6824 66.1279 98.9408 66.3992 99.2512 66.5999L174.418 109.835C174.989 110.172 175.455 109.896 175.455 109.215Z" fill="white"/>
</g>
<path d="M174.878 110.283C174.661 110.274 174.45 110.211 174.264 110.099L99.0975 66.8641C98.7387 66.6382 98.4398 66.329 98.2262 65.9628C98.0127 65.5965 97.8908 65.1841 97.871 64.7606L97.7545 1.07992C97.7288 0.893159 97.7592 0.70299 97.8419 0.533584C97.9246 0.364178 98.0558 0.223186 98.2188 0.128528C98.3819 0.0338694 98.5694 -0.010181 98.7575 0.00198052C98.9456 0.014142 99.1259 0.0819631 99.2753 0.196824L174.442 43.3947C174.8 43.6213 175.099 43.9307 175.312 44.2968C175.526 44.6629 175.648 45.0749 175.669 45.4982L175.773 109.203C175.788 109.389 175.753 109.576 175.672 109.744C175.591 109.912 175.468 110.055 175.313 110.16C175.182 110.239 175.031 110.281 174.878 110.283ZM98.6498 0.601576C98.6096 0.590915 98.5673 0.590915 98.5272 0.601576C98.4673 0.65314 98.4213 0.718895 98.3935 0.792821C98.3656 0.866748 98.3568 0.946486 98.3677 1.02473L98.472 64.7299C98.4894 65.0522 98.5836 65.3656 98.7469 65.6441C98.9101 65.9225 99.1375 66.1579 99.4102 66.3305L174.577 109.565C174.761 109.669 174.921 109.7 175.019 109.639C175.117 109.577 175.178 109.43 175.178 109.216L175.074 45.5104C175.054 45.1964 174.962 44.8912 174.805 44.6188C174.647 44.3464 174.429 44.1142 174.166 43.9405L98.9687 0.705829C98.873 0.644533 98.7632 0.608652 98.6498 0.601576Z" fill="#ECEFF1"/>
<path d="M168.316 95.1595C166.323 93.7429 165.158 92.4612 164.367 82.6123L164.299 81.7721C163.557 72.5181 163.073 66.41 158.853 63.8895C156.83 62.663 155.211 63.8895 153.5 65.2203C151.948 66.4039 150.354 67.6181 148.557 66.594C145.399 64.7542 144.877 61.1115 143.896 54.4638C143.773 53.642 143.651 52.7773 143.51 51.8697C143.295 50.4531 143.111 49.1345 142.939 47.8958C141.97 40.9169 141.382 36.6977 137.813 34.5452C137.461 34.2961 137.056 34.1325 136.63 34.0676C136.204 34.0026 135.769 34.0381 135.36 34.1711C132.655 35.1155 130.539 40.8372 128.301 46.9023C128.129 47.35 127.964 47.8222 127.786 48.2944C126.161 52.765 124.321 57.8367 121.776 58.775C121.416 58.9067 121.031 58.9553 120.65 58.917C120.268 58.8788 119.901 58.7547 119.574 58.5542C117.042 57.1192 116.588 53.1943 116.152 49.3921C115.717 45.5899 115.294 41.7693 112.902 40.3282C112.699 40.197 112.467 40.1178 112.227 40.0975C111.986 40.0772 111.744 40.1164 111.522 40.2116C108.554 41.3646 105.923 50.1464 105.899 50.2323L105.285 50.0606C105.396 49.6865 108.027 40.9046 111.271 39.6352C111.581 39.5069 111.917 39.4549 112.251 39.4838C112.585 39.5126 112.907 39.6213 113.19 39.8008C115.833 41.383 116.293 45.4121 116.741 49.3063C117.189 53.2004 117.593 56.7267 119.863 58.0084C120.11 58.1656 120.39 58.2634 120.682 58.2942C120.973 58.3251 121.268 58.2881 121.543 58.1862C123.818 57.3461 125.688 52.207 127.191 48.0736C127.369 47.5953 127.534 47.1292 127.706 46.6754C130.098 40.2055 132.164 34.6187 135.139 33.5762C135.632 33.4164 136.155 33.3725 136.668 33.4481C137.18 33.5236 137.669 33.7164 138.095 34.0116C141.909 36.3175 142.516 40.6409 143.51 47.8038C143.681 49.0303 143.865 50.3549 144.08 51.7654C144.221 52.6792 144.344 53.5439 144.466 54.3595C145.405 60.8232 145.926 64.3801 148.827 66.0482C150.268 66.8761 151.574 65.8765 153.089 64.7236C154.806 63.4112 156.768 61.9332 159.129 63.3499C163.612 66.0359 164.115 72.2728 164.869 81.7108L164.937 82.551C165.746 92.5961 166.961 93.4547 168.617 94.6505L168.316 95.1595Z" fill="#ECEFF1"/>
<g opacity="0.4">
<path opacity="0.4" d="M168.316 95.1595C166.323 93.7429 165.158 92.4612 164.367 82.6123L164.299 81.7721C163.557 72.5181 163.073 66.41 158.853 63.8895C156.83 62.663 155.211 63.8895 153.5 65.2203C151.948 66.4039 150.354 67.6181 148.557 66.594C145.399 64.7542 144.877 61.1115 143.896 54.4638C143.773 53.642 143.651 52.7773 143.51 51.8697C143.295 50.4531 143.111 49.1345 142.939 47.8958C141.97 40.9169 141.382 36.6977 137.813 34.5452C137.461 34.2961 137.056 34.1325 136.63 34.0676C136.204 34.0026 135.769 34.0381 135.36 34.1711C132.655 35.1155 130.539 40.8372 128.301 46.9023C128.129 47.35 127.964 47.8222 127.786 48.2944C126.161 52.765 124.321 57.8367 121.776 58.775C121.416 58.9067 121.031 58.9553 120.65 58.917C120.268 58.8788 119.901 58.7547 119.574 58.5542C117.042 57.1192 116.588 53.1943 116.152 49.3921C115.717 45.5899 115.294 41.7693 112.902 40.3282C112.699 40.197 112.467 40.1178 112.227 40.0975C111.986 40.0772 111.744 40.1164 111.522 40.2116C108.554 41.3646 105.923 50.1464 105.899 50.2323L105.285 50.0606C105.396 49.6865 108.027 40.9046 111.271 39.6352C111.581 39.5069 111.917 39.4549 112.251 39.4838C112.585 39.5126 112.907 39.6213 113.19 39.8008C115.833 41.383 116.293 45.4121 116.741 49.3063C117.189 53.2004 117.593 56.7267 119.863 58.0084C120.11 58.1656 120.39 58.2634 120.682 58.2942C120.973 58.3251 121.268 58.2881 121.543 58.1862C123.818 57.3461 125.688 52.207 127.191 48.0736C127.369 47.5953 127.534 47.1292 127.706 46.6754C130.098 40.2055 132.164 34.6187 135.139 33.5762C135.632 33.4164 136.155 33.3725 136.668 33.4481C137.18 33.5236 137.669 33.7164 138.095 34.0116C141.909 36.3175 142.516 40.6409 143.51 47.8038C143.681 49.0303 143.865 50.3549 144.08 51.7654C144.221 52.6792 144.344 53.5439 144.466 54.3595C145.405 60.8232 145.926 64.3801 148.827 66.0482C150.268 66.8761 151.574 65.8765 153.089 64.7236C154.806 63.4112 156.768 61.9332 159.129 63.3499C163.612 66.0359 164.115 72.2728 164.869 81.7108L164.937 82.551C165.746 92.5961 166.961 93.4547 168.617 94.6505L168.316 95.1595Z" fill="black"/>
</g>
<path d="M157.946 61.1796C158.402 61.4784 158.782 61.8797 159.056 62.3513C159.329 62.823 159.489 63.352 159.522 63.8963C159.522 64.8959 158.817 65.3007 157.952 64.8039C157.494 64.5072 157.112 64.1065 156.839 63.6344C156.565 63.1623 156.406 62.6322 156.376 62.0872C156.376 61.1121 157.057 60.7074 157.946 61.1796Z" fill="#ECEFF1"/>
<g opacity="0.2">
<path opacity="0.2" d="M157.946 61.1796C158.402 61.4784 158.782 61.8797 159.056 62.3513C159.329 62.823 159.489 63.352 159.522 63.8963C159.522 64.8959 158.817 65.3007 157.952 64.8039C157.494 64.5072 157.112 64.1065 156.839 63.6344C156.565 63.1623 156.406 62.6322 156.376 62.0872C156.376 61.1121 157.057 60.7074 157.946 61.1796Z" fill="black"/>
</g>
<path d="M137.972 32.4725C138.429 32.7702 138.809 33.1714 139.082 33.6433C139.354 34.1153 139.512 34.6449 139.542 35.1892C139.542 36.1888 138.843 36.5936 137.978 36.0969C137.52 35.8005 137.138 35.3999 136.864 34.9277C136.59 34.4555 136.432 33.9252 136.402 33.3801C136.402 32.356 137.101 31.9758 137.972 32.4725Z" fill="#ECEFF1"/>
<g opacity="0.5">
<path opacity="0.5" d="M137.972 32.4725C138.429 32.7702 138.809 33.1714 139.082 33.6433C139.354 34.1153 139.512 34.6449 139.542 35.1892C139.542 36.1888 138.843 36.5936 137.978 36.0969C137.52 35.8005 137.138 35.3999 136.864 34.9277C136.59 34.4555 136.432 33.9252 136.402 33.3801C136.402 32.356 137.101 31.9758 137.972 32.4725Z" fill="white"/>
</g>
<path d="M113.068 38.2676C113.526 38.5626 113.908 38.9621 114.182 39.4333C114.456 39.9045 114.614 40.434 114.644 40.9782C114.644 41.984 113.944 42.3887 113.074 41.892C112.617 41.5939 112.238 41.1927 111.965 40.7208C111.692 40.2488 111.534 39.7194 111.504 39.1752C111.498 38.1756 112.203 37.7647 113.068 38.2676Z" fill="#ECEFF1"/>
<path opacity="0.65" d="M135.513 106.406V42.701C135.492 42.3326 135.386 41.9743 135.202 41.6547C135.017 41.3351 134.76 41.0633 134.452 40.8612L69.3178 3.25626C68.7045 2.91897 68.2568 3.19493 68.2568 3.86952V67.5747C68.2767 67.9431 68.3832 68.3017 68.5675 68.6214C68.7518 68.941 69.0088 69.2127 69.3178 69.4145L134.452 107.019C135.041 107.363 135.513 107.087 135.513 106.406Z" fill="white"/>
<path d="M134.93 107.475C134.714 107.466 134.503 107.403 134.317 107.291L69.1646 69.6857C68.8068 69.4574 68.5087 69.1468 68.2954 68.7798C68.082 68.4128 67.9595 68.0001 67.9381 67.5761V3.87094C67.9139 3.68468 67.9454 3.49542 68.0287 3.32705C68.1119 3.15869 68.2432 3.01876 68.4059 2.92494C68.5686 2.83111 68.7555 2.7876 68.9429 2.79989C69.1303 2.81217 69.3099 2.87972 69.459 2.99398L134.593 40.5989C134.951 40.8259 135.249 41.1354 135.462 41.5014C135.676 41.8674 135.798 42.2793 135.82 42.7024V106.408C135.834 106.593 135.8 106.78 135.719 106.948C135.638 107.116 135.514 107.26 135.36 107.364C135.229 107.438 135.081 107.476 134.93 107.475ZM68.8457 3.42326C68.8055 3.41287 68.7633 3.41287 68.7231 3.42326C68.6632 3.47482 68.6173 3.54058 68.5894 3.6145C68.5616 3.68843 68.5527 3.76817 68.5636 3.84641V67.5761C68.5829 67.8911 68.6748 68.1973 68.8323 68.4708C68.9898 68.7442 69.2085 68.9775 69.4713 69.1522L134.605 106.757C134.668 106.806 134.742 106.838 134.82 106.851C134.898 106.864 134.978 106.857 135.053 106.831C135.151 106.776 135.206 106.622 135.206 106.408V42.7024C135.188 42.3882 135.096 42.0826 134.938 41.8101C134.781 41.5375 134.562 41.3055 134.299 41.1325L69.1646 3.53364C69.0707 3.46775 68.9603 3.42951 68.8457 3.42326Z" fill="#ECEFF1"/>
<path d="M124.309 91.9282V50.0059C124.298 49.8215 124.245 49.6421 124.152 49.4823C124.059 49.3225 123.93 49.1867 123.775 49.086L117.367 45.4065C117.072 45.2348 116.833 45.3697 116.833 45.7131V87.6108C116.842 87.7956 116.895 87.9756 116.988 88.1356C117.081 88.2956 117.211 88.4311 117.367 88.5307L123.775 92.2103C124.07 92.4065 124.309 92.2655 124.309 91.9282Z" fill="#ECEFF1"/>
<g opacity="0.3">
<path opacity="0.3" d="M124.309 91.9282V50.0059C124.298 49.8215 124.245 49.6421 124.152 49.4823C124.059 49.3225 123.93 49.1867 123.775 49.086L117.367 45.4065C117.072 45.2348 116.833 45.3697 116.833 45.7131V87.6108C116.842 87.7956 116.895 87.9756 116.988 88.1356C117.081 88.2956 117.211 88.4311 117.367 88.5307L123.775 92.2103C124.07 92.4065 124.309 92.2655 124.309 91.9282Z" fill="black"/>
</g>
<path d="M111.853 84.7339V62.951C111.843 62.7666 111.789 62.5872 111.696 62.4274C111.604 62.2676 111.475 62.1318 111.32 62.0311L104.905 58.3516C104.617 58.186 104.378 58.3516 104.378 58.6582V80.4472C104.388 80.6309 104.442 80.8096 104.533 80.9692C104.625 81.1288 104.752 81.265 104.905 81.3671L111.32 85.0467C111.614 85.2123 111.853 85.0957 111.853 84.7339Z" fill="#ECEFF1"/>
<g opacity="0.2">
<path opacity="0.2" d="M111.853 84.7339V62.951C111.843 62.7666 111.789 62.5872 111.696 62.4274C111.604 62.2676 111.475 62.1318 111.32 62.0311L104.905 58.3516C104.617 58.186 104.378 58.3516 104.378 58.6582V80.4472C104.388 80.6309 104.442 80.8096 104.533 80.9692C104.625 81.1288 104.752 81.265 104.905 81.3671L111.32 85.0467C111.614 85.2123 111.853 85.0957 111.853 84.7339Z" fill="white"/>
</g>
<path d="M99.4104 77.5467V44.253C99.3999 44.0685 99.3461 43.8892 99.2534 43.7294C99.1607 43.5696 99.0318 43.4338 98.8769 43.3331L92.4622 39.6535C92.174 39.4818 91.9348 39.6167 91.9348 39.9602V73.2478C91.9447 73.4317 91.9975 73.6107 92.0891 73.7705C92.1807 73.9302 92.3085 74.0663 92.4622 74.1677L98.8769 77.8472C99.159 78.0189 99.4104 77.884 99.4104 77.5467Z" fill="#ECEFF1"/>
<g opacity="0.2">
<path opacity="0.2" d="M99.4104 77.5467V44.253C99.3999 44.0685 99.3461 43.8892 99.2534 43.7294C99.1607 43.5696 99.0318 43.4338 98.8769 43.3331L92.4622 39.6535C92.174 39.4818 91.9348 39.6167 91.9348 39.9602V73.2478C91.9447 73.4317 91.9975 73.6107 92.0891 73.7705C92.1807 73.9302 92.3085 74.0663 92.4622 74.1677L98.8769 77.8472C99.159 78.0189 99.4104 77.884 99.4104 77.5467Z" fill="black"/>
</g>
<path d="M86.9368 70.3774V22.6783C86.9274 22.4943 86.8748 22.3151 86.7831 22.1552C86.6915 21.9954 86.5634 21.8594 86.4094 21.7584L79.9947 18.0788C79.7065 17.9071 79.4673 18.0788 79.4673 18.3855V66.0601C79.4781 66.2438 79.5313 66.4224 79.6228 66.5821C79.7143 66.7417 79.8416 66.8779 79.9947 66.98L86.4094 70.6595C86.7037 70.8312 86.9368 70.6902 86.9368 70.3774Z" fill="#ECEFF1"/>
<path d="M219.382 78.0018C219.296 77.5419 217.046 72.3047 216.12 70.2441L211.428 72.4396L213.225 76.5546L218.082 80.3138C218.555 80.1698 218.954 79.8492 219.196 79.4185C219.438 78.9879 219.505 78.4805 219.382 78.0018Z" fill="#FFA8A7"/>
<path d="M210.036 132.856H206.418V138.13H210.036V132.856Z" fill="#FFA8A7"/>
<path d="M197.29 126.342L193.674 126.467L193.856 131.738L197.472 131.613L197.29 126.342Z" fill="#FFA8A7"/>
<path d="M198.194 57.3281C196.884 57.3585 195.604 57.7197 194.472 58.3781C193.339 59.0365 192.392 59.9706 191.718 61.0935C189.719 64.0678 186.198 69.1517 186.198 69.1517L192.791 71.2429L198.194 57.3281Z" fill="#ECEFF1"/>
<g opacity="0.7">
<path opacity="0.7" d="M198.194 57.3281C196.884 57.3585 195.604 57.7197 194.472 58.3781C193.339 59.0365 192.392 59.9706 191.718 61.0935C189.719 64.0678 186.198 69.1517 186.198 69.1517L192.791 71.2429L198.194 57.3281Z" fill="white"/>
</g>
<path d="M209.797 81.417C209.797 84.8758 210.244 107.241 210.244 107.241C210.33 108.235 211.262 110.068 211.06 113.889C210.784 119.083 210.336 133.513 210.336 133.513C210.336 133.513 208.638 135.2 206.24 133.513C206.24 133.513 202.959 113.92 202.315 108.774C201.745 104.285 200.788 92.0938 200.788 92.0938L197.433 106.45C197.433 106.45 198.047 109.823 198.151 112.203C198.255 114.582 197.538 128.343 197.538 128.343C196.951 128.71 196.278 128.917 195.586 128.944C194.895 128.971 194.208 128.817 193.594 128.497C193.594 128.497 190.688 108.394 190.314 106.242C189.939 104.089 192.865 81.417 192.865 81.417H209.797Z" fill="#ECEFF1"/>
<path opacity="0.2" d="M209.797 81.417C209.797 84.8758 210.244 107.241 210.244 107.241C210.33 108.235 211.262 110.068 211.06 113.889C210.784 119.083 210.336 133.513 210.336 133.513C210.336 133.513 208.638 135.2 206.24 133.513C206.24 133.513 202.959 113.92 202.315 108.774C201.745 104.285 200.788 92.0938 200.788 92.0938L197.433 106.45C197.433 106.45 198.047 109.823 198.151 112.203C198.255 114.582 197.538 128.343 197.538 128.343C196.951 128.71 196.278 128.917 195.586 128.944C194.895 128.971 194.208 128.817 193.594 128.497C193.594 128.497 190.688 108.394 190.314 106.242C189.939 104.089 192.865 81.417 192.865 81.417H209.797Z" fill="black"/>
<path d="M204.351 57.438C207.595 58.2169 211.71 59.5292 213.158 62.5219C214.605 65.5146 216.837 70.3655 216.837 70.3655L211.465 73.5422L209.797 70.6721V81.4164C207.258 84.1761 198.403 85.4639 192.859 81.4164V63.7301C192.859 60.9152 194.429 57.5239 198.752 57.2725L204.351 57.438Z" fill="#ECEFF1"/>
<path opacity="0.7" d="M204.351 57.438C207.595 58.2169 211.71 59.5292 213.158 62.5219C214.605 65.5146 216.837 70.3655 216.837 70.3655L211.465 73.5422L209.797 70.6721V81.4164C207.258 84.1761 198.403 85.4639 192.859 81.4164V63.7301C192.859 60.9152 194.429 57.5239 198.752 57.2725L204.351 57.438Z" fill="white"/>
<path d="M205.572 43.0029C205.863 42.9694 206.158 43.0028 206.434 43.1005C206.71 43.1983 206.961 43.3579 207.166 43.5671C207.853 44.2662 207.712 45.5663 207.166 48.5467L205.044 48.792L205.572 43.0029Z" fill="#263238"/>
<path d="M193.239 42.1677C192.784 42.1733 192.333 42.0835 191.915 41.904C191.264 41.5299 191.093 42.2658 191.448 42.9098C191.684 43.369 192.033 43.7605 192.462 44.0471C192.892 44.3337 193.387 44.5058 193.901 44.5471C193.901 44.4552 194.515 42.8913 194.515 42.8913L193.239 42.1677Z" fill="#263238"/>
<path d="M204.578 48.7911C204.891 48.9812 205.339 48.3741 205.725 47.9693C205.878 47.7952 206.072 47.6627 206.29 47.5843C206.508 47.5058 206.742 47.4839 206.97 47.5207C207.199 47.5575 207.415 47.6517 207.597 47.7945C207.779 47.9373 207.922 48.1241 208.012 48.3373C208.656 49.6926 207.197 51.5017 206.338 52.0966C206.098 52.3039 205.799 52.4303 205.483 52.4578C205.167 52.4853 204.85 52.4126 204.578 52.2499L204.351 57.438C203.972 58.2694 203.393 58.9938 202.665 59.5461C201.937 60.0984 201.084 60.4614 200.181 60.6024C197.115 61.0133 197.759 58.5051 198.758 57.2725V55.3836C197.997 55.5486 197.214 55.59 196.44 55.5063C196.042 55.402 195.097 54.2797 194.484 52.9735C193.797 51.5324 192.644 48.9751 193.674 44.6516C194.766 40.0093 199.752 39.8682 202.732 41.7386C205.713 43.6091 204.578 48.7911 204.578 48.7911Z" fill="#FFA8A7"/>
<path d="M204.578 49.3188C204.731 49.3188 205.338 48.3253 205.725 47.9696C206.27 47.4729 205.571 43.0022 205.571 43.0022C205.571 43.0022 206.117 41.3096 205.044 40.1812C203.971 39.0528 201.898 39.2491 200.377 39.1939C198.511 39.2033 196.662 38.8319 194.944 38.1023C192.785 37.164 192.625 37.0536 192.356 38.0042C192.086 38.9547 191.988 41.1195 193.276 42.5729L194.349 42.9716C194.349 42.9716 194.925 43.4806 196.937 43.7259C198.796 43.8671 200.665 43.8322 202.517 43.6216C203.1 43.5419 203.223 44.1061 203.535 45.6515C203.817 47.0129 204.044 49.3126 204.578 49.3188Z" fill="#263238"/>
<path d="M205.566 43.3517L207.467 42.3275C207.406 42.1999 207.32 42.0858 207.215 41.9923C207.109 41.8988 206.985 41.8278 206.851 41.7837C206.716 41.7395 206.575 41.7231 206.434 41.7354C206.293 41.7477 206.156 41.7885 206.032 41.8553C205.777 41.9969 205.586 42.2314 205.499 42.5101C205.412 42.7888 205.436 43.0902 205.566 43.3517Z" fill="#263238"/>
<path d="M198.758 55.3841C200.059 55.139 201.333 54.7736 202.566 54.2925C203.147 53.9921 203.622 53.5213 203.928 52.9434C203.78 53.5213 203.517 54.0636 203.155 54.5378C202.431 55.4577 198.758 56.1384 198.758 56.1384V55.3841Z" fill="#F28F8F"/>
<path d="M199.445 48.0863C199.442 48.162 199.455 48.2373 199.482 48.3079C199.51 48.3785 199.551 48.4429 199.603 48.4972C199.656 48.5516 199.719 48.5948 199.789 48.6243C199.858 48.6538 199.933 48.669 200.009 48.6689C200.133 48.6788 200.257 48.6505 200.365 48.588C200.473 48.5255 200.559 48.4316 200.612 48.3189C200.665 48.2062 200.683 48.08 200.662 47.9571C200.642 47.8342 200.585 47.7205 200.498 47.631C200.411 47.5415 200.299 47.4805 200.177 47.4562C200.055 47.4318 199.928 47.4453 199.814 47.4947C199.7 47.5442 199.603 47.6273 199.537 47.7329C199.471 47.8386 199.439 47.9619 199.445 48.0863Z" fill="#263238"/>
<path d="M200.04 45.9522L201.267 46.6206C201.352 46.4545 201.37 46.2621 201.317 46.0831C201.265 45.904 201.146 45.7518 200.984 45.6578C200.904 45.6116 200.815 45.5825 200.722 45.5724C200.63 45.5623 200.537 45.5713 200.448 45.5989C200.359 45.6266 200.277 45.6722 200.207 45.733C200.137 45.7938 200.08 45.8684 200.04 45.9522Z" fill="#263238"/>
<path d="M199.488 51.9199L198.194 52.4044C198.223 52.4904 198.269 52.5699 198.329 52.6381C198.389 52.7064 198.461 52.7621 198.543 52.802C198.625 52.8419 198.713 52.8653 198.804 52.8707C198.895 52.8762 198.985 52.8636 199.071 52.8337C199.244 52.7637 199.384 52.63 199.462 52.46C199.539 52.29 199.549 52.0967 199.488 51.9199Z" fill="#F28F8F"/>
<path d="M194.404 46.4239L195.502 45.5715C195.45 45.4972 195.384 45.4342 195.307 45.3864C195.23 45.3385 195.144 45.3067 195.055 45.2929C194.965 45.2792 194.874 45.2837 194.786 45.3063C194.699 45.3289 194.617 45.369 194.545 45.4243C194.397 45.5406 194.3 45.7095 194.274 45.8958C194.247 46.082 194.294 46.2712 194.404 46.4239Z" fill="#263238"/>
<path d="M194.741 47.9273C194.741 48.0014 194.756 48.0748 194.784 48.1432C194.813 48.2117 194.854 48.2739 194.906 48.3263C194.959 48.3787 195.021 48.4202 195.09 48.4486C195.158 48.4769 195.231 48.4915 195.305 48.4915C195.38 48.4915 195.453 48.4769 195.521 48.4486C195.59 48.4202 195.652 48.3787 195.704 48.3263C195.757 48.2739 195.798 48.2117 195.827 48.1432C195.855 48.0748 195.87 48.0014 195.87 47.9273C195.872 47.8517 195.859 47.7763 195.832 47.7058C195.805 47.6352 195.764 47.5708 195.711 47.5164C195.658 47.4621 195.595 47.4189 195.526 47.3894C195.456 47.3599 195.381 47.3447 195.305 47.3447C195.154 47.3479 195.009 47.4109 194.904 47.52C194.798 47.6291 194.74 47.7755 194.741 47.9273Z" fill="#263238"/>
<path d="M197.618 47.3867L197.434 50.7903L195.661 50.1832L197.618 47.3867Z" fill="#F28F8F"/>
<path d="M182.85 67.8691L197.311 71.6775L201.579 89.6275L187.83 85.6352L182.85 67.8691Z" fill="#ECEFF1"/>
<path d="M189.155 79.749C188.9 80.2033 188.515 80.5707 188.049 80.8036C187.583 81.0365 187.058 81.1242 186.542 81.0553L186.334 80.3132L189.155 79.749Z" fill="#ECEFF1"/>
<path d="M192.387 80.3135C192.448 80.7918 193.435 81.6749 195.097 82.2268C196.986 82.8401 199.887 82.5273 199.887 82.5273L199.629 81.632L192.387 80.3135Z" fill="#ECEFF1"/>
<path opacity="0.43" d="M187.107 70.4703L186.984 69.9184C186.923 69.6118 187.769 69.5995 188.885 69.8877L191.013 70.4397C192.129 70.734 193.08 71.2124 193.147 71.519L193.27 72.0709L187.107 70.4703Z" fill="#455A64"/>
<path d="M186.076 68.3911C186.04 68.201 186.383 68.1519 186.849 68.2807L187.72 68.5383C187.72 68.5383 187.469 67.3118 189.345 67.7594C189.846 67.8333 190.319 68.0353 190.719 68.3458C191.118 68.6563 191.431 69.0648 191.626 69.5318L192.528 69.7893C193.025 69.9304 193.472 70.1941 193.534 70.4026L193.638 70.746L186.187 68.7836L186.076 68.3911Z" fill="#37474F"/>
<path d="M187.106 68.9857C187.787 69.1513 188.069 69.2433 188.173 69.7093C188.278 70.1754 188.339 70.6415 188.339 70.6415L191.632 71.5123C191.632 71.5123 191.473 70.8316 191.424 70.5679C191.375 70.3042 191.485 70.1447 192.037 70.2797L192.08 70.0712L186.91 68.7588L187.106 68.9857Z" fill="#37474F"/>
<path d="M186.99 70.526L186.873 69.974C186.806 69.6674 187.652 69.6552 188.768 69.9434L190.896 70.4953C192.012 70.7836 192.969 71.2619 193.036 71.5685L193.153 72.1204L186.99 70.526Z" fill="#37474F"/>
<path d="M218.082 80.3133L213.225 76.5541C213.225 76.5541 203.045 78.4674 201.898 78.5594C200.752 78.6514 199.844 77.5169 199.408 76.3885C198.973 75.2601 198.09 75.4011 198.09 75.4011C198.09 75.4011 198.427 76.8362 198.538 77.29C198.648 77.7438 195.993 78.1179 194.466 77.6027C192.939 77.0876 190.725 77.8358 192.092 79.9209C193.46 82.0059 196.134 82.239 197.986 82.2451C198.761 82.2375 199.535 82.1842 200.304 82.0857C200.917 82.0121 201.53 81.9507 202.101 81.9078C205.891 81.638 216.359 80.853 218.082 80.3133Z" fill="#FFA8A7"/>
<path d="M184.316 73.1193L184.96 75.4068C185.082 75.8483 186.763 76.6333 187.83 76.9399C188.897 77.2466 190.056 77.5532 189.553 79.0679C189.087 80.4355 187.339 80.7483 186.45 80.7115C185.851 80.6103 185.292 80.3453 184.834 79.9459C184.376 79.5466 184.038 79.0283 183.856 78.4486C183.243 76.7008 183.574 74.8303 183.329 73.8062C183.083 72.7821 183.789 72.5122 184.316 73.1193Z" fill="#F28F8F"/>
<path d="M206.418 136.346V135.824C206.074 135.978 205.265 139.05 203.83 140.356C202.689 141.399 201.131 142.607 200.763 143.766C200.395 144.925 202.934 145.643 204.001 145.453C205.228 145.232 207.393 144.361 207.932 143.551C208.472 142.742 208.724 141.546 209.159 140.951C209.594 140.356 210.606 139.725 210.845 139.013C210.917 138.372 210.845 137.723 210.637 137.112C210.471 136.468 210.287 135.769 210.073 135.824C210.073 135.904 210.073 136.223 210.073 136.223C209.547 136.63 208.898 136.846 208.233 136.836C207.699 136.855 206.412 136.75 206.418 136.346Z" fill="#37474F"/>
<path d="M193.852 130.613C193.662 130.613 193.509 130.883 193.098 131.33C192.478 131.957 191.756 132.476 190.964 132.864C189.609 133.544 186.978 134.587 185.782 135.126C185.034 135.464 185.071 136.353 185.843 136.874C186.616 137.395 188.474 137.757 190.706 137.254C191.933 136.985 193.509 135.862 194.509 135.918C195.508 135.973 197.385 135.967 198.127 135.458C198.869 134.949 198.568 133.857 198.36 132.919C198.151 131.98 197.808 130.337 197.471 130.404V130.729C197.035 131.386 194.815 131.655 193.859 131.171L193.852 130.613Z" fill="#37474F"/>
<path d="M37.0484 128.411L39.3113 131.557C38.2797 132.033 37.1543 132.272 36.0181 132.256C33.9944 132.335 33.4363 131.642 33.3627 131.508C33.0193 130.778 33.5528 129.453 33.7 128.312L37.0484 128.411Z" fill="#37474F"/>
<path d="M33.3625 125.246C33.3625 125.246 33.706 128.104 33.7305 128.717C33.755 129.331 36.5208 129.533 37.0482 128.411L37.1279 124.915L33.3625 125.246Z" fill="#F28F8F"/>
<path d="M33.3625 68.9424C31.4737 71.886 29.6829 74.4617 29.2905 77.7856C28.481 84.7706 31.1302 92.7552 31.7006 97.9188C30.6282 99.3922 30.0081 101.146 29.916 102.966C29.916 105.1 33.3625 125.246 33.3625 125.246C33.3625 125.246 35.8646 126.012 37.1279 124.914L39.4951 87.8552L38.2685 83.3417L33.3625 68.9424Z" fill="#ECEFF1"/>
<path opacity="0.5" d="M33.3625 68.9424C31.4737 71.886 29.6829 74.4617 29.2905 77.7856C28.481 84.7706 31.1302 92.7552 31.7006 97.9188C30.6282 99.3922 30.0081 101.146 29.916 102.966C29.916 105.1 33.3625 125.246 33.3625 125.246C33.3625 125.246 35.8646 126.012 37.1279 124.914L39.4951 87.8552L38.2685 83.3417L33.3625 68.9424Z" fill="white"/>
<path d="M50.822 55.1387L63.2772 61.1179L55.8016 77.9273L44.1865 71.2244L50.822 55.1387Z" fill="#ECEFF1"/>
<path d="M61.8115 61.4245L55.36 75.7502L46.4187 70.5988L51.4903 56.5L61.8115 61.4245Z" fill="#ECEFF1"/>
<path d="M51.4906 56.5L61.8117 61.4245L54.8451 75.9035L45.082 70.329L51.4906 56.5Z" fill="white"/>
<path d="M53.7349 58.5729L53.974 58.0578C54.109 57.7757 54.9614 57.8922 55.8813 58.3276L57.6413 59.1616C58.5612 59.5909 59.1929 60.1796 59.0641 60.4617L58.8188 60.9769L53.7349 58.5729Z" fill="#E0E0E0"/>
<path d="M29.1372 61.1787C28.2296 63.7667 26.4327 67.8755 27.0092 68.7034C27.5857 69.5313 31.0444 69.3534 32.9701 69.2799C35.4231 69.1879 37.4591 69.0897 37.4591 69.0897L37.0482 64.7969H33.5649L35.0981 60.4551L29.1372 61.1787Z" fill="#F28F8F"/>
<path d="M32.6266 51.9795C31.3571 54.0646 28.7937 61.4237 28.7937 61.4237C29.5059 62.2314 30.4506 62.7991 31.4982 63.0488C32.413 63.3295 33.3852 63.3676 34.3192 63.1592L37.1524 56.1067L32.6266 51.9795Z" fill="#ECEFF1"/>
<path opacity="0.4" d="M32.6266 51.9795C31.3571 54.0646 28.7937 61.4237 28.7937 61.4237C29.5059 62.2314 30.4506 62.7991 31.4982 63.0488C32.413 63.3295 33.3852 63.3676 34.3192 63.1592L37.1524 56.1067L32.6266 51.9795Z" fill="black"/>
<path d="M45.3025 53.293C47.5286 53.9614 48.8839 54.0779 51.3431 57.8617C53.8022 61.6455 59.1866 69.1518 59.7202 70.0533C60.4622 71.2798 60.7811 72.8007 60.1433 73.9536C59.5055 75.1065 57.8068 74.5669 55.3661 72.4143C52.9253 70.2618 48.3259 64.491 48.3259 64.491C48.3259 64.491 43.5302 59.0883 45.3025 53.293Z" fill="#FFA8A7"/>
<path d="M43.5243 48.3855L42.9233 53.7024L37.6738 54.3096L38.4343 47.251L43.5243 48.3855Z" fill="#FFA8A7"/>
<path d="M32.2957 40.6158C32.7311 35.7097 35.3619 33.6799 37.4532 33.1954C41.6049 32.2142 45.309 33.7228 46.9893 36.6358C47.4309 37.4023 48.1729 40.2724 46.6949 41.965C45.217 43.6576 32.2957 40.6158 32.2957 40.6158Z" fill="#263238"/>
<path d="M47.4002 42.3457C47.4002 42.3457 48.4918 44.1855 48.3262 44.394C48.036 44.5626 47.7184 44.6788 47.3879 44.7374L47.4002 42.3457Z" fill="#F28F8F"/>
<path d="M44.0885 36.4272C45.2169 37.0956 47.1548 38.316 47.4185 42.6088C47.6944 47.0181 46.8543 48.3734 46.192 48.9131C45.7688 49.281 43.5979 49.1584 42.5124 48.7598C41.1816 48.2569 38.2196 46.8893 36.944 44.5467C35.4722 41.7932 35.3434 38.2301 37.2936 36.9484C38.2879 36.2896 39.434 35.8959 40.6233 35.8047C41.8125 35.7134 43.0053 35.9277 44.0885 36.4272Z" fill="#FFA8A7"/>
<path d="M44.4197 36.6478C44.4197 36.6478 45.1986 40.7014 43.8494 43.1545C43.8494 43.1545 43.2362 41.5539 41.8625 41.928C40.4888 42.302 40.5072 44.105 41.519 45.0862C41.7754 45.3654 42.1054 45.5665 42.471 45.6664C42.8367 45.7662 43.2231 45.7607 43.5857 45.6504C43.395 46.913 42.8063 48.0817 41.9054 48.9866C40.4752 49.3174 38.9806 49.2374 37.5939 48.7556C36.2072 48.2739 34.9849 47.41 34.0679 46.2637C31.0017 42.6209 31.805 36.4516 36.6682 35.1269C41.5313 33.8023 44.4197 36.6478 44.4197 36.6478Z" fill="#263238"/>
<path d="M39.1822 130.047C39.1822 130.047 41.9296 129.869 43.8246 129.63C45.7195 129.391 47.222 130.317 46.7743 131.102C46.3267 131.887 45.2841 132.531 43.659 133.077C42.2669 133.549 40.5927 133.886 39.1454 134.303C37.6981 134.72 36.6924 135.26 35.8522 134.972C34.9139 134.647 34.5092 134.273 34.5889 133.586C34.7937 132.609 35.0475 131.643 35.3494 130.691L39.1822 130.047Z" fill="#37474F"/>
<path d="M36.1463 127.006L35.159 131.342C35.159 131.342 35.067 131.869 37.3238 132.206C39.5806 132.544 43.1252 131.029 43.7323 130.716C44.3394 130.403 44.4069 129.796 42.1869 129.919C39.9669 130.041 39.1819 130.048 39.1819 130.048L39.924 128.122L36.1463 127.006Z" fill="#FFA8A7"/>
<path d="M39.4953 87.8556L38.2688 83.342C35.9204 82.7238 33.6553 81.824 31.5229 80.6621C31.5229 80.6621 32.7985 82.9864 36.429 84.2558L38.3362 90.0572L38.5018 103.328L39.4953 87.8556Z" fill="#ECEFF1"/>
<path d="M33.3625 68.9424C32.3506 70.592 29.9344 73.4192 30.4434 76.1298C31.0566 79.423 32.8412 81.7288 38.2501 83.3417L43.3279 101.739C43.3279 101.739 40.6848 104.192 39.8753 106.566C39.0658 108.939 36.1467 127.024 36.1467 127.024C36.1467 127.024 37.0482 128.496 39.8998 128.14C39.8998 128.14 49.8407 105.45 50.546 103.972C51.3874 102.484 51.6844 100.749 51.3861 99.0656C51.0734 96.68 47.7066 70.635 47.7066 70.635L33.3625 68.9424Z" fill="#ECEFF1"/>
<path opacity="0.5" d="M33.3625 68.9424C32.3506 70.592 29.9344 73.4192 30.4434 76.1298C31.0566 79.423 32.8412 81.7288 38.2501 83.3417L43.3279 101.739C43.3279 101.739 40.6848 104.192 39.8753 106.566C39.0658 108.939 36.1467 127.024 36.1467 127.024C36.1467 127.024 37.0482 128.496 39.8998 128.14C39.8998 128.14 49.8407 105.45 50.546 103.972C51.3874 102.484 51.6844 100.749 51.3861 99.0656C51.0734 96.68 47.7066 70.635 47.7066 70.635L33.3625 68.9424Z" fill="white"/>
<path d="M32.4429 52.3595C32.8354 51.3169 34.0864 50.4461 35.2148 50.7527C38.7533 51.7156 44.2542 52.985 45.3029 53.2916C45.3029 53.2916 44.8368 61.264 48.9088 63.6434C48.7187 65.1582 47.6823 70.5916 47.6823 70.5916C47.6823 70.5916 42.7763 72.9711 38.7533 71.8181C34.7303 70.6652 33.3628 68.9604 33.3628 68.9604L35.3804 65.6733C34.9511 64.6001 33.283 60.9757 32.2098 57.6028C31.8152 55.8658 31.8957 54.0546 32.4429 52.3595Z" fill="#ECEFF1"/>
<path opacity="0.2" d="M32.4429 52.3595C32.8354 51.3169 34.0864 50.4461 35.2148 50.7527C38.7533 51.7156 44.2542 52.985 45.3029 53.2916C45.3029 53.2916 44.8368 61.264 48.9088 63.6434C48.7187 65.1582 47.6823 70.5916 47.6823 70.5916C47.6823 70.5916 42.7763 72.9711 38.7533 71.8181C34.7303 70.6652 33.3628 68.9604 33.3628 68.9604L35.3804 65.6733C34.9511 64.6001 33.283 60.9757 32.2098 57.6028C31.8152 55.8658 31.8957 54.0546 32.4429 52.3595Z" fill="black"/>
<path opacity="0.25" d="M34.8284 64.3613C36.5054 65.37 38.2633 66.2377 40.084 66.9554C38.4319 66.9235 36.8143 66.4764 35.3803 65.6553L34.8284 64.3613Z" fill="#ECEFF1"/>
<path d="M35.8706 34.2876C35.8706 34.2876 34.1903 31.4237 30.0754 32.1657C25.9604 32.9078 24.2923 37.2742 24.3537 40.04C24.415 42.8058 25.341 44.7375 22.8635 48.0123C22.3751 48.6581 22.031 49.4012 21.8544 50.1913C21.6777 50.9815 21.6727 51.8003 21.8395 52.5926C22.0063 53.3849 22.3412 54.1321 22.8214 54.784C23.3017 55.4358 23.9162 55.977 24.6235 56.371C27.929 58.2108 28.7323 55.0096 27.9658 52.2745C27.0827 49.1407 30.3636 48.5949 31.2406 46.2216C32.1175 43.8483 30.3943 38.8625 31.4981 37.1699C32.7246 35.3302 34.3804 35.5877 35.1777 36.2132L35.8706 34.2876Z" fill="#263238"/>
<path d="M45.3025 53.293C46.4023 53.5267 47.4765 53.8676 48.5098 54.311C49.859 54.9733 55.1207 63.2339 55.1207 63.2339C55.1207 63.2339 54.7467 66.3431 50.4416 67.5757L47.8966 64.3623C47.8966 64.3623 44.1557 58.7755 45.3025 53.293Z" fill="#ECEFF1"/>
<path opacity="0.1" d="M45.3025 53.293C46.4023 53.5267 47.4765 53.8676 48.5098 54.311C49.859 54.9733 55.1207 63.2339 55.1207 63.2339C55.1207 63.2339 54.7467 66.3431 50.4416 67.5757L47.8966 64.3623C47.8966 64.3623 44.1557 58.7755 45.3025 53.293Z" fill="black"/>
<path d="M48.6449 65.3304C47.5142 64.0143 46.661 62.4832 46.1367 60.8291C46.1367 60.8291 46.1367 64.3983 48.4855 66.2442L48.6449 65.3304Z" fill="#ECEFF1"/>
<path opacity="0.4" d="M48.6449 65.3304C47.5142 64.0143 46.661 62.4832 46.1367 60.8291C46.1367 60.8291 46.1367 64.3983 48.4855 66.2442L48.6449 65.3304Z" fill="black"/>
<path d="M54.1824 56.3516C54.2621 56.1738 54.6362 56.186 55.0164 56.3516L55.7033 56.6889C55.7033 56.6889 56.2368 55.5789 57.8313 56.2473C59.4257 56.9158 58.9351 58.1975 58.9351 58.1975L59.6649 58.5716C60.0697 58.774 60.3395 59.0867 60.2782 59.2707L60.1555 59.5957L54.0229 56.6521L54.1824 56.3516Z" fill="#455A64"/>
<path d="M54.8083 57.0507C55.3848 57.3083 55.6056 57.4309 55.4216 57.8725C55.2376 58.314 54.9739 58.7372 54.9739 58.7372L57.6845 60.0373C57.6845 60.0373 57.9727 59.424 58.0954 59.1542C58.218 58.8843 58.4388 58.7801 58.8681 58.9886L59.0521 58.8046L54.7593 56.8115L54.8083 57.0507Z" fill="#455A64"/>
<path d="M53.686 58.4193L53.9313 57.9042C54.0663 57.616 54.9187 57.7386 55.8386 58.174L57.5986 59.0081C58.5124 59.4374 59.1502 60.02 59.0152 60.3082L58.7699 60.8233L53.686 58.4193Z" fill="#455A64"/>
</svg>
