<svg width="743" height="554" viewBox="0 0 743 554" fill="none" xmlns="http://www.w3.org/2000/svg">
<path d="M108.809 494.179C253.871 569.97 489.09 569.97 634.185 494.179C779.28 418.389 779.264 295.509 634.185 219.719C489.107 143.929 253.904 143.929 108.809 219.719C-36.2858 295.509 -36.2534 418.454 108.809 494.179Z" fill="#ECECEC"/>
<path d="M100.571 367.392C121.151 367.392 137.834 359.442 137.834 349.636C137.834 339.83 121.151 331.88 100.571 331.88C79.9918 331.88 63.3087 339.83 63.3087 349.636C63.3087 359.442 79.9918 367.392 100.571 367.392Z" fill="#CCCCCC"/>
<path d="M525.802 391.099C553.268 391.099 575.534 380.485 575.534 367.392C575.534 354.299 553.268 343.685 525.802 343.685C498.335 343.685 476.07 354.299 476.07 367.392C476.07 380.485 498.335 391.099 525.802 391.099Z" fill="#CCCCCC"/>
<path d="M674.48 269.857C674.48 269.857 678.323 257.987 690.825 245.339C696.338 239.761 699.938 235.869 698.787 232.545C697.749 229.61 694.247 228.086 689.236 230.454C682.118 233.826 677.318 240.085 674.48 252.652V269.857Z" fill="#12A8FC"/>
<path opacity="0.1" d="M674.48 269.857C674.48 269.857 678.323 257.987 690.825 245.339C696.338 239.761 699.938 235.869 698.787 232.545C697.749 229.61 694.247 228.086 689.236 230.454C682.118 233.826 677.318 240.085 674.48 252.652V269.857Z" fill="black"/>
<path d="M673.686 262.398H673.54C673.383 262.356 673.25 262.254 673.168 262.115C673.086 261.975 673.062 261.809 673.102 261.652C677.561 244.431 689.09 233.761 693.971 231.297C694.118 231.228 694.286 231.218 694.44 231.269C694.593 231.321 694.722 231.429 694.798 231.572C694.866 231.717 694.875 231.882 694.824 232.034C694.773 232.185 694.664 232.31 694.522 232.383C689.804 234.767 678.631 245.145 674.286 261.96C674.247 262.088 674.167 262.2 674.059 262.279C673.951 262.358 673.82 262.4 673.686 262.398Z" fill="white"/>
<path d="M674.48 284.597C674.48 284.597 679.815 274.138 686.252 268.576C692.69 263.014 700.96 257.339 693.955 252.993C686.95 248.647 675.421 257.176 674.496 265.592L674.48 284.597Z" fill="#12A8FC"/>
<path d="M673.686 277.154H673.556C673.4 277.115 673.265 277.017 673.181 276.881C673.096 276.745 673.068 276.581 673.102 276.424C676.134 263.452 687.015 256.122 690.631 254.906C690.78 254.875 690.935 254.901 691.066 254.977C691.198 255.054 691.296 255.177 691.343 255.322C691.389 255.467 691.38 255.624 691.317 255.763C691.255 255.902 691.143 256.013 691.004 256.074C687.761 257.176 677.156 264.392 674.286 276.7C674.25 276.831 674.171 276.947 674.063 277.029C673.954 277.111 673.822 277.155 673.686 277.154Z" fill="white"/>
<path d="M200.247 389.72C200.247 389.72 197.782 384.24 187.486 381.921C177.465 379.667 172.486 381.921 165.725 380.753C158.963 379.586 160.73 366.954 178.924 368.268C195.577 369.467 200.247 382.569 200.247 382.569V389.72Z" fill="#12A8FC"/>
<path d="M201.236 386.704C201.118 386.701 201.003 386.665 200.906 386.599C200.808 386.533 200.731 386.44 200.685 386.331C199.063 382.456 193.064 376.132 184.615 374.202C174.124 371.819 168.546 374.202 168.497 374.202C168.352 374.251 168.194 374.244 168.054 374.183C167.913 374.122 167.801 374.011 167.738 373.871C167.676 373.731 167.667 373.573 167.714 373.428C167.762 373.282 167.862 373.159 167.995 373.083C168.238 372.986 174.011 370.473 184.875 372.954C194.263 375.094 200.247 381.969 201.804 385.813C201.835 385.886 201.852 385.965 201.853 386.045C201.854 386.125 201.839 386.204 201.809 386.278C201.778 386.352 201.734 386.419 201.677 386.476C201.621 386.532 201.553 386.577 201.479 386.607L201.236 386.704Z" fill="white"/>
<path d="M200.247 383.478C198.194 379.802 195.567 376.479 192.464 373.635C182.734 364.197 169.762 361.23 163.276 356.074C156.141 350.512 164.784 344.09 173.962 344.496C179.216 344.739 184.761 348.209 187.81 350.706C198.544 359.479 200.312 373.635 200.312 373.635L200.247 383.478Z" fill="#12A8FC"/>
<path opacity="0.5" d="M200.247 383.478C198.194 379.802 195.567 376.479 192.464 373.635C182.734 364.197 169.762 361.23 163.276 356.074C156.141 350.512 164.784 344.09 173.962 344.496C179.216 344.739 184.761 348.209 187.81 350.706C198.544 359.479 200.312 373.635 200.312 373.635L200.247 383.478Z" fill="white"/>
<path d="M201.236 382.521C201.091 382.519 200.951 382.466 200.841 382.371C200.732 382.276 200.659 382.145 200.636 382.002C199.358 375.185 196.266 368.838 191.685 363.63C184.032 354.922 170.946 350.252 170.8 350.204C170.652 350.149 170.531 350.039 170.461 349.897C170.392 349.755 170.38 349.592 170.427 349.441C170.452 349.365 170.493 349.295 170.546 349.234C170.599 349.174 170.664 349.125 170.737 349.09C170.81 349.055 170.888 349.035 170.969 349.032C171.049 349.028 171.13 349.041 171.205 349.069C171.757 349.247 184.729 353.933 192.593 362.819C197.363 368.192 200.565 374.771 201.852 381.84C201.864 381.92 201.859 382.001 201.838 382.08C201.817 382.158 201.78 382.231 201.73 382.294C201.68 382.358 201.618 382.411 201.547 382.45C201.476 382.489 201.398 382.513 201.317 382.521H201.236Z" fill="white"/>
<path d="M422.786 484.256C422.786 484.256 425.543 478.905 435.953 477.137C446.071 475.418 450.92 477.867 457.746 477.137C464.573 476.407 463.47 463.613 445.228 463.954C428.542 464.262 423.175 477.088 423.175 477.088L422.786 484.256Z" fill="#12A8FC"/>
<path opacity="0.1" d="M422.786 484.256C422.786 484.256 425.543 478.905 435.953 477.137C446.071 475.418 450.92 477.867 457.746 477.137C464.573 476.407 463.47 463.613 445.228 463.954C428.542 464.262 423.175 477.088 423.175 477.088L422.786 484.256Z" fill="black"/>
<path d="M421.991 481.694C421.865 481.688 421.741 481.649 421.635 481.58C421.569 481.535 421.513 481.477 421.471 481.41C421.428 481.343 421.399 481.268 421.385 481.189C421.371 481.111 421.374 481.03 421.391 480.953C421.409 480.875 421.442 480.802 421.489 480.737C425.364 475.191 432.418 471.008 440.38 469.613C450.612 467.781 456.595 471.024 456.854 471.235C456.924 471.273 456.985 471.325 457.034 471.387C457.083 471.448 457.12 471.519 457.142 471.596C457.163 471.672 457.17 471.751 457.161 471.83C457.152 471.908 457.128 471.984 457.09 472.054C457.051 472.123 457 472.184 456.938 472.233C456.876 472.282 456.805 472.319 456.729 472.341C456.653 472.363 456.573 472.369 456.495 472.36C456.416 472.351 456.34 472.327 456.271 472.289C456.271 472.289 450.384 469.127 440.59 470.878C432.953 472.24 426.175 476.213 422.494 481.499C422.429 481.566 422.351 481.617 422.264 481.651C422.177 481.685 422.084 481.699 421.991 481.694Z" fill="white"/>
<path d="M423.516 476.748C425.87 473.786 428.546 471.094 431.494 468.721C441.758 459.835 454.746 458.392 461.622 453.592C469.048 448.42 460.762 441.545 451.568 441.463C446.314 441.463 440.59 444.593 437.396 446.928C430.589 452.028 425.498 459.081 422.802 467.148L423.516 476.748Z" fill="#12A8FC"/>
<path opacity="0.5" d="M423.516 476.748C425.87 473.786 428.546 471.094 431.494 468.721C441.758 459.835 454.746 458.392 461.622 453.592C469.048 448.42 460.762 441.545 451.568 441.463C446.314 441.463 440.59 444.593 437.396 446.928C430.589 452.028 425.498 459.081 422.802 467.148L423.516 476.748Z" fill="white"/>
<path d="M421.991 476.618H421.764C421.616 476.563 421.493 476.454 421.421 476.313C421.349 476.172 421.333 476.009 421.375 475.856C423.91 468.896 427.914 462.563 433.115 457.29C438.757 451.471 446.086 447.574 454.065 446.15C454.143 446.138 454.223 446.143 454.299 446.163C454.375 446.183 454.446 446.219 454.508 446.267C454.571 446.316 454.622 446.376 454.66 446.445C454.698 446.514 454.722 446.59 454.73 446.669C454.741 446.749 454.736 446.83 454.715 446.908C454.694 446.986 454.658 447.06 454.608 447.123C454.558 447.187 454.495 447.24 454.425 447.279C454.354 447.317 454.275 447.342 454.195 447.35C446.513 448.807 439.458 452.575 433.974 458.149C428.937 463.278 425.065 469.434 422.624 476.197C422.581 476.327 422.495 476.44 422.38 476.517C422.266 476.593 422.129 476.629 421.991 476.618Z" fill="white"/>
<path d="M266.097 391.082V268.576H200.247V391.099C200.247 395.963 203.49 400.828 209.976 404.525C222.835 411.952 243.688 411.952 256.547 404.525C263.033 400.812 266.178 395.963 266.195 391.099L266.097 391.082Z" fill="#37474F"/>
<path d="M209.895 282.845C197.02 275.419 197.02 263.387 209.895 255.944C222.77 248.501 243.607 248.517 256.466 255.944C269.324 263.371 269.324 275.402 256.466 282.845C243.607 290.288 222.754 290.256 209.895 282.845Z" fill="#455A64"/>
<path d="M345.147 436.729V347.544H279.281V436.729C279.281 441.593 282.524 446.458 289.01 450.155C301.868 457.582 322.721 457.582 335.58 450.155C342.066 446.458 345.228 441.593 345.228 436.729H345.147Z" fill="#37474F"/>
<path d="M288.929 361.83C276.07 354.403 276.07 342.372 288.929 334.929C301.787 327.486 322.64 327.502 335.499 334.929C348.358 342.355 348.374 354.387 335.499 361.83C322.624 369.273 301.771 369.322 288.929 361.83Z" fill="#455A64"/>
<path d="M424.197 482.358V413.103H358.33V482.375C358.33 487.239 361.573 492.104 368.059 495.817C380.918 503.244 401.771 503.244 414.63 495.817C421.116 492.104 424.262 487.239 424.278 482.375L424.197 482.358Z" fill="#37474F"/>
<path d="M391.263 432.918C409.452 432.918 424.197 424.402 424.197 413.897C424.197 403.393 409.452 394.877 391.263 394.877C373.075 394.877 358.33 403.393 358.33 413.897C358.33 424.402 373.075 432.918 391.263 432.918Z" fill="#455A64"/>
<path d="M196.031 434.28L180.481 425.313L189.091 414.157C190.193 412.73 189.675 411.952 187.94 412.389L167.314 417.708L151.763 408.725C150.457 408.061 149.012 407.715 147.547 407.715C146.082 407.715 144.637 408.061 143.331 408.725L118.83 422.832C116.495 424.178 116.495 426.351 118.83 427.697L163.098 453.252C164.404 453.916 165.848 454.262 167.314 454.262C168.779 454.262 170.223 453.916 171.53 453.252L196.031 439.096C198.35 437.799 198.35 435.626 196.031 434.28Z" fill="#12A8FC"/>
<path d="M171.157 428.783C171.41 428.758 171.665 428.758 171.919 428.783C172.171 428.815 172.414 428.897 172.632 429.026L174.854 430.307C175.004 430.38 175.12 430.508 175.178 430.664C175.178 430.794 175.178 430.907 174.951 430.988C174.898 431.003 174.842 431.003 174.789 430.988C174.709 431.007 174.626 431.007 174.546 430.988L143.737 433.421H142.861C142.608 433.383 142.366 433.294 142.148 433.161L139.926 431.88C139.776 431.807 139.66 431.68 139.602 431.523C139.602 431.394 139.602 431.28 139.829 431.199C139.882 431.185 139.938 431.185 139.991 431.199H140.234L171.157 428.783ZM161.233 426.724C160.574 427.164 159.886 427.559 159.174 427.907C158.599 428.2 157.996 428.433 157.374 428.605C156.722 428.769 156.052 428.851 155.379 428.848C153.878 428.851 152.405 428.448 151.115 427.68C150.499 427.379 149.948 426.96 149.493 426.448C149.198 426.111 149.031 425.68 149.023 425.232C149.029 424.809 149.184 424.401 149.461 424.081C149.783 423.662 150.179 423.305 150.628 423.027C150.936 422.804 151.255 422.598 151.585 422.41C151.893 422.232 152.266 422.037 152.671 421.843C153.255 421.549 153.87 421.321 154.504 421.162C155.851 420.827 157.259 420.827 158.606 421.162C159.355 421.365 160.075 421.665 160.747 422.054C161.332 422.359 161.85 422.778 162.271 423.286C162.57 423.622 162.742 424.053 162.757 424.502C162.736 424.923 162.583 425.326 162.319 425.653C162.022 426.071 161.655 426.433 161.233 426.724ZM164.298 439.404C163.67 439.873 163.009 440.296 162.319 440.669C161.74 440.96 161.131 441.188 160.503 441.35C159.854 441.529 159.182 441.616 158.509 441.609C157.791 441.607 157.077 441.508 156.385 441.317C155.634 441.127 154.913 440.832 154.244 440.442C153.666 440.127 153.149 439.709 152.72 439.21C152.421 438.868 152.254 438.431 152.25 437.977C152.263 437.558 152.41 437.154 152.671 436.826C153.001 436.413 153.402 436.061 153.855 435.788C154.156 435.556 154.476 435.35 154.812 435.172C155.161 434.959 155.524 434.77 155.898 434.604C156.476 434.311 157.085 434.082 157.714 433.923C158.367 433.763 159.036 433.676 159.709 433.664C161.204 433.663 162.672 434.067 163.957 434.831C164.576 435.128 165.127 435.547 165.579 436.064C165.865 436.392 166.023 436.812 166.023 437.247C166.023 437.683 165.865 438.103 165.579 438.431C165.21 438.826 164.777 439.155 164.298 439.404ZM153.969 424.81C153.646 424.993 153.382 425.262 153.206 425.589C153.206 425.816 153.206 426.043 153.677 426.27C154.027 426.482 154.436 426.579 154.844 426.545C155.315 426.471 155.77 426.317 156.19 426.091C156.805 425.797 157.395 425.455 157.958 425.07C158.288 424.892 158.558 424.621 158.736 424.291C158.736 424.064 158.655 423.837 158.266 423.61C157.91 423.396 157.494 423.304 157.082 423.351C156.616 423.417 156.166 423.565 155.752 423.789C155.133 424.059 154.536 424.379 153.969 424.745V424.81ZM157.049 437.491C156.719 437.668 156.449 437.939 156.271 438.269C156.271 438.48 156.271 438.707 156.741 438.934C157.092 439.16 157.51 439.258 157.925 439.21C158.389 439.136 158.838 438.988 159.255 438.772C159.876 438.481 160.473 438.139 161.038 437.75C161.365 437.573 161.63 437.302 161.801 436.972C161.801 436.745 161.801 436.518 161.33 436.291C160.98 436.078 160.571 435.982 160.163 436.015C159.696 436.088 159.246 436.241 158.833 436.469C158.214 436.739 157.617 437.059 157.049 437.426V437.491Z" fill="white"/>
<path d="M281.68 483.704L266.097 474.721L274.708 463.581C275.794 462.154 275.275 461.36 273.54 461.814L252.914 467.116L237.364 458.149C236.061 457.485 234.619 457.14 233.156 457.14C231.693 457.14 230.252 457.485 228.948 458.149L204.479 472.289C202.16 473.635 202.16 475.824 204.479 477.153L248.747 502.725C250.056 503.381 251.499 503.723 252.963 503.723C254.427 503.723 255.871 503.381 257.179 502.725L281.68 488.569C284.015 487.223 284.015 485.05 281.68 483.704Z" fill="#12A8FC"/>
<path d="M256.806 478.207H257.584C257.837 478.248 258.079 478.336 258.298 478.467L260.503 479.748C260.698 479.861 260.811 479.975 260.827 480.105C260.844 480.234 260.827 480.332 260.617 480.429C260.563 480.441 260.508 480.441 260.454 480.429H260.211L229.402 482.861C229.143 482.886 228.883 482.886 228.624 482.861C228.37 482.825 228.127 482.737 227.91 482.602L225.705 481.337C225.51 481.223 225.397 481.094 225.381 480.98C225.375 480.908 225.393 480.837 225.431 480.776C225.469 480.714 225.525 480.667 225.592 480.64H225.754H225.997L256.806 478.207ZM246.882 476.148C246.231 476.592 245.548 476.987 244.839 477.332C244.26 477.623 243.651 477.851 243.023 478.013C242.373 478.191 241.702 478.278 241.029 478.272C240.311 478.269 239.596 478.171 238.904 477.98C238.153 477.79 237.433 477.495 236.764 477.105C236.181 476.789 235.659 476.372 235.223 475.872C234.929 475.545 234.767 475.121 234.767 474.681C234.767 474.241 234.929 473.816 235.223 473.489C235.551 473.079 235.946 472.729 236.391 472.451C236.697 472.226 237.017 472.021 237.348 471.835C237.705 471.626 238.073 471.436 238.45 471.267C239.028 470.973 239.638 470.745 240.266 470.586C241.316 470.319 242.407 470.262 243.478 470.418C244.55 470.573 245.58 470.939 246.509 471.494C247.096 471.804 247.618 472.222 248.05 472.727C248.348 473.062 248.515 473.494 248.52 473.943C248.507 474.365 248.353 474.77 248.082 475.094C247.75 475.516 247.343 475.873 246.882 476.148ZM249.963 488.828C249.305 489.27 248.617 489.665 247.904 490.012C247.331 490.306 246.728 490.534 246.104 490.693C245.452 490.858 244.782 490.939 244.109 490.936C242.609 490.94 241.135 490.536 239.845 489.769C239.26 489.464 238.737 489.051 238.304 488.553C238.005 488.211 237.838 487.774 237.834 487.32C237.853 486.9 238.006 486.496 238.272 486.169C238.599 485.754 238.994 485.398 239.439 485.115C239.764 484.888 240.088 484.693 240.396 484.499C240.704 484.304 241.077 484.126 241.483 483.931C242.066 483.637 242.681 483.409 243.315 483.25C243.97 483.102 244.638 483.02 245.309 483.007C246.021 483.005 246.73 483.098 247.417 483.283C248.17 483.476 248.891 483.776 249.558 484.175C250.144 484.485 250.667 484.903 251.098 485.407C251.391 485.732 251.553 486.153 251.553 486.591C251.553 487.028 251.391 487.45 251.098 487.774C250.781 488.186 250.397 488.542 249.963 488.828ZM239.634 474.235C239.304 474.412 239.033 474.683 238.856 475.013C238.856 475.224 238.937 475.451 239.326 475.678C239.677 475.904 240.095 476.002 240.51 475.953C240.973 475.878 241.422 475.73 241.839 475.516C242.465 475.225 243.062 474.878 243.623 474.478C243.947 474.305 244.212 474.04 244.385 473.716C244.385 473.489 244.304 473.262 243.915 473.035C243.568 472.814 243.156 472.717 242.747 472.759C242.276 472.831 241.82 472.985 241.402 473.213C240.787 473.483 240.196 473.803 239.634 474.17V474.235ZM242.699 486.915C242.382 487.097 242.118 487.36 241.937 487.677C241.937 487.904 242.018 488.131 242.407 488.358C242.754 488.578 243.165 488.675 243.574 488.634C244.043 488.561 244.498 488.413 244.92 488.196C245.534 487.893 246.125 487.547 246.688 487.158C247.012 486.981 247.282 486.717 247.466 486.396C247.547 486.169 247.466 485.942 246.996 485.715C246.642 485.496 246.226 485.399 245.812 485.439C245.349 485.515 244.9 485.663 244.482 485.877C243.867 486.162 243.272 486.487 242.699 486.85V486.915Z" fill="white"/>
<path d="M367.265 533.096L351.714 524.129L360.341 512.957C361.427 511.546 360.908 510.751 359.173 511.205L338.548 516.508L322.997 507.541C321.691 506.877 320.246 506.531 318.781 506.531C317.316 506.531 315.871 506.877 314.565 507.541L290.064 521.745C287.745 523.091 287.745 525.28 290.064 526.61L334.332 552.182C335.64 552.838 337.084 553.179 338.548 553.179C340.011 553.179 341.455 552.838 342.764 552.182L367.265 537.961C369.6 536.664 369.6 534.491 367.265 533.096Z" fill="#12A8FC"/>
<path d="M342.391 527.648H343.153C343.405 527.686 343.648 527.774 343.866 527.907L346.088 529.188C346.282 529.302 346.396 529.415 346.412 529.545C346.428 529.675 346.412 529.772 346.201 529.869H346.039H345.796L314.987 532.302C314.733 532.326 314.478 532.326 314.225 532.302C313.971 532.268 313.727 532.18 313.511 532.042L311.306 530.777C311.111 530.664 310.998 530.534 310.981 530.421C310.976 530.349 310.994 530.277 311.032 530.216C311.069 530.155 311.126 530.107 311.192 530.08H311.354C311.434 530.061 311.518 530.061 311.598 530.08L342.391 527.648ZM332.467 525.588C331.812 526.036 331.123 526.431 330.407 526.772C329.835 527.066 329.231 527.294 328.608 527.453C327.958 527.631 327.287 527.718 326.613 527.713C325.89 527.709 325.17 527.611 324.473 527.421C323.727 527.231 323.011 526.936 322.348 526.545C321.765 526.23 321.244 525.812 320.808 525.313C320.509 524.971 320.342 524.534 320.338 524.08C320.356 523.66 320.51 523.256 320.776 522.929C321.107 522.519 321.501 522.163 321.943 521.875C322.267 521.648 322.592 521.454 322.9 521.275C323.208 521.097 323.581 520.902 323.986 520.691C325.179 520.107 326.485 519.792 327.813 519.767C329.308 519.772 330.774 520.175 332.061 520.935C332.648 521.245 333.171 521.663 333.602 522.167C333.895 522.506 334.061 522.936 334.072 523.383C334.051 523.804 333.898 524.206 333.634 524.534C333.312 524.953 332.916 525.31 332.467 525.588ZM335.531 538.269C334.876 538.706 334.194 539.102 333.488 539.453C332.915 539.744 332.311 539.972 331.688 540.134C330.332 540.479 328.91 540.479 327.554 540.134C326.807 539.937 326.092 539.637 325.429 539.242C324.811 538.945 324.259 538.526 323.808 538.009C323.507 537.675 323.34 537.243 323.338 536.793C323.347 536.373 323.495 535.968 323.759 535.642C324.096 535.231 324.496 534.876 324.943 534.588C325.25 534.366 325.57 534.16 325.9 533.972C326.208 533.793 326.581 533.599 326.986 533.404C328.17 532.795 329.482 532.478 330.813 532.48C331.525 532.478 332.234 532.57 332.921 532.756C333.667 532.952 334.382 533.252 335.045 533.647C335.663 533.944 336.215 534.363 336.667 534.88C336.967 535.214 337.134 535.647 337.137 536.096C337.128 536.516 336.979 536.921 336.715 537.247C336.383 537.654 335.983 538 335.531 538.269ZM325.202 523.675C324.88 523.857 324.616 524.127 324.44 524.453C324.44 524.664 324.521 524.891 324.91 525.118C325.259 525.336 325.669 525.433 326.078 525.394C326.547 525.321 327.001 525.173 327.424 524.956C328.047 524.662 328.644 524.315 329.207 523.918C329.532 523.746 329.797 523.48 329.97 523.156C330.051 522.929 329.97 522.702 329.499 522.475C329.146 522.256 328.73 522.159 328.316 522.199C327.85 522.274 327.4 522.428 326.986 522.653C326.368 522.927 325.772 523.247 325.202 523.61V523.675ZM328.283 536.355C327.962 536.538 327.694 536.801 327.505 537.118C327.505 537.345 327.505 537.572 327.991 537.799C328.339 538.019 328.75 538.116 329.159 538.074C329.623 538.001 330.072 537.853 330.489 537.636C331.107 537.334 331.703 536.987 332.272 536.599C332.597 536.421 332.866 536.157 333.051 535.837C333.137 535.61 332.975 535.382 332.564 535.155C332.217 534.935 331.806 534.838 331.397 534.88C330.933 534.953 330.484 535.101 330.067 535.318C329.449 535.615 328.853 535.956 328.283 536.339V536.355Z" fill="white"/>
<path d="M588.863 265.592L562.513 250.382V174.316L588.863 189.526V265.592Z" fill="#37474F"/>
<path d="M588.863 265.592L615.213 250.382V174.316L588.863 189.526V265.592Z" fill="#455A64"/>
<path d="M562.513 174.316L588.863 189.526L615.213 174.316L588.863 159.106L562.513 174.316Z" fill="#455A64"/>
<path d="M529.58 231.362L503.23 216.152V64.0358L529.58 79.2458V231.362Z" fill="#37474F"/>
<path d="M529.58 231.362L555.93 216.152V64.0358L529.58 79.2458V231.362Z" fill="#455A64"/>
<path d="M503.23 64.0358L529.58 79.2458L555.93 64.0358L529.58 48.8258L503.23 64.0358Z" fill="#455A64"/>
<path d="M470.297 197.131L443.947 181.921V128.686L470.297 143.896V197.131Z" fill="#37474F"/>
<path d="M470.297 197.131L496.647 181.921V128.686L470.297 143.896V197.131Z" fill="#455A64"/>
<path d="M443.947 128.686L470.297 143.896L496.647 128.686L470.297 113.476L443.947 128.686Z" fill="#455A64"/>
<path d="M648.147 299.823L621.797 284.596V140.102L648.13 155.312L648.147 299.823Z" fill="#37474F"/>
<path d="M648.13 299.823L674.48 284.596V140.102L648.13 155.312V299.823Z" fill="#455A64"/>
<path d="M621.797 140.102L648.13 155.312L674.48 140.102L648.147 124.876L621.797 140.102Z" fill="#455A64"/>
<g opacity="0.3">
<path opacity="0.3" d="M463.924 288.78L463.649 120.335C463.592 119.36 463.307 118.412 462.817 117.567C462.327 116.723 461.645 116.004 460.827 115.471L262.092 1.2339C260.471 0.342062 259.287 1.07175 259.287 2.85544L259.611 171.235C259.664 172.211 259.948 173.161 260.438 174.006C260.929 174.852 261.612 175.569 262.433 176.1L461.184 290.418C462.692 291.31 463.924 290.58 463.924 288.78Z" fill="white"/>
</g>
<path d="M462.4 291.602C461.827 291.579 461.269 291.412 460.779 291.115L262.027 176.797C261.079 176.2 260.288 175.382 259.724 174.414C259.159 173.446 258.837 172.355 258.784 171.235L258.476 2.85544C258.408 2.36163 258.489 1.8588 258.708 1.41086C258.926 0.962932 259.273 0.590132 259.704 0.339843C260.135 0.089555 260.631 -0.0269198 261.128 0.00523675C261.626 0.0373933 262.102 0.216721 262.498 0.520427L461.249 114.741C462.196 115.34 462.984 116.158 463.549 117.126C464.113 118.094 464.437 119.184 464.492 120.303L464.767 288.748C464.806 289.239 464.714 289.732 464.501 290.177C464.287 290.621 463.96 291.001 463.551 291.277C463.203 291.486 462.806 291.598 462.4 291.602ZM260.844 1.59064C260.737 1.56245 260.626 1.56245 260.519 1.59064C260.361 1.72699 260.24 1.90085 260.166 2.09632C260.092 2.29179 260.069 2.50263 260.098 2.7095L260.373 171.154C260.42 172.006 260.669 172.835 261.1 173.571C261.532 174.308 262.133 174.93 262.854 175.386L461.606 289.704C462.092 289.98 462.514 290.061 462.773 289.899C463.032 289.737 463.195 289.348 463.195 288.78L462.919 120.335C462.867 119.505 462.623 118.698 462.207 117.978C461.79 117.258 461.213 116.644 460.519 116.184L261.687 1.8663C261.434 1.70423 261.144 1.60935 260.844 1.59064Z" fill="#12A8FC"/>
<path d="M445.05 251.615C439.78 247.869 436.699 244.48 434.607 218.438L434.429 216.217C432.467 191.748 431.186 175.597 420.03 168.933C414.678 165.69 410.398 168.933 405.874 172.451C401.771 175.581 397.555 178.792 392.804 176.084C384.453 171.219 383.075 161.587 380.48 144.01C380.156 141.837 379.832 139.551 379.459 137.151C378.891 133.405 378.405 129.919 377.951 126.643C375.389 108.19 373.832 97.034 364.395 91.3424C363.465 90.6838 362.395 90.2514 361.269 90.0796C360.143 89.9079 358.992 90.0016 357.909 90.3533C350.758 92.8504 345.163 107.979 339.245 124.016C338.791 125.2 338.353 126.449 337.883 127.697C333.586 139.518 328.721 152.928 321.992 155.409C321.04 155.757 320.022 155.886 319.014 155.785C318.006 155.684 317.034 155.356 316.17 154.825C309.474 151.031 308.274 140.653 307.122 130.6C305.971 120.546 304.852 110.444 298.528 106.633C297.992 106.287 297.379 106.077 296.742 106.024C296.106 105.97 295.466 106.073 294.88 106.325C287.032 109.374 280.075 132.594 280.01 132.821L278.389 132.367C278.681 131.378 285.637 108.158 294.215 104.801C295.034 104.462 295.923 104.325 296.806 104.401C297.689 104.477 298.541 104.764 299.29 105.239C306.279 109.422 307.495 120.076 308.679 130.373C309.863 140.669 310.933 149.993 316.933 153.382C317.587 153.798 318.328 154.056 319.099 154.138C319.87 154.22 320.649 154.122 321.376 153.852C327.391 151.631 332.337 138.043 336.31 127.113C336.78 125.849 337.218 124.616 337.672 123.416C343.996 106.309 349.46 91.537 357.325 88.7804C358.628 88.3578 360.012 88.2418 361.368 88.4415C362.723 88.6412 364.014 89.1512 365.141 89.9317C375.227 96.0286 376.832 107.46 379.459 126.4C379.913 129.643 380.399 133.145 380.967 136.875C381.34 139.291 381.664 141.577 381.988 143.734C384.469 160.825 385.848 170.23 393.518 174.64C397.328 176.83 400.782 174.186 404.787 171.138C409.327 167.668 414.516 163.76 420.759 167.506C432.613 174.608 433.942 191.099 435.937 216.054L436.115 218.276C438.256 244.837 441.466 247.107 445.844 250.269L445.05 251.615Z" fill="#12A8FC"/>
<g opacity="0.4">
<path opacity="0.4" d="M445.05 251.615C439.78 247.869 436.699 244.48 434.607 218.438L434.429 216.217C432.467 191.748 431.186 175.597 420.03 168.933C414.678 165.69 410.398 168.933 405.874 172.451C401.771 175.581 397.555 178.792 392.804 176.084C384.453 171.219 383.075 161.587 380.48 144.01C380.156 141.837 379.832 139.551 379.459 137.151C378.891 133.405 378.405 129.919 377.951 126.643C375.389 108.19 373.832 97.034 364.395 91.3424C363.465 90.6838 362.395 90.2514 361.269 90.0796C360.143 89.9079 358.992 90.0016 357.909 90.3533C350.758 92.8504 345.163 107.979 339.245 124.016C338.791 125.2 338.353 126.449 337.883 127.697C333.586 139.518 328.721 152.928 321.992 155.409C321.04 155.757 320.022 155.886 319.014 155.785C318.006 155.684 317.034 155.356 316.17 154.825C309.474 151.031 308.274 140.653 307.122 130.6C305.971 120.546 304.852 110.444 298.528 106.633C297.992 106.287 297.379 106.077 296.742 106.024C296.106 105.97 295.466 106.073 294.88 106.325C287.032 109.374 280.075 132.594 280.01 132.821L278.389 132.367C278.681 131.378 285.637 108.158 294.215 104.801C295.034 104.462 295.923 104.325 296.806 104.401C297.689 104.477 298.541 104.764 299.29 105.239C306.279 109.422 307.495 120.076 308.679 130.373C309.863 140.669 310.933 149.993 316.933 153.382C317.587 153.798 318.328 154.056 319.099 154.138C319.87 154.22 320.649 154.122 321.376 153.852C327.391 151.631 332.337 138.043 336.31 127.113C336.78 125.849 337.218 124.616 337.672 123.416C343.996 106.309 349.46 91.537 357.325 88.7804C358.628 88.3578 360.012 88.2418 361.368 88.4415C362.723 88.6412 364.014 89.1512 365.141 89.9317C375.227 96.0286 376.832 107.46 379.459 126.4C379.913 129.643 380.399 133.145 380.967 136.875C381.34 139.291 381.664 141.577 381.988 143.734C384.469 160.825 385.848 170.23 393.518 174.64C397.328 176.83 400.782 174.186 404.787 171.138C409.327 167.668 414.516 163.76 420.759 167.506C432.613 174.608 433.942 191.099 435.937 216.054L436.115 218.276C438.256 244.837 441.466 247.107 445.844 250.269L445.05 251.615Z" fill="black"/>
</g>
<path d="M417.63 161.765C418.836 162.556 419.84 163.617 420.564 164.864C421.287 166.111 421.71 167.51 421.797 168.949C421.797 171.592 419.932 172.662 417.646 171.349C416.435 170.564 415.426 169.505 414.702 168.256C413.977 167.008 413.558 165.606 413.479 164.165C413.479 161.587 415.278 160.517 417.63 161.765Z" fill="#12A8FC"/>
<g opacity="0.2">
<path opacity="0.2" d="M417.63 161.765C418.836 162.556 419.84 163.617 420.564 164.864C421.287 166.111 421.71 167.51 421.797 168.949C421.797 171.592 419.932 172.662 417.646 171.349C416.435 170.564 415.426 169.505 414.702 168.256C413.977 167.008 413.558 165.606 413.479 164.165C413.479 161.587 415.278 160.517 417.63 161.765Z" fill="black"/>
</g>
<path d="M364.816 85.8616C366.024 86.6489 367.029 87.7095 367.75 88.9575C368.471 90.2055 368.888 91.6058 368.967 93.045C368.967 95.6881 367.119 96.7583 364.832 95.4449C363.62 94.6613 362.611 93.602 361.886 92.3535C361.162 91.1049 360.744 89.7027 360.665 88.2615C360.665 85.5535 362.514 84.5482 364.816 85.8616Z" fill="#12A8FC"/>
<g opacity="0.5">
<path opacity="0.5" d="M364.816 85.8616C366.024 86.6489 367.029 87.7095 367.75 88.9575C368.471 90.2055 368.888 91.6058 368.967 93.045C368.967 95.6881 367.119 96.7583 364.832 95.4449C363.62 94.6613 362.611 93.602 361.886 92.3535C361.162 91.1049 360.744 89.7027 360.665 88.2615C360.665 85.5535 362.514 84.5482 364.816 85.8616Z" fill="white"/>
</g>
<path d="M298.966 101.185C300.178 101.965 301.187 103.021 301.912 104.267C302.636 105.513 303.055 106.913 303.133 108.352C303.133 111.012 301.285 112.082 298.982 110.768C297.776 109.98 296.771 108.919 296.05 107.671C295.329 106.424 294.911 105.024 294.831 103.585C294.815 100.942 296.68 99.8554 298.966 101.185Z" fill="#12A8FC"/>
<path opacity="0.65" d="M358.314 281.353V112.909C358.26 111.935 357.978 110.987 357.491 110.142C357.004 109.297 356.325 108.579 355.509 108.044L183.286 8.61185C181.664 7.72001 180.481 8.4497 180.481 10.2334V178.678C180.533 179.652 180.815 180.6 181.302 181.446C181.789 182.291 182.469 183.009 183.286 183.543L355.509 282.975C357.065 283.883 358.314 283.153 358.314 281.353Z" fill="white"/>
<path d="M356.774 284.175C356.201 284.153 355.643 283.985 355.152 283.688L182.88 184.256C181.934 183.652 181.146 182.831 180.582 181.861C180.018 180.89 179.694 179.799 179.637 178.678V10.2334C179.573 9.74092 179.657 9.24049 179.877 8.79531C180.097 8.35013 180.444 7.98015 180.874 7.73207C181.305 7.48399 181.799 7.36894 182.294 7.40143C182.79 7.43391 183.265 7.6125 183.659 7.91463L355.882 107.347C356.828 107.947 357.616 108.765 358.18 109.733C358.744 110.701 359.068 111.79 359.125 112.909V281.353C359.164 281.845 359.072 282.338 358.858 282.782C358.644 283.227 358.317 283.607 357.909 283.883C357.562 284.078 357.171 284.179 356.774 284.175ZM182.037 9.04969C181.931 9.02223 181.819 9.02223 181.713 9.04969C181.555 9.18603 181.433 9.3599 181.36 9.55537C181.286 9.75084 181.262 9.96168 181.291 10.1686V178.678C181.342 179.511 181.585 180.321 182.002 181.044C182.418 181.767 182.996 182.383 183.691 182.845L355.914 282.278C356.079 282.407 356.274 282.493 356.481 282.527C356.688 282.561 356.9 282.542 357.098 282.472C357.357 282.326 357.503 281.921 357.503 281.353V112.909C357.454 112.078 357.211 111.27 356.794 110.549C356.378 109.829 355.799 109.215 355.103 108.758L182.88 9.34157C182.632 9.16734 182.34 9.06622 182.037 9.04969Z" fill="#12A8FC"/>
<path d="M328.689 243.069V132.221C328.661 131.734 328.519 131.259 328.273 130.837C328.028 130.414 327.687 130.055 327.278 129.789L310.333 120.06C309.555 119.606 308.922 119.962 308.922 120.87V231.653C308.946 232.142 309.087 232.618 309.332 233.041C309.578 233.464 309.921 233.822 310.333 234.086L327.278 243.815C328.056 244.334 328.689 243.961 328.689 243.069Z" fill="#12A8FC"/>
<g opacity="0.3">
<path opacity="0.3" d="M328.689 243.069V132.221C328.661 131.734 328.519 131.259 328.273 130.837C328.028 130.414 327.687 130.055 327.278 129.789L310.333 120.06C309.555 119.606 308.922 119.962 308.922 120.87V231.653C308.946 232.142 309.087 232.618 309.332 233.041C309.578 233.464 309.921 233.822 310.333 234.086L327.278 243.815C328.056 244.334 328.689 243.961 328.689 243.069Z" fill="black"/>
</g>
<path d="M295.755 224.049V166.452C295.727 165.964 295.585 165.49 295.34 165.067C295.095 164.645 294.754 164.286 294.345 164.019L277.383 154.29C276.621 153.852 275.989 154.29 275.989 155.101V212.714C276.017 213.2 276.158 213.672 276.4 214.094C276.642 214.516 276.979 214.876 277.383 215.146L294.345 224.876C295.123 225.313 295.755 225.005 295.755 224.049Z" fill="#12A8FC"/>
<g opacity="0.2">
<path opacity="0.2" d="M295.755 224.049V166.452C295.727 165.964 295.585 165.49 295.34 165.067C295.095 164.645 294.754 164.286 294.345 164.019L277.383 154.29C276.621 153.852 275.989 154.29 275.989 155.101V212.714C276.017 213.2 276.158 213.672 276.4 214.094C276.642 214.516 276.979 214.876 277.383 215.146L294.345 224.876C295.123 225.313 295.755 225.005 295.755 224.049Z" fill="white"/>
</g>
<path d="M262.854 205.044V117.011C262.827 116.524 262.684 116.049 262.439 115.627C262.194 115.204 261.853 114.845 261.444 114.579L244.483 104.85C243.72 104.396 243.088 104.752 243.088 105.661V193.677C243.114 194.163 243.254 194.637 243.496 195.059C243.738 195.482 244.076 195.841 244.483 196.11L261.444 205.839C262.19 206.293 262.854 205.936 262.854 205.044Z" fill="#12A8FC"/>
<g opacity="0.2">
<path opacity="0.2" d="M262.854 205.044V117.011C262.827 116.524 262.684 116.049 262.439 115.627C262.194 115.204 261.853 114.845 261.444 114.579L244.483 104.85C243.72 104.396 243.088 104.752 243.088 105.661V193.677C243.114 194.163 243.254 194.637 243.496 195.059C243.738 195.482 244.076 195.841 244.483 196.11L261.444 205.839C262.19 206.293 262.854 205.936 262.854 205.044Z" fill="black"/>
</g>
<path d="M229.872 186.088V59.9657C229.848 59.4792 229.709 59.0054 229.466 58.5827C229.224 58.1601 228.885 57.8006 228.478 57.5334L211.517 47.8042C210.755 47.3502 210.122 47.8042 210.122 48.615V174.673C210.151 175.159 210.292 175.631 210.534 176.053C210.775 176.475 211.112 176.835 211.517 177.105L228.478 186.834C229.256 187.288 229.872 186.915 229.872 186.088Z" fill="#12A8FC"/>
<path d="M580.075 206.244C579.848 205.028 573.896 191.18 571.448 185.732L559.043 191.537L563.794 202.417L576.637 212.357C577.887 211.977 578.941 211.129 579.581 209.99C580.222 208.851 580.398 207.51 580.075 206.244Z" fill="#FFA8A7"/>
<path d="M555.362 351.29H545.795V365.235H555.362V351.29Z" fill="#FFA8A7"/>
<path d="M521.661 334.067L512.1 334.395L512.579 348.332L522.14 348.003L521.661 334.067Z" fill="#FFA8A7"/>
<path d="M524.051 151.582C520.588 151.663 517.203 152.618 514.209 154.359C511.215 156.099 508.71 158.569 506.927 161.538C501.641 169.403 492.333 182.845 492.333 182.845L509.765 188.375L524.051 151.582Z" fill="#12A8FC"/>
<g opacity="0.7">
<path opacity="0.7" d="M524.051 151.582C520.588 151.663 517.203 152.618 514.209 154.359C511.215 156.099 508.71 158.569 506.927 161.538C501.641 169.403 492.333 182.845 492.333 182.845L509.765 188.375L524.051 151.582Z" fill="white"/>
</g>
<path d="M554.73 215.276C554.73 224.421 555.914 283.559 555.914 283.559C556.141 286.186 558.606 291.034 558.07 301.136C557.341 314.871 556.157 353.025 556.157 353.025C556.157 353.025 551.665 357.484 545.325 353.025C545.325 353.025 536.65 301.217 534.947 287.613C533.439 275.743 530.91 243.507 530.91 243.507L522.04 281.467C522.04 281.467 523.662 290.385 523.937 296.677C524.213 302.968 522.316 339.356 522.316 339.356C520.764 340.325 518.985 340.873 517.156 340.944C515.328 341.015 513.512 340.607 511.889 339.761C511.889 339.761 504.203 286.607 503.214 280.916C502.225 275.224 509.96 215.276 509.96 215.276H554.73Z" fill="#12A8FC"/>
<path opacity="0.2" d="M554.73 215.276C554.73 224.421 555.914 283.559 555.914 283.559C556.141 286.186 558.606 291.034 558.07 301.136C557.341 314.871 556.157 353.025 556.157 353.025C556.157 353.025 551.665 357.484 545.325 353.025C545.325 353.025 536.65 301.217 534.947 287.613C533.439 275.743 530.91 243.507 530.91 243.507L522.04 281.467C522.04 281.467 523.662 290.385 523.937 296.677C524.213 302.968 522.316 339.356 522.316 339.356C520.764 340.325 518.985 340.873 517.156 340.944C515.328 341.015 513.512 340.607 511.889 339.761C511.889 339.761 504.203 286.607 503.214 280.916C502.225 275.224 509.96 215.276 509.96 215.276H554.73Z" fill="black"/>
<path d="M540.331 151.874C548.909 153.933 559.789 157.404 563.616 165.317C567.443 173.23 573.345 186.056 573.345 186.056L559.141 194.456L554.73 186.867V215.276C548.017 222.573 524.602 225.978 509.943 215.276V168.511C509.943 161.068 514.094 152.101 525.526 151.436L540.331 151.874Z" fill="#12A8FC"/>
<path opacity="0.7" d="M540.331 151.874C548.909 153.933 559.789 157.404 563.616 165.317C567.443 173.23 573.345 186.056 573.345 186.056L559.141 194.456L554.73 186.867V215.276C548.017 222.573 524.602 225.978 509.943 215.276V168.511C509.943 161.068 514.094 152.101 525.526 151.436L540.331 151.874Z" fill="white"/>
<path d="M543.558 113.703C544.328 113.615 545.108 113.703 545.838 113.962C546.569 114.22 547.231 114.642 547.774 115.195C549.59 117.044 549.217 120.481 547.774 128.362L542.163 129.011L543.558 113.703Z" fill="#263238"/>
<path d="M510.949 111.498C509.745 111.513 508.552 111.275 507.446 110.801C505.727 109.812 505.273 111.757 506.214 113.46C506.837 114.675 507.759 115.71 508.894 116.467C510.03 117.225 511.34 117.68 512.7 117.79C512.7 117.546 514.321 113.411 514.321 113.411L510.949 111.498Z" fill="#263238"/>
<path d="M540.931 129.011C541.758 129.513 542.942 127.908 543.963 126.838C544.367 126.377 544.881 126.027 545.457 125.82C546.033 125.612 546.652 125.554 547.256 125.651C547.861 125.749 548.431 125.998 548.913 126.375C549.394 126.753 549.773 127.247 550.011 127.811C551.714 131.394 547.855 136.178 545.585 137.751C544.95 138.299 544.159 138.633 543.323 138.706C542.488 138.779 541.651 138.586 540.931 138.156L540.331 151.874C539.329 154.073 537.797 155.988 535.873 157.448C533.948 158.908 531.691 159.868 529.304 160.241C521.197 161.328 522.899 154.696 525.543 151.436V146.442C523.53 146.878 521.46 146.988 519.413 146.766C518.359 146.491 515.862 143.523 514.24 140.069C512.424 136.259 509.376 129.497 512.1 118.065C514.986 105.79 528.169 105.417 536.05 110.363C543.931 115.309 540.931 129.011 540.931 129.011Z" fill="#FFA8A7"/>
<path d="M540.931 130.405C541.336 130.405 542.942 127.778 543.963 126.838C545.406 125.524 543.558 113.703 543.558 113.703C543.558 113.703 545.001 109.228 542.163 106.244C539.326 103.261 533.845 103.78 529.823 103.634C524.888 103.658 519.999 102.676 515.457 100.747C509.749 98.2663 509.327 97.9744 508.614 100.488C507.9 103.001 507.641 108.725 511.046 112.568L513.884 113.622C513.884 113.622 515.408 114.968 520.727 115.617C525.643 115.99 530.584 115.898 535.483 115.341C537.023 115.13 537.347 116.622 538.174 120.708C538.92 124.308 539.52 130.389 540.931 130.405Z" fill="#263238"/>
<path d="M543.542 114.628L548.568 111.92C548.408 111.582 548.181 111.28 547.901 111.033C547.621 110.786 547.294 110.598 546.939 110.482C546.584 110.365 546.209 110.321 545.837 110.354C545.465 110.387 545.103 110.494 544.774 110.671C544.099 111.045 543.594 111.665 543.365 112.402C543.135 113.139 543.199 113.936 543.542 114.628Z" fill="#263238"/>
<path d="M525.542 146.442C528.981 145.794 532.352 144.828 535.612 143.556C537.148 142.761 538.404 141.517 539.212 139.988C538.821 141.517 538.126 142.95 537.169 144.204C535.255 146.637 525.542 148.437 525.542 148.437V146.442Z" fill="#F28F8F"/>
<path d="M527.359 127.146C527.352 127.346 527.386 127.545 527.458 127.732C527.53 127.918 527.639 128.089 527.778 128.232C527.917 128.376 528.084 128.49 528.268 128.568C528.452 128.646 528.65 128.686 528.85 128.686C529.179 128.712 529.507 128.638 529.792 128.472C530.077 128.307 530.305 128.059 530.445 127.761C530.586 127.463 530.632 127.129 530.578 126.804C530.524 126.479 530.372 126.178 530.143 125.942C529.914 125.705 529.618 125.544 529.295 125.479C528.972 125.415 528.637 125.451 528.335 125.581C528.033 125.712 527.777 125.932 527.603 126.211C527.428 126.491 527.343 126.817 527.359 127.146Z" fill="#263238"/>
<path d="M528.931 121.503L532.175 123.27C532.399 122.831 532.447 122.322 532.308 121.849C532.17 121.375 531.855 120.973 531.429 120.725C531.216 120.602 530.98 120.525 530.736 120.499C530.492 120.472 530.245 120.496 530.01 120.569C529.776 120.642 529.559 120.763 529.373 120.923C529.188 121.084 529.037 121.281 528.931 121.503Z" fill="#263238"/>
<path d="M527.472 137.28L524.051 138.561C524.127 138.789 524.248 138.999 524.407 139.179C524.565 139.36 524.758 139.507 524.973 139.613C525.189 139.718 525.423 139.78 525.663 139.794C525.903 139.809 526.143 139.775 526.369 139.696C526.828 139.511 527.197 139.158 527.403 138.708C527.608 138.259 527.633 137.748 527.472 137.28Z" fill="#F28F8F"/>
<path d="M514.03 122.751L516.932 120.498C516.795 120.301 516.62 120.135 516.417 120.008C516.214 119.881 515.987 119.797 515.751 119.761C515.514 119.725 515.273 119.737 515.041 119.796C514.809 119.856 514.592 119.962 514.403 120.108C514.012 120.416 513.755 120.863 513.685 121.355C513.616 121.847 513.739 122.348 514.03 122.751Z" fill="#263238"/>
<path d="M514.922 126.724C514.922 126.92 514.96 127.114 515.035 127.295C515.11 127.476 515.22 127.641 515.358 127.779C515.497 127.918 515.661 128.028 515.842 128.102C516.023 128.177 516.217 128.216 516.413 128.216C516.609 128.216 516.803 128.177 516.984 128.102C517.165 128.028 517.33 127.918 517.468 127.779C517.607 127.641 517.717 127.476 517.792 127.295C517.867 127.114 517.905 126.92 517.905 126.724C517.912 126.524 517.878 126.325 517.806 126.138C517.734 125.952 517.625 125.781 517.486 125.638C517.347 125.494 517.18 125.38 516.996 125.302C516.811 125.224 516.613 125.184 516.413 125.184C516.012 125.192 515.63 125.359 515.351 125.647C515.071 125.936 514.917 126.323 514.922 126.724Z" fill="#263238"/>
<path d="M522.526 125.297L522.04 134.297L517.354 132.691L522.526 125.297Z" fill="#F28F8F"/>
<path d="M483.48 179.456L521.716 189.526L533.002 236.988L496.647 226.432L483.48 179.456Z" fill="#12A8FC"/>
<path d="M500.149 210.865C499.476 212.067 498.458 213.038 497.226 213.654C495.995 214.27 494.606 214.502 493.242 214.319L492.69 212.357L500.149 210.865Z" fill="#12A8FC"/>
<path d="M508.695 212.357C508.857 213.622 511.468 215.957 515.862 217.416C520.856 219.038 528.526 218.211 528.526 218.211L527.845 215.844L508.695 212.357Z" fill="#12A8FC"/>
<path opacity="0.43" d="M494.733 186.332L494.409 184.872C494.247 184.062 496.485 184.029 499.436 184.791L505.063 186.251C508.014 187.029 510.527 188.294 510.705 189.105L511.03 190.564L494.733 186.332Z" fill="#455A64"/>
<path d="M492.009 180.835C491.912 180.332 492.82 180.202 494.052 180.543L496.355 181.224C496.355 181.224 495.69 177.981 500.652 179.165C501.976 179.36 503.227 179.894 504.284 180.715C505.341 181.536 506.168 182.616 506.684 183.851L509.068 184.532C510.381 184.905 511.565 185.602 511.727 186.153L512.003 187.061L492.301 181.872L492.009 180.835Z" fill="#37474F"/>
<path d="M494.733 182.408C496.533 182.845 497.279 183.089 497.555 184.321C497.831 185.553 497.993 186.786 497.993 186.786L506.7 189.088C506.7 189.088 506.279 187.288 506.149 186.591C506.019 185.894 506.311 185.472 507.771 185.829L507.884 185.278L494.215 181.808L494.733 182.408Z" fill="#37474F"/>
<path d="M494.425 186.478L494.117 185.018C493.939 184.207 496.177 184.175 499.128 184.937L504.755 186.397C507.706 187.159 510.235 188.423 510.414 189.234L510.722 190.694L494.425 186.478Z" fill="#37474F"/>
<path d="M576.637 212.357L563.794 202.417C563.794 202.417 536.877 207.476 533.845 207.72C530.812 207.963 528.413 204.963 527.261 201.979C526.11 198.996 523.775 199.369 523.775 199.369C523.775 199.369 524.667 203.163 524.959 204.363C525.251 205.563 518.229 206.552 514.192 205.19C510.154 203.828 504.3 205.806 507.916 211.319C511.532 216.833 518.602 217.449 523.499 217.465C525.549 217.445 527.596 217.304 529.629 217.043C531.25 216.849 532.872 216.687 534.38 216.573C544.401 215.86 572.08 213.784 576.637 212.357Z" fill="#FFA8A7"/>
<path d="M487.356 193.337L489.058 199.385C489.382 200.553 493.825 202.628 496.647 203.439C499.468 204.25 502.533 205.06 501.203 209.066C499.971 212.682 495.35 213.509 492.998 213.411C491.414 213.144 489.935 212.443 488.725 211.387C487.514 210.331 486.619 208.961 486.139 207.428C484.518 202.806 485.393 197.861 484.745 195.153C484.096 192.445 485.961 191.731 487.356 193.337Z" fill="#F28F8F"/>
<path d="M545.795 360.517V359.138C544.887 359.544 542.747 367.668 538.953 371.121C535.937 373.878 531.818 377.072 530.845 380.137C529.872 383.202 536.585 385.099 539.407 384.596C542.65 384.013 548.374 381.71 549.801 379.57C551.228 377.429 551.892 374.267 553.044 372.694C554.195 371.121 556.871 369.451 557.503 367.57C557.691 365.875 557.503 364.158 556.952 362.544C556.514 360.841 556.027 358.992 555.46 359.138C555.46 359.349 555.46 360.192 555.46 360.192C554.069 361.269 552.354 361.841 550.595 361.814C549.184 361.862 545.779 361.587 545.795 360.517Z" fill="#37474F"/>
<path d="M512.57 345.355C512.068 345.355 511.662 346.069 510.576 347.252C508.935 348.91 507.028 350.28 504.933 351.306C501.349 353.106 494.393 355.863 491.231 357.29C489.253 358.182 489.35 360.533 491.393 361.911C493.436 363.289 498.349 364.246 504.252 362.916C507.495 362.203 511.662 359.236 514.305 359.382C516.948 359.527 521.91 359.511 523.872 358.165C525.834 356.82 525.04 353.933 524.489 351.452C523.937 348.971 523.029 344.626 522.137 344.804V345.663C520.986 347.398 515.116 348.112 512.587 346.831L512.57 345.355Z" fill="#37474F"/>
<path d="M97.9608 339.534L103.944 347.852C101.216 349.112 98.2409 349.744 95.2366 349.701C89.8855 349.912 88.41 348.079 88.2154 347.723C87.3073 345.793 88.718 342.291 89.1072 339.275L97.9608 339.534Z" fill="#37474F"/>
<path d="M88.2154 331.167C88.2154 331.167 89.1234 338.723 89.1883 340.345C89.2531 341.966 96.5662 342.501 97.9608 339.534L98.1716 330.291L88.2154 331.167Z" fill="#F28F8F"/>
<path d="M88.2154 182.294C83.2211 190.077 78.4862 196.888 77.4485 205.677C75.308 224.146 82.3131 245.258 83.8211 258.911C80.9856 262.807 79.346 267.444 79.1024 272.257C79.1024 277.9 88.2154 331.167 88.2154 331.167C88.2154 331.167 94.8313 333.194 98.1716 330.291L104.431 232.302L101.188 220.368L88.2154 182.294Z" fill="#12A8FC"/>
<path opacity="0.5" d="M88.2154 182.294C83.2211 190.077 78.4862 196.888 77.4485 205.677C75.308 224.146 82.3131 245.258 83.8211 258.911C80.9856 262.807 79.346 267.444 79.1024 272.257C79.1024 277.9 88.2154 331.167 88.2154 331.167C88.2154 331.167 94.8313 333.194 98.1716 330.291L104.431 232.302L101.188 220.368L88.2154 182.294Z" fill="white"/>
<path d="M134.38 145.793L167.314 161.603L147.547 206.05L116.835 188.326L134.38 145.793Z" fill="#12A8FC"/>
<path d="M163.438 162.414L146.38 200.293L122.738 186.672L136.148 149.393L163.438 162.414Z" fill="#12A8FC"/>
<path d="M136.148 149.393L163.438 162.414L145.018 200.698L119.203 185.959L136.148 149.393Z" fill="white"/>
<path d="M142.083 154.874L142.715 153.512C143.072 152.766 145.326 153.074 147.758 154.225L152.412 156.431C154.844 157.566 156.514 159.122 156.174 159.868L155.525 161.23L142.083 154.874Z" fill="#E0E0E0"/>
<path d="M77.043 161.766C74.6431 168.608 69.892 179.473 71.4163 181.662C72.9405 183.851 82.086 183.381 87.1776 183.186C93.6637 182.943 99.0472 182.683 99.0472 182.683L97.9607 171.333H88.7504L92.8043 159.852L77.043 161.766Z" fill="#F28F8F"/>
<path d="M86.2694 137.443C82.9129 142.956 76.1348 162.414 76.1348 162.414C78.0181 164.55 80.5159 166.051 83.2858 166.711C85.7048 167.453 88.2752 167.554 90.7449 167.003L98.2363 148.355L86.2694 137.443Z" fill="#12A8FC"/>
<path opacity="0.4" d="M86.2694 137.443C82.9129 142.956 76.1348 162.414 76.1348 162.414C78.0181 164.55 80.5159 166.051 83.2858 166.711C85.7048 167.453 88.2752 167.554 90.7449 167.003L98.2363 148.355L86.2694 137.443Z" fill="black"/>
<path d="M119.787 140.913C125.673 142.68 129.256 142.988 135.759 152.993C142.261 162.998 156.498 182.845 157.909 185.229C159.871 188.472 160.714 192.494 159.028 195.542C157.341 198.59 152.85 197.164 146.396 191.472C139.942 185.78 127.781 170.522 127.781 170.522C127.781 170.522 115.1 156.236 119.787 140.913Z" fill="#FFA8A7"/>
<path d="M115.084 127.94L113.495 141.999L99.6148 143.604L101.625 124.941L115.084 127.94Z" fill="#FFA8A7"/>
<path d="M85.3939 107.396C86.5452 94.4233 93.5016 89.0561 99.031 87.7751C110.009 85.1806 119.803 89.1696 124.246 96.8719C125.413 98.8988 127.375 106.488 123.468 110.963C119.56 115.438 85.3939 107.396 85.3939 107.396Z" fill="#263238"/>
<path d="M125.332 111.968C125.332 111.968 128.219 116.833 127.781 117.384C127.013 117.83 126.174 118.137 125.3 118.292L125.332 111.968Z" fill="#F28F8F"/>
<path d="M116.576 96.3205C119.56 98.088 124.684 101.315 125.381 112.666C126.111 124.324 123.889 127.908 122.138 129.335C121.019 130.308 115.279 129.983 112.409 128.929C108.89 127.6 101.058 123.984 97.6851 117.79C93.7935 110.509 93.4529 101.088 98.6094 97.6988C101.238 95.9569 104.269 94.9158 107.414 94.6746C110.558 94.4334 113.712 94.9999 116.576 96.3205Z" fill="#FFA8A7"/>
<path d="M117.452 96.9043C117.452 96.9043 119.511 107.623 115.944 114.109C115.944 114.109 114.322 109.877 110.69 110.866C107.058 111.855 107.106 116.622 109.782 119.217C110.46 119.955 111.332 120.486 112.299 120.75C113.266 121.014 114.287 121 115.246 120.708C114.742 124.047 113.186 127.137 110.803 129.529C107.022 130.404 103.07 130.193 99.4033 128.919C95.7367 127.645 92.5048 125.361 90.0802 122.33C81.9725 112.698 84.0967 96.3854 96.9555 92.8829C109.814 89.3804 117.452 96.9043 117.452 96.9043Z" fill="#263238"/>
<path d="M103.604 343.863C103.604 343.863 110.868 343.393 115.879 342.761C120.889 342.128 124.862 344.577 123.678 346.653C122.495 348.728 119.738 350.431 115.441 351.874C111.76 353.122 107.333 354.014 103.506 355.117C99.6796 356.22 97.0203 357.646 94.7988 356.884C92.3178 356.025 91.2476 355.036 91.4584 353.22C91.9999 350.636 92.671 348.082 93.4691 345.566L103.604 343.863Z" fill="#37474F"/>
<path d="M95.5771 335.821L92.9665 347.285C92.9665 347.285 92.7232 348.679 98.6905 349.571C104.658 350.463 114.03 346.458 115.635 345.631C117.241 344.804 117.419 343.199 111.549 343.523C105.679 343.847 103.604 343.863 103.604 343.863L105.566 338.772L95.5771 335.821Z" fill="#FFA8A7"/>
<path d="M104.431 232.302L101.188 220.368C94.9781 218.733 88.9891 216.354 83.3507 213.282C83.3507 213.282 86.7235 219.427 96.323 222.784L101.366 238.123L101.804 273.213L104.431 232.302Z" fill="#12A8FC"/>
<path d="M88.2155 182.294C85.5399 186.656 79.1511 194.131 80.497 201.298C82.1185 210.006 86.8371 216.103 101.139 220.368L114.565 269.014C114.565 269.014 107.577 275.5 105.436 281.775C103.296 288.05 95.5772 335.869 95.5772 335.869C95.5772 335.869 97.9609 339.761 105.501 338.821C105.501 338.821 131.786 278.824 133.651 274.916C135.876 270.981 136.661 266.395 135.872 261.944C135.045 255.636 126.143 186.77 126.143 186.77L88.2155 182.294Z" fill="#12A8FC"/>
<path opacity="0.5" d="M88.2155 182.294C85.5399 186.656 79.1511 194.131 80.497 201.298C82.1185 210.006 86.8371 216.103 101.139 220.368L114.565 269.014C114.565 269.014 107.577 275.5 105.436 281.775C103.296 288.05 95.5772 335.869 95.5772 335.869C95.5772 335.869 97.9609 339.761 105.501 338.821C105.501 338.821 131.786 278.824 133.651 274.916C135.876 270.981 136.661 266.395 135.872 261.944C135.045 255.636 126.143 186.77 126.143 186.77L88.2155 182.294Z" fill="white"/>
<path d="M85.7832 138.448C86.8209 135.691 90.1289 133.389 93.1125 134.199C102.469 136.745 117.014 140.102 119.787 140.913C119.787 140.913 118.554 161.993 129.321 168.284C128.819 172.289 126.078 186.656 126.078 186.656C126.078 186.656 113.106 192.948 102.469 189.899C91.8315 186.851 88.2155 182.343 88.2155 182.343L93.5503 173.651C92.4152 170.814 88.0047 161.23 85.167 152.312C84.1234 147.719 84.3363 142.93 85.7832 138.448Z" fill="#12A8FC"/>
<path opacity="0.2" d="M85.7832 138.448C86.8209 135.691 90.1289 133.389 93.1125 134.199C102.469 136.745 117.014 140.102 119.787 140.913C119.787 140.913 118.554 161.993 129.321 168.284C128.819 172.289 126.078 186.656 126.078 186.656C126.078 186.656 113.106 192.948 102.469 189.899C91.8315 186.851 88.2155 182.343 88.2155 182.343L93.5503 173.651C92.4152 170.814 88.0047 161.23 85.167 152.312C84.1234 147.719 84.3363 142.93 85.7832 138.448Z" fill="black"/>
<path opacity="0.25" d="M92.0909 170.181C96.5252 172.848 101.173 175.143 105.987 177.04C101.619 176.956 97.3419 175.774 93.5502 173.603L92.0909 170.181Z" fill="#12A8FC"/>
<path d="M94.8474 90.6613C94.8474 90.6613 90.4044 83.0888 79.524 85.0509C68.6435 87.0129 64.2329 98.5582 64.3951 105.871C64.5572 113.184 67.0057 118.292 60.4547 126.951C59.1635 128.659 58.2537 130.624 57.7866 132.713C57.3195 134.802 57.3061 136.967 57.7472 139.062C58.1883 141.157 59.0737 143.133 60.3436 144.856C61.6135 146.58 63.2384 148.011 65.1085 149.053C73.8486 153.917 75.9728 145.453 73.9459 138.221C71.6109 129.935 80.2861 128.492 82.6049 122.216C84.9236 115.941 80.3672 102.758 83.2859 98.2826C86.529 93.418 90.9071 94.099 93.0151 95.753L94.8474 90.6613Z" fill="#263238"/>
<path d="M119.787 140.913C122.695 141.531 125.535 142.432 128.267 143.604C131.835 145.356 145.747 167.198 145.747 167.198C145.747 167.198 144.758 175.419 133.375 178.678L126.646 170.181C126.646 170.181 116.754 155.409 119.787 140.913Z" fill="#12A8FC"/>
<path opacity="0.1" d="M119.787 140.913C122.695 141.531 125.535 142.432 128.267 143.604C131.835 145.356 145.747 167.198 145.747 167.198C145.747 167.198 144.758 175.419 133.375 178.678L126.646 170.181C126.646 170.181 116.754 155.409 119.787 140.913Z" fill="black"/>
<path d="M128.624 172.743C125.634 169.263 123.378 165.215 121.992 160.841C121.992 160.841 121.992 170.279 128.202 175.159L128.624 172.743Z" fill="#12A8FC"/>
<path opacity="0.4" d="M128.624 172.743C125.634 169.263 123.378 165.215 121.992 160.841C121.992 160.841 121.992 170.279 128.202 175.159L128.624 172.743Z" fill="black"/>
<path d="M143.266 149.004C143.477 148.534 144.466 148.566 145.472 149.004L147.288 149.896C147.288 149.896 148.699 146.961 152.915 148.728C157.131 150.496 155.833 153.885 155.833 153.885L157.763 154.874C158.833 155.409 159.547 156.236 159.384 156.723L159.06 157.582L142.845 149.799L143.266 149.004Z" fill="#455A64"/>
<path d="M144.92 150.853C146.445 151.534 147.028 151.858 146.542 153.025C146.055 154.193 145.358 155.312 145.358 155.312L152.525 158.749C152.525 158.749 153.287 157.128 153.612 156.414C153.936 155.701 154.52 155.425 155.655 155.977L156.141 155.49L144.791 150.22L144.92 150.853Z" fill="#455A64"/>
<path d="M141.953 154.469L142.602 153.107C142.958 152.344 145.212 152.669 147.645 153.82L152.298 156.025C154.714 157.16 156.401 158.701 156.044 159.463L155.395 160.825L141.953 154.469Z" fill="#455A64"/>
</svg>
