<svg width="297" height="224" viewBox="0 0 297 224" fill="none" xmlns="http://www.w3.org/2000/svg">
<path d="M55.4178 199.553C110.61 232.15 200.13 232.15 255.322 199.553C310.514 166.955 310.514 114.112 255.322 81.5215C200.13 48.9311 110.61 48.9243 55.4178 81.5215C0.225336 114.119 0.205144 166.962 55.4178 199.553Z" fill="#E2E2E2"/>
<path d="M271.247 79.132C271.55 75.3493 274.464 68.9012 278.779 64.3243C283.093 59.7474 289.999 57.5127 294.26 59.3637C298.231 61.0935 297.356 66.4108 292.119 69.5541C286.883 72.6974 279.088 76.5609 276.416 82.5176L271.247 89.6657V79.132Z" fill="#ECEFF1"/>
<path opacity="0.2" d="M271.247 79.132C271.55 75.3493 274.464 68.9012 278.779 64.3243C283.093 59.7474 289.999 57.5127 294.26 59.3637C298.231 61.0935 297.356 66.4108 292.119 69.5541C286.883 72.6974 279.088 76.5609 276.416 82.5176L271.247 89.6657V79.132Z" fill="black"/>
<path d="M292.611 61.1143C287.664 62.0566 273.166 71.3922 271.268 85.4864" stroke="white" stroke-miterlimit="10" stroke-linecap="round"/>
<path d="M271.833 96.1148C272.593 94.0956 275.905 90.3465 280.67 88.509C285.435 86.6715 289.03 85.0292 290.766 82.0677C292.503 79.1061 289.481 76.1984 284.668 76.4071C279.856 76.6157 271.839 81.6571 271.274 89.6667L271.833 96.1148Z" fill="#ECEFF1"/>
<path d="M287.118 78.8018C282.958 79.2123 272.849 85.3441 271.489 92.2095" stroke="white" stroke-miterlimit="10" stroke-linecap="round"/>
<path d="M23.2183 115.337C23.0126 109.989 21.8238 104.726 19.7115 99.8088C16.1644 91.4021 8.98938 86.953 5.16629 86.3472C1.34321 85.7415 -2.60776 90.3857 2.25859 95.905C7.12495 101.424 16.4538 108.815 19.1327 119.994L23.5144 127.627L23.2183 115.337Z" fill="#ECEFF1"/>
<path opacity="0.2" d="M23.2183 115.337C23.0126 109.989 21.8238 104.726 19.7115 99.8088C16.1644 91.4021 8.98938 86.953 5.16629 86.3472C1.34321 85.7415 -2.60776 90.3857 2.25859 95.905C7.12495 101.424 16.4538 108.815 19.1327 119.994L23.5144 127.627L23.2183 115.337Z" fill="black"/>
<path d="M5.16455 88.9121C13.0126 93.5833 22.1059 105.84 23.378 122.129" stroke="white" stroke-linecap="round" stroke-linejoin="round"/>
<path d="M22.6205 135.455C21.5369 131.114 18.7032 126.88 13.0426 122.626C7.38202 118.372 -0.183382 114.717 0.43585 110.376C1.05508 106.035 6.78971 106.338 10.9897 108.256C15.1897 110.174 22.4724 118.069 23.5157 127.614L22.6205 135.455Z" fill="#ECEFF1"/>
<path d="M4.40625 109.017C9.85818 110.363 21.5563 121.065 23.2524 130.178" stroke="white" stroke-linecap="round" stroke-linejoin="round"/>
<path d="M24.1675 138.134C23.7152 137.839 23.3392 137.441 23.0701 136.973C22.801 136.505 22.6466 135.98 22.6194 135.441V38.2825C22.6477 37.7436 22.8026 37.219 23.0715 36.7512C23.3405 36.2834 23.716 35.8857 24.1675 35.5901L58.8781 15.5526C59.3269 15.2724 59.8435 15.1197 60.3725 15.1109C60.9015 15.102 61.4229 15.2373 61.8809 15.5022C62.3388 15.7672 62.716 16.1518 62.972 16.6148C63.228 17.0778 63.3531 17.6018 63.3339 18.1305V24.619C63.3339 25.6084 64.007 26.0122 64.8887 25.5142L108.322 0.441984C108.771 0.162198 109.287 0.0095715 109.815 0.000435669C110.343 -0.00870016 110.864 0.125998 111.322 0.390119C111.78 0.65424 112.157 1.03784 112.414 1.49988C112.67 1.96191 112.796 2.48499 112.778 3.01314V152.356L80.7666 170.825L24.1675 138.134Z" fill="#263238"/>
<path d="M111.324 0.394737C110.855 0.16606 110.339 0.0517193 109.817 0.0610785C109.295 0.0704376 108.783 0.203232 108.322 0.448584L64.8887 25.5208C64.0271 26.0188 63.3339 25.615 63.3339 24.6256V18.1371C63.353 17.6084 63.2279 17.0844 62.9719 16.6214C62.716 16.1584 62.3388 15.7738 61.8808 15.5088C61.4229 15.2439 60.9015 15.1086 60.3725 15.1175C59.8435 15.1263 59.3269 15.279 58.8781 15.5592L24.1674 35.5967C23.7113 35.8855 23.3342 36.2834 23.0703 36.7544L42.98 48.2506L112.778 7.93995V3.01974C112.759 2.49875 112.618 1.98958 112.365 1.53351C112.112 1.07745 111.756 0.687313 111.324 0.394737Z" fill="#455A64"/>
<path d="M111.23 2.12362L64.889 28.8785C64.0274 29.3766 63.3342 28.9727 63.3342 27.9833V18.1362C63.3342 17.1467 62.6611 16.7429 61.7861 17.241L27.0754 37.2785C26.6236 37.5736 26.2478 37.9713 25.9788 38.4392C25.7098 38.907 25.5551 39.4318 25.5273 39.9708V133.805C25.5548 134.345 25.71 134.87 25.9803 135.338C26.2506 135.806 26.6283 136.203 27.0822 136.497L83.6948 169.182L112.778 152.395V3.01882C112.778 2.02939 112.085 1.63227 111.23 2.12362Z" fill="#37474F"/>
<path d="M25.9839 135.3C26.2437 135.774 26.6217 136.173 27.081 136.458L83.6936 169.143L112.777 152.356V85.1895L25.9839 135.3Z" fill="#263238"/>
<path d="M33.0118 156.69L32.5877 156.447C32.2262 156.212 31.925 155.895 31.7087 155.522C31.4924 155.149 31.3669 154.731 31.3425 154.3V63.1317C31.3653 62.7008 31.4901 62.2815 31.7066 61.9082C31.9231 61.5349 32.225 61.2184 32.5877 60.9846L126.078 7.00369C126.463 6.80804 126.889 6.70605 127.32 6.70605C127.752 6.70605 128.177 6.80804 128.562 7.00369L128.986 7.25274C129.349 7.48653 129.651 7.80308 129.867 8.17635C130.084 8.54962 130.208 8.96895 130.231 9.39985V100.548C130.207 100.979 130.081 101.397 129.865 101.77C129.649 102.143 129.348 102.46 128.986 102.695L35.4954 156.69C35.1107 156.885 34.6852 156.987 34.2536 156.987C33.822 156.987 33.3965 156.885 33.0118 156.69Z" fill="#F5F5F5"/>
<path d="M37.1579 65.0358L31.706 61.8857C31.4837 62.257 31.3587 62.6783 31.3425 63.1107V154.279C31.3669 154.71 31.4924 155.128 31.7087 155.501C31.925 155.875 32.2262 156.191 32.5877 156.426L33.0118 156.669C33.3965 156.864 33.822 156.966 34.2536 156.966C34.6852 156.966 35.1107 156.864 35.4954 156.669L37.1579 155.706V65.0358Z" fill="#E0E0E0"/>
<path d="M34.2561 155.956V64.7871C34.2792 64.3571 34.4034 63.9385 34.6186 63.5655C34.8338 63.1924 35.1339 62.8753 35.4946 62.64L128.985 8.6591C129.658 8.26871 130.23 8.58506 130.23 9.37929V100.548C130.206 100.978 130.08 101.397 129.864 101.77C129.648 102.143 129.347 102.46 128.985 102.695L35.4946 156.689C34.808 157.066 34.2561 156.75 34.2561 155.956Z" fill="#EBEBEB"/>
<path d="M41.6196 65.8245L122.86 18.9244C123.715 18.4263 124.408 18.8302 124.408 19.8196V90.1159C124.381 90.655 124.227 91.1801 123.958 91.648C123.688 92.116 123.312 92.5135 122.86 92.8083L41.6196 139.702C40.7648 140.2 40.0715 139.796 40.0715 138.806V68.5169C40.0998 67.978 40.2547 67.4534 40.5237 66.9856C40.7927 66.5178 41.1681 66.12 41.6196 65.8245Z" fill="white"/>
<path d="M55.0473 62.3174C60.1089 59.3962 64.2079 61.7655 64.2079 67.6078C64.2079 73.4501 60.1089 80.5511 55.0473 83.4722C49.9858 86.3934 45.8867 84.0309 45.8867 78.1886C45.8867 72.3462 49.9858 65.2385 55.0473 62.3174Z" fill="#ECEFF1"/>
<path d="M63.535 83.5064C63.8458 82.9273 64.2891 82.4299 64.8288 82.0549C65.3685 81.6798 65.9893 81.4378 66.6404 81.3485C67.2915 81.2592 67.9546 81.3253 68.5753 81.5412C69.196 81.7572 69.7569 82.1169 70.212 82.591L80.7659 93.5824L100.824 44.3736C101.118 43.6521 101.609 43.0276 102.24 42.5711C102.872 42.1145 103.619 41.8443 104.396 41.791C105.174 41.7377 105.951 41.9036 106.639 42.2697C107.326 42.6358 107.898 43.1875 108.288 43.8621L124.395 71.7545V90.1161C124.368 90.6552 124.213 91.1802 123.944 91.6481C123.675 92.1161 123.299 92.5137 122.847 92.8084L41.6196 139.702C40.7648 140.2 40.0715 139.796 40.0715 138.807V127.162L63.535 83.5064Z" fill="#ECEFF1"/>
<path d="M50.4786 166.786L50.0478 166.537C49.6871 166.302 49.387 165.985 49.1718 165.611C48.9566 165.238 48.8325 164.82 48.8093 164.39V73.1877C48.8325 72.7576 48.9566 72.3391 49.1718 71.966C49.387 71.593 49.6871 71.2759 50.0478 71.0406L143.545 17.0664C143.928 16.8681 144.353 16.7646 144.784 16.7646C145.215 16.7646 145.639 16.8681 146.022 17.0664L146.453 17.3087C146.813 17.5441 147.114 17.8611 147.329 18.2342C147.544 18.6072 147.668 19.0258 147.691 19.4558V110.624C147.672 111.055 147.549 111.475 147.334 111.849C147.118 112.223 146.816 112.539 146.453 112.771L52.942 166.786C52.561 166.982 52.1388 167.084 51.7103 167.084C51.2818 167.084 50.8596 166.982 50.4786 166.786Z" fill="#F5F5F5"/>
<path d="M54.6098 75.1197L49.1579 71.9697C48.9364 72.3389 48.8114 72.7578 48.7944 73.188V164.356C48.8176 164.787 48.9417 165.205 49.1569 165.578C49.3721 165.951 49.6722 166.268 50.0329 166.504L50.4637 166.753C50.8464 166.951 51.2711 167.054 51.7021 167.054C52.1332 167.054 52.5579 166.951 52.9406 166.753L54.6098 165.79V75.1197Z" fill="#E0E0E0"/>
<path d="M51.7021 166.039V74.8703C51.7258 74.4404 51.8502 74.022 52.0654 73.6491C52.2805 73.2761 52.5803 72.9589 52.9406 72.7232L146.438 18.7423C147.111 18.3452 147.676 18.6683 147.676 19.4558V110.624C147.657 111.055 147.534 111.475 147.319 111.849C147.103 112.222 146.801 112.539 146.438 112.771L52.9406 166.786C52.2608 167.149 51.7021 166.826 51.7021 166.039Z" fill="#EBEBEB"/>
<path d="M59.0721 75.9199L140.313 29.013C141.168 28.5217 141.861 28.9255 141.861 29.9082V100.191C141.833 100.73 141.678 101.255 141.409 101.723C141.14 102.191 140.765 102.588 140.313 102.883L59.0721 149.79C58.2106 150.282 57.5173 149.884 57.5173 148.895V78.6122C57.5453 78.0725 57.7008 77.5471 57.971 77.0791C58.2413 76.6111 58.6187 76.2138 59.0721 75.9199Z" fill="white"/>
<path d="M72.5021 72.4004C77.557 69.4792 81.6627 71.8485 81.6627 77.6908C81.6627 83.5331 77.557 90.6341 72.5021 93.5552C67.4473 96.4764 63.3416 94.1072 63.3416 88.2648C63.3416 82.4225 67.4406 75.3215 72.5021 72.4004Z" fill="#ECEFF1"/>
<path d="M80.9904 93.5894C81.3004 93.0104 81.743 92.513 82.2821 92.1379C82.8213 91.7628 83.4415 91.5207 84.0922 91.4314C84.7429 91.3421 85.4054 91.4082 86.0257 91.6242C86.6459 91.8402 87.2062 92.1999 87.6606 92.6741L98.2684 103.665L118.319 54.4567C118.613 53.7334 119.104 53.1072 119.736 52.6493C120.368 52.1915 121.116 51.9205 121.895 51.8672C122.674 51.8138 123.452 51.9804 124.141 52.3478C124.829 52.7151 125.401 53.2686 125.791 53.9451L141.891 81.8375V100.192C141.863 100.731 141.708 101.256 141.439 101.724C141.17 102.192 140.794 102.59 140.342 102.885L59.1019 149.792C58.2404 150.283 57.5471 149.886 57.5471 148.896V137.252L80.9904 93.5894Z" fill="#ECEFF1"/>
<path d="M67.9118 176.821L67.4877 176.579C67.1271 176.344 66.827 176.027 66.6118 175.654C66.3966 175.281 66.2724 174.862 66.2493 174.432V83.2635C66.2721 82.8326 66.3968 82.4133 66.6133 82.04C66.8298 81.6668 67.1318 81.3502 67.4945 81.1164L160.985 27.1355C161.37 26.9399 161.795 26.8379 162.227 26.8379C162.658 26.8379 163.084 26.9399 163.469 27.1355L163.893 27.3846C164.255 27.6184 164.557 27.9349 164.774 28.3082C164.99 28.6815 165.115 29.1008 165.138 29.5317V120.7C165.114 121.131 164.988 121.549 164.772 121.922C164.555 122.295 164.254 122.612 163.893 122.847L70.4022 176.821C70.0166 177.018 69.5899 177.121 69.157 177.121C68.7241 177.121 68.2974 177.018 67.9118 176.821Z" fill="#F5F5F5"/>
<path d="M72.0652 85.1891L66.6335 82.0391C66.4112 82.4103 66.2862 82.8317 66.27 83.2641V174.433C66.2931 174.863 66.4173 175.281 66.6325 175.654C66.8477 176.027 67.1478 176.344 67.5085 176.58L67.9325 176.822C68.3172 177.018 68.7427 177.12 69.1743 177.12C69.606 177.12 70.0315 177.018 70.4162 176.822L72.0854 175.859L72.0652 85.1891Z" fill="#E0E0E0"/>
<path d="M69.157 176.109V84.9403C69.1801 84.5103 69.3043 84.0917 69.5195 83.7187C69.7347 83.3456 70.0348 83.0286 70.3954 82.7932L163.886 28.8056C164.559 28.4152 165.131 28.7315 165.131 29.5258V120.701C165.107 121.132 164.981 121.55 164.765 121.923C164.549 122.296 164.248 122.613 163.886 122.848L70.3954 176.822C69.7089 177.219 69.157 176.883 69.157 176.109Z" fill="#EBEBEB"/>
<path d="M76.5203 85.9691L157.761 39.069C158.616 38.5709 159.309 38.9747 159.309 39.9642V110.247C159.281 110.786 159.126 111.311 158.857 111.779C158.588 112.247 158.213 112.644 157.761 112.939L76.5203 159.853C75.6654 160.351 74.9722 159.947 74.9722 158.958V88.6546C75.0015 88.117 75.1569 87.5937 75.4258 87.1272C75.6947 86.6606 76.0696 86.2639 76.5203 85.9691Z" fill="white"/>
<path d="M89.9474 82.4687C95.0089 79.5476 99.108 81.9168 99.108 87.7591C99.108 93.6015 95.0089 100.702 89.9474 103.624C84.8858 106.545 80.7666 104.189 80.7666 98.3399C80.7666 92.4909 84.8858 85.3899 89.9474 82.4687Z" fill="#ECEFF1"/>
<path d="M98.4357 103.658C98.7464 103.079 99.1897 102.581 99.7294 102.206C100.269 101.831 100.89 101.589 101.541 101.5C102.192 101.411 102.855 101.477 103.476 101.693C104.097 101.909 104.657 102.268 105.113 102.742L115.687 113.734L135.744 64.525C136.039 63.8035 136.53 63.179 137.161 62.7224C137.793 62.2659 138.54 61.9956 139.317 61.9424C140.095 61.8891 140.871 62.0549 141.559 62.421C142.247 62.7871 142.819 63.3388 143.209 64.0135L159.316 91.9058V110.247C159.286 110.786 159.129 111.311 158.859 111.779C158.589 112.246 158.213 112.644 157.761 112.94L76.5203 159.853C75.6654 160.351 74.9722 159.947 74.9722 158.958V147.314L98.4357 103.658Z" fill="#ECEFF1"/>
<path d="M83.6951 169.142L92.4182 164.107V174.183L83.6951 169.142Z" fill="#263238"/>
<path d="M92.4176 98.7309V172.393C92.4176 173.382 91.7445 173.779 90.8695 173.288L83.6945 169.142L80.7666 170.824L93.757 178.322C94.2373 178.568 94.769 178.696 95.3085 178.696C95.8479 178.696 96.3797 178.568 96.8599 178.322L186.844 126.401C187.296 126.106 187.673 125.709 187.943 125.241C188.214 124.773 188.37 124.248 188.399 123.709V46.6817C188.416 46.1528 188.29 45.6291 188.033 45.1664C187.776 44.7037 187.398 44.3195 186.94 44.0548C186.482 43.7901 185.96 43.6548 185.431 43.6635C184.902 43.6721 184.385 43.8243 183.936 44.1038L93.9724 96.0453C93.5198 96.3386 93.143 96.7348 92.8728 97.2015C92.6026 97.6683 92.4466 98.1923 92.4176 98.7309Z" fill="#263238"/>
<path d="M98.2661 100.299L188.459 48.25V46.6817C188.476 46.1528 188.35 45.6291 188.093 45.1664C187.836 44.7037 187.458 44.3195 187 44.0548C186.542 43.7901 186.021 43.6548 185.491 43.6635C184.962 43.6721 184.445 43.8243 183.996 44.1038L93.9719 96.0453C93.5125 96.3302 93.1346 96.729 92.8748 97.203L98.2661 100.299Z" fill="#455A64"/>
<path d="M186.844 45.7867L96.8805 97.7282C96.4278 98.023 96.051 98.4204 95.7808 98.8882C95.5106 99.3561 95.3547 99.8811 95.3257 100.421V177.427C95.3257 178.417 95.9988 178.821 96.8805 178.323L186.844 126.401C187.297 126.107 187.674 125.709 187.944 125.241C188.214 124.773 188.37 124.248 188.399 123.709V46.6819C188.399 45.6925 187.699 45.2887 186.844 45.7867Z" fill="#37474F"/>
<path d="M119.28 145.429C119.108 145.431 118.938 145.387 118.789 145.301C118.609 145.183 118.465 145.019 118.372 144.826C118.278 144.633 118.238 144.418 118.257 144.204V106.767C118.281 106.279 118.421 105.803 118.665 105.379C118.91 104.955 119.252 104.596 119.664 104.331L163.723 78.8951C163.894 78.7606 164.101 78.6804 164.317 78.6649C164.534 78.6494 164.75 78.6992 164.938 78.808C165.126 78.9168 165.276 79.0795 165.371 79.2751C165.465 79.4706 165.498 79.69 165.467 79.9047V117.341C165.443 117.83 165.303 118.306 165.058 118.73C164.813 119.154 164.471 119.513 164.06 119.778L120 145.247C119.78 145.369 119.532 145.432 119.28 145.429ZM164.443 79.3528C164.306 79.359 164.173 79.4033 164.06 79.4807L120 104.91C119.691 105.116 119.434 105.392 119.248 105.714C119.063 106.036 118.954 106.396 118.93 106.767V144.204C118.918 144.299 118.929 144.395 118.963 144.484C118.997 144.573 119.053 144.653 119.125 144.715C119.215 144.748 119.311 144.757 119.406 144.742C119.5 144.727 119.589 144.687 119.664 144.628L163.723 119.192C164.032 118.987 164.29 118.714 164.476 118.392C164.661 118.071 164.77 117.712 164.793 117.341V79.9047C164.806 79.8099 164.795 79.7134 164.761 79.6241C164.727 79.5347 164.671 79.4553 164.598 79.3932C164.551 79.3658 164.498 79.3518 164.443 79.3528Z" fill="#FAFAFA"/>
<path d="M126.381 113.188C125.996 113.192 125.618 113.095 125.284 112.906C124.868 112.62 124.536 112.229 124.323 111.772C124.11 111.315 124.023 110.809 124.072 110.308C124.144 109.015 124.519 107.757 125.167 106.635C125.814 105.514 126.717 104.561 127.801 103.853C128.194 103.533 128.676 103.34 129.182 103.301C129.688 103.261 130.193 103.376 130.632 103.632C131.07 103.887 131.421 104.269 131.637 104.728C131.852 105.187 131.923 105.701 131.839 106.202C131.769 107.495 131.395 108.754 130.747 109.875C130.099 110.997 129.196 111.95 128.111 112.657C127.589 112.978 126.993 113.161 126.381 113.188ZM129.558 103.994C129.054 104.016 128.564 104.17 128.137 104.438C127.155 105.084 126.339 105.952 125.754 106.971C125.17 107.991 124.833 109.134 124.772 110.308C124.683 110.693 124.72 111.096 124.877 111.458C125.035 111.821 125.305 112.123 125.647 112.321C125.989 112.518 126.386 112.601 126.779 112.556C127.171 112.511 127.539 112.341 127.828 112.071C128.809 111.425 129.626 110.557 130.21 109.538C130.795 108.518 131.131 107.375 131.193 106.202C131.239 105.818 131.183 105.429 131.029 105.074C130.875 104.719 130.63 104.411 130.318 104.183C130.087 104.051 129.824 103.985 129.558 103.994Z" fill="#FAFAFA"/>
<path d="M118.595 142.615C118.546 142.605 118.5 142.584 118.46 142.555C118.421 142.535 118.386 142.507 118.358 142.473C118.329 142.44 118.308 142.401 118.294 142.359C118.281 142.317 118.277 142.273 118.281 142.229C118.285 142.185 118.298 142.142 118.319 142.104L131.363 116.493C131.559 116.105 131.844 115.77 132.194 115.512C132.543 115.255 132.949 115.083 133.377 115.011C133.805 114.939 134.245 114.969 134.659 115.097C135.074 115.226 135.453 115.451 135.765 115.753L148.661 128.164C148.693 128.195 148.717 128.231 148.734 128.272C148.751 128.312 148.76 128.356 148.76 128.4C148.76 128.444 148.751 128.487 148.734 128.527C148.717 128.568 148.693 128.605 148.661 128.635C148.63 128.667 148.593 128.692 148.552 128.709C148.511 128.726 148.467 128.735 148.422 128.735C148.378 128.735 148.334 128.726 148.293 128.709C148.252 128.692 148.215 128.667 148.183 128.635L135.287 116.257C135.05 116.03 134.764 115.862 134.45 115.765C134.137 115.668 133.805 115.646 133.481 115.701C133.158 115.755 132.851 115.884 132.586 116.078C132.321 116.271 132.105 116.524 131.955 116.816L118.911 142.433C118.881 142.49 118.835 142.538 118.779 142.57C118.723 142.602 118.659 142.618 118.595 142.615Z" fill="#FAFAFA"/>
<path d="M141.861 122.464C141.817 122.474 141.771 122.474 141.727 122.464C141.646 122.429 141.582 122.363 141.55 122.281C141.517 122.2 141.518 122.108 141.552 122.027L151.648 98.6846C151.828 98.2604 152.114 97.8897 152.479 97.6078C152.844 97.326 153.275 97.1425 153.731 97.075C154.187 97.0074 154.652 97.0581 155.083 97.222C155.514 97.386 155.895 97.6579 156.191 98.0115L165.372 109.111C165.401 109.144 165.423 109.183 165.436 109.225C165.45 109.267 165.455 109.311 165.451 109.355C165.447 109.399 165.435 109.441 165.414 109.48C165.394 109.519 165.366 109.554 165.331 109.582C165.27 109.63 165.193 109.656 165.115 109.654C165.036 109.653 164.961 109.625 164.901 109.575L155.72 98.4759C155.5 98.2089 155.215 98.0029 154.892 97.8777C154.57 97.7525 154.22 97.7122 153.878 97.7609C153.535 97.8096 153.211 97.9454 152.936 98.1555C152.661 98.3656 152.444 98.6428 152.307 98.9606L142.211 122.296C142.177 122.357 142.126 122.406 142.063 122.436C142 122.466 141.93 122.476 141.861 122.464Z" fill="#FAFAFA"/>
<path d="M174.902 62.863C172.822 62.863 171.429 61.6178 171.429 59.7668L171.611 48.0956C171.611 44.912 171.611 40.0793 175.165 37.9995C175.899 37.5331 176.745 37.273 177.615 37.2464C178.484 37.2198 179.345 37.4278 180.106 37.8484C180.868 38.269 181.502 38.8869 181.942 39.637C182.383 40.3872 182.613 41.2421 182.609 42.112C182.609 43.0475 182.575 44.1918 182.522 45.5177C182.518 45.6509 182.488 45.7821 182.433 45.9034C182.378 46.0248 182.299 46.1339 182.201 46.2243C182.103 46.3146 181.988 46.3845 181.863 46.4296C181.738 46.4747 181.605 46.4942 181.472 46.487C181.339 46.4809 181.209 46.4488 181.089 46.3924C180.968 46.336 180.86 46.2564 180.771 46.1583C180.682 46.0601 180.613 45.9453 180.568 45.8203C180.523 45.6954 180.503 45.5629 180.509 45.4302C180.556 44.1581 180.59 43.0072 180.59 42.112C180.594 41.5962 180.457 41.089 180.194 40.6454C179.931 40.2018 179.551 39.8386 179.097 39.5953C178.642 39.3519 178.129 39.2376 177.614 39.2648C177.099 39.292 176.601 39.4596 176.174 39.7495C173.825 41.0956 173.63 44.461 173.63 48.0822L173.448 59.7668C173.448 60.6418 174.236 60.8303 174.902 60.8303C176.001 60.8041 177.046 60.3521 177.817 59.5696C178.588 58.7871 179.025 57.7356 179.035 56.637L178.961 52.0264C178.961 51.7586 179.067 51.5018 179.257 51.3125C179.446 51.1232 179.703 51.0168 179.971 51.0168C180.238 51.0168 180.495 51.1232 180.684 51.3125C180.874 51.5018 180.98 51.7586 180.98 52.0264L181.054 56.6437C181.06 58.2832 180.415 59.858 179.262 61.0236C178.109 62.1891 176.542 62.8505 174.902 62.863Z" fill="#ECEFF1"/>
<path d="M190.06 134.601L119.837 175.148C119.476 175.383 119.175 175.699 118.958 176.072C118.742 176.445 118.616 176.864 118.592 177.295V177.786C118.616 178.218 118.741 178.637 118.957 179.012C119.174 179.386 119.475 179.704 119.837 179.94L178.429 213.769C178.813 213.964 179.239 214.066 179.671 214.066C180.102 214.066 180.528 213.964 180.912 213.769L251.135 173.223C251.496 172.988 251.797 172.671 252.014 172.298C252.23 171.925 252.355 171.506 252.38 171.075V170.577C252.355 170.147 252.23 169.728 252.014 169.355C251.797 168.982 251.496 168.665 251.135 168.43L192.543 134.601C192.158 134.406 191.733 134.304 191.301 134.304C190.87 134.304 190.444 134.406 190.06 134.601Z" fill="#455A64"/>
<path d="M118.592 177.293V177.785C118.616 178.216 118.741 178.636 118.957 179.01C119.174 179.384 119.475 179.702 119.837 179.939L178.429 213.767C178.81 213.968 179.236 214.07 179.667 214.064V207.764L121.5 174.19L119.837 175.153C119.477 175.387 119.176 175.703 118.96 176.075C118.743 176.447 118.617 176.864 118.592 177.293Z" fill="#263238"/>
<path d="M119.838 175.147L190.06 134.6C190.445 134.405 190.87 134.303 191.302 134.303C191.734 134.303 192.159 134.405 192.544 134.6L251.135 168.429C251.287 168.479 251.418 168.574 251.512 168.703C251.605 168.832 251.656 168.987 251.656 169.146C251.656 169.305 251.605 169.46 251.512 169.589C251.418 169.718 251.287 169.814 251.135 169.863L180.913 210.409C180.528 210.605 180.103 210.707 179.671 210.707C179.24 210.707 178.814 210.605 178.429 210.409L119.838 176.58C119.687 176.531 119.555 176.435 119.461 176.306C119.368 176.178 119.317 176.023 119.317 175.863C119.317 175.704 119.368 175.549 119.461 175.421C119.555 175.292 119.687 175.196 119.838 175.147Z" fill="#37474F"/>
<path d="M128.555 176.581L174.062 202.831C174.444 203.029 174.869 203.133 175.3 203.133C175.731 203.133 176.156 203.029 176.539 202.831L238.045 167.326C238.196 167.277 238.328 167.181 238.421 167.052C238.515 166.923 238.565 166.768 238.565 166.609C238.565 166.45 238.515 166.295 238.421 166.166C238.328 166.038 238.196 165.942 238.045 165.892L192.538 139.642C192.152 139.45 191.727 139.35 191.296 139.35C190.865 139.35 190.44 139.45 190.054 139.642L128.555 175.147C128.404 175.197 128.272 175.292 128.178 175.421C128.085 175.55 128.034 175.705 128.034 175.864C128.034 176.023 128.085 176.178 128.178 176.307C128.272 176.436 128.404 176.532 128.555 176.581Z" fill="white"/>
<path d="M142.586 171.028C145.797 169.177 151.007 169.177 154.217 171.028C157.428 172.879 157.435 175.887 154.217 177.759C151 179.63 145.797 179.61 142.586 177.759C139.376 175.908 139.376 172.886 142.586 171.028Z" fill="#ECEFF1"/>
<path d="M238.051 165.912L224.751 158.232L184.366 154.469C183.875 154.424 183.38 154.505 182.93 154.705C182.479 154.906 182.087 155.219 181.792 155.614C181.497 156.009 181.308 156.473 181.244 156.962C181.179 157.451 181.242 157.949 181.425 158.407L188.398 175.86L166.186 174.594C165.753 174.569 165.32 174.641 164.919 174.807C164.518 174.972 164.159 175.226 163.87 175.55C163.582 175.874 163.37 176.259 163.251 176.676C163.132 177.094 163.109 177.532 163.184 177.96L166.604 198.549L174.088 202.87C174.471 203.069 174.896 203.172 175.327 203.172C175.758 203.172 176.182 203.069 176.565 202.87L238.071 167.366C238.23 167.32 238.369 167.223 238.467 167.09C238.566 166.957 238.618 166.796 238.615 166.631C238.613 166.466 238.557 166.306 238.455 166.176C238.353 166.046 238.211 165.953 238.051 165.912Z" fill="#ECEFF1"/>
<path d="M237.836 117.094V90.2243L272.735 70.0791V96.9417L237.836 117.094Z" fill="#EBEBEB"/>
<path d="M237.835 90.2237L194.206 65.0371V91.9064L237.835 117.093V90.2237Z" fill="#E6E6E6"/>
<path d="M237.835 90.2231L273.77 69.472L229.105 43.6797L193.176 64.4374L237.835 90.2231Z" fill="#F0F0F0"/>
<path d="M237.836 90.2237V96.941L273.771 76.1967V69.4727L237.836 90.2237Z" fill="#EBEBEB"/>
<path d="M237.836 96.9411L272.735 76.7959V78.2699L237.836 98.4219V96.9411Z" fill="#E6E6E6"/>
<path d="M193.176 64.4385L237.835 90.2241V96.9414L193.176 71.1558V64.4385Z" fill="#EBEBEB"/>
<g style="mix-blend-mode:multiply" opacity="0.5">
<path d="M237.835 96.9415L194.206 71.7549V73.2357L237.835 98.4222V96.9415Z" fill="#E0E0E0"/>
</g>
<path d="M249.323 94.3098L261.244 87.4242C261.755 87.1281 262.172 87.3704 262.172 87.9627V95.0098C262.155 95.3332 262.063 95.6479 261.901 95.9286C261.74 96.2093 261.515 96.4479 261.244 96.6252L249.323 103.518C248.805 103.814 248.395 103.578 248.395 102.986V95.9185C248.409 95.5956 248.501 95.281 248.663 95.001C248.825 94.7211 249.051 94.4841 249.323 94.3098Z" fill="#E0E0E0"/>
<path d="M250.085 95.1102L260.478 89.1064C260.821 88.9112 261.104 89.0727 261.104 89.4631V94.767C261.094 94.9836 261.032 95.1947 260.923 95.3822C260.814 95.5697 260.661 95.7281 260.478 95.8439L250.085 101.848C249.742 102.043 249.466 101.848 249.466 101.484V96.1804C249.476 95.9655 249.538 95.7562 249.646 95.57C249.753 95.3838 249.904 95.2262 250.085 95.1102Z" fill="white"/>
<path d="M237.836 86.8513V59.982L272.735 39.8301V66.6994L237.836 86.8513Z" fill="#EBEBEB"/>
<path d="M237.835 59.9825L194.206 34.7959V61.6652L237.835 86.8518V59.9825Z" fill="#E6E6E6"/>
<path d="M237.835 59.9819L273.77 39.2241L229.105 13.4385L193.176 34.1895L237.835 59.9819Z" fill="#F5F5F5"/>
<path d="M237.836 59.9824V66.6997L273.771 45.9554V39.2246L237.836 59.9824Z" fill="#EBEBEB"/>
<path d="M237.836 66.6988L272.735 46.5469V48.0276L237.836 68.1729V66.6988Z" fill="#E6E6E6"/>
<path d="M193.176 34.1895L237.835 59.9818V66.6991L193.176 40.9135V34.1895Z" fill="#EBEBEB"/>
<g style="mix-blend-mode:multiply" opacity="0.5">
<path d="M237.835 66.6993L194.206 41.5127V42.9867L237.835 68.1733V66.6993Z" fill="#E0E0E0"/>
</g>
<path d="M249.323 64.0677L261.244 57.1821C261.755 56.8859 262.172 57.1282 262.172 57.7205V64.7676C262.154 65.0906 262.06 65.4048 261.899 65.6852C261.738 65.9656 261.513 66.2046 261.244 66.383L249.323 73.2619C248.805 73.5581 248.395 73.3157 248.395 72.7234V65.6763C248.409 65.3534 248.501 65.0388 248.663 64.7588C248.825 64.4789 249.051 64.2419 249.323 64.0677Z" fill="#E0E0E0"/>
<path d="M250.085 64.8625L260.478 58.8654C260.821 58.6702 261.104 58.825 261.104 59.2221V64.4789C261.09 64.6948 261.027 64.9046 260.918 65.0916C260.81 65.2786 260.659 65.4375 260.478 65.5558L250.085 71.5529C249.742 71.7548 249.466 71.5933 249.466 71.1962V65.9125C249.479 65.7011 249.542 65.4959 249.65 65.3134C249.758 65.131 249.907 64.9765 250.085 64.8625Z" fill="white"/>
<path d="M270.848 67.7834L237.833 86.8518L196.089 62.7354L195.066 63.3411L237.833 87.9489L271.877 68.3757L270.848 67.7834Z" fill="#E0E0E0"/>
</svg>
