<svg width="370" height="321" viewBox="0 0 370 321" fill="none" xmlns="http://www.w3.org/2000/svg">
<path d="M54.1417 293.173C126.343 330.276 243.367 330.276 315.584 293.173C387.8 256.071 387.784 195.91 315.584 158.799C243.383 121.689 126.359 121.697 54.1417 158.799C-18.0752 195.902 -18.0193 256.071 54.1417 293.173Z" fill="#F5F5F5"/>
<path d="M309.739 193.778C309.827 188.82 315.017 175.854 320.278 169.498C325.54 163.143 333.708 158.584 339.44 160.652C344.766 162.576 344.063 169.586 337.484 174.129C330.905 178.672 321.037 184.349 318.043 192.341L311.879 202.114L309.739 193.778Z" fill="#CFD8DC"/>
<path opacity="0.1" d="M309.739 193.778C309.827 188.82 315.017 175.854 320.278 169.498C325.54 163.143 333.708 158.584 339.44 160.652C344.766 162.576 344.063 169.586 337.484 174.129C330.905 178.672 321.037 184.349 318.043 192.341L311.879 202.114L309.739 193.778Z" fill="black"/>
<path d="M310.681 197.802C310.758 197.797 310.832 197.767 310.891 197.717C310.95 197.667 310.991 197.598 311.008 197.523C314.625 180.644 328.573 167.119 336.813 164.221C336.858 164.206 336.9 164.181 336.936 164.15C336.972 164.118 337.001 164.079 337.022 164.036C337.043 163.993 337.055 163.946 337.058 163.898C337.06 163.851 337.053 163.803 337.037 163.758C337.02 163.713 336.996 163.672 336.964 163.637C336.932 163.602 336.893 163.573 336.85 163.553C336.807 163.533 336.76 163.522 336.713 163.52C336.665 163.518 336.618 163.526 336.573 163.542C328.166 166.496 313.97 180.237 310.297 197.371C310.281 197.465 310.3 197.562 310.352 197.642C310.404 197.722 310.484 197.779 310.577 197.802H310.681Z" fill="white"/>
<path d="M313.013 208.685C313.859 205.914 317.348 201.371 322.921 197.666C329.085 193.571 336.829 191.774 338.666 188.525C340.869 184.636 337.62 180.86 331.352 181.53C325.085 182.201 313.923 190.545 311.943 203.375L313.013 208.685Z" fill="#CFD8DC"/>
<path d="M311.854 205.738C311.924 205.733 311.99 205.709 312.047 205.668C312.103 205.627 312.147 205.571 312.173 205.507C317.619 191.095 328.773 186.193 333.906 185.618C333.954 185.613 334 185.599 334.041 185.576C334.083 185.553 334.12 185.523 334.15 185.485C334.179 185.448 334.201 185.406 334.214 185.36C334.227 185.314 334.231 185.266 334.226 185.219C334.222 185.171 334.208 185.125 334.186 185.083C334.163 185.04 334.133 185.003 334.095 184.973C334.058 184.943 334.015 184.921 333.968 184.909C333.922 184.896 333.874 184.893 333.827 184.9C328.15 185.53 317.06 190.537 311.471 205.251C311.437 205.34 311.44 205.439 311.479 205.526C311.518 205.613 311.59 205.681 311.678 205.714C311.732 205.743 311.795 205.752 311.854 205.738Z" fill="white"/>
<path d="M67.5315 240.677L73.5755 237.22C73.5755 237.22 76.4737 221.252 74.31 207.519C71.2601 188.213 58.1181 181.554 53.3436 183.479C48.5691 185.403 47.4433 191.111 56.0662 202.265C61.1521 208.852 67.6991 222.769 67.5315 240.677Z" fill="#CFD8DC"/>
<g opacity="0.1">
<path opacity="0.1" d="M67.5315 240.677L73.5755 237.22C73.5755 237.22 76.4737 221.252 74.31 207.519C71.2601 188.213 58.1181 181.554 53.3436 183.479C48.5691 185.403 47.4433 191.111 56.0662 202.265C61.1521 208.852 67.6991 222.769 67.5315 240.677Z" fill="black"/>
</g>
<path d="M69.7186 233.012H69.6627C69.6062 233.006 69.5516 232.987 69.5022 232.959C69.4529 232.931 69.4097 232.892 69.3754 232.847C69.3411 232.802 69.3164 232.75 69.3026 232.694C69.2889 232.639 69.2864 232.582 69.2955 232.525C71.7945 214.457 64.505 194.656 56.3611 186.672C56.3205 186.633 56.2883 186.586 56.2663 186.533C56.2443 186.481 56.2329 186.425 56.2329 186.369C56.2329 186.312 56.2443 186.256 56.2663 186.204C56.2883 186.152 56.3205 186.105 56.3611 186.065C56.4418 185.985 56.5509 185.941 56.6645 185.941C56.7781 185.941 56.8872 185.985 56.9679 186.065C65.2874 194.193 72.6887 214.313 70.1577 232.653C70.1389 232.755 70.0844 232.847 70.004 232.913C69.9236 232.979 69.8225 233.014 69.7186 233.012Z" fill="white"/>
<path d="M50.7642 250.362C49.8141 250.913 47.842 249.715 47.0915 249.204C45.7985 248.326 44.7536 247.13 44.0575 245.731C43.2653 244.144 42.9863 242.35 43.2591 240.597C43.4103 239.676 43.6264 238.766 43.9058 237.875L44.7042 235.224C45.0123 234.37 45.1428 233.463 45.0875 232.557C44.8559 230.745 43.2511 229.475 41.79 228.381C40.1932 227.168 38.4925 225.571 38.5005 223.391C38.6198 221.702 39.2934 220.1 40.4167 218.832C41.4626 217.515 42.7002 216.349 43.6104 214.952C44.3602 213.994 44.7602 212.808 44.7441 211.591C44.6474 210.842 44.3974 210.122 44.0096 209.475C43.1219 208.125 42.3475 206.705 41.6942 205.227C41.1592 203.702 41.2391 201.81 42.4287 200.716C42.9608 200.319 43.5667 200.032 44.211 199.872C44.8553 199.711 45.5251 199.681 46.1813 199.782C47.4168 199.936 48.6043 200.356 49.6624 201.012C53.1275 202.936 55.0996 207.032 58.7723 208.517C60.2313 208.969 61.7165 209.331 63.2195 209.603C63.9712 209.743 64.6854 210.038 65.3165 210.469C65.9475 210.901 66.4815 211.46 66.8843 212.11C68.2336 214.8 65.7266 218.122 66.6767 220.98C67.4751 223.511 69.9741 224.477 71.3554 226.753C71.915 227.761 72.1413 228.921 72.0021 230.066C71.8791 231.998 71.4056 233.892 70.6049 235.655C69.7052 237.408 68.6778 239.091 67.531 240.693C67.4751 240.733 50.9079 250.282 50.7642 250.362Z" fill="#CFD8DC"/>
<path d="M60.5773 245.124C60.5207 245.122 60.465 245.109 60.4135 245.086C60.362 245.062 60.3156 245.028 60.277 244.987C60.2385 244.945 60.2085 244.897 60.1888 244.844C60.169 244.79 60.16 244.734 60.1621 244.677C60.8727 227.575 52.8087 208.685 46.9483 203.2C46.8702 203.118 46.8267 203.009 46.8267 202.896C46.8267 202.783 46.8702 202.674 46.9483 202.593C47.0291 202.513 47.1381 202.468 47.2517 202.468C47.3654 202.468 47.4744 202.513 47.5551 202.593C53.5353 208.182 61.759 227.392 61.0404 244.741C61.0283 244.853 60.9731 244.955 60.8866 245.027C60.8002 245.098 60.6892 245.133 60.5773 245.124Z" fill="white"/>
<path d="M58.0136 224.924H57.8858C53.8328 223.806 49.6696 223.134 45.4704 222.92C45.4138 222.918 45.3581 222.905 45.3066 222.882C45.2551 222.858 45.2087 222.824 45.1701 222.783C45.1316 222.741 45.1016 222.693 45.0819 222.64C45.0621 222.586 45.0531 222.53 45.0552 222.473C45.0562 222.416 45.0687 222.36 45.0919 222.308C45.1152 222.256 45.1486 222.209 45.1904 222.17C45.2321 222.132 45.2813 222.102 45.3349 222.082C45.3885 222.063 45.4455 222.055 45.5024 222.058C49.7767 222.282 54.0143 222.967 58.1413 224.102C58.2365 224.135 58.3172 224.2 58.3693 224.287C58.4214 224.373 58.4416 224.475 58.4264 224.574C58.4112 224.674 58.3616 224.765 58.2862 224.832C58.2108 224.899 58.1143 224.937 58.0136 224.94V224.924Z" fill="white"/>
<path d="M52.8728 244.015L140.004 294.315C141.075 294.858 142.26 295.142 143.461 295.142C144.663 295.142 145.847 294.858 146.918 294.315L311.895 199.056C313.804 197.954 313.804 196.165 311.895 195.064L224.756 144.763C223.685 144.22 222.5 143.936 221.299 143.936C220.098 143.936 218.913 144.22 217.842 144.763L52.8728 240.022C50.9646 241.132 50.9646 242.913 52.8728 244.015Z" fill="#37474F"/>
<path d="M99.9632 267.384C101.448 268.136 103.089 268.528 104.754 268.528C106.418 268.528 108.059 268.136 109.544 267.384C112.195 265.851 112.195 263.392 109.544 261.843C108.059 261.091 106.418 260.699 104.754 260.699C103.089 260.699 101.448 261.091 99.9632 261.843C97.3124 263.376 97.3124 265.883 99.9632 267.384Z" fill="#263238"/>
<path d="M140.004 294.323L52.8727 244.023C51.1641 243.04 50.9884 241.508 52.3298 240.406C51.4782 241.08 50.7785 241.926 50.2763 242.889C49.7742 243.852 49.4808 244.91 49.4155 245.995V249.244C49.4798 250.444 49.8264 251.612 50.4272 252.652C51.0279 253.693 51.8658 254.577 52.8727 255.232L140.004 305.533C141.07 306.087 142.26 306.362 143.461 306.331V295.145C142.258 295.169 141.068 294.886 140.004 294.323Z" fill="#455A64"/>
<path d="M311.895 210.289C312.901 209.633 313.738 208.749 314.339 207.708C314.94 206.668 315.287 205.501 315.352 204.301V201.052C315.285 199.967 314.99 198.909 314.487 197.946C313.983 196.983 313.282 196.137 312.43 195.463C313.779 196.565 313.604 198.098 311.895 199.088L146.918 294.323C145.853 294.879 144.663 295.154 143.461 295.121V306.363C144.663 306.396 145.853 306.121 146.918 305.565L311.895 210.289Z" fill="#263238"/>
<path d="M154.367 283.896L72.1304 236.406C70.9806 235.743 70.9806 234.673 72.1304 234.01L207.398 155.869C208.041 155.543 208.753 155.372 209.474 155.372C210.196 155.372 210.907 155.543 211.55 155.869L293.827 203.351C294.977 204.006 294.977 205.084 293.827 205.746L158.511 283.896C157.869 284.222 157.159 284.393 156.439 284.393C155.719 284.393 155.009 284.222 154.367 283.896Z" fill="#FAFAFA"/>
<path d="M132.978 219.998L181.625 248.078L150.918 265.811C150.381 266.079 149.79 266.219 149.19 266.219C148.59 266.219 147.998 266.079 147.461 265.811L102.271 239.719C102.062 239.648 101.881 239.514 101.753 239.335C101.624 239.156 101.555 238.941 101.555 238.721C101.555 238.501 101.624 238.286 101.753 238.107C101.881 237.928 102.062 237.794 102.271 237.723L132.978 219.998Z" fill="#E6E6E6"/>
<path d="M181.585 248.078L175.853 225.292C175.723 224.748 175.42 224.26 174.99 223.902C174.556 223.533 174.017 223.307 173.45 223.256L132.946 219.998L181.585 248.078Z" fill="#E0E0E0"/>
<path d="M181.585 248.079L138.048 246.282C137.526 246.261 137.029 246.055 136.646 245.701C136.263 245.347 136.018 244.868 135.956 244.35L132.938 219.99L181.585 248.079Z" fill="#E0E0E0"/>
<path d="M181.585 248.079L138.048 246.282C137.526 246.261 137.029 246.055 136.646 245.701C136.263 245.347 136.018 244.868 135.956 244.35L132.938 219.99L138.311 243.943C138.36 244.156 138.475 244.348 138.64 244.492C138.805 244.636 139.011 244.723 139.229 244.741L181.585 248.079Z" fill="#FAFAFA"/>
<path d="M142.702 246.21L149.194 266.809L150.918 265.811L142.702 246.21Z" fill="#FAFAFA"/>
<path d="M100.546 238.721L102.271 237.723L136.219 242.466L100.546 238.721Z" fill="#FAFAFA"/>
<path d="M160.651 209.754L199.35 232.11C199.886 232.382 200.478 232.523 201.078 232.523C201.679 232.523 202.271 232.382 202.807 232.11L257.73 200.413C257.939 200.342 258.12 200.208 258.248 200.029C258.376 199.85 258.445 199.635 258.445 199.415C258.445 199.195 258.376 198.98 258.248 198.801C258.12 198.622 257.939 198.488 257.73 198.417L219.031 176.061C218.495 175.79 217.903 175.648 217.302 175.648C216.702 175.648 216.11 175.79 215.574 176.061L160.651 207.758C160.442 207.829 160.261 207.963 160.133 208.142C160.004 208.321 159.935 208.536 159.935 208.756C159.935 208.977 160.004 209.191 160.133 209.37C160.261 209.549 160.442 209.684 160.651 209.754Z" fill="#E6E6E6"/>
<path d="M191.422 206.8C190.961 206.084 190.688 205.263 190.628 204.413C190.568 203.563 190.723 202.712 191.079 201.938C191.797 200.341 193.362 198.808 195.765 197.427C198.4 195.878 201.309 194.85 204.332 194.401C207.282 193.976 210.284 194.084 213.195 194.72C216.197 195.374 219.078 196.497 221.73 198.05C224.295 199.524 226.041 201.046 226.967 202.617C227.42 203.285 227.69 204.06 227.752 204.865C227.813 205.671 227.664 206.478 227.319 207.208C226.616 208.701 225.139 210.098 222.904 211.391C220.76 212.686 218.348 213.473 215.854 213.691C213.777 213.893 211.687 213.464 209.857 212.461C209.529 212.319 209.235 212.109 208.995 211.844C208.754 211.58 208.572 211.268 208.46 210.928C208.407 210.634 208.433 210.331 208.535 210.051C208.638 209.77 208.813 209.522 209.043 209.331C207.757 209.436 206.462 209.347 205.203 209.068C203.968 208.802 202.782 208.344 201.69 207.711C199.848 206.646 198.884 205.491 198.799 204.245C198.714 203 199.595 201.855 201.442 200.812C203.671 199.505 206.221 198.85 208.803 198.92C211.441 198.978 214.02 199.712 216.293 201.052C217.233 201.576 218.072 202.266 218.768 203.088C219.321 203.696 219.682 204.454 219.806 205.267L212.62 209.435C212.037 209.77 211.718 210.066 211.67 210.321C211.622 210.577 211.83 210.848 212.285 211.12C213.279 211.603 214.417 211.699 215.478 211.391C217.042 211.025 218.538 210.414 219.909 209.579C221.714 208.541 222.856 207.423 223.335 206.249C223.575 205.68 223.666 205.059 223.601 204.444C223.535 203.83 223.314 203.242 222.959 202.736C221.996 201.36 220.714 200.237 219.223 199.463C216.159 197.65 212.695 196.622 209.139 196.469C205.531 196.367 201.97 197.304 198.879 199.167C196.915 200.301 195.654 201.499 195.095 202.76C194.815 203.348 194.691 203.997 194.736 204.646C194.78 205.295 194.992 205.922 195.35 206.465C196.317 207.888 197.623 209.049 199.151 209.842C200.165 210.423 201.235 210.902 202.344 211.271C203.379 211.629 204.45 211.87 205.538 211.99C205.654 211.999 205.768 212.029 205.873 212.078C205.929 212.078 205.929 212.182 205.873 212.285L204.819 213.763C204.776 213.82 204.725 213.871 204.668 213.914C204.512 213.967 204.344 213.967 204.189 213.914C202.872 213.748 201.577 213.443 200.324 213.004C199.015 212.569 197.753 212.005 196.556 211.319C194.081 209.994 192.372 208.437 191.422 206.8ZM208.069 207.495C209.17 207.635 210.287 207.425 211.263 206.896L215.438 204.501C214.944 203.662 214.213 202.988 213.339 202.561C212.006 201.779 210.492 201.358 208.947 201.339C207.408 201.312 205.892 201.71 204.564 202.489C203.398 203.16 202.831 203.822 202.863 204.477C202.863 205.132 203.518 205.81 204.74 206.513C205.764 207.081 206.9 207.419 208.069 207.503V207.495Z" fill="#FAFAFA"/>
<path d="M261.635 173.985C261.963 174.155 262.327 174.243 262.697 174.243C263.066 174.243 263.43 174.155 263.759 173.985C263.885 173.941 263.995 173.859 264.073 173.749C264.151 173.64 264.193 173.509 264.193 173.375C264.193 173.24 264.151 173.109 264.073 173C263.995 172.89 263.885 172.808 263.759 172.764C263.428 172.6 263.065 172.516 262.697 172.516C262.328 172.516 261.965 172.6 261.635 172.764C261.508 172.808 261.398 172.89 261.32 173C261.242 173.109 261.201 173.24 261.201 173.375C261.201 173.509 261.242 173.64 261.32 173.749C261.398 173.859 261.508 173.941 261.635 173.985Z" fill="#263238"/>
<path d="M265.02 183.598C265.677 183.933 266.403 184.107 267.14 184.107C267.877 184.107 268.603 183.933 269.26 183.598C270.434 182.928 270.434 181.826 269.26 181.155C268.603 180.821 267.877 180.646 267.14 180.646C266.403 180.646 265.677 180.821 265.02 181.155C263.823 181.826 263.823 182.928 265.02 183.598Z" fill="#263238"/>
<path d="M262.034 179.343C262.832 178.888 262.776 178.137 261.938 177.658L247.998 169.602C247.549 169.362 247.051 169.233 246.542 169.224C246.034 169.216 245.531 169.329 245.075 169.554C244.277 170.001 244.341 170.76 245.171 171.239L259.112 179.287C259.56 179.524 260.059 179.652 260.566 179.662C261.073 179.672 261.576 179.562 262.034 179.343Z" fill="#263238"/>
<path d="M81.2893 77.808C81.3334 76.9505 81.58 76.1157 82.0088 75.3719C82.4376 74.628 83.0365 73.9963 83.7564 73.5285L210.09 0.592999C210.855 0.2032 211.702 0 212.561 0C213.42 0 214.267 0.2032 215.032 0.592999L217.811 2.18983C218.53 2.65692 219.128 3.28738 219.557 4.02973C219.985 4.77208 220.232 5.6053 220.278 6.46137V103.309C220.229 104.166 219.98 104.999 219.552 105.742C219.123 106.485 218.527 107.117 217.811 107.589L91.4771 180.524C90.712 180.91 89.867 181.112 89.01 181.112C88.153 181.112 87.308 180.91 86.5429 180.524L83.7564 178.928C83.04 178.456 82.4439 177.823 82.0155 177.08C81.5871 176.337 81.3385 175.504 81.2893 174.648V77.808Z" fill="#CFD8DC"/>
<path opacity="0.4" d="M82.0059 75.3728L89.016 79.4128L219.557 4.0422C219.141 3.29093 218.543 2.65662 217.817 2.19786L215.022 0.601022C214.258 0.211292 213.413 0.00810242 212.555 0.00810242C211.697 0.00810242 210.852 0.211292 210.088 0.601022L83.7624 73.5285C83.026 73.9795 82.4205 74.6154 82.0059 75.3728Z" fill="white"/>
<path opacity="0.1" d="M81.2881 77.7999V174.632C81.3337 175.49 81.5818 176.325 82.012 177.069C82.4422 177.813 83.0422 178.444 83.7632 178.912L86.5417 180.508C86.7565 180.633 86.984 180.735 87.2203 180.812C87.5503 180.921 87.8898 180.998 88.2343 181.043C88.8832 181.127 89.5415 181.103 90.1825 180.971C90.3445 180.938 90.5045 180.896 90.6615 180.844C90.7634 180.816 90.8624 180.779 90.9569 180.732C90.7702 180.812 90.5692 180.853 90.3661 180.853C90.163 180.853 89.962 180.812 89.7753 180.732C89.5165 180.559 89.3094 180.319 89.1759 180.038C89.0423 179.757 88.9873 179.445 89.0168 179.135V82.2471C88.9922 81.8079 89.1021 81.3717 89.3317 80.9965C89.5614 80.6214 89.8999 80.3251 90.3022 80.1473L89.0168 79.3967L82.0067 75.3568C81.5641 76.0972 81.3169 76.9378 81.2881 77.7999Z" fill="black"/>
<path opacity="0.2" d="M89.0164 79.4127L147.524 101.273C149.548 102.026 151.767 102.068 153.818 101.391C155.868 100.715 157.627 99.3615 158.806 97.5528L168.204 83.1812L220.021 3.78659L170.072 83.7002L220.276 103.349C220.225 104.226 219.95 105.076 219.478 105.816L169.936 83.9238L159.014 101.409C157.802 103.35 155.931 104.788 153.744 105.46C151.557 106.132 149.201 105.992 147.109 105.066L139.341 101.633L89.767 180.724C89.5082 180.551 89.3011 180.311 89.1675 180.03C89.034 179.749 88.979 179.437 89.0085 179.127V177.53L139.093 101.569L89.0164 79.4127Z" fill="black"/>
<path d="M103.492 56.8016L94.8534 51.8275L94.7736 51.7796C90.9412 49.6158 85.6876 49.9432 79.8671 53.2965C68.1543 60.0591 58.6611 76.5066 58.6611 90.0238C58.6611 96.7704 61.0564 101.521 64.8489 103.741L72.7053 108.22L74.5816 105.082C76.719 104.596 78.7704 103.788 80.6655 102.687C92.3783 95.9241 101.871 79.4767 101.871 65.9595C101.871 64.1349 101.648 62.3171 101.209 60.5462L103.492 56.8016Z" fill="#37474F"/>
<path d="M88.0594 58.0152C76.3386 64.7778 66.8455 81.2251 66.8455 94.7424C66.8455 108.26 76.3386 113.753 88.0514 106.99C99.7642 100.227 109.265 83.7721 109.265 70.2629C109.265 56.7537 99.7722 51.2446 88.0594 58.0152Z" fill="#455A64"/>
<path d="M81.464 84.1154C81.3886 84.0373 81.3338 83.9417 81.3045 83.8372C81.2753 83.7327 81.2724 83.6225 81.2963 83.5166C81.3366 83.2285 81.4462 82.9546 81.6157 82.7182L88.1707 72.9855C88.3384 72.754 88.498 72.5224 88.6737 72.2989C88.8198 72.0899 89.0074 71.9133 89.2246 71.7799L91.6199 70.4226C91.6993 70.3636 91.7944 70.3293 91.8932 70.3241C91.992 70.3188 92.0902 70.3429 92.1754 70.3931C92.2606 70.4434 92.3291 70.5177 92.3723 70.6068C92.4155 70.6958 92.4315 70.7956 92.4183 70.8936V93.3611C92.4056 93.6441 92.3203 93.919 92.1708 94.1595C92.0386 94.4082 91.8431 94.6176 91.6039 94.7663L89.1607 96.1715C89.0795 96.2332 88.9827 96.271 88.8812 96.2809C88.7797 96.2907 88.6775 96.2722 88.5859 96.2274C88.5023 96.1692 88.4359 96.0896 88.3938 95.9968C88.3516 95.9041 88.3352 95.8017 88.3463 95.7005V78.5265L84.0748 84.858C83.9336 85.0896 83.7284 85.2754 83.484 85.3929C83.3955 85.4374 83.2964 85.4565 83.1978 85.4481C83.0991 85.4396 83.0047 85.4039 82.9251 85.345L81.464 84.1154Z" fill="#FAFAFA"/>
<path d="M277.084 161.554V160.125H277.435C277.965 159.154 278.771 158.362 279.751 157.849C281.748 156.838 283.955 156.311 286.194 156.311C288.433 156.311 290.64 156.838 292.637 157.849C293.617 158.362 294.423 159.154 294.953 160.125H295.304V161.506C295.304 162.871 294.442 164.245 292.637 165.291C290.645 166.294 288.444 166.817 286.213 166.815C283.982 166.814 281.782 166.289 279.791 165.283C277.962 164.261 277.076 162.887 277.084 161.554Z" fill="#263238"/>
<path d="M292.637 156.404C290.641 155.389 288.433 154.86 286.194 154.86C283.954 154.86 281.746 155.389 279.75 156.404C276.189 158.456 276.189 161.786 279.75 163.845C281.747 164.857 283.955 165.384 286.194 165.384C288.432 165.384 290.64 164.857 292.637 163.845C296.198 161.786 296.198 158.456 292.637 156.404Z" fill="#455A64"/>
<path d="M288.573 105.401V159.518C288.554 159.724 288.481 159.922 288.36 160.09C288.239 160.259 288.076 160.392 287.886 160.476C287.373 160.74 286.803 160.877 286.226 160.877C285.648 160.877 285.079 160.74 284.565 160.476C284.376 160.392 284.212 160.259 284.092 160.09C283.971 159.922 283.897 159.724 283.878 159.518V105.401H288.573Z" fill="#37474F"/>
<path d="M283.846 111.294V112.986L288.541 115.693V114.008L283.846 111.294Z" fill="#263238"/>
<path d="M313.795 91.0697L313.396 91.8681L309.101 100.475L307.065 104.603L300.166 118.439L299.408 119.964H299.272C298.995 119.974 298.719 119.91 298.474 119.781L267.727 102.008C267.497 101.863 267.306 101.666 267.167 101.433C267.028 101.2 266.946 100.937 266.928 100.667V88.7862C266.928 82.862 270.832 75.804 275.647 73.0255C277.93 71.7081 279.998 71.6043 281.555 72.4746L313.795 91.0697Z" fill="#455A64"/>
<path d="M307.99 91.7005C306.042 92.4191 298.976 98.2555 298.976 107.453C298.976 115.182 298.976 119.19 298.976 119.917H299.264H299.399L300.158 118.392L307.064 104.603L309.1 100.515L309.571 99.5809L307.99 91.7005Z" fill="#37474F"/>
<path d="M316.326 110.192C316.249 110.322 316.139 110.429 316.007 110.503L315.927 110.551L300.047 119.773C299.849 119.878 299.631 119.938 299.408 119.948H299.272V107.453C299.312 105.193 299.78 102.96 300.653 100.874L301.452 101.321L307.081 104.571L315.815 109.625L316.263 109.88C316.311 109.914 316.344 109.965 316.356 110.023C316.368 110.081 316.358 110.142 316.326 110.192Z" fill="#37474F"/>
<path d="M313.795 91.0697C312.254 90.2713 310.218 90.407 307.991 91.7005C305.257 93.4186 303.048 95.8545 301.604 98.7425C301.237 99.4346 300.91 100.146 300.622 100.874C299.748 102.96 299.28 105.193 299.24 107.453V119.941H299.376C299.599 119.93 299.817 119.87 300.015 119.765L315.887 110.591L315.967 110.543C316.092 110.461 316.201 110.355 316.286 110.232C316.51 109.952 316.639 109.608 316.654 109.25V97.4171C316.694 94.2235 315.576 92.0119 313.795 91.0697ZM315.568 109.753L300.398 118.535C300.27 118.607 300.166 118.535 300.166 118.4V107.453C300.207 105.348 300.637 103.269 301.436 101.321C301.445 101.279 301.461 101.238 301.484 101.202C301.79 100.431 302.141 99.6788 302.538 98.9501C303.883 96.2978 305.922 94.0599 308.438 92.4749C309.413 91.8563 310.534 91.5065 311.688 91.4609C312.283 91.4543 312.87 91.5971 313.396 91.8761C314.913 92.6745 315.791 94.6466 315.791 97.3852V109.361C315.787 109.44 315.765 109.516 315.726 109.584C315.687 109.651 315.633 109.709 315.568 109.753Z" fill="#455A64"/>
<path d="M315.799 97.4171V109.657L301.428 101.353C301.437 101.311 301.453 101.27 301.476 101.234C303.017 97.3851 305.612 94.1196 308.43 92.5068C309.405 91.8882 310.526 91.5384 311.68 91.4928C314.227 91.4609 315.799 93.7364 315.799 97.4171Z" fill="#263238"/>
<path d="M289.499 103.485L290.769 102.751C291.04 102.628 291.338 102.579 291.634 102.609C291.929 102.638 292.212 102.745 292.453 102.918C293.151 103.374 293.731 103.987 294.147 104.708C294.563 105.429 294.804 106.238 294.849 107.07C294.878 107.362 294.83 107.657 294.709 107.924C294.589 108.192 294.4 108.423 294.162 108.595L292.988 109.274L292.773 108.914C292.532 108.861 292.301 108.773 292.086 108.651C291.389 108.196 290.809 107.582 290.393 106.861C289.976 106.14 289.736 105.331 289.691 104.499C289.693 104.292 289.717 104.086 289.763 103.884L289.499 103.485Z" fill="#E0E0E0"/>
<path d="M291.248 103.621C291.944 104.075 292.524 104.687 292.941 105.406C293.357 106.126 293.597 106.934 293.643 107.765C293.643 109.297 292.565 109.912 291.248 109.154C290.551 108.698 289.971 108.085 289.555 107.364C289.139 106.642 288.898 105.833 288.853 105.002C288.845 103.477 289.922 102.854 291.248 103.621Z" fill="#FAFAFA"/>
<path d="M291.248 107.046C291.064 107.046 290.887 106.973 290.757 106.843C290.627 106.712 290.553 106.536 290.553 106.351V86.7023C290.553 86.5181 290.627 86.3414 290.757 86.2111C290.887 86.0809 291.064 86.0077 291.248 86.0077C291.432 86.0077 291.609 86.0809 291.739 86.2111C291.87 86.3414 291.943 86.5181 291.943 86.7023V106.351C291.943 106.536 291.87 106.712 291.739 106.843C291.609 106.973 291.432 107.046 291.248 107.046Z" fill="#EBEBEB"/>
<path d="M290.553 88.6425L283.591 84.6265L285.77 88.8182L283.591 90.4949L290.553 94.5189V88.6425Z" fill="#CFD8DC"/>
<path d="M312.174 101.409C312.169 101.302 312.139 101.198 312.087 101.105C312.034 101.012 311.96 100.933 311.871 100.874L296.126 91.7881C296.03 91.7409 295.925 91.7164 295.819 91.7164C295.712 91.7164 295.607 91.7409 295.511 91.7881L295.16 91.9877C295.071 92.0467 294.997 92.1259 294.944 92.2188C294.891 92.3118 294.861 92.4159 294.856 92.5226V104.603C294.863 104.709 294.894 104.812 294.947 104.905C294.999 104.998 295.072 105.077 295.16 105.138L310.929 114.184C311.024 114.231 311.129 114.255 311.236 114.255C311.343 114.255 311.448 114.231 311.543 114.184L311.895 113.984C311.984 113.925 312.058 113.846 312.11 113.753C312.163 113.66 312.193 113.556 312.198 113.449L312.174 101.409Z" fill="#F0F0F0"/>
<path d="M312.085 101.09L311.215 101.593L294.959 92.2033C295.011 92.1101 295.085 92.0307 295.175 91.9718L295.526 91.7722C295.62 91.7212 295.726 91.6945 295.833 91.6945C295.941 91.6945 296.046 91.7212 296.141 91.7722L311.885 100.858C311.969 100.919 312.037 100.998 312.085 101.09Z" fill="#FAFAFA"/>
<path d="M312.174 101.409V113.473C312.169 113.58 312.139 113.684 312.087 113.777C312.034 113.87 311.96 113.949 311.871 114.008L311.52 114.208L311.44 114.248H311.312C311.23 114.264 311.146 114.264 311.065 114.248H311.009H310.969C310.992 114.26 311.018 114.266 311.045 114.266C311.071 114.266 311.097 114.26 311.12 114.248C311.153 114.226 311.179 114.196 311.196 114.161C311.213 114.126 311.22 114.087 311.216 114.048V101.944C311.218 101.889 311.203 101.835 311.173 101.789C311.143 101.744 311.1 101.708 311.049 101.689L311.216 101.593L312.087 101.09C312.144 101.186 312.174 101.297 312.174 101.409Z" fill="#E0E0E0"/>
<path d="M311.216 101.593L303.918 104.315C303.666 104.408 303.39 104.413 303.135 104.329C302.88 104.245 302.661 104.077 302.513 103.852L301.348 102.064L294.888 92.1635L301.108 102.128L294.856 104.603C294.862 104.71 294.895 104.815 294.952 104.906L301.132 102.176L302.489 104.355C302.64 104.598 302.874 104.777 303.147 104.861C303.42 104.945 303.714 104.927 303.974 104.81L304.94 104.387L311.12 114.184C311.153 114.162 311.179 114.132 311.196 114.097C311.213 114.062 311.22 114.023 311.216 113.984V113.785L304.972 104.315L311.216 101.593Z" fill="#E0E0E0"/>
<path d="M324.358 103.341L321.165 106.99L321.101 107.07L318.115 110.527C317.937 110.722 317.733 110.892 317.508 111.03L300.741 120.691C300.685 120.724 300.622 120.746 300.558 120.755H300.55L306.586 113.785L306.937 113.385C311.388 108.528 316.494 104.315 322.107 100.866C324.302 99.5968 325.708 99.1417 326.243 99.4052C326.897 99.7645 326.291 101.114 324.358 103.341Z" fill="#37474F"/>
</svg>
