<svg width="292" height="246" viewBox="0 0 292 246" fill="none" xmlns="http://www.w3.org/2000/svg">
<path d="M42.7631 223.425C99.7773 253.212 192.223 253.212 249.237 223.425C306.251 193.637 306.258 145.344 249.237 115.557C192.216 85.7691 99.7838 85.7757 42.7631 115.543C-14.2576 145.311 -14.2511 193.644 42.7631 223.425Z" fill="#F5F5F5"/>
<path d="M232.952 174.282C242.516 174.282 250.269 170.586 250.269 166.025C250.269 161.465 242.516 157.769 232.952 157.769C223.388 157.769 215.635 161.465 215.635 166.025C215.635 170.586 223.388 174.282 232.952 174.282Z" fill="#E6E6E6"/>
<path d="M234.592 22.3389L237.074 23.2926V17.8316C237.074 13.5007 240.529 12.462 244.259 14.6307C248.009 16.7929 251.047 22.058 251.047 26.3889V27.1794C251.574 27.0168 252.132 26.9764 252.677 27.0613C253.223 27.1462 253.742 27.3541 254.195 27.6693C255.622 28.5989 256.808 29.8529 257.657 31.3288C258.507 32.8048 258.995 34.4607 259.081 36.1613V36.501L262.543 38.4999C263.48 39.1105 264.258 39.9333 264.817 40.9015C265.375 41.8697 265.697 42.9559 265.757 44.072C265.757 46.1231 264.32 46.9592 262.543 45.9271L234.592 29.7727C233.655 29.162 232.877 28.3392 232.318 27.3711C231.76 26.4029 231.438 25.3167 231.378 24.2006C231.378 22.1299 232.815 21.3133 234.592 22.3389Z" fill="#F0F0F0"/>
<path d="M39.0267 191.972L43.5993 189.359C43.5993 189.359 45.8007 177.248 44.1545 166.842C41.8421 152.209 31.8803 147.16 28.2614 148.616C24.6425 150.073 23.8194 154.391 30.3517 162.85C34.1927 167.835 39.1508 178.384 39.0267 191.972Z" fill="#ECEFF1"/>
<g opacity="0.1">
<path opacity="0.1" d="M39.0267 191.972L43.5993 189.359C43.5993 189.359 45.8007 177.248 44.1545 166.842C41.8421 152.209 31.8803 147.16 28.2614 148.616C24.6425 150.073 23.8194 154.391 30.3517 162.85C34.1927 167.835 39.1508 178.384 39.0267 191.972Z" fill="black"/>
</g>
<path d="M41.104 187.438C40.9838 187.43 40.8718 187.375 40.7923 187.284C40.7128 187.194 40.6722 187.075 40.6794 186.955C41.7376 168.73 38.2559 157.938 29.0388 150.884C28.9877 150.848 28.9447 150.802 28.9124 150.749C28.8802 150.696 28.8594 150.637 28.8514 150.576C28.8434 150.514 28.8483 150.452 28.866 150.392C28.8836 150.333 28.9136 150.278 28.9538 150.23C28.9893 150.18 29.0349 150.137 29.0876 150.104C29.1404 150.072 29.1993 150.051 29.2606 150.042C29.3218 150.034 29.3842 150.038 29.4438 150.055C29.5035 150.071 29.559 150.1 29.6071 150.139C39.0985 157.403 42.6717 168.429 41.607 186.994C41.6065 187.058 41.5926 187.12 41.5664 187.178C41.5401 187.235 41.5021 187.287 41.4546 187.329C41.4071 187.37 41.3514 187.402 41.291 187.421C41.2306 187.44 41.1668 187.446 41.104 187.438Z" fill="white"/>
<path d="M26.3146 199.307C25.5895 199.719 24.1002 198.811 23.5319 198.432C22.5545 197.772 21.7628 196.873 21.2325 195.819C20.633 194.606 20.4319 193.234 20.6576 191.9C20.7722 191.199 20.9359 190.507 21.1476 189.829C21.3435 189.176 21.533 188.49 21.7224 187.824C21.9588 187.176 22.0589 186.487 22.0164 185.799C21.8465 184.427 20.625 183.466 19.5145 182.637C18.2929 181.722 17.0191 180.507 17.0257 178.855C17.1157 177.573 17.628 176.358 18.4824 175.399C19.2728 174.4 20.2069 173.511 20.9189 172.46C21.4835 171.722 21.7786 170.814 21.7551 169.886C21.6777 169.32 21.4866 168.775 21.1933 168.285C20.524 167.26 19.9365 166.183 19.4361 165.065C19.0376 163.915 19.0964 162.452 19.9979 161.649C20.4 161.346 20.8588 161.128 21.3469 161.007C21.8351 160.886 22.3427 160.864 22.8394 160.943C23.7671 161.06 24.6584 161.377 25.4524 161.871C28.0653 163.327 29.5677 166.443 32.357 167.56C33.4602 167.904 34.5838 168.179 35.7212 168.383C36.2918 168.489 36.8341 168.713 37.3133 169.04C37.7925 169.367 38.198 169.791 38.504 170.284C39.523 172.329 37.6286 174.857 38.3472 177.006C39.0004 178.927 40.8425 179.658 41.8877 181.383C42.3167 182.147 42.4884 183.028 42.3776 183.898C42.2885 185.364 41.9298 186.801 41.3194 188.137C40.6524 189.471 39.8859 190.753 39.0265 191.972C38.9808 192.004 26.4322 199.242 26.3146 199.307Z" fill="#ECEFF1"/>
<path d="M33.8138 195.427H33.755C33.6358 195.41 33.5278 195.348 33.4544 195.252C33.381 195.157 33.3482 195.037 33.3631 194.917C34.6695 184.413 29.6788 170.258 22.1993 163.353C22.1351 163.267 22.1035 163.16 22.11 163.053C22.1165 162.945 22.1607 162.843 22.2349 162.765C22.3091 162.687 22.4084 162.638 22.5154 162.626C22.6224 162.614 22.7303 162.64 22.8199 162.7C30.6195 169.885 35.6494 184.106 34.2645 195.048C34.2473 195.155 34.1923 195.252 34.1096 195.321C34.0269 195.391 33.9219 195.428 33.8138 195.427Z" fill="white"/>
<path d="M32.5074 181.729C32.4107 181.728 32.3169 181.696 32.2395 181.638C28.2483 178.646 21.8597 179.188 21.8597 179.195C21.7997 179.202 21.739 179.197 21.6811 179.18C21.6232 179.163 21.5694 179.134 21.5229 179.096C21.4765 179.057 21.4384 179.009 21.4109 178.956C21.3834 178.902 21.3672 178.843 21.3632 178.783C21.3523 178.663 21.3894 178.543 21.4666 178.45C21.5437 178.357 21.6545 178.298 21.7747 178.287C22.0491 178.287 28.5488 177.705 32.8144 180.899C32.8643 180.936 32.9064 180.981 32.9382 181.034C32.9699 181.087 32.9907 181.146 32.9993 181.207C33.0078 181.268 33.0039 181.33 32.9879 181.389C32.9718 181.449 32.9439 181.504 32.9058 181.553C32.8586 181.612 32.7976 181.659 32.7282 181.69C32.6589 181.721 32.5831 181.734 32.5074 181.729Z" fill="white"/>
<path d="M31.8736 179.103C31.8139 179.101 31.755 179.088 31.7006 179.063C31.6461 179.039 31.597 179.003 31.5563 178.96C31.5156 178.916 31.484 178.864 31.4633 178.808C31.4426 178.752 31.4334 178.693 31.436 178.633C31.5319 177.012 31.9553 175.427 32.6806 173.974C33.4059 172.522 34.418 171.231 35.6559 170.18C35.7024 170.138 35.7572 170.106 35.8168 170.086C35.8763 170.065 35.9394 170.058 36.002 170.063C36.0646 170.069 36.1255 170.087 36.1807 170.117C36.236 170.147 36.2845 170.188 36.3232 170.237C36.3619 170.287 36.39 170.344 36.4057 170.404C36.4215 170.465 36.4244 170.529 36.4145 170.591C36.4046 170.653 36.382 170.712 36.3482 170.765C36.3143 170.818 36.2699 170.864 36.2176 170.899C35.0846 171.87 34.1558 173.057 33.4853 174.39C32.8147 175.723 32.4156 177.177 32.3113 178.666C32.305 178.78 32.2569 178.887 32.1762 178.968C32.0954 179.049 31.9877 179.097 31.8736 179.103Z" fill="white"/>
<path d="M243.025 156.044C243.214 153.751 244.984 149.845 247.597 147.062C250.21 144.279 254.397 142.94 256.978 144.064C259.382 145.109 258.852 148.329 255.671 150.237C252.49 152.144 247.774 154.476 246.154 158.075L243.018 162.406L243.025 156.044Z" fill="#ECEFF1"/>
<path opacity="0.1" d="M243.025 156.044C243.214 153.751 244.984 149.845 247.597 147.062C250.21 144.279 254.397 142.94 256.978 144.064C259.382 145.109 258.852 148.329 255.671 150.237C252.49 152.144 247.774 154.476 246.154 158.075L243.018 162.406L243.025 156.044Z" fill="black"/>
<path d="M243.025 160.205H242.986C242.903 160.193 242.829 160.15 242.779 160.084C242.728 160.018 242.707 159.934 242.718 159.852C243.861 151.36 252.477 145.481 255.9 144.828C255.942 144.816 255.985 144.813 256.028 144.82C256.071 144.826 256.112 144.841 256.149 144.864C256.185 144.887 256.217 144.917 256.241 144.953C256.266 144.988 256.283 145.029 256.291 145.071C256.299 145.113 256.298 145.157 256.288 145.199C256.279 145.241 256.261 145.281 256.235 145.316C256.209 145.351 256.177 145.38 256.139 145.402C256.102 145.423 256.06 145.437 256.018 145.442C252.823 146.049 244.423 151.882 243.338 159.937C243.327 160.012 243.289 160.08 243.232 160.13C243.174 160.179 243.101 160.205 243.025 160.205Z" fill="white"/>
<path d="M243.371 165.483C243.841 164.223 245.586 162.217 248.27 160.676C251.236 158.964 254.868 158.357 255.809 156.913C256.945 155.175 255.554 153.34 252.634 153.464C249.714 153.588 244.318 157.122 243.025 162.995L243.371 165.483Z" fill="#ECEFF1"/>
<path d="M243.162 164.268H243.103C243.021 164.251 242.949 164.202 242.903 164.132C242.856 164.063 242.839 163.978 242.855 163.896C243.717 159.552 250.04 155.051 254.09 154.861C254.173 154.859 254.253 154.889 254.315 154.943C254.376 154.998 254.415 155.073 254.423 155.155C254.426 155.197 254.42 155.239 254.407 155.278C254.393 155.318 254.371 155.354 254.343 155.385C254.315 155.416 254.281 155.441 254.244 155.459C254.206 155.477 254.165 155.487 254.123 155.489C250.341 155.665 244.272 159.996 243.469 164.02C243.455 164.091 243.417 164.154 243.36 164.2C243.304 164.245 243.234 164.269 243.162 164.268Z" fill="white"/>
<path d="M132.015 191.9V192.167C132.027 192.395 132.093 192.616 132.206 192.813C132.32 193.011 132.478 193.179 132.668 193.304L171.496 215.716C171.698 215.822 171.922 215.877 172.149 215.877C172.377 215.877 172.601 215.822 172.803 215.716L230.15 182.611C230.341 182.485 230.499 182.316 230.613 182.117C230.726 181.918 230.792 181.696 230.803 181.467V181.206C230.791 180.978 230.725 180.756 230.612 180.557C230.498 180.359 230.34 180.19 230.15 180.063L191.328 157.651C191.126 157.548 190.902 157.495 190.675 157.495C190.448 157.495 190.224 157.548 190.022 157.651L132.668 190.763C132.478 190.888 132.32 191.056 132.206 191.254C132.093 191.451 132.027 191.672 132.015 191.9Z" fill="#E0E0E0"/>
<path d="M132.014 191.899V192.167C132.027 192.395 132.092 192.616 132.206 192.813C132.319 193.011 132.478 193.179 132.668 193.304L171.496 215.716C171.696 215.825 171.921 215.879 172.149 215.873V210.752L135.098 189.358L132.668 190.763C132.478 190.888 132.319 191.056 132.206 191.254C132.092 191.451 132.027 191.672 132.014 191.899Z" fill="#E6E6E6"/>
<path d="M132.667 191.521L171.496 213.933C171.697 214.038 171.921 214.093 172.149 214.093C172.376 214.093 172.6 214.038 172.802 213.933L230.149 180.827C230.515 180.618 230.515 180.279 230.149 180.063L191.328 157.651C191.125 157.548 190.901 157.495 190.674 157.495C190.448 157.495 190.224 157.548 190.021 157.651L132.667 190.763C132.587 190.789 132.518 190.84 132.468 190.908C132.419 190.976 132.392 191.058 132.392 191.142C132.392 191.226 132.419 191.308 132.468 191.376C132.518 191.444 132.587 191.495 132.667 191.521Z" fill="white"/>
<path d="M182.137 200.464L156.008 185.368C155.551 185.106 155.531 184.714 155.956 184.446C156.206 184.328 156.48 184.269 156.756 184.275C157.033 184.28 157.304 184.35 157.549 184.479L183.679 199.569C184.136 199.837 184.156 200.222 183.731 200.49C183.482 200.611 183.208 200.673 182.931 200.668C182.654 200.663 182.382 200.593 182.137 200.464Z" fill="#EBEBEB"/>
<path d="M163.611 202.227L150.716 194.787C150.259 194.526 150.239 194.134 150.664 193.866C150.911 193.74 151.184 193.675 151.461 193.675C151.738 193.675 152.011 193.74 152.258 193.866L165.153 201.313C165.61 201.574 165.63 201.966 165.205 202.234C164.958 202.36 164.685 202.425 164.407 202.424C164.13 202.423 163.857 202.356 163.611 202.227Z" fill="#E0E0E0"/>
<path d="M167.276 200.247L158.209 195.022C157.889 194.832 157.876 194.545 158.17 194.368C158.343 194.278 158.536 194.231 158.732 194.231C158.927 194.231 159.12 194.278 159.293 194.368L168.367 199.594C168.687 199.784 168.7 200.071 168.399 200.247C168.225 200.336 168.033 200.382 167.838 200.382C167.642 200.382 167.45 200.336 167.276 200.247Z" fill="#EBEBEB"/>
<path d="M186.775 197.765L160.645 182.676C160.188 182.408 160.169 182.022 160.593 181.755C160.84 181.629 161.113 181.563 161.39 181.563C161.667 181.563 161.94 181.629 162.187 181.755L188.316 196.851C188.774 197.112 188.793 197.504 188.369 197.772C188.121 197.894 187.848 197.958 187.571 197.957C187.294 197.955 187.022 197.89 186.775 197.765Z" fill="#EBEBEB"/>
<path d="M191.413 195.1L165.283 180.004C164.826 179.742 164.807 179.351 165.231 179.083C165.478 178.957 165.751 178.892 166.028 178.892C166.305 178.892 166.578 178.957 166.825 179.083L192.954 194.179C193.405 194.44 193.431 194.832 193 195.1C192.754 195.225 192.482 195.289 192.206 195.289C191.931 195.289 191.659 195.225 191.413 195.1Z" fill="#EBEBEB"/>
<path d="M196.051 192.429L182.248 184.433C181.791 184.172 181.771 183.78 182.196 183.512C182.446 183.393 182.72 183.335 182.997 183.34C183.273 183.346 183.545 183.416 183.79 183.545L197.579 191.534C198.03 191.801 198.056 192.187 197.632 192.455C197.384 192.573 197.112 192.632 196.838 192.628C196.564 192.623 196.294 192.555 196.051 192.429Z" fill="#EBEBEB"/>
<path d="M209.148 184.839L183.019 169.749C182.568 169.488 182.542 169.096 182.966 168.828C183.214 168.702 183.489 168.637 183.767 168.637C184.045 168.637 184.319 168.702 184.567 168.828L210.696 183.924C211.147 184.185 211.173 184.577 210.742 184.845C210.495 184.971 210.221 185.037 209.944 185.035C209.667 185.034 209.394 184.967 209.148 184.839Z" fill="#EBEBEB"/>
<path d="M213.793 182.173L187.663 167.077C187.212 166.815 187.186 166.423 187.617 166.155C187.864 166.028 188.137 165.962 188.414 165.962C188.692 165.962 188.965 166.028 189.211 166.155L215.341 181.245C215.791 181.506 215.818 181.898 215.393 182.166C215.146 182.294 214.872 182.361 214.594 182.362C214.315 182.363 214.041 182.298 213.793 182.173Z" fill="#EBEBEB"/>
<path d="M204.51 187.51L178.381 172.413C177.923 172.152 177.904 171.76 178.328 171.492C178.578 171.374 178.852 171.315 179.129 171.321C179.406 171.326 179.677 171.396 179.922 171.525L206.052 186.621C206.509 186.883 206.535 187.274 206.104 187.536C205.855 187.657 205.581 187.718 205.304 187.714C205.027 187.709 204.755 187.639 204.51 187.51Z" fill="#EBEBEB"/>
<path d="M218.431 179.501L192.301 164.404C191.844 164.143 191.824 163.751 192.249 163.49C192.496 163.364 192.769 163.299 193.046 163.299C193.323 163.299 193.596 163.364 193.843 163.49L219.972 178.586C220.429 178.847 220.449 179.239 220.024 179.507C219.776 179.63 219.503 179.693 219.227 179.692C218.95 179.691 218.678 179.625 218.431 179.501Z" fill="#EBEBEB"/>
<path d="M173.71 202.704C172.752 202.221 171.693 201.97 170.62 201.97C169.547 201.97 168.489 202.221 167.53 202.704C165.825 203.691 165.825 205.317 167.53 206.271C168.488 206.757 169.546 207.011 170.62 207.011C171.694 207.011 172.753 206.757 173.71 206.271C175.415 205.291 175.415 203.691 173.71 202.704Z" fill="#E0E0E0"/>
<path d="M132.687 118.993L108.191 133.135C107.2 133.789 106.498 134.8 106.231 135.957L100.143 171.108C100.073 171.653 100.158 172.208 100.39 172.707C100.621 173.206 100.988 173.63 101.45 173.93L117.245 183.075C117.752 183.328 118.311 183.46 118.878 183.46C119.445 183.46 120.004 183.328 120.511 183.075L154.27 163.582C154.766 163.319 155.181 162.925 155.47 162.443C155.76 161.962 155.913 161.41 155.913 160.849C155.913 160.287 155.76 159.736 155.47 159.254C155.181 158.772 154.766 158.379 154.27 158.115L142.12 151.106C141.633 150.786 141.218 150.368 140.901 149.879C140.585 149.39 140.375 148.84 140.284 148.264L137.58 121.736C137.501 121.178 137.306 120.642 137.006 120.163C136.707 119.685 136.311 119.275 135.842 118.96C135.351 118.718 134.809 118.595 134.261 118.601C133.713 118.606 133.174 118.741 132.687 118.993Z" fill="#263238"/>
<path d="M118.897 176.869V183.44C119.47 183.451 120.037 183.316 120.544 183.048L154.303 163.556C154.772 163.262 155.165 162.861 155.451 162.387C155.737 161.912 155.908 161.378 155.949 160.825C155.913 160.179 155.685 159.559 155.296 159.042H149.763L118.897 176.869Z" fill="#37474F"/>
<path d="M135.777 120.77L111.274 134.919C110.279 135.569 109.576 136.581 109.314 137.741L103.788 169.645C103.717 170.191 103.801 170.747 104.033 171.248C104.264 171.748 104.632 172.173 105.095 172.473L117.232 179.482C117.739 179.736 118.298 179.868 118.865 179.868C119.432 179.868 119.991 179.736 120.498 179.482L154.303 159.964C155.211 159.441 155.211 158.592 154.303 158.063L142.152 151.054C141.665 150.734 141.25 150.316 140.934 149.827C140.618 149.338 140.408 148.788 140.317 148.212L137.612 121.684C137.616 121.47 137.559 121.259 137.447 121.075C137.336 120.892 137.175 120.744 136.983 120.649C136.791 120.553 136.576 120.514 136.362 120.535C136.149 120.556 135.946 120.638 135.777 120.77Z" fill="#263238"/>
<path d="M154.302 158.089L142.152 151.08C141.665 150.773 141.254 150.36 140.95 149.871L104.01 171.199C104.236 171.725 104.617 172.169 105.101 172.473L117.231 179.482C117.739 179.736 118.298 179.868 118.865 179.868C119.431 179.868 119.991 179.736 120.498 179.482L154.302 159.964C155.21 159.467 155.21 158.618 154.302 158.089Z" fill="#455A64"/>
<path d="M54.8414 188.901L53.2672 187.993C52.5974 187.555 52.0402 186.966 51.6407 186.272C51.2412 185.579 51.0107 184.801 50.9678 184.002V78.8314C51.0109 78.0324 51.2422 77.255 51.643 76.5625C52.0437 75.87 52.6025 75.2821 53.2737 74.8466L181.797 1.03132C182.512 0.669182 183.302 0.480469 184.103 0.480469C184.904 0.480469 185.694 0.669182 186.409 1.03132L187.605 1.68456C188.275 2.1218 188.834 2.71105 189.235 3.40452C189.635 4.09798 189.867 4.87612 189.91 5.67581V110.912C189.867 111.711 189.636 112.49 189.235 113.183C188.835 113.877 188.276 114.466 187.605 114.903L59.4467 188.901C58.7327 189.262 57.944 189.45 57.1441 189.45C56.3442 189.45 55.5555 189.262 54.8414 188.901Z" fill="#455A64"/>
<path d="M60.2306 81.4834L51.6405 76.5254C51.2327 77.2151 51.0078 77.9976 50.9873 78.7986V184.002C51.0302 184.801 51.2607 185.579 51.6602 186.272C52.0597 186.966 52.6169 187.555 53.2867 187.993L54.861 188.901C55.575 189.262 56.3637 189.449 57.1636 189.449C57.9635 189.449 58.7522 189.262 59.4663 188.901L60.2501 188.444L60.2306 81.4834Z" fill="#263238"/>
<path d="M57.1343 187.569V82.3982C57.1774 81.5984 57.4087 80.8201 57.8094 80.1265C58.2101 79.433 58.7688 78.8438 59.4402 78.407L187.605 4.37608C188.878 3.64446 189.91 4.2389 189.91 5.68254V110.912C189.867 111.712 189.636 112.49 189.235 113.184C188.835 113.877 188.276 114.466 187.605 114.903L59.4467 188.901C58.1729 189.633 57.1343 189.038 57.1343 187.569Z" fill="#37474F"/>
<path d="M117.323 148.356L129.467 141.34C130.381 140.817 131.113 141.19 131.113 142.176C131.074 142.729 130.905 143.265 130.619 143.74C130.332 144.214 129.938 144.614 129.467 144.907L117.323 151.922C116.415 152.445 115.677 152.073 115.677 151.086C115.718 150.534 115.889 149.999 116.175 149.525C116.461 149.05 116.854 148.65 117.323 148.356Z" fill="#263238"/>
<path d="M63.046 81.5758L183.744 11.6799C184.475 11.2618 185.05 11.6015 185.05 12.4376V104.158C185.027 104.614 184.897 105.058 184.67 105.454C184.443 105.851 184.126 106.188 183.744 106.438L63.046 176.125C62.3209 176.543 61.7395 176.203 61.7395 175.36V83.9079C61.7564 83.4433 61.8837 82.9895 62.1109 82.5839C62.3381 82.1784 62.6586 81.8328 63.046 81.5758Z" fill="white"/>
<path d="M70.9369 109.057L69.7023 108.358C69.2232 108.046 68.8243 107.626 68.5383 107.131C68.2523 106.636 68.0871 106.081 68.0562 105.51V87.9053C68.0871 87.3345 68.2523 86.7791 68.5383 86.2842C68.8243 85.7893 69.2232 85.3689 69.7023 85.0572L115.814 58.4314C116.321 58.1779 116.88 58.0459 117.447 58.0459C118.014 58.0459 118.573 58.1779 119.08 58.4314L120.308 59.1435C120.787 59.4555 121.186 59.876 121.472 60.3708C121.758 60.8657 121.923 61.4209 121.954 61.9916V79.6158C121.923 80.1873 121.758 80.7435 121.472 81.2393C121.186 81.7352 120.787 82.1569 120.308 82.4704L74.1965 109.09C73.689 109.341 73.1292 109.469 72.5628 109.463C71.9964 109.458 71.4393 109.319 70.9369 109.057Z" fill="#ECEFF1"/>
<path opacity="0.4" d="M70.9369 109.057L69.7023 108.358C69.2232 108.046 68.8243 107.626 68.5383 107.131C68.2523 106.636 68.0871 106.081 68.0562 105.51V87.9053C68.0871 87.3345 68.2523 86.7791 68.5383 86.2842C68.8243 85.7893 69.2232 85.3689 69.7023 85.0572L115.814 58.4314C116.321 58.1779 116.88 58.0459 117.447 58.0459C118.014 58.0459 118.573 58.1779 119.08 58.4314L120.308 59.1435C120.787 59.4555 121.186 59.876 121.472 60.3708C121.758 60.8657 121.923 61.4209 121.954 61.9916V79.6158C121.923 80.1873 121.758 80.7435 121.472 81.2393C121.186 81.7352 120.787 82.1569 120.308 82.4704L74.1965 109.09C73.689 109.341 73.1292 109.469 72.5628 109.463C71.9964 109.458 71.4393 109.319 70.9369 109.057Z" fill="#ECEFF1"/>
<path opacity="0.3" d="M70.9369 109.057L69.7023 108.358C69.2232 108.046 68.8243 107.626 68.5383 107.131C68.2523 106.636 68.0871 106.081 68.0562 105.51V87.9053C68.0871 87.3345 68.2523 86.7791 68.5383 86.2842C68.8243 85.7893 69.2232 85.3689 69.7023 85.0572L115.814 58.4314C116.321 58.1779 116.88 58.0459 117.447 58.0459C118.014 58.0459 118.573 58.1779 119.08 58.4314L120.308 59.1435C120.787 59.4555 121.186 59.876 121.472 60.3708C121.758 60.8657 121.923 61.4209 121.954 61.9916V79.6158C121.923 80.1873 121.758 80.7435 121.472 81.2393C121.186 81.7352 120.787 82.1569 120.308 82.4704L74.1965 109.09C73.689 109.341 73.1292 109.469 72.5628 109.463C71.9964 109.458 71.4393 109.319 70.9369 109.057Z" fill="white"/>
<path d="M75.6663 90.4015L68.5395 86.2861C68.245 86.777 68.0787 87.3341 68.0562 87.9061V105.498C68.0871 106.068 68.2523 106.624 68.5383 107.119C68.8243 107.614 69.2232 108.034 69.7023 108.346L70.9369 109.058C71.4428 109.315 72.0024 109.45 72.57 109.45C73.1376 109.45 73.6972 109.315 74.2031 109.058L75.6467 108.228L75.6663 90.4015Z" fill="#ECEFF1"/>
<path opacity="0.2" d="M75.6663 90.4015L68.5395 86.2861C68.245 86.777 68.0787 87.3341 68.0562 87.9061V105.498C68.0871 106.068 68.2523 106.624 68.5383 107.119C68.8243 107.614 69.2232 108.034 69.7023 108.346L70.9369 109.058C71.4428 109.315 72.0024 109.45 72.57 109.45C73.1376 109.45 73.6972 109.315 74.2031 109.058L75.6467 108.228L75.6663 90.4015Z" fill="black"/>
<path d="M72.5764 90.5182V108.11C72.5764 109.155 73.3146 109.586 74.2226 109.057L120.334 82.4377C120.813 82.1242 121.212 81.7025 121.498 81.2066C121.784 80.7108 121.949 80.1546 121.98 79.5831V61.9784C121.98 60.9333 121.242 60.5087 120.334 61.0313L74.2226 87.6505C73.7419 87.9653 73.3423 88.3891 73.0563 88.8873C72.7703 89.3856 72.6058 89.9444 72.5764 90.5182Z" fill="#ECEFF1"/>
<path d="M92.2779 80.8113L108.223 71.6007C108.877 71.2284 109.393 71.3982 109.393 71.9796C109.345 72.3391 109.215 72.6825 109.012 72.983C108.809 73.2834 108.539 73.5325 108.223 73.7107L92.2779 82.9213C91.6246 83.2936 91.1021 83.1238 91.1021 82.5424C91.1501 82.1824 91.2814 81.8385 91.4855 81.538C91.6896 81.2375 91.9609 80.9887 92.2779 80.8113Z" fill="white"/>
<path d="M92.095 86.2652L117.885 71.3584C118.433 71.0449 118.878 71.1886 118.878 71.6785C118.838 71.9832 118.728 72.2743 118.556 72.5285C118.383 72.7827 118.153 72.9927 117.885 73.1417L92.0754 88.0485C91.5267 88.3621 91.0825 88.2184 91.0825 87.7284C91.1239 87.4219 91.2371 87.1296 91.4131 86.8753C91.5891 86.621 91.8228 86.4119 92.095 86.2652Z" fill="white"/>
<path d="M92.095 89.8326L117.885 74.9258C118.433 74.6123 118.878 74.756 118.878 75.2459C118.838 75.5505 118.728 75.8417 118.556 76.0959C118.383 76.35 118.153 76.5601 117.885 76.7091L92.0754 91.6094C91.5267 91.9295 91.0825 91.7857 91.0825 91.2893C91.1248 90.9839 91.2386 90.6929 91.4145 90.4398C91.5904 90.1867 91.8236 89.9786 92.095 89.8326Z" fill="white"/>
<path d="M92.095 93.3924L117.885 78.4922C118.433 78.1787 118.878 78.3224 118.878 78.8123C118.837 79.1158 118.727 79.4056 118.554 79.6586C118.382 79.9116 118.152 80.1206 117.885 80.269L92.0754 95.1692C91.5267 95.4828 91.0825 95.3391 91.0825 94.8492C91.1248 94.5438 91.2386 94.2528 91.4145 93.9997C91.5904 93.7466 91.8236 93.5385 92.095 93.3924Z" fill="white"/>
<path d="M76.9859 89.6363L86.6995 84.0316C87.4311 83.607 88.0059 83.9467 88.0059 84.7893V96.0119C87.983 96.4679 87.8527 96.9121 87.6257 97.3082C87.3987 97.7044 87.0813 98.0413 86.6995 98.2917L76.9859 103.903C76.2543 104.321 75.6794 103.981 75.6794 103.139V91.9226C75.7024 91.4657 75.8327 91.0207 76.0596 90.6235C76.2866 90.2263 76.6039 89.8881 76.9859 89.6363Z" fill="#ECEFF1"/>
<path opacity="0.3" d="M76.9859 89.6363L86.6995 84.0316C87.4311 83.607 88.0059 83.9467 88.0059 84.7893V96.0119C87.983 96.4679 87.8527 96.9121 87.6257 97.3082C87.3987 97.7044 87.0813 98.0413 86.6995 98.2917L76.9859 103.903C76.2543 104.321 75.6794 103.981 75.6794 103.139V91.9226C75.7024 91.4657 75.8327 91.0207 76.0596 90.6235C76.2866 90.2263 76.6039 89.8881 76.9859 89.6363Z" fill="white"/>
<path d="M77.8157 94.5553C77.6101 94.556 77.4077 94.5043 77.2277 94.405C77.0125 94.265 76.8385 94.0701 76.7237 93.8405C76.6089 93.6108 76.5574 93.3547 76.5745 93.0985C76.6032 92.4953 76.7759 91.9078 77.0782 91.385C77.3805 90.8622 77.8036 90.4194 78.3121 90.0937C78.5176 89.9281 78.7685 89.8287 79.0316 89.8085C79.2947 89.7883 79.5578 89.8483 79.7862 89.9805C80.0146 90.1127 80.1976 90.311 80.3111 90.5493C80.4246 90.7875 80.4633 91.0546 80.422 91.3152C80.3946 91.918 80.2231 92.5053 79.9219 93.0282C79.6207 93.551 79.1986 93.994 78.691 94.3201C78.4249 94.474 78.123 94.5551 77.8157 94.5553ZM78.691 90.7208C78.3007 90.9816 77.9757 91.3288 77.7412 91.7355C77.5067 92.1422 77.369 92.5974 77.3388 93.0659C77.2986 93.191 77.3025 93.3261 77.3498 93.4486C77.3971 93.5712 77.4849 93.6739 77.5987 93.7396C77.7125 93.8053 77.8454 93.83 77.9752 93.8096C78.105 93.7893 78.2239 93.725 78.3121 93.6277C78.7031 93.3676 79.0287 93.0205 79.2632 92.6137C79.4978 92.2069 79.6351 91.7513 79.6643 91.2826C79.7045 91.1575 79.7006 91.0224 79.6533 90.8998C79.606 90.7772 79.5182 90.6745 79.4044 90.6089C79.2906 90.5432 79.1577 90.5185 79.0279 90.5388C78.8981 90.5592 78.7792 90.6234 78.691 90.7208Z" fill="white"/>
<path d="M88.0191 92.0275L86.164 90.0678C86.0725 89.9755 85.9601 89.9066 85.8364 89.8669C85.7126 89.8272 85.5812 89.8178 85.4531 89.8396C85.3249 89.8614 85.204 89.9136 85.1003 89.992C84.9966 90.0704 84.9134 90.1725 84.8575 90.2899L82.1923 96.169L80.8858 94.9931C80.7976 94.9149 80.6937 94.8564 80.5811 94.8214C80.4684 94.7865 80.3496 94.776 80.2326 94.7906C80.1161 94.8066 80.0044 94.8476 79.9052 94.9107C79.806 94.9739 79.7216 95.0577 79.6578 95.1564L75.6665 101.356V102.767L80.3698 95.5811L84.6615 99.4678L85.3474 99.0693L82.7672 96.7307L85.5303 90.623H85.6152L88.0191 93.1772V92.0275Z" fill="white"/>
<path d="M70.9369 138.452L69.7023 137.754C69.2232 137.442 68.8243 137.021 68.5383 136.527C68.2523 136.032 68.0871 135.476 68.0562 134.905V117.301C68.0871 116.73 68.2523 116.175 68.5383 115.68C68.8243 115.185 69.2232 114.764 69.7023 114.453L115.814 87.8269C116.321 87.5734 116.88 87.4414 117.447 87.4414C118.014 87.4414 118.573 87.5734 119.08 87.8269L120.308 88.539C120.787 88.851 121.186 89.2715 121.472 89.7664C121.758 90.2612 121.923 90.8164 121.954 91.3871V109.011C121.923 109.583 121.758 110.139 121.472 110.635C121.186 111.131 120.787 111.552 120.308 111.866L74.1965 138.485C73.689 138.737 73.1292 138.865 72.5628 138.859C71.9964 138.853 71.4393 138.714 70.9369 138.452Z" fill="#ECEFF1"/>
<path opacity="0.4" d="M70.9369 138.452L69.7023 137.754C69.2232 137.442 68.8243 137.021 68.5383 136.527C68.2523 136.032 68.0871 135.476 68.0562 134.905V117.301C68.0871 116.73 68.2523 116.175 68.5383 115.68C68.8243 115.185 69.2232 114.764 69.7023 114.453L115.814 87.8269C116.321 87.5734 116.88 87.4414 117.447 87.4414C118.014 87.4414 118.573 87.5734 119.08 87.8269L120.308 88.539C120.787 88.851 121.186 89.2715 121.472 89.7664C121.758 90.2612 121.923 90.8164 121.954 91.3871V109.011C121.923 109.583 121.758 110.139 121.472 110.635C121.186 111.131 120.787 111.552 120.308 111.866L74.1965 138.485C73.689 138.737 73.1292 138.865 72.5628 138.859C71.9964 138.853 71.4393 138.714 70.9369 138.452Z" fill="#ECEFF1"/>
<path opacity="0.3" d="M70.9369 138.452L69.7023 137.754C69.2232 137.442 68.8243 137.021 68.5383 136.527C68.2523 136.032 68.0871 135.476 68.0562 134.905V117.301C68.0871 116.73 68.2523 116.175 68.5383 115.68C68.8243 115.185 69.2232 114.764 69.7023 114.453L115.814 87.8269C116.321 87.5734 116.88 87.4414 117.447 87.4414C118.014 87.4414 118.573 87.5734 119.08 87.8269L120.308 88.539C120.787 88.851 121.186 89.2715 121.472 89.7664C121.758 90.2612 121.923 90.8164 121.954 91.3871V109.011C121.923 109.583 121.758 110.139 121.472 110.635C121.186 111.131 120.787 111.552 120.308 111.866L74.1965 138.485C73.689 138.737 73.1292 138.865 72.5628 138.859C71.9964 138.853 71.4393 138.714 70.9369 138.452Z" fill="white"/>
<path d="M75.6663 119.796L68.5395 115.681C68.245 116.172 68.0787 116.729 68.0562 117.301V134.892C68.0871 135.463 68.2523 136.018 68.5383 136.513C68.8243 137.008 69.2232 137.429 69.7023 137.74L70.9369 138.452C71.4428 138.71 72.0024 138.844 72.57 138.844C73.1376 138.844 73.6972 138.71 74.2031 138.452L75.6467 137.623L75.6663 119.796Z" fill="#ECEFF1"/>
<path opacity="0.2" d="M75.6663 119.796L68.5395 115.681C68.245 116.172 68.0787 116.729 68.0562 117.301V134.892C68.0871 135.463 68.2523 136.018 68.5383 136.513C68.8243 137.008 69.2232 137.429 69.7023 137.74L70.9369 138.452C71.4428 138.71 72.0024 138.844 72.57 138.844C73.1376 138.844 73.6972 138.71 74.2031 138.452L75.6467 137.623L75.6663 119.796Z" fill="black"/>
<path d="M72.5764 119.914V137.505C72.5764 138.55 73.3146 138.982 74.2226 138.452L120.334 111.833C120.813 111.52 121.212 111.098 121.498 110.602C121.784 110.106 121.949 109.55 121.98 108.979V91.374C121.98 90.3288 121.242 89.9042 120.334 90.4268L74.2226 117.046C73.7419 117.361 73.3423 117.785 73.0563 118.283C72.7703 118.781 72.6058 119.34 72.5764 119.914Z" fill="#ECEFF1"/>
<path d="M92.2779 110.207L108.223 100.996C108.877 100.624 109.393 100.794 109.393 101.375C109.345 101.735 109.215 102.078 109.012 102.378C108.809 102.679 108.539 102.928 108.223 103.106L92.2779 112.317C91.6246 112.689 91.1021 112.519 91.1021 111.938C91.1501 111.578 91.2814 111.234 91.4855 110.934C91.6896 110.633 91.9609 110.384 92.2779 110.207Z" fill="white"/>
<path d="M92.095 115.661L117.885 100.754C118.433 100.44 118.878 100.584 118.878 101.074C118.838 101.379 118.728 101.67 118.556 101.924C118.383 102.178 118.153 102.388 117.885 102.537L92.0754 117.444C91.5267 117.758 91.0825 117.614 91.0825 117.124C91.1239 116.817 91.2371 116.525 91.4131 116.271C91.5891 116.016 91.8228 115.807 92.095 115.661Z" fill="white"/>
<path d="M92.095 119.228L117.885 104.321C118.433 104.008 118.878 104.151 118.878 104.641C118.838 104.946 118.728 105.237 118.556 105.491C118.383 105.746 118.153 105.956 117.885 106.105L92.0754 121.005C91.5267 121.325 91.0825 121.181 91.0825 120.685C91.1248 120.379 91.2386 120.088 91.4145 119.835C91.5904 119.582 91.8236 119.374 92.095 119.228Z" fill="white"/>
<path d="M92.095 122.788L117.885 107.888C118.433 107.574 118.878 107.718 118.878 108.208C118.837 108.511 118.727 108.801 118.554 109.054C118.382 109.307 118.152 109.516 117.885 109.665L92.0754 124.565C91.5267 124.878 91.0825 124.735 91.0825 124.245C91.1248 123.939 91.2386 123.648 91.4145 123.395C91.5904 123.142 91.8236 122.934 92.095 122.788Z" fill="white"/>
<path d="M76.9859 119.032L86.6995 113.427C87.4311 113.002 88.0059 113.342 88.0059 114.185V125.407C87.983 125.863 87.8527 126.308 87.6257 126.704C87.3987 127.1 87.0813 127.437 86.6995 127.687L76.9859 133.298C76.2543 133.717 75.6794 133.377 75.6794 132.534V121.318C75.7024 120.861 75.8327 120.416 76.0596 120.019C76.2866 119.622 76.6039 119.284 76.9859 119.032Z" fill="#ECEFF1"/>
<path opacity="0.3" d="M76.9859 119.032L86.6995 113.427C87.4311 113.002 88.0059 113.342 88.0059 114.185V125.407C87.983 125.863 87.8527 126.308 87.6257 126.704C87.3987 127.1 87.0813 127.437 86.6995 127.687L76.9859 133.298C76.2543 133.717 75.6794 133.377 75.6794 132.534V121.318C75.7024 120.861 75.8327 120.416 76.0596 120.019C76.2866 119.622 76.6039 119.284 76.9859 119.032Z" fill="white"/>
<path d="M77.8157 123.951C77.6101 123.951 77.4077 123.9 77.2277 123.801C77.0125 123.661 76.8385 123.466 76.7237 123.236C76.6089 123.006 76.5574 122.75 76.5745 122.494C76.6032 121.891 76.7759 121.303 77.0782 120.781C77.3805 120.258 77.8036 119.815 78.3121 119.489C78.5176 119.324 78.7685 119.224 79.0316 119.204C79.2947 119.184 79.5578 119.244 79.7862 119.376C80.0146 119.508 80.1976 119.707 80.3111 119.945C80.4246 120.183 80.4633 120.45 80.422 120.711C80.3946 121.313 80.2231 121.901 79.9219 122.424C79.6207 122.946 79.1986 123.389 78.691 123.716C78.4249 123.869 78.123 123.951 77.8157 123.951ZM78.691 120.116C78.3007 120.377 77.9757 120.724 77.7412 121.131C77.5067 121.538 77.369 121.993 77.3388 122.461C77.2986 122.586 77.3025 122.722 77.3498 122.844C77.3971 122.967 77.4849 123.069 77.5987 123.135C77.7125 123.201 77.8454 123.225 77.9752 123.205C78.105 123.185 78.2239 123.121 78.3121 123.023C78.7031 122.763 79.0287 122.416 79.2632 122.009C79.4978 121.602 79.6351 121.147 79.6643 120.678C79.7045 120.553 79.7006 120.418 79.6533 120.295C79.606 120.173 79.5182 120.07 79.4044 120.004C79.2906 119.939 79.1577 119.914 79.0279 119.934C78.8981 119.955 78.7792 120.019 78.691 120.116Z" fill="white"/>
<path d="M88.0191 121.423L86.164 119.463C86.0725 119.371 85.9601 119.302 85.8364 119.262C85.7126 119.223 85.5812 119.213 85.4531 119.235C85.3249 119.257 85.204 119.309 85.1003 119.388C84.9966 119.466 84.9134 119.568 84.8575 119.685L82.1923 125.564L80.8858 124.389C80.7976 124.31 80.6937 124.252 80.5811 124.217C80.4684 124.182 80.3496 124.172 80.2326 124.186C80.1161 124.202 80.0044 124.243 79.9052 124.306C79.806 124.369 79.7216 124.453 79.6578 124.552L75.6665 130.751V132.169L80.3698 124.95L84.6615 128.837L85.3474 128.439L82.7672 126.1L85.5303 119.992H85.6152L88.0191 122.547V121.423Z" fill="white"/>
<path d="M70.9369 167.195L69.7023 166.496C69.2232 166.184 68.8243 165.764 68.5383 165.269C68.2523 164.774 68.0871 164.218 68.0562 163.648V146.043C68.0871 145.472 68.2523 144.917 68.5383 144.422C68.8243 143.927 69.2232 143.507 69.7023 143.195L115.814 116.569C116.321 116.316 116.88 116.184 117.447 116.184C118.014 116.184 118.573 116.316 119.08 116.569L120.308 117.281C120.787 117.593 121.186 118.014 121.472 118.509C121.758 119.003 121.923 119.559 121.954 120.129V137.753C121.923 138.325 121.758 138.881 121.472 139.377C121.186 139.873 120.787 140.295 120.308 140.608L74.1965 167.227C73.689 167.479 73.1292 167.607 72.5628 167.601C71.9964 167.595 71.4393 167.456 70.9369 167.195Z" fill="#ECEFF1"/>
<path opacity="0.4" d="M70.9369 167.195L69.7023 166.496C69.2232 166.184 68.8243 165.764 68.5383 165.269C68.2523 164.774 68.0871 164.218 68.0562 163.648V146.043C68.0871 145.472 68.2523 144.917 68.5383 144.422C68.8243 143.927 69.2232 143.507 69.7023 143.195L115.814 116.569C116.321 116.316 116.88 116.184 117.447 116.184C118.014 116.184 118.573 116.316 119.08 116.569L120.308 117.281C120.787 117.593 121.186 118.014 121.472 118.509C121.758 119.003 121.923 119.559 121.954 120.129V137.753C121.923 138.325 121.758 138.881 121.472 139.377C121.186 139.873 120.787 140.295 120.308 140.608L74.1965 167.227C73.689 167.479 73.1292 167.607 72.5628 167.601C71.9964 167.595 71.4393 167.456 70.9369 167.195Z" fill="#ECEFF1"/>
<path opacity="0.3" d="M70.9369 167.195L69.7023 166.496C69.2232 166.184 68.8243 165.764 68.5383 165.269C68.2523 164.774 68.0871 164.218 68.0562 163.648V146.043C68.0871 145.472 68.2523 144.917 68.5383 144.422C68.8243 143.927 69.2232 143.507 69.7023 143.195L115.814 116.569C116.321 116.316 116.88 116.184 117.447 116.184C118.014 116.184 118.573 116.316 119.08 116.569L120.308 117.281C120.787 117.593 121.186 118.014 121.472 118.509C121.758 119.003 121.923 119.559 121.954 120.129V137.753C121.923 138.325 121.758 138.881 121.472 139.377C121.186 139.873 120.787 140.295 120.308 140.608L74.1965 167.227C73.689 167.479 73.1292 167.607 72.5628 167.601C71.9964 167.595 71.4393 167.456 70.9369 167.195Z" fill="white"/>
<path d="M75.6663 148.538L68.5395 144.423C68.245 144.914 68.0787 145.471 68.0562 146.043V163.634C68.0871 164.205 68.2523 164.761 68.5383 165.256C68.8243 165.75 69.2232 166.171 69.7023 166.483L70.9369 167.195C71.4428 167.452 72.0024 167.586 72.57 167.586C73.1376 167.586 73.6972 167.452 74.2031 167.195L75.6467 166.365L75.6663 148.538Z" fill="#ECEFF1"/>
<path opacity="0.2" d="M75.6663 148.538L68.5395 144.423C68.245 144.914 68.0787 145.471 68.0562 146.043V163.634C68.0871 164.205 68.2523 164.761 68.5383 165.256C68.8243 165.75 69.2232 166.171 69.7023 166.483L70.9369 167.195C71.4428 167.452 72.0024 167.586 72.57 167.586C73.1376 167.586 73.6972 167.452 74.2031 167.195L75.6467 166.365L75.6663 148.538Z" fill="black"/>
<path d="M72.5764 148.656V166.247C72.5764 167.293 73.3146 167.724 74.2226 167.195L120.334 140.575C120.813 140.262 121.212 139.84 121.498 139.344C121.784 138.848 121.949 138.292 121.98 137.721V120.116C121.98 119.071 121.242 118.646 120.334 119.169L74.2226 145.788C73.7419 146.103 73.3423 146.527 73.0563 147.025C72.7703 147.523 72.6058 148.082 72.5764 148.656Z" fill="#ECEFF1"/>
<path d="M92.2779 138.949L108.223 129.738C108.877 129.366 109.393 129.536 109.393 130.117C109.345 130.477 109.215 130.82 109.012 131.121C108.809 131.421 108.539 131.67 108.223 131.848L92.2779 141.059C91.6246 141.431 91.1021 141.261 91.1021 140.68C91.1501 140.32 91.2814 139.976 91.4855 139.676C91.6896 139.375 91.9609 139.126 92.2779 138.949Z" fill="white"/>
<path d="M92.095 144.403L117.885 129.496C118.433 129.183 118.878 129.326 118.878 129.816C118.838 130.121 118.728 130.412 118.556 130.666C118.383 130.92 118.153 131.13 117.885 131.279L92.0754 146.186C91.5267 146.5 91.0825 146.356 91.0825 145.866C91.1239 145.56 91.2371 145.267 91.4131 145.013C91.5891 144.759 91.8228 144.55 92.095 144.403Z" fill="white"/>
<path d="M92.095 147.97L117.885 133.063C118.433 132.75 118.878 132.894 118.878 133.384C118.838 133.688 118.728 133.979 118.556 134.234C118.383 134.488 118.153 134.698 117.885 134.847L92.0754 149.747C91.5267 150.067 91.0825 149.923 91.0825 149.427C91.1248 149.122 91.2386 148.831 91.4145 148.578C91.5904 148.324 91.8236 148.116 92.095 147.97Z" fill="white"/>
<path d="M92.095 151.53L117.885 136.63C118.433 136.316 118.878 136.46 118.878 136.95C118.837 137.253 118.727 137.543 118.554 137.796C118.382 138.049 118.152 138.258 117.885 138.407L92.0754 153.307C91.5267 153.62 91.0825 153.477 91.0825 152.987C91.1248 152.682 91.2386 152.39 91.4145 152.137C91.5904 151.884 91.8236 151.676 92.095 151.53Z" fill="white"/>
<path d="M76.9859 147.774L86.6995 142.169C87.4311 141.745 88.0059 142.084 88.0059 142.927V154.15C87.983 154.606 87.8527 155.05 87.6257 155.446C87.3987 155.842 87.0813 156.179 86.6995 156.429L76.9859 162.041C76.2543 162.459 75.6794 162.119 75.6794 161.276V150.06C75.7024 149.603 75.8327 149.158 76.0596 148.761C76.2866 148.364 76.6039 148.026 76.9859 147.774Z" fill="#ECEFF1"/>
<path opacity="0.3" d="M76.9859 147.774L86.6995 142.169C87.4311 141.745 88.0059 142.084 88.0059 142.927V154.15C87.983 154.606 87.8527 155.05 87.6257 155.446C87.3987 155.842 87.0813 156.179 86.6995 156.429L76.9859 162.041C76.2543 162.459 75.6794 162.119 75.6794 161.276V150.06C75.7024 149.603 75.8327 149.158 76.0596 148.761C76.2866 148.364 76.6039 148.026 76.9859 147.774Z" fill="white"/>
<path d="M77.8157 152.693C77.6101 152.694 77.4077 152.642 77.2277 152.543C77.0125 152.403 76.8385 152.208 76.7237 151.978C76.6089 151.749 76.5574 151.492 76.5745 151.236C76.6032 150.633 76.7759 150.045 77.0782 149.523C77.3805 149 77.8036 148.557 78.3121 148.231C78.5176 148.066 78.7685 147.966 79.0316 147.946C79.2947 147.926 79.5578 147.986 79.7862 148.118C80.0146 148.25 80.1976 148.449 80.3111 148.687C80.4246 148.925 80.4633 149.192 80.422 149.453C80.3946 150.056 80.2231 150.643 79.9219 151.166C79.6207 151.689 79.1986 152.132 78.691 152.458C78.4249 152.612 78.123 152.693 77.8157 152.693ZM78.691 148.858C78.3007 149.119 77.9757 149.467 77.7412 149.873C77.5067 150.28 77.369 150.735 77.3388 151.204C77.2986 151.329 77.3025 151.464 77.3498 151.586C77.3971 151.709 77.4849 151.812 77.5987 151.877C77.7125 151.943 77.8454 151.968 77.9752 151.947C78.105 151.927 78.2239 151.863 78.3121 151.765C78.7031 151.505 79.0287 151.158 79.2632 150.751C79.4978 150.345 79.6351 149.889 79.6643 149.42C79.7045 149.295 79.7006 149.16 79.6533 149.038C79.606 148.915 79.5182 148.812 79.4044 148.747C79.2906 148.681 79.1577 148.656 79.0279 148.677C78.8981 148.697 78.7792 148.761 78.691 148.858Z" fill="white"/>
<path d="M88.0191 150.165L86.164 148.205C86.0725 148.113 85.9601 148.044 85.8364 148.005C85.7126 147.965 85.5812 147.956 85.4531 147.977C85.3249 147.999 85.204 148.051 85.1003 148.13C84.9966 148.208 84.9134 148.31 84.8575 148.428L82.1923 154.307L80.8858 153.131C80.7976 153.053 80.6937 152.994 80.5811 152.959C80.4684 152.924 80.3496 152.914 80.2326 152.928C80.1161 152.944 80.0044 152.985 79.9052 153.048C79.806 153.112 79.7216 153.195 79.6578 153.294L75.6665 159.493V160.911L80.3698 153.693L84.6615 157.579L85.3474 157.181L82.7672 154.842L85.5303 148.735H85.6152L88.0191 151.289V150.165Z" fill="white"/>
<path d="M129.597 132.227L128.369 131.515C127.89 131.204 127.491 130.783 127.205 130.288C126.919 129.793 126.754 129.238 126.723 128.667V54.0353C126.755 53.4646 126.92 52.9094 127.206 52.4146C127.492 51.9198 127.891 51.4993 128.369 51.1872L199.18 10.3014C199.686 10.0448 200.245 9.91113 200.813 9.91113C201.38 9.91113 201.94 10.0448 202.446 10.3014L203.7 11.0264C204.179 11.3399 204.578 11.7616 204.864 12.2575C205.149 12.7534 205.315 13.3095 205.346 13.8811V88.4933C205.315 89.064 205.149 89.6192 204.863 90.114C204.577 90.6088 204.179 91.0293 203.7 91.3414L132.909 132.227C132.397 132.491 131.829 132.629 131.253 132.629C130.677 132.629 130.109 132.491 129.597 132.227Z" fill="#ECEFF1"/>
<path d="M134.333 56.5304L127.207 52.415C126.909 52.9046 126.743 53.4625 126.723 54.0351V128.667C126.754 129.238 126.919 129.793 127.205 130.288C127.491 130.783 127.89 131.203 128.369 131.515L129.597 132.227C130.104 132.484 130.663 132.617 131.23 132.617C131.798 132.617 132.357 132.484 132.864 132.227L134.307 131.397L134.333 56.5304Z" fill="#E6E6E6"/>
<path d="M134.333 56.5304L127.207 52.415C126.909 52.9046 126.743 53.4625 126.723 54.0351V57.4841L131.244 60.0971L134.333 56.5304Z" fill="#ECEFF1"/>
<g opacity="0.2">
<path opacity="0.2" d="M134.333 56.5304L127.207 52.415C126.909 52.9046 126.743 53.4625 126.723 54.0351V57.4841L131.244 60.0971L134.333 56.5304Z" fill="black"/>
</g>
<path d="M131.243 56.6485V131.28C131.243 132.326 131.982 132.757 132.89 132.228L203.7 91.3744C204.179 91.0623 204.577 90.6418 204.863 90.147C205.149 89.6522 205.315 89.0969 205.346 88.5263V13.8618C205.346 12.8101 204.608 12.3855 203.7 12.9081L132.909 53.8004C132.426 54.1099 132.024 54.5294 131.734 55.0244C131.445 55.5194 131.276 56.076 131.243 56.6485Z" fill="#F5F5F5"/>
<path d="M138.965 59.4637C141.519 57.9874 143.596 59.1828 143.596 62.1354C143.509 63.7424 143.044 65.3063 142.24 66.7001C141.435 68.0939 140.313 69.2782 138.965 70.1571C136.404 71.6399 134.333 70.438 134.333 67.4854C134.42 65.8782 134.884 64.3141 135.689 62.9203C136.494 61.5264 137.616 60.3421 138.965 59.4637Z" fill="#ECEFF1"/>
<path d="M148.332 55.7338L163.565 46.9544C164.473 46.4318 165.211 46.8041 165.211 47.784C165.171 48.3373 165.001 48.8732 164.715 49.3487C164.429 49.8241 164.035 50.2257 163.565 50.521L148.332 59.3005C147.417 59.823 146.686 59.4507 146.686 58.4709C146.726 57.9173 146.895 57.3809 147.181 56.9053C147.467 56.4298 147.862 56.0284 148.332 55.7338Z" fill="#ECEFF1"/>
<path d="M147.509 62.0631L158.209 55.8835C158.666 55.6222 159.032 55.8051 159.032 56.3016C159.012 56.5779 158.927 56.8456 158.784 57.0829C158.641 57.3202 158.444 57.5202 158.209 57.6668L147.509 63.8464C147.052 64.1077 146.686 63.9248 146.686 63.4283C146.706 63.152 146.791 62.8843 146.934 62.647C147.077 62.4097 147.274 62.2096 147.509 62.0631Z" fill="#ECEFF1"/>
<path d="M135.979 75.4489L200.617 38.1297C201.525 37.6071 202.263 38.0317 202.263 39.0835V85.1952C202.232 85.7659 202.067 86.3214 201.781 86.8163C201.495 87.3112 201.096 87.7316 200.617 88.0433L135.947 125.382C135.039 125.905 134.333 125.48 134.333 124.435V78.3101C134.363 77.7372 134.527 77.1793 134.813 76.6821C135.099 76.1848 135.499 75.7623 135.979 75.4489Z" fill="#ECEFF1"/>
<path d="M151.448 105.921C151.23 105.924 151.016 105.867 150.827 105.758C150.604 105.604 150.425 105.394 150.311 105.148C150.196 104.902 150.149 104.63 150.174 104.36V79.6155C150.205 78.9775 150.388 78.3561 150.707 77.8028C151.026 77.2496 151.473 76.7804 152.01 76.4343L184.214 57.8433C184.437 57.6861 184.698 57.5928 184.97 57.5732C185.241 57.5536 185.513 57.6086 185.756 57.7322C185.979 57.8848 186.157 58.0943 186.272 58.3389C186.387 58.5836 186.434 58.8545 186.409 59.1236V83.8485C186.38 84.4859 186.198 85.107 185.878 85.6595C185.559 86.212 185.111 86.6797 184.574 87.0232L152.369 105.614C152.096 105.798 151.777 105.904 151.448 105.921ZM185.116 58.3528C184.923 58.3628 184.736 58.4236 184.574 58.5291L152.369 77.1202C151.949 77.3998 151.599 77.7731 151.348 78.2106C151.096 78.648 150.949 79.1379 150.919 79.6416V104.36C150.882 104.497 150.89 104.641 150.942 104.773C150.995 104.904 151.088 105.015 151.209 105.089C151.33 105.163 151.472 105.195 151.612 105.181C151.753 105.168 151.886 105.109 151.99 105.013L184.195 86.4157C184.615 86.1374 184.965 85.7655 185.218 85.3291C185.471 84.8928 185.619 84.4039 185.651 83.9007V59.1497C185.667 59.012 185.649 58.8724 185.598 58.7435C185.546 58.6146 185.464 58.5006 185.357 58.4116C185.283 58.3715 185.2 58.3513 185.116 58.3528Z" fill="white"/>
<path d="M155.877 85.1615C155.529 85.1642 155.186 85.074 154.884 84.9002C154.51 84.6462 154.21 84.2965 154.017 83.8874C153.824 83.4784 153.745 83.0251 153.786 82.5747C153.838 81.4365 154.161 80.3271 154.73 79.3394C155.298 78.3518 156.094 77.5147 157.053 76.8981C157.407 76.6055 157.842 76.4281 158.3 76.3897C158.758 76.3513 159.216 76.4538 159.614 76.6833C160.012 76.9128 160.33 77.2585 160.526 77.674C160.722 78.0895 160.787 78.555 160.711 79.0081C160.655 80.1454 160.33 81.2532 159.762 82.2401C159.194 83.2271 158.4 84.0649 157.445 84.6847C156.972 84.977 156.432 85.1413 155.877 85.1615ZM157.445 77.5514C156.601 78.1024 155.899 78.8442 155.395 79.7169C154.891 80.5896 154.6 81.5686 154.544 82.5747C154.467 82.8932 154.496 83.228 154.625 83.529C154.754 83.8299 154.978 84.0809 155.262 84.2442C155.546 84.4075 155.875 84.4745 156.2 84.4349C156.525 84.3954 156.829 84.2515 157.066 84.0249C157.907 83.4738 158.608 82.7327 159.11 81.8613C159.613 80.9899 159.904 80.0125 159.96 79.0081C160.036 78.6904 160.008 78.3563 159.88 78.0558C159.751 77.7553 159.529 77.5044 159.246 77.3405C158.963 77.1767 158.635 77.1087 158.31 77.1467C157.986 77.1847 157.682 77.3266 157.445 77.5514Z" fill="white"/>
<path d="M150.854 101.97L150.2 101.552L161.39 84.6596C161.551 84.4191 161.8 84.2515 162.084 84.1928C162.367 84.1342 162.663 84.1892 162.906 84.3461L174.664 92.1261L174.239 92.7793L162.481 85.0058C162.445 84.9812 162.404 84.9641 162.361 84.9554C162.318 84.9467 162.273 84.9465 162.23 84.955C162.187 84.9635 162.146 84.9805 162.11 85.0049C162.073 85.0293 162.042 85.0607 162.017 85.0973L150.854 101.97Z" fill="white"/>
<path d="M168.341 88.3426L167.688 87.9899L176.454 71.548C176.538 71.3903 176.659 71.2555 176.807 71.1553C176.955 71.0551 177.125 70.9926 177.303 70.9732C177.481 70.9574 177.661 70.9841 177.826 71.0511C177.992 71.1181 178.14 71.2235 178.257 71.3586L186.331 81.046L185.749 81.5294L177.656 71.8485C177.622 71.8066 177.578 71.7737 177.528 71.7529C177.479 71.732 177.424 71.7238 177.371 71.729C177.317 71.7342 177.265 71.7525 177.221 71.7825C177.176 71.8125 177.139 71.8531 177.114 71.9008L168.341 88.3426Z" fill="white"/>
<path d="M205.346 13.8618C205.346 12.8101 204.608 12.3855 203.7 12.9081L132.909 53.8004C132.43 54.1121 132.031 54.5325 131.745 55.0274C131.459 55.5223 131.294 56.0777 131.263 56.6485V60.0911L205.346 17.3108V13.8618Z" fill="#ECEFF1"/>
<path opacity="0.1" d="M205.346 13.8618C205.346 12.8101 204.608 12.3855 203.7 12.9081L132.909 53.8004C132.43 54.1121 132.031 54.5325 131.745 55.0274C131.459 55.5223 131.294 56.0777 131.263 56.6485V60.0911L205.346 17.3108V13.8618Z" fill="black"/>
<path d="M227.282 94.2416C225.368 96.5279 221.879 100.892 220.096 103.139C219.147 104.314 218.634 105.782 218.646 107.293C218.646 108.417 218.966 109.351 220.057 108.874C220.992 108.414 221.826 107.769 222.507 106.98C223.545 105.954 227.223 101.532 227.223 101.532C227.223 101.532 230.045 94.111 231.6 93.6406C232.441 93.3638 233.328 93.2464 234.212 93.2944C232.344 92.6804 229.705 91.3739 227.282 94.2416Z" fill="#F28F8F"/>
<path d="M235.147 91.805C233.226 90.3614 229.986 90.7402 228.19 92.909C226.883 94.4963 223.748 98.3765 223.748 98.3765C224.13 99.2269 224.686 99.9877 225.38 100.61C226.074 101.232 226.891 101.702 227.778 101.989L235.147 91.805Z" fill="#ECEFF1"/>
<path opacity="0.1" d="M235.147 91.805C233.226 90.3614 229.986 90.7402 228.19 92.909C226.883 94.4963 223.748 98.3765 223.748 98.3765C224.13 99.2269 224.686 99.9877 225.38 100.61C226.074 101.232 226.891 101.702 227.778 101.989L235.147 91.805Z" fill="black"/>
<path d="M205.666 150.922L194.241 163.987C194.169 164.07 194.072 164.129 193.964 164.154C193.857 164.18 193.744 164.171 193.642 164.13C193.539 164.088 193.453 164.015 193.394 163.921C193.335 163.828 193.307 163.718 193.314 163.608L194.457 146.199L205.666 150.922Z" fill="#455A64"/>
<path d="M193.314 163.588C193.307 163.698 193.335 163.808 193.394 163.902C193.453 163.995 193.539 164.068 193.642 164.11C193.744 164.151 193.857 164.16 193.964 164.135C194.072 164.109 194.169 164.05 194.241 163.967L196.469 161.426C195.936 161.48 195.398 161.387 194.914 161.157C194.43 160.926 194.019 160.567 193.725 160.119L193.562 159.871L193.314 163.588Z" fill="#263238"/>
<path d="M222.402 78.5771L221.788 80.06L221.043 81.8433L194.457 146.18C195.156 148.008 196.524 149.5 198.285 150.354C200.898 151.759 204.046 152.007 205.66 150.923L232.063 87.0626L233.481 83.6397C232.442 85.8019 221.403 80.7589 222.402 78.5771Z" fill="#37474F"/>
<path d="M220.064 84.1885L218.698 87.5004C218.274 88.4541 220.064 89.9108 222.343 91.0997C225.355 92.687 229.222 93.7845 229.79 92.5303L230.79 90.0872L231.149 89.2118C230.581 90.466 226.714 89.3686 223.696 87.7813C221.514 86.6381 219.776 85.2402 220.031 84.293C220.032 84.2558 220.043 84.2195 220.064 84.1885Z" fill="#455A64"/>
<path d="M219.73 85.0443C218.731 87.2457 229.816 92.2691 230.835 90.0677L232.214 86.7558C231.214 88.9572 220.129 83.9338 221.109 81.7324L219.73 85.0443Z" fill="#37474F"/>
<path d="M222.402 78.5771L221.043 81.8433C220.051 83.999 230.705 88.9505 232.05 87.0692C232.08 87.0334 232.104 86.9939 232.122 86.9516L233.468 83.6462C232.442 85.8019 221.403 80.7589 222.402 78.5771Z" fill="#455A64"/>
<path d="M228.177 64.6889L222.402 78.5767C221.971 79.5108 223.709 80.9675 225.988 82.1564C229 83.7503 232.873 84.8804 233.468 83.6392L239.007 70.2806C240.556 67.2757 235.219 63.487 231.378 63.2649C229.967 63.1604 228.752 63.5654 228.177 64.6889Z" fill="#263238"/>
<path d="M232.436 85.1223C235.005 85.1223 237.087 83.04 237.087 80.4713C237.087 77.9026 235.005 75.8203 232.436 75.8203C229.867 75.8203 227.785 77.9026 227.785 80.4713C227.785 83.04 229.867 85.1223 232.436 85.1223Z" fill="#263238"/>
<path d="M243.567 159.153H240.294V164.758H243.567V159.153Z" fill="#FFA8A7"/>
<path d="M232.214 158.859L228.941 158.97L228.778 153.032L232.05 152.921L232.214 158.859Z" fill="#FFA8A7"/>
<path d="M243.358 114.708C243.358 117.837 243.763 136.787 243.763 136.787C243.835 137.689 244.684 139.348 244.501 142.804C244.253 147.5 243.848 159.709 243.848 159.709C243.848 159.709 242.306 161.231 240.137 159.709C240.137 159.709 237.172 142.823 236.59 138.153C236.074 134.096 235.205 123.063 235.205 123.063L232.201 136.062C232.201 136.062 232.736 139.113 232.854 141.288C232.971 143.463 232.299 154.719 232.299 154.719C231.768 155.052 231.16 155.24 230.534 155.264C229.908 155.288 229.286 155.147 228.732 154.856C228.732 154.856 226.119 137.872 225.766 135.912C225.413 133.952 228.066 114.747 228.066 114.747L243.358 114.708Z" fill="#37474F"/>
<path d="M240.209 92.0793C240.908 92.2008 241.554 92.5271 242.067 93.0167C242.58 93.5063 242.936 94.1372 243.09 94.8294C243.267 95.6472 243.357 96.4815 243.358 97.3182V114.707C241.058 117.203 233.05 118.365 228.033 114.707C228.033 114.707 228.137 99.3432 228.51 96.8218C229.163 92.4386 231.26 90.8708 233.37 91.0406L238.426 91.7592L240.209 92.0793Z" fill="#ECEFF1"/>
<path d="M240.477 83.7764C240.196 85.1678 239.843 86.5437 239.419 87.8983C239.217 88.2569 238.885 88.5237 238.491 88.643L238.543 86.1541L240.477 83.7764Z" fill="#263238"/>
<path d="M239.53 78.7072C239.793 78.6749 240.06 78.7035 240.31 78.7907C240.561 78.8779 240.787 79.0214 240.973 79.2102C241.594 79.8634 241.248 81.8231 240.477 83.7828L239.053 83.9461L239.53 78.7072Z" fill="#263238"/>
<path d="M238.628 83.9401C238.916 84.1099 239.321 83.5677 239.674 83.1954C239.811 83.037 239.987 82.9164 240.184 82.8451C240.381 82.7739 240.594 82.7544 240.801 82.7884C241.008 82.8225 241.202 82.909 241.366 83.0397C241.531 83.1704 241.658 83.3409 241.738 83.5351C242.319 84.7632 241.235 86.3832 240.333 86.6641C238.779 87.154 238.544 86.1545 238.544 86.1545L238.426 91.7658C238.082 92.5175 237.557 93.1722 236.898 93.6715C236.239 94.1708 235.467 94.4991 234.65 94.627C231.894 94.9993 232.462 92.7261 233.344 91.6156V89.9106C232.653 90.019 231.952 90.054 231.253 90.0152C230.104 89.8388 229.385 88.9373 229.039 87.7027C228.484 85.743 228.275 84.1099 228.745 80.1971C229.261 75.9119 234.245 75.8661 236.937 77.5841C239.628 79.3021 238.628 83.9401 238.628 83.9401Z" fill="#FFA8A7"/>
<path d="M238.628 84.4162C238.772 84.4162 239.314 83.5213 239.674 83.1947C240.164 82.7505 239.53 78.707 239.53 78.707C239.654 78.3552 239.675 77.9752 239.59 77.6119C239.506 77.2486 239.32 76.9169 239.053 76.6558C238.4 75.9177 237.257 75.8393 235.336 75.5323C234.33 75.3755 232.808 75.0946 231.802 74.879C230.6 74.6569 229.607 74.4218 228.758 75.1599C228.427 75.4486 228.192 75.8325 228.087 76.2592C227.982 76.6858 228.011 77.1346 228.17 77.5442C228.256 77.7308 228.371 77.9028 228.51 78.0537C228.738 78.3265 229.036 78.5319 229.372 78.6482C229.372 78.6482 229.901 79.112 231.717 79.3341C233.4 79.463 235.091 79.4302 236.767 79.2361C237.296 79.1642 237.42 79.6803 237.688 81.0782C237.943 82.3324 238.145 84.4097 238.628 84.4162Z" fill="#263238"/>
<path d="M239.523 79.0213L241.248 78.0937C241.193 77.9778 241.114 77.8743 241.018 77.7894C240.921 77.7046 240.809 77.6401 240.687 77.5998C240.565 77.5595 240.436 77.5443 240.308 77.5551C240.18 77.5659 240.055 77.6025 239.942 77.6626C239.712 77.7935 239.541 78.0068 239.464 78.2592C239.386 78.5116 239.407 78.7841 239.523 79.0213Z" fill="#263238"/>
<path d="M233.37 89.9101C234.548 89.6855 235.702 89.3532 236.819 88.9172C237.342 88.646 237.77 88.2222 238.047 87.7021C237.914 88.2235 237.676 88.7123 237.348 89.1393C236.695 89.9754 233.37 90.5894 233.37 90.5894V89.9101Z" fill="#F28F8F"/>
<path d="M233.984 83.3055C233.976 83.3777 233.983 83.4508 234.005 83.52C234.027 83.5893 234.063 83.6531 234.112 83.7073C234.16 83.7614 234.22 83.8048 234.286 83.8345C234.352 83.8642 234.424 83.8795 234.497 83.8795C234.569 83.8795 234.641 83.8642 234.708 83.8345C234.774 83.8048 234.833 83.7614 234.882 83.7073C234.93 83.6531 234.966 83.5893 234.988 83.52C235.011 83.4508 235.018 83.3777 235.01 83.3055C235.011 83.2372 234.999 83.1692 234.975 83.1055C234.95 83.0418 234.913 82.9837 234.865 82.9344C234.818 82.8852 234.761 82.8459 234.699 82.8187C234.636 82.7916 234.568 82.7772 234.5 82.7764C234.431 82.7772 234.364 82.7916 234.301 82.8186C234.237 82.8457 234.18 82.8849 234.132 82.934C234.084 82.9832 234.047 83.0413 234.021 83.105C233.996 83.1687 233.983 83.2369 233.984 83.3055Z" fill="#263238"/>
<path d="M234.526 81.3721L235.624 81.9731C235.702 81.8234 235.719 81.6493 235.671 81.4874C235.624 81.3254 235.515 81.1881 235.369 81.1043C235.296 81.065 235.216 81.0408 235.134 81.033C235.052 81.0252 234.969 81.0341 234.891 81.0591C234.812 81.0841 234.739 81.1247 234.676 81.1785C234.614 81.2323 234.563 81.2981 234.526 81.3721Z" fill="#263238"/>
<path d="M233.605 86.834L232.436 87.2716C232.461 87.3501 232.501 87.4226 232.555 87.4851C232.609 87.5475 232.674 87.5985 232.748 87.6351C232.822 87.6716 232.902 87.693 232.984 87.6979C233.066 87.7028 233.149 87.6911 233.226 87.6636C233.385 87.602 233.514 87.4808 233.584 87.3259C233.655 87.1709 233.663 86.9944 233.605 86.834Z" fill="#F28F8F"/>
<path d="M229.424 81.7976L230.424 81.0268C230.324 80.906 230.182 80.8279 230.027 80.8085C229.871 80.789 229.714 80.8297 229.588 80.9223C229.455 81.0205 229.364 81.1654 229.334 81.3278C229.304 81.4902 229.336 81.6581 229.424 81.7976Z" fill="#263238"/>
<path d="M229.732 83.1561C229.734 83.2579 229.767 83.3566 229.825 83.4398C229.884 83.5231 229.966 83.5872 230.061 83.624C230.155 83.6609 230.259 83.6689 230.359 83.647C230.458 83.6251 230.549 83.5743 230.619 83.501C230.69 83.4277 230.737 83.3351 230.755 83.2349C230.773 83.1348 230.762 83.0315 230.721 82.9381C230.681 82.8447 230.614 82.7653 230.528 82.71C230.443 82.6546 230.343 82.6257 230.241 82.627C230.173 82.6278 230.105 82.6422 230.043 82.6694C229.98 82.6965 229.923 82.7358 229.876 82.785C229.828 82.8343 229.791 82.8924 229.766 82.9561C229.742 83.0198 229.73 83.0878 229.732 83.1561Z" fill="#263238"/>
<path d="M232.338 82.6729L232.168 85.7496L230.561 85.2009L232.338 82.6729Z" fill="#F28F8F"/>
<path d="M240.294 163.144V162.674C239.981 162.811 239.255 165.594 237.956 166.776C236.923 167.717 235.512 168.808 235.153 169.859C234.794 170.911 237.113 171.558 238.08 171.382C239.203 171.186 241.15 170.395 241.633 169.663C242.117 168.932 242.352 167.854 242.75 167.312C243.149 166.77 244.057 166.182 244.272 165.561C244.339 164.979 244.274 164.39 244.083 163.837C243.933 163.262 243.769 162.622 243.573 162.674V163.033C243.106 163.399 242.528 163.595 241.934 163.588C241.457 163.608 240.294 163.51 240.294 163.144Z" fill="#263238"/>
<path d="M228.934 157.957C228.765 157.957 228.621 158.206 228.281 158.611C227.711 159.18 227.048 159.648 226.321 159.996C225.093 160.61 222.709 161.557 221.631 162.04C220.978 162.347 220.978 163.157 221.684 163.621C222.389 164.085 224.068 164.418 226.086 163.967C227.184 163.719 228.621 162.706 229.529 162.759C230.437 162.811 232.142 162.804 232.795 162.341C233.448 161.877 233.194 160.897 233.004 160.048C232.815 159.199 232.501 157.709 232.194 157.775V158.062C231.802 158.656 229.797 158.905 228.928 158.46L228.934 157.957Z" fill="#263238"/>
<path d="M235.205 123.075C233.508 122.55 231.947 121.658 230.633 120.462C231.508 121.802 232.711 122.897 234.128 123.643L233.148 132.018L235.205 123.075Z" fill="#263238"/>
<path d="M216.869 110.853C217.681 110.963 218.486 111.12 219.28 111.323C219.941 111.612 220.663 111.735 221.383 111.683C222.317 111.624 224.76 110.468 226.922 109.155C229.291 107.608 231.379 105.668 233.095 103.419C235.055 100.643 237.224 96.2663 238.263 94.5941C239.301 92.9218 240.281 92.7454 241.431 92.7977C242.789 92.8499 243.652 94.1041 242.463 96.6713C240.758 100.183 238.671 103.496 236.238 106.548C234.367 108.761 232.144 110.65 229.659 112.14C227.505 113.394 225.206 114.384 222.814 115.086C222.121 115.315 221.664 115.661 220.397 116.255C219.887 116.534 219.339 116.736 218.77 116.856C218.058 116.961 217.334 116.961 216.621 116.856C215.717 116.733 214.864 116.368 214.152 115.798C213.758 115.489 213.444 115.091 213.237 114.635C213.032 114.175 212.993 113.658 213.126 113.172C213.153 113.075 213.202 112.986 213.27 112.911C213.422 112.805 213.61 112.763 213.792 112.793C214.812 112.793 215.902 113.015 216.915 112.943C217.771 112.885 218.372 112.721 218.221 112.597C218.071 112.473 217.568 112.551 216.915 112.257C216.262 111.964 215.785 111.304 215.968 110.951C216.151 110.598 216.151 110.67 216.869 110.853Z" fill="#FFA8A7"/>
<path d="M240.993 92.3145C241.314 92.3085 241.632 92.3689 241.928 92.4918C242.224 92.6148 242.492 92.7976 242.714 93.0289C242.936 93.2602 243.108 93.5349 243.219 93.8357C243.329 94.1366 243.377 94.4571 243.358 94.7772C243.358 96.5605 240.601 101.728 238.491 104.674C238.491 104.674 235.225 104.465 233.481 101.989C233.481 101.989 236.551 97.1027 237.4 95.548C238.132 94.1501 239.471 92.2426 240.993 92.3145Z" fill="#ECEFF1"/>
<path d="M213.649 99.7676C214.639 99.3372 215.732 99.2011 216.797 99.3757C217.66 99.5129 217.66 102.381 214.896 103.295C213.1 103.883 212.022 103.622 211.441 105.098C211.441 105.098 210.278 104.948 210.546 103.295C210.836 101.597 211.594 100.013 212.734 98.7224C213.525 97.7883 213.577 97.0044 213.969 97.2657C214.361 97.527 214.204 98.4416 214.204 98.4416L213.649 99.7676Z" fill="#FFA8A7"/>
</svg>
