<svg width="415" height="401" viewBox="0 0 415 401" fill="none" xmlns="http://www.w3.org/2000/svg">
<path d="M60.7155 368.609C141.674 410.9 272.925 410.9 353.883 368.609C434.842 326.318 434.833 257.746 353.883 215.455C272.934 173.164 141.674 173.164 60.7155 215.455C-20.2433 257.746 -20.2337 326.318 60.7155 368.609Z" fill="#F0F0F0"/>
<path d="M371.381 254.404C359.11 260.201 339.216 260.201 326.935 254.404C314.655 248.607 314.664 239.08 326.935 233.225C339.206 227.369 359.091 227.379 371.381 233.225C383.671 239.07 383.642 248.559 371.381 254.404Z" fill="#E0E0E0"/>
<path d="M52.2296 288.26C52.2296 288.26 53.1959 274.018 48.2392 261.921C43.2825 249.824 34.9924 241.322 26.2289 238.984C17.4654 236.645 8.77911 243.515 17.2624 250.887C25.7458 258.259 41.611 267.081 45.5435 289.536L52.2296 288.26Z" fill="#CFD8DC"/>
<path opacity="0.2" d="M52.2296 288.26C52.2296 288.26 53.1959 274.018 48.2392 261.921C43.2825 249.824 34.9924 241.322 26.2289 238.984C17.4654 236.645 8.77911 243.515 17.2624 250.887C25.7458 258.259 41.611 267.081 45.5435 289.536L52.2296 288.26Z" fill="black"/>
<path d="M48.9908 289.333C48.8643 289.328 48.7449 289.274 48.6582 289.181C48.5715 289.089 48.5243 288.967 48.527 288.84C49.1164 272.047 37.0291 248.201 20.5745 242.617C20.5142 242.596 20.4586 242.563 20.411 242.521C20.3633 242.478 20.3245 242.427 20.2966 242.37C20.2688 242.312 20.2526 242.25 20.2489 242.186C20.2452 242.122 20.254 242.059 20.2749 241.998C20.2959 241.938 20.3285 241.882 20.3709 241.835C20.4133 241.787 20.4647 241.748 20.5221 241.72C20.5795 241.693 20.6419 241.676 20.7056 241.673C20.7692 241.669 20.8331 241.678 20.8933 241.699C37.7247 247.419 50.0922 271.748 49.4932 288.869C49.4907 288.933 49.4757 288.995 49.4491 289.053C49.4225 289.11 49.3848 289.162 49.3381 289.205C49.2915 289.248 49.2368 289.282 49.1772 289.304C49.1176 289.326 49.0542 289.336 48.9908 289.333Z" fill="white"/>
<path d="M49.573 322.464C48.1241 323.253 46.5073 323.684 44.8579 323.72C42.9183 323.837 40.9759 323.544 39.1572 322.86C35.9301 321.643 33.2247 319.788 32.3937 316.29C31.7464 313.536 32.7705 310.435 31.5628 307.797C30.355 305.159 26.7317 303.594 24.2872 302.811C22.5577 302.261 20.7412 301.99 19.0407 301.352C18.1713 301.079 17.3663 300.632 16.6739 300.039C15.9815 299.446 15.4161 298.72 15.0116 297.903C13.3787 293.903 17.8329 289.362 16.3739 285.284C15.6493 283.265 13.6685 282.018 11.8617 280.869C10.0549 279.719 8.12249 278.337 7.62006 276.25C7.46143 275.285 7.54235 274.296 7.85572 273.369C8.16909 272.442 8.7053 271.607 9.41721 270.936C12.6637 267.593 18.1131 267.264 22.4611 268.926C23.8018 269.535 25.176 270.067 26.5771 270.521C32.0652 271.96 37.9011 268.366 43.4085 269.661C45.1815 270.105 46.7984 271.027 48.0831 272.327C49.3678 273.627 50.2708 275.255 50.6938 277.033C50.9547 278.231 50.9933 279.477 51.2735 280.675C51.9788 283.68 55.1383 284.318 55.9113 287.439C56.5973 290.222 55.7277 293.159 55.2446 295.913C54.5103 300.135 53.6794 304.338 52.8001 308.531C52.3299 310.812 51.8436 313.092 51.3411 315.372C50.8774 317.459 51.4861 319.759 50.5488 321.681C50.2394 321.961 49.9135 322.223 49.573 322.464Z" fill="#CFD8DC"/>
<path d="M51.1157 307.584C51.0001 307.583 50.8888 307.54 50.8019 307.464C50.7151 307.388 50.6584 307.283 50.6422 307.168C48.3233 292.163 27.2116 274.414 13.733 272.617C13.6048 272.6 13.4886 272.533 13.4098 272.431C13.3309 272.328 13.296 272.199 13.3127 272.071C13.3293 271.943 13.3962 271.826 13.4986 271.748C13.6009 271.669 13.7304 271.634 13.8586 271.651C27.6464 273.496 49.2219 291.661 51.5891 307.024C51.6002 307.086 51.5986 307.15 51.5845 307.211C51.5705 307.273 51.5442 307.331 51.5073 307.383C51.4704 307.434 51.4235 307.477 51.3695 307.51C51.3156 307.543 51.2555 307.565 51.193 307.574L51.1157 307.584Z" fill="white"/>
<path d="M38.7842 287.044C38.6576 287.032 38.541 286.97 38.4596 286.873C38.3782 286.775 38.3386 286.649 38.3494 286.523C39.1997 276.773 42.7167 273.044 42.9196 272.909C42.9625 272.858 43.0155 272.816 43.0753 272.787C43.135 272.758 43.2001 272.741 43.2666 272.738C43.3331 272.735 43.3996 272.746 43.4617 272.769C43.5239 272.793 43.5804 272.83 43.6278 272.876C43.6752 272.923 43.7124 272.979 43.7372 273.041C43.7619 273.103 43.7736 273.169 43.7715 273.236C43.7694 273.302 43.7536 273.367 43.725 273.428C43.6965 273.488 43.6558 273.541 43.6056 273.585C43.6056 273.585 40.1755 277.257 39.3156 286.629C39.2965 286.753 39.2309 286.865 39.1321 286.942C39.0334 287.019 38.909 287.056 38.7842 287.044Z" fill="white"/>
<path d="M23.7879 294.869C23.6928 294.867 23.6003 294.838 23.5214 294.785C23.4425 294.732 23.3807 294.657 23.3435 294.57C23.3183 294.511 23.3051 294.449 23.3047 294.385C23.3043 294.322 23.3166 294.259 23.3409 294.2C23.3652 294.142 23.4011 294.089 23.4464 294.044C23.4916 294 23.5453 293.965 23.6043 293.941C24.0488 293.748 34.5708 289.342 43.7692 291.835C43.8326 291.852 43.8922 291.88 43.9445 291.92C43.9968 291.959 44.0408 292.009 44.074 292.065C44.1072 292.122 44.1289 292.184 44.138 292.249C44.147 292.314 44.1432 292.38 44.1267 292.444C44.1102 292.507 44.0814 292.567 44.0418 292.619C44.0023 292.671 43.9529 292.715 43.8964 292.749C43.8398 292.782 43.7773 292.804 43.7124 292.813C43.6475 292.822 43.5814 292.818 43.518 292.801C34.6481 290.395 24.0874 294.821 23.9812 294.869C23.9171 294.878 23.852 294.878 23.7879 294.869Z" fill="white"/>
<path d="M50.3027 125.83V323.005C50.3356 323.585 50.5039 324.149 50.7942 324.653C51.0845 325.156 51.4886 325.584 51.9743 325.903L56.4575 328.502C56.9757 328.765 57.5483 328.901 58.1291 328.901C58.7098 328.901 59.2824 328.765 59.8006 328.502L268.415 208.064C268.901 207.745 269.305 207.317 269.595 206.813C269.886 206.31 270.054 205.746 270.087 205.166V8.0004C270.031 6.58874 269.643 5.21018 268.954 3.97638C268.266 2.74258 267.297 1.68823 266.125 0.89874C264.858 0.283676 263.463 -0.0237513 262.055 0.00143134C260.646 0.026614 259.264 0.383698 258.019 1.04367L54.5251 118.583C53.2978 119.371 52.275 120.438 51.541 121.698C50.8069 122.958 50.3825 124.374 50.3027 125.83Z" fill="#455A64"/>
<path d="M62.0422 127.812L51.5202 121.715C50.7702 122.961 50.3511 124.378 50.3027 125.831V323.006C50.3356 323.586 50.5039 324.15 50.7942 324.654C51.0845 325.157 51.4886 325.585 51.9743 325.904L56.4575 328.503C56.9757 328.766 57.5483 328.902 58.1291 328.902C58.7098 328.902 59.2824 328.766 59.8006 328.503L62.0519 327.199L62.0422 127.812Z" fill="#37474F"/>
<path d="M265.905 5.58483L62.3341 123.144C61.1156 123.937 60.1016 125.007 59.3746 126.266C58.6476 127.525 58.2282 128.938 58.1504 130.39V327.536C58.1504 328.599 58.904 329.034 59.8219 328.502L268.417 208.064C268.903 207.745 269.307 207.317 269.597 206.813C269.888 206.31 270.056 205.746 270.089 205.166V8.00036C270.089 5.33362 268.214 4.29977 265.905 5.58483Z" fill="#37474F"/>
<path d="M265.905 5.58483L62.3341 123.144C61.1156 123.937 60.1016 125.007 59.3746 126.266C58.6476 127.525 58.2282 128.938 58.1504 130.39V327.536C58.1504 328.599 58.904 329.034 59.8219 328.502L268.417 208.064C268.903 207.745 269.307 207.317 269.597 206.813C269.888 206.31 270.056 205.746 270.089 205.166V8.00036C270.089 5.33362 268.214 4.29977 265.905 5.58483Z" fill="#263238"/>
<path d="M270.089 16.7638V7.99064C270.089 5.33356 268.214 4.2514 265.905 5.58477L62.3341 123.144C61.1156 123.937 60.1016 125.007 59.3746 126.266C58.6476 127.525 58.2282 128.938 58.1504 130.39V139.154L270.089 16.7638Z" fill="#37474F"/>
<path d="M261.601 18.1066C261.55 18.1211 261.497 18.1211 261.446 18.1066C261.403 18.0879 261.364 18.0606 261.331 18.0263C261.299 17.992 261.274 17.9515 261.258 17.9072C261.241 17.8629 261.234 17.8158 261.237 17.7687C261.239 17.7216 261.251 17.6755 261.272 17.6332L262.76 14.4737C262.809 14.4006 262.883 14.3475 262.967 14.3239C263.052 14.3004 263.142 14.3081 263.222 14.3455C263.301 14.3829 263.365 14.4476 263.401 14.5279C263.437 14.6082 263.443 14.6986 263.417 14.7828L261.929 17.9424C261.893 17.9955 261.844 18.0385 261.786 18.0672C261.729 18.096 261.665 18.1095 261.601 18.1066Z" fill="#FAFAFA"/>
<path d="M261.512 18.3098C261.455 18.3226 261.395 18.3226 261.338 18.3098C261.276 18.2771 261.225 18.2264 261.193 18.1643C261.16 18.1022 261.147 18.0317 261.155 17.9619L261.3 15.8942C261.303 15.8472 261.316 15.8014 261.338 15.7594C261.359 15.7174 261.389 15.6801 261.424 15.6496C261.46 15.619 261.502 15.5959 261.547 15.5815C261.592 15.5671 261.639 15.5618 261.686 15.5657C261.734 15.5693 261.781 15.5825 261.823 15.6046C261.866 15.6266 261.904 15.657 261.934 15.694C261.965 15.731 261.988 15.7738 262.002 15.8198C262.016 15.8658 262.02 15.9141 262.015 15.9619L261.908 17.102L262.469 16.6479C262.545 16.5907 262.641 16.5649 262.736 16.5756C262.831 16.5864 262.919 16.633 262.981 16.7058C263.047 16.7744 263.085 16.8663 263.085 16.9619C263.085 17.0575 263.047 17.1494 262.981 17.2179L261.744 18.1842C261.717 18.2204 261.682 18.2504 261.642 18.2721C261.602 18.2937 261.558 18.3066 261.512 18.3098Z" fill="#FAFAFA"/>
<path d="M263.695 13.6817C263.644 13.6906 263.592 13.6906 263.54 13.6817C263.497 13.662 263.458 13.6338 263.425 13.5986C263.393 13.5634 263.367 13.5221 263.351 13.477C263.335 13.432 263.328 13.3841 263.331 13.3363C263.333 13.2885 263.345 13.2416 263.367 13.1986L264.864 10.0488C264.883 10.0055 264.91 9.96642 264.944 9.934C264.979 9.90158 265.019 9.87647 265.064 9.8602C265.108 9.84393 265.155 9.83684 265.202 9.83936C265.249 9.84189 265.295 9.85397 265.338 9.87487C265.381 9.89458 265.421 9.92286 265.453 9.95803C265.486 9.9932 265.511 10.0345 265.527 10.0796C265.543 10.1247 265.55 10.1725 265.547 10.2203C265.545 10.2682 265.533 10.315 265.512 10.358L264.024 13.5078C263.99 13.5642 263.942 13.6102 263.884 13.6408C263.826 13.6715 263.761 13.6857 263.695 13.6817Z" fill="#FAFAFA"/>
<path d="M265.091 12.319C265.043 12.3154 264.996 12.3022 264.954 12.2802C264.911 12.2581 264.873 12.2277 264.843 12.1907C264.812 12.1537 264.789 12.111 264.775 12.0649C264.761 12.0189 264.757 11.9706 264.762 11.9229L264.869 10.7827L264.308 11.2369C264.233 11.2984 264.136 11.3273 264.039 11.3173C263.942 11.3074 263.853 11.2593 263.791 11.1837C263.73 11.1081 263.701 11.0112 263.711 10.9142C263.721 10.8173 263.769 10.7283 263.845 10.6668L265.081 9.70057C265.139 9.66027 265.209 9.63867 265.279 9.63867C265.35 9.63867 265.419 9.66027 265.477 9.70057C265.54 9.73326 265.59 9.78397 265.623 9.84605C265.656 9.90814 265.669 9.97868 265.661 10.0484L265.458 12.0291C265.44 12.1126 265.394 12.1872 265.327 12.2401C265.26 12.293 265.176 12.3209 265.091 12.319Z" fill="#FAFAFA"/>
<path d="M67.9695 124.39C67.4036 124.766 66.9339 125.27 66.5982 125.861C66.2626 126.451 66.0704 127.113 66.0371 127.791C66.0371 129.047 66.9164 129.55 67.9695 128.922C68.5353 128.548 69.005 128.046 69.3407 127.457C69.6764 126.868 69.8687 126.208 69.902 125.53C69.9309 124.274 69.0227 123.772 67.9695 124.39Z" fill="#FAFAFA"/>
<path d="M75.7879 119.879C75.222 120.255 74.7522 120.759 74.4166 121.349C74.0809 121.94 73.8887 122.601 73.8555 123.28C73.8555 124.526 74.7347 125.039 75.7879 124.411C76.3538 124.035 76.8235 123.531 77.1592 122.94C77.4948 122.349 77.687 121.688 77.7203 121.009C77.7783 119.763 76.899 119.28 75.7879 119.879Z" fill="#FAFAFA"/>
<path d="M83.6551 115.357C83.0902 115.734 82.6213 116.238 82.2858 116.828C81.9503 117.419 81.7574 118.08 81.7227 118.758C81.7227 120.014 82.6019 120.517 83.6551 119.888C84.2214 119.515 84.6915 119.013 85.0273 118.424C85.3631 117.835 85.555 117.175 85.5875 116.497C85.6262 115.241 84.7469 114.739 83.6551 115.357Z" fill="#FAFAFA"/>
<path d="M335.889 134.061H357.146C357.514 134.061 357.878 133.989 358.218 133.848C358.558 133.707 358.867 133.501 359.127 133.241C359.388 132.981 359.594 132.672 359.735 132.332C359.876 131.992 359.948 131.627 359.948 131.259V93.4419C359.948 89.8748 358.531 86.4538 356.009 83.9315C353.487 81.4092 350.066 79.9922 346.498 79.9922C342.931 79.9922 339.51 81.4092 336.988 83.9315C334.466 86.4538 333.049 89.8748 333.049 93.4419V131.259C333.049 131.631 333.123 131.998 333.266 132.341C333.409 132.683 333.619 132.994 333.883 133.254C334.147 133.515 334.461 133.721 334.805 133.859C335.15 133.998 335.518 134.067 335.889 134.061Z" fill="#263238"/>
<path d="M356.962 85.2964L360.218 83.5475C360.115 83.328 359.968 83.1319 359.786 82.9711C359.604 82.8102 359.391 82.6881 359.161 82.6122C358.93 82.5363 358.687 82.5081 358.445 82.5293C358.203 82.5506 357.968 82.6209 357.754 82.7359C357.317 82.9774 356.99 83.3791 356.842 83.8565C356.694 84.3339 356.737 84.85 356.962 85.2964Z" fill="#263238"/>
<path d="M356.77 85.6628L360.229 86.9576C360.325 86.735 360.376 86.4951 360.376 86.2525C360.377 86.0099 360.329 85.7696 360.234 85.5464C360.139 85.3231 360 85.1215 359.824 84.9538C359.649 84.7861 359.441 84.6559 359.214 84.571C358.744 84.4022 358.228 84.4215 357.772 84.625C357.316 84.8285 356.957 85.2004 356.77 85.6628Z" fill="#263238"/>
<path d="M331.249 110.331L321.375 110.051C320.708 109.491 310.331 97.7803 310.331 97.7803C310.331 97.7803 306.601 103.664 306.534 104.041C306.466 104.418 316.708 115.365 317.722 116.467C318.008 116.835 318.374 117.133 318.793 117.337C319.212 117.542 319.672 117.647 320.138 117.646C322.814 117.81 332.834 118.515 332.834 118.515L331.249 110.331Z" fill="#F28F8F"/>
<path d="M345.171 119.799L328.832 119.094C327.383 117.113 327.422 111.857 328.881 110.176L346.968 110.669L345.171 119.799Z" fill="#CFD8DC"/>
<path d="M345.171 119.799L328.832 119.094C327.383 117.113 327.422 111.857 328.881 110.176L346.968 110.669L345.171 119.799Z" fill="#CFD8DC"/>
<path opacity="0.1" d="M345.171 119.799L328.832 119.094C327.383 117.113 327.422 111.857 328.881 110.176L346.968 110.669L345.171 119.799Z" fill="black"/>
<path d="M306.905 94.0312C308.838 93.8186 310.123 92.3887 310.558 92.7848C310.721 92.9752 310.812 93.2167 310.816 93.4673C310.819 93.718 310.735 93.9619 310.577 94.1568C309.685 94.8342 308.711 95.3959 307.678 95.8284C307.436 96.8104 307.262 97.808 307.157 98.814C306.992 100.292 307.05 103.239 305.785 104.254C302.007 107.278 301.041 102.476 301.195 99.2488C301.427 95.268 304.886 94.2534 306.905 94.0312Z" fill="#F28F8F"/>
<path d="M344.48 229.619C344.512 230.274 344.348 230.924 344.007 231.484C343.126 232.93 342.096 234.281 340.934 235.513C339.291 237.271 336.828 239.378 335.069 240.895C334.103 241.755 334.103 243.049 335.456 243.503C338.076 244.149 340.843 243.762 343.185 242.421C344.934 241.455 347.427 237.146 348.886 236.489C350.558 235.735 351.495 235.349 352.065 234.556C352.493 234.117 352.759 233.545 352.821 232.934C352.882 232.324 352.735 231.71 352.403 231.194C351.611 229.725 350.471 227.464 349.939 227.716L350.094 228.179C349.707 229.377 346.451 230.769 344.77 230.44L344.48 229.619Z" fill="#263238"/>
<path d="M342.995 223.842C343.637 225.732 344.128 227.671 344.464 229.639C344.51 230.288 344.347 230.935 344 231.485C343.119 232.933 342.085 234.284 340.918 235.514C340.125 236.374 339.13 237.311 338.116 238.21C338.03 238.339 337.98 238.489 337.971 238.644C337.971 239.553 340.203 239.804 341.507 239.417C343.143 238.838 344.553 237.755 345.536 236.325C346.29 235.359 347.981 233.427 349.053 231.948C349.431 231.505 349.755 231.018 350.019 230.499C350.311 229.845 350.358 229.108 350.155 228.422L350.087 228.209C349.507 226.414 349.15 224.555 349.024 222.673" fill="#FFA8A7"/>
<path d="M358.475 231.619C358.194 233.302 358.051 235.005 358.05 236.711V240.489H352.455V234.054H352.378C352.378 234.054 352.282 232.788 352.127 230.808" fill="#FFA8A7"/>
<path d="M342.996 223.842C339.904 213.842 333.025 195.938 332.078 192.798C331.112 189.455 332.29 160.188 333.102 150.816L362.272 149.231C364.494 158.739 362.33 171.551 361.567 179.561C360.832 187.348 359.914 196.45 359.914 196.45C359.914 196.45 362.195 204.392 361.586 210.711C361.199 214.692 359.325 226.461 358.475 231.601C357.415 231.899 356.305 231.977 355.213 231.831C354.121 231.685 353.071 231.317 352.127 230.751C351.769 226.239 351.093 218.016 350.455 212.644C349.489 204.566 349.17 198.672 348.339 193.957C347.305 188.083 346.938 165.029 346.938 165.029L343.585 191.175C344.909 193.614 345.918 196.211 346.59 198.904C347.557 202.624 348.581 216.576 348.996 222.615C347.202 223.717 345.078 224.151 342.996 223.842Z" fill="#37474F"/>
<path d="M346.936 165.048C346.936 165.048 341.612 163.173 338.578 160.391C340.1 162.767 342.264 164.663 344.82 165.859L344.868 181.164L346.936 165.048Z" fill="#263238"/>
<path d="M351.163 110.795C351.163 110.795 359.086 111.703 360.032 112.128C355.201 117.414 360.342 121.791 360.342 121.791L355.762 137.907C358.931 141.965 361.646 145.144 362.409 149.985C359.008 155.965 339.945 156.796 332.95 152.332C333.558 143.984 334.882 138.013 334.466 135.501C331.133 125.25 332.177 123.105 332.486 120.766C333.094 116.196 337.636 112.206 340.215 110.534H342.641L351.163 110.795Z" fill="#CFD8DC"/>
<path d="M352.446 237.735V236.933C351.756 239.58 350.375 241.998 348.445 243.938C346.677 245.551 344.271 247.406 343.663 249.204C343.054 251.001 346.503 251.812 348.784 251.59C351.003 251.318 353.047 250.246 354.533 248.575C355.992 246.914 355.963 245.773 356.639 244.856C357.315 243.938 358.88 242.923 359.248 241.851C359.353 240.873 359.245 239.884 358.929 238.952C358.668 237.986 358.388 236.875 358.05 236.971V237.58C357.252 238.211 356.264 238.552 355.248 238.546C354.426 238.517 352.446 238.353 352.446 237.735Z" fill="#263238"/>
<path d="M358.048 237.542C357.251 238.174 356.262 238.514 355.246 238.509C354.424 238.509 352.444 238.373 352.444 237.755V236.953C351.754 239.601 350.373 242.018 348.444 243.958L347.101 245.156C346.134 246.2 346.424 247.089 348.637 247.301C350.849 247.514 352.782 246.161 354.434 244.113C355.865 242.055 357.076 239.853 358.048 237.542Z" fill="#FFA8A7"/>
<path d="M337.501 86.5811C336.081 87.4217 334.322 90.9966 334.496 98.4848C334.641 104.833 336.699 106.398 337.733 106.852C338.767 107.306 340.767 107.026 342.699 106.707V110.514C342.699 110.514 340.023 113.625 340.187 115.345C340.352 117.065 344.052 117.509 346.564 115.799C348.376 114.393 349.937 112.691 351.183 110.765V102.002C351.183 102.002 352.323 103.113 354.255 101.422C355.85 100.021 356.391 97.6732 355.144 96.4074C354.821 96.1095 354.432 95.8921 354.008 95.7731C353.585 95.654 353.14 95.6367 352.708 95.7224C352.277 95.808 351.872 95.9944 351.526 96.2662C351.181 96.5381 350.904 96.8877 350.719 97.2867C350.719 97.2867 349.647 94.3011 345.183 92.8421C341.105 91.557 338.912 90.0401 337.501 86.5811Z" fill="#FFA8A7"/>
<path d="M341.6 96.8892C341.592 96.9954 341.605 97.102 341.639 97.2029C341.673 97.3039 341.726 97.3971 341.796 97.4771C341.867 97.5571 341.952 97.6224 342.048 97.6691C342.143 97.7158 342.247 97.743 342.353 97.7492C342.519 97.7645 342.685 97.7298 342.831 97.6497C342.977 97.5695 343.095 97.4475 343.17 97.2994C343.246 97.1513 343.275 96.984 343.255 96.8191C343.234 96.6541 343.165 96.4991 343.055 96.3741C342.946 96.2491 342.801 96.1598 342.64 96.1178C342.479 96.0758 342.31 96.083 342.153 96.1384C341.996 96.1939 341.86 96.2951 341.761 96.429C341.663 96.5628 341.606 96.7231 341.6 96.8892Z" fill="#263238"/>
<path d="M341.387 102.272L339.57 102.852C339.605 102.976 339.664 103.092 339.743 103.192C339.823 103.293 339.922 103.377 340.034 103.439C340.147 103.501 340.27 103.54 340.398 103.554C340.526 103.568 340.655 103.556 340.778 103.519C341.019 103.427 341.216 103.247 341.329 103.016C341.442 102.784 341.463 102.519 341.387 102.272Z" fill="#F28F8F"/>
<path d="M335.045 94.4371L336.669 93.3163C336.598 93.2101 336.508 93.1188 336.402 93.0477C336.297 92.9765 336.178 92.927 336.053 92.9018C335.929 92.8767 335.8 92.8765 335.675 92.9012C335.55 92.9259 335.431 92.975 335.326 93.0458C335.11 93.1981 334.961 93.4271 334.909 93.6857C334.857 93.9444 334.906 94.2132 335.045 94.4371Z" fill="#263238"/>
<path d="M343.916 95.026L342.303 93.9052C342.373 93.799 342.463 93.7077 342.569 93.6365C342.675 93.5654 342.793 93.5158 342.918 93.4907C343.043 93.4656 343.171 93.4653 343.296 93.49C343.421 93.5147 343.54 93.5639 343.646 93.6346C343.862 93.7869 344.01 94.0167 344.061 94.2759C344.111 94.5352 344.059 94.8039 343.916 95.026Z" fill="#263238"/>
<path d="M335.424 96.3103C335.416 96.4169 335.429 96.5241 335.463 96.6256C335.497 96.7271 335.55 96.8209 335.62 96.9017C335.69 96.9825 335.776 97.0487 335.871 97.0964C335.967 97.1442 336.071 97.1725 336.178 97.1799C336.343 97.1951 336.509 97.1606 336.654 97.0807C336.799 97.0009 336.917 96.8794 336.993 96.7319C337.069 96.5844 337.099 96.4177 337.079 96.253C337.059 96.0884 336.99 95.9335 336.882 95.8082C336.773 95.6829 336.63 95.593 336.47 95.55C336.309 95.5069 336.14 95.5128 335.983 95.5668C335.827 95.6208 335.69 95.7204 335.59 95.8529C335.49 95.9854 335.432 96.1447 335.424 96.3103Z" fill="#263238"/>
<path d="M339.192 95.8564L339.067 100.659L336.535 99.8759L339.192 95.8564Z" fill="#F28F8F"/>
<path d="M342.711 106.716C344.75 106.446 348.953 105.238 349.61 103.576C349.346 104.42 348.83 105.162 348.131 105.702C346.885 106.774 342.711 107.992 342.711 107.992V106.716Z" fill="#F28F8F"/>
<path d="M357.824 130.758L351.572 140.623L355.785 137.917L357.824 130.758Z" fill="#CFD8DC"/>
<g opacity="0.2">
<path opacity="0.2" d="M357.826 130.757L351.574 140.622L355.787 137.916L357.826 130.757Z" fill="black"/>
</g>
<path d="M76.1087 339.825L75.529 339.497C75.0433 339.178 74.6392 338.749 74.3489 338.246C74.0586 337.743 73.8903 337.178 73.8574 336.598V172.777C73.888 172.196 74.0554 171.631 74.3458 171.127C74.6363 170.624 75.0417 170.196 75.529 169.878L182.073 108.36C182.562 108.043 182.969 107.616 183.262 107.112C183.554 106.608 183.723 106.043 183.754 105.461V95.7313C183.786 95.151 183.954 94.5864 184.245 94.0829C184.535 93.5794 184.94 93.1512 185.426 92.8327L233.099 65.315C233.616 65.0481 234.189 64.9088 234.77 64.9088C235.352 64.9088 235.925 65.0481 236.442 65.315L237.022 65.6435C237.509 65.9608 237.914 66.3888 238.205 66.8925C238.495 67.3963 238.663 67.9615 238.693 68.5422V73.7404C238.693 74.8129 239.447 75.238 240.374 74.7066L284.124 49.4498C284.643 49.1875 285.215 49.0508 285.796 49.0508C286.377 49.0508 286.949 49.1875 287.467 49.4498L288.047 49.788C288.535 50.1047 288.941 50.5326 289.231 51.0364C289.522 51.5403 289.689 52.1058 289.719 52.6866V216.498C289.689 217.079 289.522 217.645 289.231 218.148C288.941 218.652 288.535 219.08 288.047 219.397L79.4518 339.825C78.935 340.092 78.3619 340.232 77.7802 340.232C77.1986 340.232 76.6255 340.092 76.1087 339.825Z" fill="#E0E0E0"/>
<path d="M77.7812 338.859V175.048C77.8126 174.467 77.9803 173.902 78.2707 173.398C78.5611 172.895 78.9661 172.467 79.4528 172.149L186.007 110.63C186.492 110.311 186.896 109.883 187.187 109.379C187.477 108.876 187.645 108.312 187.678 107.732V98.0212C187.708 97.4403 187.875 96.8748 188.166 96.3709C188.456 95.8671 188.862 95.4393 189.35 95.1225L237.023 67.5952C237.989 67.0637 238.694 67.4985 238.694 68.5614V78.2911C238.694 79.3636 239.448 79.7887 240.375 79.2573L288.048 51.7396C289.014 51.1985 289.72 51.6333 289.72 52.7058V216.498C289.69 217.079 289.523 217.644 289.232 218.148C288.942 218.652 288.536 219.08 288.048 219.397L79.4528 339.825C78.5349 340.366 77.7812 339.932 77.7812 338.859Z" fill="#F5F5F5"/>
<path d="M73.8574 183.048V184.468L77.7802 186.739L289.719 64.3488V52.677C289.685 52.097 289.517 51.5329 289.226 51.0297C288.936 50.5264 288.532 50.0979 288.047 49.7783L287.467 49.4498C286.949 49.1875 286.377 49.0508 285.796 49.0508C285.215 49.0508 284.643 49.1875 284.124 49.4498L240.365 74.7066C239.447 75.238 238.693 74.8129 238.693 73.7404V68.5421C238.663 67.9615 238.495 67.3962 238.205 66.8925C237.914 66.3888 237.509 65.9608 237.022 65.6435L236.442 65.315C235.925 65.0481 235.352 64.9088 234.77 64.9088C234.189 64.9088 233.616 65.0481 233.099 65.315L185.426 92.8327C184.938 93.1507 184.532 93.5786 184.24 94.082C183.948 94.5854 183.779 95.1504 183.745 95.7313V105.461C183.715 106.042 183.548 106.607 183.257 107.111C182.967 107.615 182.561 108.043 182.073 108.36L75.529 169.878C75.0417 170.196 74.6363 170.624 74.3458 171.127C74.0554 171.631 73.888 172.196 73.8574 172.777V183.048Z" fill="#37474F"/>
<path d="M73.8574 183.048V184.468L77.7802 186.739L289.719 64.3488V52.677C289.685 52.097 289.517 51.5329 289.226 51.0297C288.936 50.5264 288.532 50.0979 288.047 49.7783L287.467 49.4498C286.949 49.1875 286.377 49.0508 285.796 49.0508C285.215 49.0508 284.643 49.1875 284.124 49.4498L240.365 74.7066C239.447 75.238 238.693 74.8129 238.693 73.7404V68.5421C238.663 67.9615 238.495 67.3962 238.205 66.8925C237.914 66.3888 237.509 65.9608 237.022 65.6435L236.442 65.315C235.925 65.0481 235.352 64.9088 234.77 64.9088C234.189 64.9088 233.616 65.0481 233.099 65.315L185.426 92.8327C184.938 93.1507 184.532 93.5786 184.24 94.082C183.948 94.5854 183.779 95.1504 183.745 95.7313V105.461C183.715 106.042 183.548 106.607 183.257 107.111C182.967 107.615 182.561 108.043 182.073 108.36L75.529 169.878C75.0417 170.196 74.6363 170.624 74.3458 171.127C74.0554 171.631 73.888 172.196 73.8574 172.777V183.048Z" fill="#FAFAFA"/>
<path d="M191.598 111.924V98.3296L184.236 94.0879C183.935 94.5849 183.765 95.1501 183.743 95.7305V105.46C183.725 106.043 183.559 106.612 183.26 107.112L191.598 111.924Z" fill="#E0E0E0"/>
<path d="M81.7031 175.377L74.3502 171.126C74.0463 171.625 73.8766 172.194 73.8574 172.778V184.44L77.7802 186.711L81.7031 175.377Z" fill="#E0E0E0"/>
<path d="M186.007 110.629L79.4528 172.147C78.9661 172.465 78.5611 172.894 78.2707 173.397C77.9803 173.901 77.8126 174.466 77.7812 175.046V186.708L289.72 64.3473V52.6754C289.72 51.6126 288.966 51.1778 288.048 51.7092L240.366 79.2366C239.448 79.7777 238.694 79.3429 238.694 78.2704V68.5406C238.694 67.4778 237.95 67.043 237.023 67.5744L189.35 95.1211C188.862 95.4379 188.456 95.8657 188.166 96.3695C187.875 96.8734 187.708 97.4389 187.678 98.0197V107.75C187.642 108.326 187.473 108.887 187.182 109.387C186.892 109.886 186.49 110.312 186.007 110.629Z" fill="#EBEBEB"/>
<g style="mix-blend-mode:multiply" opacity="0.7">
<g style="mix-blend-mode:multiply" opacity="0.7">
<path d="M88.1737 173.076L84.7436 175.009L86.0577 172.748C86.0974 172.693 86.1253 172.631 86.1394 172.565C86.1535 172.498 86.1536 172.43 86.1397 172.364C86.1257 172.298 86.0981 172.235 86.0585 172.181C86.0189 172.126 85.9682 172.08 85.9098 172.046C85.8513 172.012 85.7864 171.991 85.7192 171.983C85.652 171.976 85.584 171.983 85.5196 172.003C85.4553 172.024 85.3959 172.058 85.3455 172.103C85.295 172.148 85.2546 172.203 85.2267 172.265L82.9948 176.129C82.9686 176.187 82.9551 176.25 82.9551 176.313C82.9551 176.376 82.9686 176.439 82.9948 176.497C83.0096 176.559 83.0381 176.617 83.0782 176.668C83.1183 176.718 83.169 176.758 83.2267 176.786L85.4586 178.043C85.5272 178.088 85.6081 178.112 85.6905 178.11C85.777 178.108 85.8616 178.084 85.9361 178.04C86.0105 177.996 86.0724 177.934 86.1156 177.859C86.1757 177.747 86.1901 177.616 86.1559 177.494C86.1217 177.371 86.0415 177.267 85.932 177.202L84.4344 176.361L88.7051 173.898C88.7603 173.866 88.8087 173.824 88.8475 173.773C88.8864 173.723 88.9149 173.665 88.9315 173.604C88.9481 173.542 88.9525 173.478 88.9443 173.415C88.9361 173.352 88.9155 173.291 88.8838 173.236C88.8521 173.18 88.8098 173.132 88.7594 173.093C88.709 173.054 88.6514 173.026 88.5899 173.009C88.5285 172.993 88.4643 172.988 88.4012 172.996C88.3381 173.005 88.2772 173.025 88.222 173.057L88.1737 173.076Z" fill="#E0E0E0"/>
</g>
<g style="mix-blend-mode:multiply" opacity="0.7">
<path d="M96.1633 169.153C96.1304 169.029 96.0508 168.921 95.9411 168.854L93.7091 167.598C93.6533 167.567 93.5919 167.547 93.5284 167.539C93.4649 167.532 93.4006 167.537 93.3392 167.555C93.2777 167.572 93.2203 167.602 93.1702 167.641C93.1201 167.681 93.0783 167.73 93.0473 167.786C93.0162 167.842 92.9964 167.903 92.989 167.967C92.9817 168.03 92.9869 168.094 93.0044 168.156C93.0219 168.217 93.0513 168.275 93.091 168.325C93.1307 168.375 93.1798 168.417 93.2357 168.448L94.7236 169.279L90.453 171.752C90.3435 171.817 90.2633 171.921 90.2291 172.044C90.1949 172.166 90.2093 172.297 90.2694 172.409C90.3131 172.483 90.3753 172.544 90.4499 172.587C90.5245 172.629 90.6088 172.651 90.6945 172.651C90.7784 172.65 90.861 172.63 90.9361 172.593L94.3661 170.603L93.0521 172.863C92.9882 172.975 92.9707 173.108 93.0032 173.232C93.0357 173.357 93.1157 173.464 93.226 173.53C93.3 173.572 93.3828 173.595 93.4676 173.598C93.5519 173.597 93.6346 173.575 93.7075 173.532C93.7804 173.49 93.8409 173.429 93.883 173.356L96.115 169.491C96.1449 169.441 96.1646 169.385 96.1729 169.327C96.1812 169.269 96.1779 169.21 96.1633 169.153Z" fill="#E0E0E0"/>
</g>
</g>
<path d="M103.423 162.834L256.239 74.6187C257.389 73.952 258.326 74.4254 258.326 75.6719C258.275 76.3747 258.06 77.0557 257.697 77.66C257.335 78.2642 256.835 78.7747 256.239 79.1502L103.423 167.375C102.273 168.042 101.336 167.568 101.336 166.312C101.388 165.61 101.604 164.929 101.967 164.325C102.329 163.721 102.828 163.21 103.423 162.834Z" fill="#E0E0E0"/>
<path d="M264.208 70.0001C265.3 69.372 266.14 69.8841 266.14 71.1305C266.108 71.8095 265.917 72.4714 265.581 73.0624C265.245 73.6534 264.775 74.1568 264.208 74.5316C263.126 75.1597 262.275 74.6476 262.275 73.4011C262.309 72.7225 262.501 72.0612 262.837 71.4705C263.172 70.8797 263.642 70.3761 264.208 70.0001Z" fill="#FAFAFA"/>
<path d="M272.069 65.4796C273.151 64.8515 274.002 65.3636 274.002 66.61C273.968 67.2887 273.776 67.95 273.44 68.5407C273.105 69.1315 272.635 69.6351 272.069 70.0111C270.987 70.6391 270.137 70.127 270.137 68.8806C270.17 68.202 270.362 67.5407 270.698 66.9499C271.033 66.3592 271.503 65.8556 272.069 65.4796Z" fill="#FAFAFA"/>
<path d="M279.913 60.9464C280.995 60.3183 281.845 60.8304 281.845 62.0768C281.812 62.7555 281.62 63.4168 281.284 64.0075C280.949 64.5983 280.479 65.1019 279.913 65.4779C278.831 66.1059 277.98 65.5939 277.98 64.3474C278.014 63.6688 278.206 63.0075 278.542 62.4167C278.877 61.826 279.347 61.3223 279.913 60.9464Z" fill="#FAFAFA"/>
<g style="mix-blend-mode:multiply" opacity="0.7">
<g style="mix-blend-mode:multiply" opacity="0.7">
<path d="M199.463 96.0908C199.463 97.3372 200.429 97.8106 201.56 97.1439L224.845 83.7039C225.444 83.3301 225.946 82.8202 226.31 82.2158C226.674 81.6114 226.891 80.9295 226.942 80.2256C226.942 78.9792 225.976 78.5057 224.845 79.1724L201.56 92.6124C200.961 92.9862 200.459 93.4961 200.095 94.1005C199.73 94.705 199.514 95.3869 199.463 96.0908Z" fill="#E0E0E0"/>
</g>
<g style="mix-blend-mode:multiply" opacity="0.7">
<path d="M193.559 97.2016C192.993 97.5776 192.524 98.0813 192.188 98.672C191.852 99.2628 191.66 99.9241 191.627 100.603C191.627 101.849 192.506 102.361 193.559 101.733C194.125 101.357 194.595 100.854 194.931 100.263C195.266 99.6721 195.459 99.0107 195.492 98.3321C195.521 97.0567 194.632 96.5736 193.559 97.2016Z" fill="#CFD8DC"/>
</g>
<g style="mix-blend-mode:multiply" opacity="0.7">
<path d="M234.763 78.4286C234.678 78.4242 234.596 78.4011 234.521 78.3609L230.599 76.0903C230.537 76.0625 230.482 76.022 230.437 75.9716C230.392 75.9211 230.358 75.8618 230.337 75.7974C230.317 75.733 230.31 75.665 230.317 75.5978C230.325 75.5306 230.346 75.4657 230.38 75.4073C230.414 75.3488 230.46 75.2982 230.515 75.2586C230.569 75.219 230.632 75.1913 230.698 75.1774C230.764 75.1634 230.832 75.1635 230.899 75.1777C230.965 75.1918 231.027 75.2196 231.082 75.2594L235.005 77.5203C235.115 77.5867 235.195 77.6936 235.227 77.8182C235.26 77.9428 235.242 78.0752 235.178 78.187C235.136 78.26 235.076 78.3207 235.003 78.3631C234.93 78.4055 234.847 78.4281 234.763 78.4286Z" fill="#E0E0E0"/>
</g>
<g style="mix-blend-mode:multiply" opacity="0.7">
<path d="M230.849 80.6893C230.763 80.6909 230.679 80.6674 230.607 80.6216C230.552 80.5906 230.503 80.5488 230.464 80.4987C230.426 80.4486 230.397 80.3912 230.381 80.3299C230.365 80.2686 230.361 80.2047 230.37 80.142C230.379 80.0792 230.4 80.0189 230.433 79.9646L234.356 73.2011C234.384 73.1395 234.424 73.0845 234.475 73.0395C234.525 72.9945 234.584 72.9606 234.649 72.94C234.713 72.9194 234.781 72.9125 234.848 72.9198C234.916 72.9271 234.98 72.9485 235.039 72.9824C235.097 73.0164 235.148 73.0623 235.188 73.1171C235.227 73.1719 235.255 73.2343 235.269 73.3005C235.283 73.3666 235.283 73.435 235.269 73.5011C235.254 73.5672 235.227 73.6296 235.187 73.6842L231.264 80.4477C231.222 80.5207 231.161 80.5815 231.088 80.6238C231.016 80.6662 230.933 80.6888 230.849 80.6893Z" fill="#E0E0E0"/>
</g>
</g>
<path d="M87.886 346.628L87.3063 346.29C86.8185 345.973 86.4127 345.545 86.1222 345.041C85.8316 344.537 85.6646 343.972 85.6348 343.391V179.58C85.6664 178.998 85.8353 178.432 86.1275 177.929C86.4197 177.425 86.8269 176.997 87.316 176.681L142.834 144.622C143.323 144.305 143.73 143.878 144.022 143.374C144.314 142.87 144.483 142.305 144.516 141.723V131.994C144.543 131.412 144.709 130.846 145 130.342C145.291 129.837 145.698 129.41 146.187 129.095L193.86 101.568C194.378 101.305 194.951 101.169 195.532 101.169C196.112 101.169 196.685 101.305 197.203 101.568L197.783 101.906C198.271 102.223 198.677 102.65 198.967 103.154C199.258 103.658 199.425 104.224 199.454 104.805V110.003C199.454 111.066 200.208 111.5 201.136 110.969L295.892 56.2427C296.412 55.981 296.986 55.8447 297.568 55.8447C298.151 55.8447 298.725 55.981 299.245 56.2427L299.815 56.5809C300.303 56.8977 300.71 57.3253 301.002 57.829C301.294 58.3327 301.464 58.8982 301.496 59.4795V223.301C301.462 223.882 301.292 224.447 301 224.95C300.708 225.453 300.302 225.881 299.815 226.199L91.2485 346.628C90.7278 346.893 90.1517 347.032 89.5672 347.032C88.9828 347.032 88.4067 346.893 87.886 346.628Z" fill="#E0E0E0"/>
<path d="M89.5625 345.661V181.84C89.5931 181.259 89.7604 180.694 90.0509 180.19C90.3414 179.686 90.7468 179.258 91.234 178.941L146.762 146.882C147.249 146.564 147.654 146.136 147.944 145.633C148.235 145.129 148.402 144.564 148.434 143.984V134.254C148.466 133.674 148.634 133.109 148.924 132.605C149.215 132.102 149.619 131.674 150.105 131.355L197.778 103.818C198.744 103.277 199.45 103.712 199.45 104.784V114.514C199.45 115.577 200.203 116.012 201.131 115.48L299.82 58.4739C300.786 57.9425 301.501 58.3773 301.501 59.4401V223.3C301.467 223.881 301.297 224.446 301.005 224.949C300.713 225.453 300.307 225.881 299.82 226.199L91.2534 346.627C90.2872 347.159 89.5625 346.724 89.5625 345.661Z" fill="#FAFAFA"/>
<path d="M85.6347 189.812V191.242L89.5575 193.503L301.496 71.1417V59.4795C301.464 58.8982 301.294 58.3327 301.002 57.829C300.71 57.3253 300.303 56.8977 299.815 56.5809L299.245 56.2427C298.725 55.981 298.151 55.8447 297.568 55.8447C296.986 55.8447 296.412 55.981 295.892 56.2427L201.126 110.969C200.16 111.5 199.445 111.066 199.445 110.003V104.785C199.415 104.204 199.248 103.639 198.957 103.135C198.667 102.631 198.261 102.203 197.773 101.887L197.193 101.548C196.675 101.286 196.103 101.149 195.522 101.149C194.941 101.149 194.369 101.286 193.85 101.548L146.177 129.076C145.688 129.392 145.281 129.819 144.989 130.323C144.697 130.827 144.528 131.393 144.496 131.974V141.704C144.464 142.285 144.295 142.851 144.003 143.355C143.71 143.858 143.304 144.286 142.815 144.603L87.2965 176.662C86.8088 176.978 86.403 177.406 86.1124 177.91C85.8219 178.414 85.6548 178.979 85.625 179.56L85.6347 189.812Z" fill="#F0F0F0"/>
<path d="M152.358 148.188V134.593L144.995 130.342C144.695 130.842 144.525 131.411 144.503 131.994V141.724C144.479 142.307 144.309 142.875 144.01 143.376L152.358 148.188Z" fill="#E0E0E0"/>
<path d="M93.4804 182.179L86.1179 177.928C85.8186 178.428 85.6523 178.997 85.6348 179.58V191.242L89.5576 193.503L93.4804 182.179Z" fill="#E0E0E0"/>
<path d="M146.757 146.883L91.2477 178.942C90.7605 179.259 90.3551 179.687 90.0646 180.191C89.7741 180.694 89.6068 181.26 89.5762 181.84V193.502L301.495 71.1413V59.4791C301.495 58.4163 300.742 57.9815 299.814 58.5129L201.125 115.519C200.159 116.051 199.444 115.616 199.444 114.553V104.785C199.444 103.712 198.7 103.278 197.773 103.819L150.1 131.356C149.613 131.674 149.209 132.102 148.919 132.606C148.628 133.109 148.46 133.674 148.428 134.254V143.984C148.397 144.565 148.229 145.129 147.939 145.633C147.648 146.137 147.243 146.565 146.757 146.883Z" fill="#E0E0E0"/>
<g style="mix-blend-mode:multiply" opacity="0.7">
<g style="mix-blend-mode:multiply" opacity="0.7">
<path d="M99.9445 179.879L96.5145 181.859L97.8285 179.598C97.8683 179.544 97.8961 179.481 97.9103 179.415C97.9244 179.349 97.9245 179.281 97.9106 179.215C97.8966 179.148 97.869 179.086 97.8293 179.031C97.7897 178.976 97.7391 178.93 97.6806 178.897C97.6222 178.863 97.5573 178.841 97.4901 178.834C97.4229 178.827 97.3549 178.833 97.2905 178.854C97.2262 178.875 97.1668 178.909 97.1164 178.954C97.0659 178.999 97.0254 179.054 96.9976 179.115L94.7656 182.98C94.7001 183.091 94.6794 183.222 94.7077 183.347C94.7471 183.471 94.8293 183.577 94.9396 183.647L97.1715 184.903C97.2462 184.941 97.3291 184.961 97.4131 184.961C97.5177 184.958 97.6185 184.921 97.7003 184.855C97.7821 184.79 97.8404 184.7 97.8666 184.599C97.8927 184.497 97.8853 184.39 97.8453 184.293C97.8053 184.197 97.735 184.116 97.645 184.062L96.157 183.222L100.428 180.748C100.524 180.678 100.592 180.574 100.616 180.457C100.641 180.34 100.621 180.218 100.561 180.115C100.501 180.011 100.405 179.934 100.291 179.897C100.177 179.861 100.054 179.868 99.9445 179.917V179.879Z" fill="#E0E0E0"/>
</g>
<g style="mix-blend-mode:multiply" opacity="0.7">
<path d="M107.929 175.946C107.913 175.884 107.883 175.826 107.844 175.777C107.804 175.727 107.754 175.686 107.697 175.656L105.465 174.4C105.354 174.337 105.222 174.321 105.099 174.356C104.976 174.39 104.871 174.472 104.808 174.583C104.746 174.695 104.73 174.827 104.764 174.95C104.799 175.073 104.881 175.177 104.992 175.24L106.49 176.081L102.209 178.554C102.119 178.608 102.048 178.69 102.008 178.788C101.969 178.886 101.962 178.993 101.989 179.095C102.017 179.197 102.077 179.287 102.16 179.352C102.243 179.416 102.345 179.452 102.451 179.453C102.536 179.455 102.62 179.431 102.692 179.385L106.132 177.405L104.818 179.666C104.785 179.72 104.764 179.78 104.755 179.843C104.746 179.906 104.75 179.97 104.766 180.031C104.782 180.092 104.811 180.15 104.849 180.2C104.888 180.25 104.937 180.292 104.992 180.323C105.064 180.369 105.148 180.393 105.234 180.39C105.318 180.39 105.401 180.367 105.473 180.325C105.546 180.282 105.607 180.222 105.649 180.149L107.881 176.284C107.939 176.181 107.956 176.06 107.929 175.946Z" fill="#E0E0E0"/>
</g>
</g>
<path d="M115.2 169.636L268.007 81.4114C269.166 80.7447 270.103 81.2181 270.103 82.4742C270.051 83.1764 269.834 83.8564 269.469 84.459C269.105 85.0617 268.604 85.57 268.007 85.9429L115.2 174.168C114.05 174.834 113.113 174.361 113.113 173.115C113.164 172.412 113.379 171.731 113.742 171.126C114.104 170.522 114.604 170.012 115.2 169.636Z" fill="#E0E0E0"/>
<path d="M275.989 76.7651C277.071 76.1468 277.921 76.6492 277.921 77.9053C277.888 78.5826 277.696 79.2425 277.36 79.8317C277.025 80.4209 276.555 80.9228 275.989 81.2967C274.907 81.9247 274.057 81.4223 274.057 80.1662C274.091 79.4879 274.284 78.8272 274.62 78.2367C274.955 77.6461 275.424 77.1422 275.989 76.7651Z" fill="#FAFAFA"/>
<path d="M283.837 72.272C284.929 71.6536 285.769 72.156 285.769 73.4121C285.737 74.0896 285.545 74.7498 285.209 75.3391C284.873 75.9285 284.403 76.4302 283.837 76.8035C282.755 77.4315 281.904 76.9291 281.904 75.673C281.939 74.9948 282.132 74.334 282.467 73.7435C282.803 73.153 283.272 72.6491 283.837 72.272Z" fill="#FAFAFA"/>
<path d="M291.69 67.7388C292.772 67.1204 293.623 67.6228 293.623 68.8789C293.589 69.5562 293.397 70.2162 293.061 70.8054C292.726 71.3945 292.256 71.8964 291.69 72.2703C290.608 72.8983 289.758 72.3959 289.758 71.1398C289.793 70.4616 289.985 69.8008 290.321 69.2103C290.656 68.6198 291.125 68.1159 291.69 67.7388Z" fill="#FAFAFA"/>
<g style="mix-blend-mode:multiply" opacity="0.7">
<g style="mix-blend-mode:multiply" opacity="0.7">
<path d="M160.197 132.322C160.197 133.578 161.163 134.051 162.294 133.385L185.58 119.935C186.177 119.562 186.678 119.054 187.042 118.451C187.407 117.849 187.624 117.169 187.676 116.466C187.676 115.21 186.71 114.737 185.58 115.404L162.294 128.853C161.697 129.226 161.196 129.734 160.831 130.337C160.467 130.94 160.25 131.62 160.197 132.322Z" fill="#E0E0E0"/>
</g>
<g style="mix-blend-mode:multiply" opacity="0.7">
<path d="M154.315 133.452C153.75 133.829 153.281 134.333 152.946 134.923C152.61 135.514 152.418 136.174 152.383 136.853C152.383 138.109 153.262 138.611 154.315 137.983C154.881 137.609 155.351 137.107 155.686 136.518C156.022 135.929 156.214 135.269 156.248 134.592C156.277 133.336 155.397 132.804 154.315 133.452Z" fill="#CFD8DC"/>
</g>
<g style="mix-blend-mode:multiply" opacity="0.7">
<path d="M195.529 114.679C195.443 114.68 195.36 114.656 195.287 114.611L191.364 112.35C191.309 112.319 191.261 112.276 191.222 112.226C191.183 112.176 191.154 112.118 191.138 112.056C191.121 111.995 191.117 111.931 191.125 111.868C191.133 111.805 191.154 111.744 191.186 111.689C191.217 111.633 191.26 111.585 191.31 111.546C191.36 111.507 191.418 111.479 191.479 111.462C191.541 111.445 191.605 111.441 191.668 111.449C191.731 111.458 191.792 111.478 191.847 111.51L195.77 113.78C195.861 113.834 195.932 113.916 195.971 114.014C196.011 114.111 196.018 114.219 195.99 114.321C195.963 114.423 195.903 114.513 195.82 114.578C195.736 114.642 195.634 114.678 195.529 114.679Z" fill="#E0E0E0"/>
</g>
<g style="mix-blend-mode:multiply" opacity="0.7">
<path d="M191.601 116.949C191.516 116.946 191.433 116.923 191.359 116.881C191.25 116.817 191.17 116.712 191.137 116.589C191.105 116.466 191.122 116.335 191.185 116.224L195.108 109.461C195.136 109.399 195.176 109.344 195.227 109.299C195.277 109.254 195.337 109.22 195.401 109.2C195.465 109.179 195.533 109.172 195.601 109.18C195.668 109.187 195.733 109.208 195.791 109.242C195.85 109.276 195.9 109.322 195.94 109.377C195.979 109.432 196.007 109.494 196.021 109.56C196.035 109.626 196.035 109.695 196.021 109.761C196.007 109.827 195.979 109.889 195.939 109.944L192.016 116.707C191.974 116.78 191.914 116.841 191.841 116.884C191.768 116.926 191.685 116.949 191.601 116.949Z" fill="#E0E0E0"/>
</g>
</g>
<path d="M99.6614 353.42L99.0914 353.092C98.6029 352.775 98.196 352.347 97.9039 351.843C97.6117 351.34 97.4426 350.774 97.4102 350.193V186.372C97.443 185.792 97.6113 185.227 97.9016 184.724C98.1919 184.221 98.5961 183.792 99.0817 183.473L103.584 180.874C104.072 180.557 104.478 180.129 104.768 179.626C105.059 179.122 105.226 178.556 105.256 177.975V168.246C105.288 167.664 105.457 167.099 105.75 166.595C106.042 166.091 106.448 165.664 106.937 165.347L154.61 137.82C155.128 137.557 155.701 137.421 156.281 137.421C156.862 137.421 157.435 137.557 157.953 137.82L158.533 138.158C159.021 138.475 159.426 138.902 159.717 139.406C160.007 139.91 160.174 140.476 160.204 141.056V146.255C160.204 147.318 160.958 147.752 161.876 147.221L307.687 63.0445C308.205 62.7822 308.778 62.6455 309.358 62.6455C309.939 62.6455 310.512 62.7822 311.03 63.0445L311.61 63.3827C312.097 63.6995 312.503 64.1273 312.794 64.6311C313.084 65.135 313.251 65.7005 313.281 66.2813V230.093C313.251 230.674 313.084 231.239 312.794 231.743C312.503 232.247 312.097 232.675 311.61 232.991L103.014 353.42C102.496 353.687 101.921 353.826 101.338 353.826C100.755 353.826 100.18 353.687 99.6614 353.42Z" fill="#E0E0E0"/>
<path d="M101.336 352.453V188.642C101.368 188.06 101.536 187.494 101.829 186.991C102.121 186.487 102.528 186.059 103.017 185.743L107.52 183.144C108.005 182.825 108.41 182.397 108.7 181.893C108.99 181.39 109.158 180.826 109.191 180.245V170.487C109.221 169.906 109.388 169.34 109.679 168.836C109.969 168.333 110.375 167.905 110.863 167.588L158.536 140.061C159.502 139.529 160.207 139.954 160.207 141.027V150.757C160.207 151.829 160.961 152.254 161.879 151.723L311.642 65.2855C312.608 64.7444 313.313 65.1792 313.313 66.2517V230.092C313.283 230.673 313.116 231.239 312.826 231.742C312.535 232.246 312.129 232.674 311.642 232.991L103.007 353.419C102.08 353.961 101.336 353.526 101.336 352.453Z" fill="#FAFAFA"/>
<path d="M101.332 200.305L101.342 232.026L313.271 109.665V77.9443L101.332 200.305Z" fill="#CFD8DC"/>
<path d="M97.4102 198.033V229.764L101.343 232.025L101.333 200.304L97.4102 198.033Z" fill="#CFD8DC"/>
<path opacity="0.2" d="M97.4102 198.033V229.764L101.343 232.025L101.333 200.304L97.4102 198.033Z" fill="black"/>
<path d="M170.14 174.168L238.741 134.554V139.085L170.14 178.7C168.98 179.367 168.043 178.893 168.043 177.647C168.095 176.943 168.312 176.261 168.676 175.657C169.04 175.053 169.542 174.543 170.14 174.168Z" fill="white"/>
<path d="M244.589 131.191L238.705 134.592V139.124L244.589 135.703C245.155 135.327 245.625 134.824 245.961 134.233C246.296 133.642 246.488 132.981 246.522 132.302C246.551 131.075 245.671 130.563 244.589 131.191Z" fill="white"/>
<path d="M113.099 234.258C115.263 233.002 117.021 234.016 117.021 236.519C116.941 237.874 116.544 239.192 115.863 240.366C115.182 241.541 114.235 242.539 113.099 243.282C110.934 244.529 109.176 243.514 109.176 241.012C109.258 239.658 109.655 238.342 110.336 237.169C111.017 235.997 111.963 235 113.099 234.258Z" fill="#CFD8DC"/>
<path d="M123.054 228.556L146.33 215.107C147.479 214.44 148.417 214.913 148.417 216.17C148.364 216.871 148.148 217.55 147.786 218.152C147.423 218.755 146.925 219.264 146.33 219.638L123.034 233.088C121.875 233.755 120.947 233.281 120.947 232.025C120.999 231.322 121.217 230.64 121.583 230.038C121.95 229.435 122.453 228.927 123.054 228.556Z" fill="#CFD8DC"/>
<path d="M120.961 237.687C120.986 237.337 121.093 236.998 121.275 236.697C121.456 236.397 121.706 236.143 122.004 235.958L135.609 228.103C136.188 227.764 136.652 228.006 136.652 228.624C136.628 228.976 136.521 229.317 136.339 229.619C136.158 229.922 135.908 230.177 135.609 230.364L122.004 238.219C121.425 238.557 120.961 238.315 120.961 237.687Z" fill="#CFD8DC"/>
<path opacity="0.3" d="M120.961 237.687C120.986 237.337 121.093 236.998 121.275 236.697C121.456 236.397 121.706 236.143 122.004 235.958L135.609 228.103C136.188 227.764 136.652 228.006 136.652 228.624C136.628 228.976 136.521 229.317 136.339 229.619C136.158 229.922 135.908 230.177 135.609 230.364L122.004 238.219C121.425 238.557 120.961 238.315 120.961 237.687Z" fill="white"/>
<path d="M113.099 251.648C115.263 250.392 117.021 251.407 117.021 253.909C116.941 255.265 116.544 256.582 115.863 257.757C115.182 258.931 114.235 259.93 113.099 260.673C110.934 261.919 109.176 260.905 109.176 258.402C109.258 257.049 109.655 255.733 110.336 254.56C111.017 253.387 111.963 252.39 113.099 251.648Z" fill="#CFD8DC"/>
<path d="M123.054 245.948L146.33 232.498C147.479 231.832 148.417 232.305 148.417 233.561C148.364 234.262 148.148 234.941 147.786 235.544C147.423 236.146 146.925 236.655 146.33 237.03L123.034 250.479C121.875 251.146 120.947 250.673 120.947 249.417C120.999 248.713 121.217 248.032 121.583 247.429C121.95 246.826 122.453 246.319 123.054 245.948Z" fill="#CFD8DC"/>
<path d="M120.961 255.078C120.986 254.728 121.093 254.389 121.275 254.088C121.456 253.787 121.706 253.534 122.004 253.349L135.609 245.493C136.188 245.155 136.652 245.397 136.652 246.015C136.628 246.367 136.521 246.708 136.339 247.01C136.158 247.312 135.908 247.567 135.609 247.754L122.004 255.609C121.425 255.948 120.961 255.706 120.961 255.078Z" fill="#CFD8DC"/>
<path opacity="0.3" d="M120.961 255.078C120.986 254.728 121.093 254.389 121.275 254.088C121.456 253.787 121.706 253.534 122.004 253.349L135.609 245.493C136.188 245.155 136.652 245.397 136.652 246.015C136.628 246.367 136.521 246.708 136.339 247.01C136.158 247.312 135.908 247.567 135.609 247.754L122.004 255.609C121.425 255.948 120.961 255.706 120.961 255.078Z" fill="white"/>
<path d="M113.099 270.974C115.263 269.718 117.021 270.732 117.021 273.235C116.941 274.59 116.544 275.908 115.863 277.082C115.182 278.257 114.235 279.255 113.099 279.998C110.934 281.244 109.176 280.23 109.176 277.727C109.258 276.374 109.655 275.058 110.336 273.885C111.017 272.713 111.963 271.715 113.099 270.974Z" fill="#CFD8DC"/>
<path d="M123.054 265.271L146.33 251.822C147.479 251.155 148.417 251.628 148.417 252.884C148.364 253.586 148.148 254.265 147.786 254.867C147.423 255.47 146.925 255.979 146.33 256.353L123.034 269.803C121.875 270.469 120.947 269.996 120.947 268.74C120.999 268.036 121.217 267.355 121.583 266.752C121.95 266.149 122.453 265.642 123.054 265.271Z" fill="#CFD8DC"/>
<path d="M120.961 274.401C120.986 274.051 121.093 273.712 121.275 273.411C121.456 273.111 121.706 272.857 122.004 272.672L135.609 264.816C136.188 264.478 136.652 264.72 136.652 265.338C136.628 265.69 136.521 266.031 136.339 266.333C136.158 266.636 135.908 266.891 135.609 267.077L122.004 274.933C121.425 275.271 120.961 275.029 120.961 274.401Z" fill="#CFD8DC"/>
<path opacity="0.3" d="M120.961 274.401C120.986 274.051 121.093 273.712 121.275 273.411C121.456 273.111 121.706 272.857 122.004 272.672L135.609 264.816C136.188 264.478 136.652 264.72 136.652 265.338C136.628 265.69 136.521 266.031 136.339 266.333C136.158 266.636 135.908 266.891 135.609 267.077L122.004 274.933C121.425 275.271 120.961 275.029 120.961 274.401Z" fill="white"/>
<path d="M113.099 301.892C115.263 300.635 117.021 301.65 117.021 304.152C116.941 305.508 116.544 306.826 115.863 308C115.182 309.174 114.235 310.173 113.099 310.916C110.934 312.162 109.176 311.148 109.176 308.645C109.258 307.292 109.655 305.976 110.336 304.803C111.017 303.631 111.963 302.633 113.099 301.892Z" fill="#CFD8DC"/>
<path d="M123.054 296.192L146.33 282.742C147.479 282.076 148.417 282.549 148.417 283.805C148.364 284.506 148.148 285.186 147.786 285.788C147.423 286.39 146.925 286.899 146.33 287.274L123.034 300.724C121.875 301.39 120.947 300.917 120.947 299.661C120.999 298.957 121.217 298.276 121.583 297.673C121.95 297.07 122.453 296.563 123.054 296.192Z" fill="#CFD8DC"/>
<path d="M120.961 305.321C120.986 304.971 121.093 304.632 121.275 304.331C121.456 304.03 121.706 303.777 122.004 303.592L135.609 295.736C136.188 295.398 136.652 295.64 136.652 296.258C136.628 296.61 136.521 296.951 136.339 297.253C136.158 297.555 135.908 297.81 135.609 297.997L122.004 305.853C121.425 306.191 120.961 305.949 120.961 305.321Z" fill="#CFD8DC"/>
<path opacity="0.3" d="M120.961 305.321C120.986 304.971 121.093 304.632 121.275 304.331C121.456 304.03 121.706 303.777 122.004 303.592L135.609 295.736C136.188 295.398 136.652 295.64 136.652 296.258C136.628 296.61 136.521 296.951 136.339 297.253C136.158 297.555 135.908 297.81 135.609 297.997L122.004 305.853C121.425 306.191 120.961 305.949 120.961 305.321Z" fill="white"/>
<path d="M113.099 318.316C115.263 317.06 117.021 318.075 117.021 320.577C116.941 321.933 116.544 323.25 115.863 324.425C115.182 325.599 114.235 326.598 113.099 327.341C110.934 328.587 109.176 327.573 109.176 325.07C109.258 323.716 109.655 322.401 110.336 321.228C111.017 320.055 111.963 319.058 113.099 318.316Z" fill="#CFD8DC"/>
<path d="M123.054 312.616L146.33 299.166C147.479 298.5 148.417 298.973 148.417 300.229C148.364 300.93 148.148 301.609 147.786 302.212C147.423 302.814 146.925 303.323 146.33 303.698L123.034 317.147C121.875 317.814 120.947 317.341 120.947 316.085C120.999 315.381 121.217 314.7 121.583 314.097C121.95 313.494 122.453 312.987 123.054 312.616Z" fill="#CFD8DC"/>
<path d="M120.961 321.748C120.986 321.398 121.093 321.058 121.275 320.758C121.456 320.457 121.706 320.204 122.004 320.018L135.609 312.163C136.188 311.825 136.652 312.067 136.652 312.685C136.628 313.037 136.521 313.378 136.339 313.68C136.158 313.982 135.908 314.237 135.609 314.424L122.004 322.279C121.425 322.618 120.961 322.376 120.961 321.748Z" fill="#CFD8DC"/>
<path opacity="0.3" d="M120.961 321.748C120.986 321.398 121.093 321.058 121.275 320.758C121.456 320.457 121.706 320.204 122.004 320.018L135.609 312.163C136.188 311.825 136.652 312.067 136.652 312.685C136.628 313.037 136.521 313.378 136.339 313.68C136.158 313.982 135.908 314.237 135.609 314.424L122.004 322.279C121.425 322.618 120.961 322.376 120.961 321.748Z" fill="white"/>
<path d="M105.264 297.061V297.167C105.264 297.486 105.486 297.621 105.766 297.457L128.308 284.442C128.454 284.347 128.576 284.219 128.663 284.068C128.75 283.916 128.801 283.747 128.81 283.573V283.466C128.81 283.148 128.588 283.012 128.308 283.177L105.747 296.153C105.599 296.254 105.478 296.39 105.394 296.548C105.31 296.706 105.265 296.882 105.264 297.061Z" fill="#E0E0E0"/>
<path d="M162.3 205.898L268.003 144.863C269.163 144.196 270.1 144.737 270.1 146.07V186.555C270.061 187.281 269.85 187.988 269.486 188.617C269.121 189.247 268.613 189.782 268.003 190.178L162.3 251.213C161.14 251.88 160.203 251.339 160.203 250.006V209.521C160.241 208.795 160.451 208.087 160.815 207.457C161.18 206.828 161.689 206.293 162.3 205.898Z" fill="#CFD8DC"/>
<path d="M168.057 209.367C168.057 210.613 169.023 211.086 170.144 210.42L195.526 195.772C196.123 195.399 196.624 194.891 196.989 194.288C197.353 193.685 197.57 193.006 197.623 192.303C197.623 191.047 196.656 190.574 195.526 191.24L170.144 205.888C169.548 206.265 169.05 206.776 168.687 207.38C168.325 207.984 168.109 208.664 168.057 209.367Z" fill="#F5F5F5"/>
<path d="M200.379 190.708C200.379 191.964 201.345 192.438 202.466 191.771L227.848 177.114C228.443 176.739 228.942 176.23 229.305 175.628C229.667 175.025 229.883 174.346 229.935 173.645C229.935 172.389 228.969 171.916 227.848 172.582L202.466 187.24C201.869 187.613 201.369 188.121 201.007 188.724C200.644 189.327 200.429 190.007 200.379 190.708Z" fill="#F5F5F5"/>
<path d="M232.691 172.052C232.691 173.308 233.658 173.781 234.788 173.114L260.161 158.457C260.757 158.09 261.259 157.589 261.626 156.993C261.993 156.398 262.216 155.724 262.277 155.027C262.277 153.771 261.311 153.297 260.18 153.964L234.788 168.554C234.187 168.93 233.683 169.443 233.319 170.051C232.955 170.659 232.739 171.344 232.691 172.052Z" fill="#F5F5F5"/>
<path d="M168.057 241.088C168.057 242.344 169.023 242.818 170.144 242.151L260.156 190.188C260.754 189.814 261.255 189.304 261.62 188.7C261.984 188.095 262.201 187.414 262.253 186.71C262.253 185.464 261.286 184.99 260.156 185.657L170.144 237.62C169.549 237.994 169.05 238.503 168.687 239.106C168.325 239.708 168.109 240.387 168.057 241.088Z" fill="#F5F5F5"/>
<path d="M169.728 215.202L260.552 162.746C261.47 162.215 262.224 162.65 262.224 163.713V177.974C262.192 178.554 262.025 179.119 261.734 179.623C261.444 180.126 261.039 180.555 260.552 180.872L169.728 233.328C168.81 233.86 168.057 233.425 168.057 232.362V218.101C168.088 217.52 168.256 216.955 168.546 216.452C168.836 215.948 169.241 215.52 169.728 215.202Z" fill="#F5F5F5"/>
<path d="M162.3 260.008L268.003 198.972C269.163 198.305 270.1 198.846 270.1 200.18V240.664C270.061 241.39 269.85 242.097 269.486 242.727C269.121 243.356 268.613 243.891 268.003 244.287L162.3 305.323C161.14 305.99 160.203 305.448 160.203 304.115V263.631C160.241 262.904 160.451 262.197 160.815 261.567C161.18 260.937 161.689 260.403 162.3 260.008Z" fill="#CFD8DC"/>
<path d="M168.057 263.474C168.057 264.72 169.023 265.194 170.144 264.527L195.526 249.879C196.123 249.507 196.624 248.998 196.989 248.396C197.353 247.793 197.57 247.113 197.623 246.411C197.623 245.155 196.656 244.681 195.526 245.348L170.144 259.996C169.548 260.372 169.05 260.883 168.687 261.487C168.325 262.091 168.109 262.772 168.057 263.474Z" fill="#F5F5F5"/>
<path d="M200.379 244.818C200.379 246.074 201.345 246.547 202.466 245.881L227.848 231.223C228.443 230.849 228.942 230.34 229.305 229.737C229.667 229.135 229.883 228.456 229.935 227.754C229.935 226.498 228.969 226.025 227.848 226.692L202.466 241.349C201.869 241.722 201.369 242.23 201.007 242.833C200.644 243.436 200.429 244.116 200.379 244.818Z" fill="#F5F5F5"/>
<path d="M232.691 226.16C232.691 227.416 233.658 227.89 234.788 227.223L260.161 212.565C260.757 212.198 261.259 211.697 261.626 211.102C261.993 210.506 262.216 209.833 262.277 209.135C262.277 207.879 261.311 207.406 260.18 208.073L234.788 222.662C234.187 223.038 233.683 223.551 233.319 224.159C232.955 224.767 232.739 225.453 232.691 226.16Z" fill="#F5F5F5"/>
<path d="M168.057 295.195C168.057 296.451 169.023 296.924 170.144 296.258L260.156 244.295C260.754 243.92 261.255 243.41 261.62 242.806C261.984 242.202 262.201 241.52 262.253 240.816C262.253 239.57 261.286 239.097 260.156 239.763L170.144 291.726C169.549 292.101 169.05 292.61 168.687 293.212C168.325 293.814 168.109 294.494 168.057 295.195Z" fill="#F5F5F5"/>
<path d="M169.728 269.311L260.552 216.856C261.47 216.324 262.224 216.759 262.224 217.822V232.083C262.192 232.664 262.025 233.229 261.734 233.732C261.444 234.236 261.039 234.664 260.552 234.982L169.728 287.437C168.81 287.969 168.057 287.534 168.057 286.471V272.21C168.088 271.629 168.256 271.065 168.546 270.561C168.836 270.057 169.241 269.629 169.728 269.311Z" fill="#F5F5F5"/>
<path d="M303.33 124.466L280.044 137.916C279.434 138.312 278.926 138.847 278.561 139.476C278.197 140.106 277.987 140.813 277.947 141.539V163.897C277.947 165.231 278.913 165.772 280.044 165.105L303.33 151.665C303.937 151.267 304.442 150.731 304.805 150.102C305.167 149.473 305.377 148.767 305.417 148.042V125.674C305.417 124.34 304.479 123.799 303.33 124.466Z" fill="#CFD8DC"/>
<path d="M284.752 139.742C286.346 138.775 287.651 139.568 287.651 141.403C287.596 142.406 287.304 143.381 286.8 144.249C286.297 145.117 285.595 145.853 284.752 146.399C283.158 147.365 281.854 146.573 281.854 144.737C281.911 143.735 282.203 142.761 282.707 141.893C283.21 141.026 283.911 140.289 284.752 139.742Z" fill="#F5F5F5"/>
<path d="M289.723 140.254C289.749 139.901 289.859 139.561 290.042 139.258C290.225 138.956 290.476 138.701 290.776 138.514L300.438 132.93C301.008 132.592 301.481 132.833 301.481 133.452C301.455 133.804 301.346 134.145 301.163 134.447C300.98 134.75 300.728 135.004 300.428 135.191L290.766 140.785C290.196 141.114 289.723 140.882 289.723 140.254Z" fill="#F5F5F5"/>
<path d="M282.918 149.849L300.446 139.723C301.025 139.394 301.499 139.665 301.499 140.331V146.979C301.479 147.341 301.374 147.693 301.193 148.007C301.011 148.321 300.759 148.588 300.455 148.786L282.918 158.892C282.339 159.23 281.875 158.96 281.875 158.293V151.646C281.897 151.286 282.003 150.936 282.184 150.624C282.365 150.312 282.617 150.046 282.918 149.849Z" fill="#F5F5F5"/>
<path d="M303.33 156.197L280.044 169.637C279.434 170.033 278.926 170.568 278.561 171.198C278.197 171.827 277.987 172.534 277.947 173.261V218.276C277.947 219.61 278.913 220.151 280.044 219.484L303.33 206.044C303.937 205.646 304.442 205.11 304.805 204.481C305.167 203.852 305.377 203.146 305.417 202.421V157.405C305.417 156.062 304.479 155.531 303.33 156.197Z" fill="#CFD8DC"/>
<path d="M284.752 171.453C286.346 170.536 287.651 171.28 287.651 173.125C287.593 174.127 287.301 175.101 286.797 175.968C286.294 176.836 285.593 177.573 284.752 178.12C283.158 179.087 281.854 178.294 281.854 176.449C281.912 175.447 282.205 174.474 282.708 173.606C283.211 172.738 283.912 172.001 284.752 171.453Z" fill="#F5F5F5"/>
<path d="M289.723 171.975C289.749 171.624 289.859 171.284 290.042 170.984C290.225 170.683 290.476 170.43 290.776 170.245L300.438 164.651C301.008 164.322 301.481 164.554 301.481 165.182C301.455 165.534 301.345 165.875 301.162 166.177C300.979 166.48 300.728 166.734 300.428 166.921L290.766 172.506C290.196 172.844 289.723 172.603 289.723 171.975Z" fill="#F5F5F5"/>
<path d="M282.918 181.57L300.446 171.453C301.025 171.115 301.499 171.386 301.499 172.052V178.7C301.477 179.063 301.372 179.416 301.191 179.731C301.01 180.046 300.758 180.315 300.455 180.517L282.918 190.633C282.339 190.971 281.875 190.7 281.875 190.034V183.386C281.894 183.023 281.999 182.669 282.18 182.353C282.361 182.038 282.614 181.769 282.918 181.57Z" fill="#F5F5F5"/>
<path d="M284.752 194.102C286.346 193.184 287.651 193.928 287.651 195.773C287.593 196.775 287.301 197.749 286.797 198.617C286.294 199.485 285.593 200.222 284.752 200.769C283.158 201.687 281.854 200.943 281.854 199.097C281.912 198.096 282.205 197.122 282.708 196.254C283.211 195.387 283.912 194.649 284.752 194.102Z" fill="#F5F5F5"/>
<path d="M289.723 194.642C289.749 194.291 289.859 193.951 290.042 193.651C290.225 193.35 290.476 193.097 290.776 192.912L300.438 187.318C301.008 186.989 301.481 187.221 301.481 187.849C301.455 188.2 301.345 188.54 301.162 188.84C300.979 189.141 300.728 189.394 300.428 189.579L290.766 195.173C290.196 195.482 289.723 195.241 289.723 194.642Z" fill="#F5F5F5"/>
<path d="M282.918 204.207L300.446 194.081C301.025 193.753 301.499 194.023 301.499 194.69V201.337C301.477 201.7 301.372 202.053 301.191 202.368C301.01 202.684 300.758 202.952 300.455 203.154L282.918 213.27C282.339 213.608 281.875 213.338 281.875 212.671V206.023C281.894 205.66 281.999 205.306 282.18 204.991C282.361 204.675 282.614 204.407 282.918 204.207Z" fill="#F5F5F5"/>
<path d="M303.33 210.566L280.044 224.006C279.434 224.402 278.926 224.937 278.561 225.566C278.197 226.196 277.987 226.903 277.947 227.629V236.412C277.947 237.745 278.913 238.286 280.044 237.62L303.33 224.17C303.937 223.772 304.442 223.236 304.805 222.607C305.167 221.978 305.377 221.272 305.417 220.547V211.773C305.417 210.44 304.479 209.899 303.33 210.566Z" fill="#CFD8DC"/>
<path d="M284.758 225.011C286.343 224.093 287.657 224.837 287.657 226.683C287.599 227.683 287.307 228.656 286.803 229.522C286.3 230.388 285.599 231.123 284.758 231.668C283.164 232.635 281.859 231.842 281.859 230.006C281.915 229.004 282.207 228.03 282.711 227.162C283.214 226.294 283.916 225.557 284.758 225.011Z" fill="#F5F5F5"/>
<path d="M289.729 225.56C289.754 225.209 289.861 224.868 290.042 224.566C290.224 224.263 290.474 224.008 290.772 223.821L300.434 218.236C301.014 217.898 301.478 218.14 301.478 218.768C301.45 219.117 301.342 219.456 301.161 219.756C300.98 220.056 300.731 220.31 300.434 220.497L290.772 226.091C290.192 226.391 289.729 226.149 289.729 225.56Z" fill="#F5F5F5"/>
<path d="M313.271 77.9415V66.2696C313.242 65.6886 313.076 65.1228 312.785 64.6188C312.494 64.1149 312.088 63.6872 311.6 63.371L311.02 63.0328C310.502 62.7705 309.929 62.6338 309.349 62.6338C308.768 62.6338 308.195 62.7705 307.677 63.0328L161.876 147.209C160.91 147.741 160.204 147.306 160.204 146.243V141.045C160.174 140.464 160.007 139.898 159.717 139.395C159.426 138.891 159.021 138.463 158.533 138.146L157.953 137.808C157.435 137.546 156.862 137.409 156.281 137.409C155.701 137.409 155.128 137.546 154.61 137.808L106.937 165.335C106.448 165.652 106.042 166.08 105.75 166.583C105.457 167.087 105.288 167.653 105.256 168.234V177.964C105.226 178.545 105.059 179.11 104.768 179.614C104.478 180.118 104.072 180.546 103.584 180.862L99.0817 183.461C98.5961 183.78 98.1919 184.209 97.9016 184.712C97.6113 185.216 97.443 185.78 97.4102 186.36V198.022L101.333 200.293L313.271 77.9415Z" fill="#F5F5F5"/>
<path d="M109.187 182.178H109.612L110.694 169.443L105.747 166.622C105.448 167.123 105.278 167.691 105.255 168.274V178.004C105.235 178.587 105.069 179.155 104.771 179.656L109.187 182.178Z" fill="#E0E0E0"/>
<path d="M97.9029 184.729C97.6023 185.226 97.4327 185.792 97.4102 186.372V198.034L101.333 200.305L105.265 188.971L97.9029 184.729Z" fill="#E0E0E0"/>
<path d="M107.516 183.143L103.013 185.742C102.524 186.059 102.117 186.486 101.825 186.99C101.533 187.494 101.364 188.06 101.332 188.641V200.303L313.271 77.9422V66.2801C313.271 65.2076 312.527 64.7728 311.599 65.3138L161.836 151.751C160.87 152.283 160.165 151.857 160.165 150.785V141.055C160.165 139.983 159.421 139.558 158.493 140.089L110.859 167.587C110.371 167.904 109.965 168.332 109.675 168.836C109.384 169.34 109.217 169.905 109.187 170.486V180.245C109.154 180.825 108.986 181.389 108.696 181.893C108.406 182.396 108.001 182.824 107.516 183.143Z" fill="#F5F5F5"/>
<path d="M120.953 168.555C120.953 169.801 121.919 170.274 123.05 169.608L146.326 156.187C146.923 155.814 147.424 155.306 147.789 154.703C148.153 154.101 148.37 153.421 148.423 152.718C148.423 151.462 147.456 150.989 146.326 151.656L123.04 165.105C122.447 165.477 121.949 165.983 121.587 166.582C121.225 167.181 121.008 167.857 120.953 168.555Z" fill="#E0E0E0"/>
<path d="M115.069 169.714C114.503 170.09 114.034 170.594 113.698 171.184C113.362 171.775 113.17 172.436 113.137 173.115C113.137 174.361 114.016 174.874 115.069 174.245C115.635 173.87 116.105 173.366 116.44 172.775C116.776 172.184 116.968 171.523 117.002 170.844C117.031 169.598 116.151 169.086 115.069 169.714Z" fill="#CFD8DC"/>
<path d="M156.277 150.931C156.193 150.93 156.11 150.91 156.035 150.873L152.122 148.602C152.06 148.574 152.005 148.534 151.96 148.483C151.915 148.433 151.882 148.374 151.861 148.309C151.84 148.245 151.833 148.177 151.841 148.11C151.848 148.042 151.869 147.977 151.903 147.919C151.937 147.861 151.983 147.81 152.038 147.77C152.093 147.731 152.155 147.703 152.221 147.689C152.288 147.675 152.356 147.675 152.422 147.689C152.488 147.704 152.55 147.731 152.605 147.771L156.528 150.032C156.619 150.086 156.689 150.168 156.729 150.265C156.769 150.363 156.775 150.471 156.748 150.573C156.721 150.675 156.661 150.765 156.577 150.829C156.494 150.894 156.392 150.93 156.286 150.931H156.277Z" fill="#E0E0E0"/>
<path d="M152.356 153.202C152.27 153.191 152.189 153.154 152.125 153.096C152.069 153.065 152.021 153.023 151.982 152.973C151.943 152.923 151.915 152.866 151.899 152.804C151.882 152.743 151.879 152.679 151.888 152.616C151.896 152.554 151.918 152.493 151.951 152.439L155.873 145.676C155.944 145.579 156.048 145.512 156.165 145.487C156.282 145.462 156.404 145.482 156.507 145.542C156.61 145.602 156.688 145.698 156.724 145.812C156.761 145.926 156.754 146.05 156.704 146.159L152.782 152.922C152.744 153.004 152.684 153.073 152.609 153.123C152.534 153.172 152.446 153.2 152.356 153.202Z" fill="#E0E0E0"/>
<path d="M107.249 190.294C107.163 190.294 107.079 190.272 107.005 190.23C106.93 190.188 106.868 190.126 106.824 190.053C106.764 189.941 106.75 189.81 106.784 189.687C106.818 189.565 106.898 189.46 107.008 189.396L111.713 186.671C111.768 186.639 111.829 186.619 111.892 186.61C111.955 186.602 112.02 186.607 112.081 186.623C112.143 186.64 112.2 186.668 112.251 186.707C112.301 186.746 112.343 186.794 112.375 186.85C112.407 186.905 112.427 186.966 112.435 187.029C112.444 187.092 112.439 187.156 112.423 187.218C112.406 187.279 112.378 187.337 112.339 187.387C112.3 187.438 112.251 187.48 112.196 187.512L107.491 190.227C107.418 190.271 107.334 190.295 107.249 190.294Z" fill="#E0E0E0"/>
<path d="M109.184 191.743C109.098 191.745 109.014 191.721 108.942 191.675L106.285 190.187L108.768 185.927C108.839 185.83 108.942 185.763 109.059 185.738C109.176 185.713 109.298 185.733 109.402 185.793C109.505 185.853 109.583 185.949 109.619 186.063C109.656 186.177 109.649 186.301 109.599 186.41L107.609 189.811L109.416 190.777C109.527 190.84 109.609 190.944 109.643 191.067C109.678 191.191 109.662 191.322 109.599 191.434C109.568 191.52 109.511 191.595 109.438 191.65C109.364 191.705 109.276 191.737 109.184 191.743Z" fill="#E0E0E0"/>
<path d="M114.224 186.244C114.119 186.243 114.017 186.208 113.933 186.143C113.85 186.079 113.79 185.989 113.763 185.887C113.735 185.785 113.742 185.677 113.782 185.579C113.821 185.482 113.892 185.4 113.983 185.346L118.698 182.631C118.807 182.582 118.93 182.574 119.044 182.611C119.158 182.647 119.254 182.725 119.314 182.828C119.375 182.932 119.394 183.054 119.37 183.171C119.345 183.288 119.278 183.391 119.181 183.462L114.437 186.186C114.371 186.221 114.298 186.24 114.224 186.244Z" fill="#E0E0E0"/>
<path d="M117.007 187.193C116.921 187.196 116.837 187.173 116.765 187.126C116.656 187.061 116.576 186.956 116.543 186.833C116.511 186.71 116.528 186.579 116.592 186.469L118.572 183.058L116.765 182.092C116.656 182.027 116.576 181.923 116.542 181.8C116.507 181.678 116.522 181.547 116.582 181.435C116.645 181.324 116.749 181.242 116.872 181.207C116.996 181.173 117.127 181.189 117.239 181.251L119.896 182.739L117.423 186.913C117.385 186.994 117.327 187.062 117.254 187.111C117.181 187.161 117.095 187.189 117.007 187.193Z" fill="#E0E0E0"/>
<path d="M127.001 176.439L279.807 88.2144C280.967 87.5477 281.904 88.0211 281.904 89.2676C281.853 89.9714 281.637 90.6533 281.272 91.2578C280.908 91.8622 280.406 92.3721 279.807 92.7459L127.001 180.971C125.842 181.637 124.914 181.164 124.914 179.908C124.964 179.206 125.179 178.526 125.542 177.923C125.904 177.321 126.404 176.812 127.001 176.439Z" fill="#F5F5F5"/>
<path d="M287.761 83.6046C288.843 82.9765 289.693 83.4886 289.693 84.735C289.66 85.4137 289.467 86.075 289.132 86.6657C288.796 87.2565 288.326 87.7601 287.761 88.1361C286.678 88.7641 285.828 88.252 285.828 87.0056C285.861 86.327 286.054 85.6657 286.389 85.0749C286.725 84.4842 287.195 83.9806 287.761 83.6046Z" fill="#FAFAFA"/>
<path d="M295.604 79.0723C296.696 78.4443 297.537 78.9564 297.537 80.2028C297.504 80.8816 297.312 81.5432 296.977 82.1341C296.641 82.7249 296.171 83.2285 295.604 83.6039C294.522 84.2319 293.672 83.7198 293.672 82.4734C293.705 81.7948 293.897 81.1335 294.233 80.5427C294.569 79.952 295.038 79.4483 295.604 79.0723Z" fill="#FAFAFA"/>
<path d="M303.462 74.5421C304.544 73.914 305.394 74.4261 305.394 75.6725C305.361 76.3512 305.169 77.0125 304.833 77.6032C304.497 78.194 304.028 78.6976 303.462 79.0736C302.38 79.7016 301.529 79.1896 301.529 77.9431C301.563 77.2645 301.755 76.6032 302.09 76.0125C302.426 75.4217 302.896 74.9181 303.462 74.5421Z" fill="#FAFAFA"/>
<path d="M355.21 114.281L339.354 130.707C339.354 130.707 323.788 129.171 318.503 127.654C316.832 127.18 315.489 124.9 315.121 122.977C315.074 122.473 314.869 121.997 314.536 121.615C314.204 121.234 313.759 120.967 313.266 120.851V124.716C313.131 125.682 312.658 126.185 311.266 126.224C305.923 126.34 303.45 124.716 302.793 127.615C302.377 129.47 303.189 131.576 306.715 132.543C311.672 133.905 314.445 133.229 317.421 133.973C319.75 134.552 335.963 137.635 339.151 138.33C340.842 138.697 342.127 138.581 343.982 136.775C345.837 134.968 359.577 122.117 359.577 122.117C363.78 117.914 362.543 113.547 360.195 112.262C358.707 111.412 357.074 112.358 355.21 114.281Z" fill="#FFA8A7"/>
<path d="M360.063 112.128C361.087 112.544 362.333 113.635 362.44 116.466C362.546 119.297 360.449 121.858 357.985 124.795C355.522 127.732 354.787 128.515 354.787 128.515C354.787 128.515 348.555 126.254 347.502 121.626C347.502 121.626 352.198 116.66 353.599 115.065C355 113.471 357.589 111.036 360.063 112.128Z" fill="#CFD8DC"/>
<path d="M181.648 387.189L150.507 369.208C149.9 368.81 149.394 368.274 149.032 367.645C148.669 367.016 148.46 366.31 148.42 365.585V361.353C148.46 360.628 148.669 359.922 149.032 359.293C149.394 358.663 149.9 358.128 150.507 357.73L185.571 337.439C186.219 337.111 186.936 336.939 187.663 336.939C188.389 336.939 189.106 337.111 189.754 337.439L220.895 355.411C221.506 355.807 222.014 356.342 222.378 356.971C222.742 357.601 222.953 358.308 222.992 359.034V363.266C222.954 363.993 222.744 364.7 222.38 365.33C222.015 365.96 221.507 366.494 220.895 366.889L185.832 387.18C185.184 387.51 184.468 387.683 183.741 387.684C183.014 387.686 182.297 387.516 181.648 387.189Z" fill="#37474F"/>
<path d="M148.42 361.352V365.584C148.46 366.309 148.669 367.015 149.032 367.644C149.394 368.274 149.9 368.809 150.507 369.207L181.648 387.189C182.294 387.527 183.015 387.696 183.745 387.681V374.802L152.343 356.666L150.507 357.729C149.9 358.127 149.394 358.663 149.032 359.292C148.669 359.921 148.46 360.627 148.42 361.352Z" fill="#263238"/>
<path d="M185.574 337.488L150.51 357.779C150.258 357.864 150.039 358.027 149.883 358.243C149.728 358.46 149.645 358.72 149.645 358.986C149.645 359.253 149.728 359.513 149.883 359.729C150.039 359.946 150.258 360.108 150.51 360.194L181.651 378.175C182.299 378.504 183.016 378.675 183.743 378.675C184.47 378.675 185.186 378.504 185.835 378.175L220.899 357.885C221.151 357.799 221.37 357.637 221.525 357.42C221.681 357.203 221.764 356.944 221.764 356.677C221.764 356.411 221.681 356.151 221.525 355.934C221.37 355.717 221.151 355.555 220.899 355.469L189.796 337.488C189.143 337.153 188.419 336.979 187.685 336.979C186.951 336.979 186.227 337.153 185.574 337.488Z" fill="#455A64"/>
<path d="M180.804 359.256C181.085 358.106 183.056 356.976 185.036 356.812L186.892 356.657C187.916 356.57 188.824 356.029 189.008 355.44C189.191 354.85 188.447 354.473 187.423 354.522L185.568 354.667C183.618 354.82 181.726 355.397 180.022 356.357C178.672 357 177.63 358.149 177.123 359.556L175.403 366.512C174.814 368.87 177.664 370.512 181.751 370.184L183.597 370.029C185.549 369.875 187.445 369.298 189.153 368.338C190.503 367.696 191.544 366.547 192.051 365.14L192.863 361.855C193.008 361.256 192.302 360.889 191.278 360.937C190.254 360.986 189.346 361.565 189.162 362.155L188.351 365.44C188.061 366.59 186.099 367.72 184.109 367.884L182.263 368.039C180.215 368.213 178.795 367.382 179.085 366.203L180.804 359.256ZM194.331 356.048L196.051 349.092C196.184 348.527 196.114 347.933 195.855 347.414C195.595 346.896 195.162 346.484 194.631 346.251C193.105 345.497 191.391 345.211 189.703 345.43L187.848 345.584C185.898 345.73 184.005 346.304 182.302 347.265C180.952 347.908 179.91 349.057 179.403 350.464L178.659 353.468C178.515 354.068 179.22 354.435 180.244 354.386C181.268 354.338 182.177 353.758 182.36 353.169L183.027 350.203C183.287 349.499 183.81 348.925 184.486 348.599C185.338 348.12 186.284 347.833 187.259 347.758L189.114 347.604C189.958 347.499 190.815 347.643 191.578 348.019C191.844 348.134 192.062 348.34 192.191 348.6C192.32 348.86 192.353 349.157 192.283 349.439L190.563 356.386C190.283 357.536 188.312 358.667 186.331 358.831C185.307 358.918 184.399 359.469 184.215 360.058C184.032 360.647 184.776 361.024 185.8 360.976C187.752 360.821 189.648 360.244 191.356 359.285C192.704 358.64 193.744 357.492 194.254 356.087L194.331 356.048Z" fill="white"/>
<path d="M215.137 327.015V322.783C215.176 322.057 215.387 321.35 215.751 320.72C216.115 320.091 216.623 319.556 217.233 319.16L315.091 262.656C315.74 262.327 316.456 262.156 317.183 262.156C317.91 262.156 318.627 262.327 319.275 262.656L350.416 280.637C351.025 281.034 351.531 281.569 351.894 282.199C352.257 282.828 352.465 283.535 352.503 284.26V288.492C352.465 289.218 352.257 289.925 351.894 290.554C351.531 291.184 351.025 291.719 350.416 292.116L252.597 348.639C251.948 348.968 251.232 349.139 250.505 349.139C249.778 349.139 249.061 348.968 248.413 348.639L217.233 330.658C216.621 330.26 216.111 329.722 215.747 329.089C215.382 328.456 215.173 327.745 215.137 327.015Z" fill="#E0E0E0"/>
<path d="M352.51 287.4V284.259C352.471 283.533 352.26 282.826 351.896 282.197C351.532 281.567 351.024 281.032 350.414 280.636L348.578 279.583L250.459 336.251V349.141C251.189 349.152 251.91 348.979 252.556 348.638L301.485 320.386L350.414 292.134C351.024 291.738 351.532 291.203 351.896 290.574C352.26 289.944 352.471 289.237 352.51 288.511V287.4Z" fill="#F5F5F5"/>
<path d="M217.233 321.594L248.374 339.575C249.022 339.904 249.739 340.075 250.466 340.075C251.192 340.075 251.909 339.904 252.557 339.575L350.415 283.071C350.668 282.986 350.887 282.823 351.042 282.606C351.197 282.39 351.281 282.13 351.281 281.863C351.281 281.597 351.197 281.337 351.042 281.121C350.887 280.904 350.668 280.741 350.415 280.656L319.265 262.675C318.616 262.346 317.9 262.175 317.173 262.175C316.446 262.175 315.729 262.346 315.081 262.675L217.233 319.179C216.98 319.264 216.761 319.427 216.606 319.643C216.451 319.86 216.367 320.12 216.367 320.386C216.367 320.653 216.451 320.913 216.606 321.129C216.761 321.346 216.98 321.508 217.233 321.594Z" fill="white"/>
<path d="M238.694 343.044L220.142 347.875C219.929 347.931 219.703 347.918 219.498 347.838C219.292 347.759 219.116 347.616 218.996 347.432C218.875 347.247 218.815 347.029 218.825 346.809C218.835 346.588 218.914 346.377 219.05 346.204L226.915 336.213L238.694 343.044Z" fill="#E0E0E0"/>
<path d="M238.699 333.981V343.045L218.824 346.919V337.837L238.699 333.981Z" fill="#E0E0E0"/>
<path d="M238.694 333.981L220.142 338.812C219.929 338.867 219.703 338.854 219.498 338.775C219.292 338.695 219.116 338.553 218.996 338.368C218.875 338.184 218.815 337.966 218.825 337.745C218.835 337.525 218.914 337.313 219.05 337.14L226.915 327.149L238.694 333.981Z" fill="white"/>
<path d="M259.803 307.536C258.782 307.5 257.786 307.211 256.904 306.695C255.996 306.164 255.503 305.613 255.455 305.034C255.407 304.454 255.803 303.922 256.673 303.42C257.523 302.921 258.498 302.673 259.484 302.705C260.505 302.741 261.501 303.029 262.383 303.546C263.301 304.077 263.784 304.628 263.832 305.207C263.88 305.787 263.484 306.328 262.615 306.831C261.763 307.327 260.788 307.572 259.803 307.536ZM262.132 305.304C262.064 304.976 261.726 304.637 261.107 304.28C260.58 303.956 259.985 303.757 259.368 303.7C258.826 303.66 258.283 303.785 257.813 304.058C257.349 304.328 257.136 304.628 257.204 304.956C257.272 305.285 257.6 305.613 258.17 305.922C258.705 306.247 259.306 306.448 259.929 306.512C260.474 306.557 261.02 306.436 261.494 306.164C262.003 305.893 262.215 305.607 262.132 305.304Z" fill="#CFD8DC"/>
<path d="M268.482 305.826C268.339 305.813 268.201 305.77 268.076 305.7L261.148 301.69C261.235 301.357 261.404 301.051 261.641 300.801C261.951 300.46 262.313 300.17 262.714 299.942C263.594 299.385 264.614 299.09 265.656 299.09C266.697 299.09 267.717 299.385 268.598 299.942C269.506 300.463 270.018 301.004 270.115 301.555C270.212 302.106 269.893 302.589 269.149 303.014C268.476 303.404 267.702 303.583 266.926 303.526L269.342 304.927C269.496 305.014 269.574 305.091 269.583 305.159C269.593 305.227 269.525 305.304 269.381 305.391L268.868 305.681C268.758 305.768 268.623 305.819 268.482 305.826ZM268.356 301.719C268.26 301.391 267.902 301.043 267.274 300.686C266.719 300.336 266.084 300.133 265.429 300.096C264.832 300.105 264.249 300.272 263.738 300.579C263.418 300.736 263.15 300.981 262.965 301.285L265.255 302.599C265.644 302.814 266.081 302.928 266.525 302.928C266.97 302.928 267.407 302.814 267.796 302.599C268.269 302.347 268.463 302.048 268.356 301.719Z" fill="#CFD8DC"/>
<path d="M273.402 300.251C272.763 300.364 272.109 300.364 271.469 300.251C270.772 300.139 270.1 299.9 269.489 299.546C268.522 298.966 267.972 298.396 267.914 297.826C267.856 297.256 268.252 296.734 269.102 296.242C269.908 295.766 270.834 295.534 271.769 295.575C272.771 295.636 273.743 295.941 274.6 296.464C274.87 296.618 274.899 296.754 274.677 296.879L270.957 298.995C271.453 299.29 272.024 299.434 272.6 299.411C273.197 299.388 273.778 299.215 274.291 298.908C274.745 298.686 275.104 298.309 275.305 297.845C275.307 297.826 275.314 297.808 275.324 297.791C275.334 297.774 275.347 297.76 275.363 297.749C275.433 297.729 275.506 297.729 275.576 297.749L276.32 297.894L276.474 297.952C276.501 297.964 276.522 297.986 276.534 298.012C276.547 298.039 276.549 298.068 276.542 298.097C276.448 298.38 276.289 298.638 276.078 298.85C275.795 299.138 275.469 299.379 275.112 299.565C274.585 299.889 274.007 300.121 273.402 300.251ZM272.948 296.899C272.501 296.633 271.997 296.481 271.479 296.454C270.97 296.428 270.465 296.556 270.03 296.821C269.566 297.092 269.344 297.372 269.373 297.681C269.402 297.99 269.643 298.271 270.107 298.541L272.948 296.899Z" fill="#CFD8DC"/>
<path d="M278.336 297.43C278.197 297.417 278.062 297.374 277.94 297.304L273.109 294.512C273.029 294.475 272.961 294.414 272.916 294.338C272.916 294.29 272.916 294.241 273.061 294.174L273.631 293.845C273.701 293.802 273.781 293.78 273.863 293.78C273.945 293.78 274.025 293.802 274.095 293.845L274.578 294.106C274.452 293.507 274.819 292.966 275.67 292.473C276.22 292.151 276.849 291.99 277.486 292.009C278.196 292.022 278.889 292.222 279.496 292.589L282.8 294.522C282.936 294.599 283.013 294.676 283.023 294.753C283.032 294.831 282.974 294.898 282.839 294.976L282.308 295.285C282.188 295.356 282.051 295.392 281.911 295.391C281.772 295.378 281.637 295.336 281.515 295.266L278.298 293.41C277.987 293.213 277.632 293.096 277.264 293.072C276.923 293.079 276.589 293.175 276.298 293.352C276.151 293.422 276.021 293.525 275.919 293.652C275.817 293.779 275.745 293.928 275.708 294.087C275.66 294.367 275.815 294.599 276.163 294.802L279.235 296.58C279.37 296.657 279.448 296.734 279.457 296.811C279.467 296.889 279.409 296.956 279.264 297.043L278.742 297.343C278.62 297.414 278.478 297.445 278.336 297.43Z" fill="#CFD8DC"/>
<path d="M281.702 287.884C281.516 287.877 281.334 287.828 281.17 287.739L280.929 287.594C280.866 287.566 280.811 287.525 280.765 287.473C280.72 287.421 280.687 287.361 280.668 287.295C280.668 287.179 280.716 287.072 280.881 286.985L281.306 286.734C281.471 286.643 281.658 286.599 281.847 286.609C282.034 286.614 282.217 286.667 282.378 286.763L282.62 286.899C282.684 286.927 282.74 286.97 282.786 287.023C282.831 287.077 282.863 287.14 282.881 287.208C282.881 287.324 282.823 287.43 282.668 287.517L282.233 287.768C282.074 287.864 281.887 287.905 281.702 287.884ZM288.32 291.672C288.179 291.661 288.043 291.614 287.924 291.536L283.199 288.812C283.055 288.734 282.977 288.647 282.968 288.57C282.958 288.493 283.026 288.425 283.151 288.348L283.673 288.048C283.792 287.974 283.929 287.937 284.069 287.942C284.216 287.949 284.359 287.992 284.485 288.068L289.209 290.792C289.345 290.879 289.422 290.957 289.432 291.024C289.441 291.092 289.383 291.179 289.238 291.256L288.717 291.556C288.606 291.625 288.48 291.665 288.349 291.672H288.32Z" fill="#CFD8DC"/>
<path d="M290.868 290.192C290.727 290.185 290.591 290.142 290.472 290.067L285.641 287.274C285.56 287.237 285.492 287.177 285.447 287.1C285.447 287.1 285.447 287.004 285.592 286.946L286.162 286.608C286.233 286.567 286.313 286.545 286.394 286.545C286.476 286.545 286.556 286.567 286.626 286.608L287.109 286.859C286.984 286.26 287.351 285.719 288.201 285.226C288.754 284.913 289.381 284.752 290.017 284.762C290.728 284.774 291.423 284.977 292.027 285.352L295.332 287.284C295.467 287.361 295.544 287.439 295.554 287.516C295.563 287.593 295.506 287.661 295.37 287.738L294.839 288.047C294.721 288.122 294.582 288.159 294.443 288.154C294.302 288.146 294.166 288.103 294.047 288.028L290.829 286.173C290.518 285.975 290.163 285.859 289.795 285.835C289.453 285.844 289.12 285.944 288.829 286.125C288.681 286.193 288.551 286.294 288.447 286.419C288.344 286.544 288.27 286.691 288.23 286.849C288.23 287.129 288.346 287.371 288.694 287.564L291.766 289.342C291.902 289.419 291.979 289.497 291.989 289.574C291.998 289.651 291.94 289.719 291.795 289.806L291.274 290.105C291.15 290.175 291.009 290.206 290.868 290.192Z" fill="#CFD8DC"/>
<path d="M258.391 331.459C258.024 331.423 257.671 331.304 257.357 331.111L244.864 323.922C244.497 323.71 244.304 323.507 244.275 323.323C244.246 323.14 244.42 322.946 244.777 322.734L246.246 321.884C246.444 321.769 246.659 321.687 246.883 321.642C247.153 321.605 247.426 321.605 247.695 321.642L259.106 323.275L252.594 319.516C252.217 319.304 252.024 319.101 251.985 318.908C251.946 318.714 252.12 318.531 252.468 318.328L254.265 317.284C254.577 317.095 254.935 316.998 255.299 317.004C255.671 317.028 256.031 317.148 256.343 317.352L268.787 324.531C269.164 324.743 269.357 324.946 269.367 325.13C269.377 325.314 269.212 325.507 268.855 325.71L267.386 326.56C267.191 326.683 266.975 326.768 266.749 326.811C266.49 326.858 266.225 326.858 265.966 326.811L254.526 325.149L261.116 328.956C261.492 329.169 261.686 329.362 261.695 329.546C261.705 329.729 261.541 329.922 261.183 330.125L259.357 331.169C259.068 331.353 258.734 331.454 258.391 331.459Z" fill="#CFD8DC"/>
<path d="M271.37 323.943C271.003 323.916 270.649 323.8 270.336 323.605L257.921 316.388C257.544 316.175 257.351 315.972 257.312 315.789C257.273 315.605 257.447 315.402 257.795 315.199L265.525 310.745C265.815 310.566 266.15 310.475 266.491 310.484C266.852 310.53 267.199 310.655 267.505 310.851L268.472 311.421C268.858 311.643 269.071 311.837 269.109 312.011C269.148 312.185 269.003 312.358 268.655 312.561L263.708 315.421L266.327 316.929L269.573 315.054C269.861 314.87 270.198 314.776 270.539 314.784C270.904 314.828 271.254 314.953 271.564 315.151L272.53 315.692C272.916 315.914 273.129 316.107 273.167 316.281C273.206 316.455 273.042 316.639 272.694 316.832L269.448 318.716L272.085 320.233L276.984 317.402C277.272 317.218 277.609 317.127 277.95 317.141C278.311 317.187 278.658 317.312 278.965 317.508L279.931 318.078C280.308 318.291 280.511 318.484 280.549 318.648C280.588 318.813 280.433 319.006 280.086 319.199L272.356 323.644C272.063 323.836 271.721 323.94 271.37 323.943Z" fill="#CFD8DC"/>
<path d="M284.355 316.562C284.065 316.571 283.777 316.511 283.515 316.388L267.456 310.378L267.195 310.252C266.925 310.098 266.944 309.924 267.253 309.75L269.872 308.233C270.046 308.117 270.249 308.05 270.458 308.04C270.667 308.03 270.875 308.076 271.06 308.175L278.741 311.315L274.877 307.354C274.712 307.18 274.635 307.044 274.654 306.938C274.674 306.832 274.78 306.716 275.002 306.581L276.249 305.866C276.438 305.754 276.649 305.681 276.867 305.653C277.115 305.655 277.36 305.7 277.592 305.788L284.461 308.04L278.993 303.614C278.838 303.489 278.761 303.373 278.77 303.267C278.78 303.16 278.906 303.044 279.128 302.919L281.746 301.402C281.88 301.32 282.034 301.276 282.191 301.276C282.348 301.276 282.502 301.32 282.635 301.402C282.714 301.443 282.788 301.492 282.858 301.547L293.177 310.822C293.38 310.996 293.467 311.161 293.447 311.296C293.428 311.431 293.273 311.576 293.032 311.721L291.341 312.687C291.117 312.822 290.866 312.905 290.607 312.929C290.322 312.931 290.04 312.879 289.776 312.774L282.703 310.339L286.916 314.426C287.109 314.61 287.196 314.774 287.167 314.909C287.138 315.045 287.003 315.19 286.771 315.325L285.08 316.291C284.861 316.433 284.614 316.525 284.355 316.562Z" fill="#CFD8DC"/>
<path d="M307.141 303.295C306.774 303.264 306.419 303.145 306.108 302.947L295.721 296.957L292.822 298.609C292.537 298.798 292.198 298.89 291.856 298.87C291.511 298.825 291.181 298.703 290.89 298.513L289.923 297.933C289.547 297.72 289.334 297.527 289.295 297.353C289.257 297.179 289.392 296.996 289.74 296.802L299.238 291.314C299.527 291.135 299.863 291.044 300.204 291.053C300.564 291.1 300.909 291.222 301.218 291.411L302.185 291.991C302.558 292.216 302.761 292.409 302.793 292.57C302.793 292.744 302.677 292.928 302.33 293.131L299.431 294.783L309.808 300.774C310.185 300.986 310.378 301.189 310.407 301.373C310.436 301.556 310.262 301.749 309.895 301.962L308.098 303.005C307.81 303.184 307.48 303.284 307.141 303.295Z" fill="#CFD8DC"/>
<path d="M312.502 300.058C312.376 299.973 312.265 299.869 312.173 299.749L303.806 289.497C303.667 289.36 303.582 289.179 303.564 288.985C303.564 288.85 303.7 288.714 303.932 288.579L305.622 287.613C305.83 287.487 306.066 287.414 306.308 287.4C306.613 287.407 306.916 287.455 307.207 287.545L324.966 292.376C325.14 292.419 325.308 292.481 325.468 292.56C325.591 292.637 325.658 292.715 325.671 292.792C325.671 292.869 325.613 292.946 325.488 293.024L322.589 294.686C322.427 294.781 322.245 294.837 322.058 294.85C321.842 294.854 321.627 294.825 321.42 294.763L318.715 293.951L314.85 296.203L316.28 297.758C316.332 297.803 316.374 297.86 316.401 297.923C316.427 297.987 316.439 298.056 316.434 298.125C316.434 298.222 316.309 298.328 316.125 298.435L313.227 300.087C313.114 300.145 312.987 300.173 312.86 300.168C312.733 300.163 312.61 300.125 312.502 300.058ZM315.033 292.695L310.26 291.246L312.772 294.009L315.033 292.695Z" fill="#CFD8DC"/>
<path d="M327.092 291.776C326.725 291.74 326.371 291.622 326.058 291.429L313.642 284.259C313.268 284.047 313.065 283.844 313.033 283.651C313.033 283.467 313.159 283.264 313.507 283.071L319.043 279.873C320.342 279.074 321.837 278.652 323.362 278.655C324.816 278.682 326.239 279.088 327.488 279.834C328.038 280.115 328.498 280.548 328.811 281.08C328.93 281.27 328.992 281.49 328.992 281.713C328.992 281.937 328.93 282.156 328.811 282.346C329.644 282.125 330.513 282.077 331.365 282.203C332.218 282.329 333.035 282.628 333.768 283.081C335.063 283.834 335.701 284.675 335.778 285.612C335.855 286.549 335.082 287.448 333.556 288.327L328.077 291.487C327.785 291.679 327.442 291.779 327.092 291.776ZM324.096 283.535C324.483 283.312 324.666 283.081 324.657 282.829C324.647 282.578 324.425 282.327 323.99 282.085C323.607 281.842 323.168 281.702 322.715 281.68C322.284 281.686 321.863 281.81 321.497 282.037L319.459 283.216L322.048 284.713L324.096 283.535ZM330.183 286.685C330.58 286.453 330.754 286.201 330.705 285.921C330.649 285.747 330.555 285.588 330.432 285.453C330.309 285.318 330.158 285.211 329.99 285.139C329.552 284.872 329.053 284.722 328.541 284.704C328.074 284.702 327.614 284.822 327.208 285.052L324.879 286.433L327.778 288.105L330.183 286.685Z" fill="#CFD8DC"/>
<path d="M238.176 350.018L206.011 352.53C205.685 352.561 205.382 352.712 205.161 352.953C204.94 353.193 204.816 353.508 204.812 353.835V355.999C204.83 356.358 204.939 356.707 205.128 357.013C205.317 357.319 205.581 357.572 205.895 357.748L226.34 367.796C226.46 367.874 226.6 367.918 226.743 367.924C226.886 367.93 227.029 367.897 227.155 367.828C227.281 367.76 227.387 367.66 227.461 367.537C227.535 367.414 227.575 367.273 227.576 367.13L227.992 363.845C228.012 363.688 228.063 363.537 228.142 363.4C228.222 363.263 228.327 363.144 228.453 363.049C228.579 362.953 228.723 362.884 228.876 362.845C229.029 362.806 229.188 362.797 229.345 362.82L239.171 364.27C239.527 364.296 239.885 364.244 240.219 364.117C240.553 363.99 240.855 363.792 241.103 363.535L242.649 361.796C243.122 361.188 243.395 360.449 243.432 359.68V357.555C243.424 357.222 243.301 356.904 243.084 356.652C242.868 356.4 242.571 356.231 242.244 356.173L237.615 355.487L238.504 354.994C238.775 354.8 238.995 354.545 239.148 354.249C239.301 353.954 239.382 353.626 239.384 353.294V351.168C239.393 351.009 239.368 350.851 239.309 350.703C239.251 350.555 239.161 350.422 239.046 350.313C238.931 350.203 238.794 350.12 238.644 350.069C238.493 350.018 238.334 350.001 238.176 350.018Z" fill="#CFD8DC"/>
<path opacity="0.3" d="M238.176 350.018L206.011 352.53C205.685 352.561 205.382 352.712 205.161 352.953C204.94 353.193 204.816 353.508 204.812 353.835V355.999C204.83 356.358 204.939 356.707 205.128 357.013C205.317 357.319 205.581 357.572 205.895 357.748L226.34 367.796C226.46 367.874 226.6 367.918 226.743 367.924C226.886 367.93 227.029 367.897 227.155 367.828C227.281 367.76 227.387 367.66 227.461 367.537C227.535 367.414 227.575 367.273 227.576 367.13L227.992 363.845C228.012 363.688 228.063 363.537 228.142 363.4C228.222 363.263 228.327 363.144 228.453 363.049C228.579 362.953 228.723 362.884 228.876 362.845C229.029 362.806 229.188 362.797 229.345 362.82L239.171 364.27C239.527 364.296 239.885 364.244 240.219 364.117C240.553 363.99 240.855 363.792 241.103 363.535L242.649 361.796C243.122 361.188 243.395 360.449 243.432 359.68V357.555C243.424 357.222 243.301 356.904 243.084 356.652C242.868 356.4 242.571 356.231 242.244 356.173L237.615 355.487L238.504 354.994C238.775 354.8 238.995 354.545 239.148 354.249C239.301 353.954 239.382 353.626 239.384 353.294V351.168C239.393 351.009 239.368 350.851 239.309 350.703C239.251 350.555 239.161 350.422 239.046 350.313C238.931 350.203 238.794 350.12 238.644 350.069C238.493 350.018 238.334 350.001 238.176 350.018Z" fill="white"/>
<path d="M204.812 353.837V356.001C204.83 356.36 204.939 356.709 205.128 357.015C205.317 357.321 205.581 357.574 205.895 357.75L226.34 367.798C226.529 367.898 226.747 367.932 226.958 367.895V362.475L206.011 352.532C205.685 352.563 205.382 352.714 205.161 352.955C204.94 353.195 204.816 353.51 204.812 353.837Z" fill="#CFD8DC"/>
<path opacity="0.2" d="M204.812 353.837V356.001C204.83 356.36 204.939 356.709 205.128 357.015C205.317 357.321 205.581 357.574 205.895 357.75L226.34 367.798C226.529 367.898 226.747 367.932 226.958 367.895V362.475L206.011 352.532C205.685 352.563 205.382 352.714 205.161 352.955C204.94 353.195 204.816 353.51 204.812 353.837Z" fill="black"/>
<path d="M228.646 362.909C228.858 362.791 229.102 362.743 229.342 362.774L239.169 364.223C239.495 364.26 239.826 364.22 240.135 364.107V359.112L228.646 357.431V362.909Z" fill="#CFD8DC"/>
<path opacity="0.2" d="M228.646 362.909C228.858 362.791 229.102 362.743 229.342 362.774L239.169 364.223C239.495 364.26 239.826 364.22 240.135 364.107V359.112L228.646 357.431V362.909Z" fill="black"/>
<path d="M238.177 350.019L206.012 352.532C205.355 352.532 205.297 352.86 205.896 353.16L226.341 363.208C226.461 363.286 226.599 363.33 226.742 363.336C226.884 363.342 227.026 363.31 227.152 363.243C227.278 363.176 227.384 363.076 227.459 362.955C227.534 362.833 227.575 362.694 227.578 362.551L227.993 359.256C228.013 359.1 228.064 358.949 228.144 358.812C228.223 358.675 228.328 358.556 228.454 358.46C228.58 358.365 228.724 358.296 228.877 358.257C229.03 358.217 229.189 358.209 229.346 358.232L239.172 359.681C239.528 359.708 239.886 359.656 240.22 359.529C240.554 359.402 240.856 359.203 241.105 358.947L242.602 357.227C243.037 356.715 242.853 356.261 242.196 356.136L232.37 354.686C231.703 354.59 231.645 354.242 232.225 353.923L238.283 350.512C238.911 350.203 238.844 349.961 238.177 350.019Z" fill="#CFD8DC"/>
</svg>
