<svg width="526" height="526" viewBox="0 0 526 526" fill="none" xmlns="http://www.w3.org/2000/svg">
<path d="M77.3634 490.942C180 537.661 346.39 537.661 449.027 490.942C551.664 444.224 551.652 368.384 449.027 321.642C346.402 274.899 180 274.923 77.3634 321.642C-25.2735 368.36 -25.2735 444.224 77.3634 490.942Z" fill="#F5F5F5"/>
<path d="M440.797 427.321C474.611 427.321 502.023 414.257 502.023 398.14C502.023 382.024 474.611 368.959 440.797 368.959C406.984 368.959 379.572 382.024 379.572 398.14C379.572 414.257 406.984 427.321 440.797 427.321Z" fill="#E0E0E0"/>
<path d="M81.9873 442.547C115.801 442.547 143.212 429.482 143.212 413.366C143.212 397.25 115.801 384.185 81.9873 384.185C48.1736 384.185 20.7622 397.25 20.7622 413.366C20.7622 429.482 48.1736 442.547 81.9873 442.547Z" fill="#E0E0E0"/>
<path d="M45.6067 407.185H56.8311V387.97H45.6067V407.185Z" fill="#B16668"/>
<path d="M91.4985 392.642L102.723 393.025L103.286 372.697L91.4985 372.313V392.642Z" fill="#B16668"/>
<path d="M48.9607 251.72C48.9607 262.429 49.5238 324.529 49.5238 324.529C49.2602 327.607 46.3014 333.094 46.0618 344.198C45.7264 360.298 45.1274 397.589 45.1274 397.589C47.0662 398.539 49.1894 399.053 51.348 399.094C53.5065 399.136 55.6479 398.704 57.6216 397.829C57.6216 397.829 69.5169 344.797 71.5294 328.889C73.2783 314.969 76.321 277.175 76.321 277.175L84.898 324.205C83.5805 330.053 83.0926 336.058 83.4486 342.042C83.9756 349.409 90.8037 386.365 90.8037 386.365C92.7597 387.469 94.9343 388.13 97.1739 388.302C99.4135 388.474 101.664 388.152 103.765 387.359C103.765 387.359 104.436 329.38 104.556 322.672C104.711 314.957 101.345 248.605 101.345 248.605L48.9607 251.72Z" fill="#37474F"/>
<path d="M56.831 401.65V400.045C57.4299 400.045 57.8013 400.632 58.0289 402.069C58.1882 403.138 58.4041 404.198 58.6758 405.244C59.1784 407.209 59.8352 409.132 60.6403 410.994C62.2216 414.899 63.5513 416.36 67.1929 420.924C68.4347 422.191 69.5987 423.531 70.6788 424.937C71.3496 426.135 71.5892 429.501 70.4392 430.268C66.1986 433.095 59.7659 433.179 55.2138 431.837C53.5176 431.366 51.9931 430.416 50.8225 429.101C49.652 427.786 48.885 426.162 48.6133 424.422C48.4456 423.38 48.5055 422.326 48.3857 421.284C47.9918 418.917 47.03 416.681 45.5826 414.767C44.7332 413.653 44.01 412.447 43.4264 411.173C42.48 408.861 43.2347 406.274 43.8337 403.986C44.3607 401.997 44.9238 399.817 45.5946 400.009V401.207C47.196 402.461 49.1788 403.129 51.2128 403.1C52.8659 403.231 56.843 402.896 56.831 401.65Z" fill="#263238"/>
<path d="M102.842 389.563C103.417 389.563 103.897 390.414 105.238 391.803C107.159 393.754 109.389 395.373 111.839 396.595C116.043 398.703 124.213 401.938 127.903 403.603C130.215 404.645 130.107 407.436 127.723 409.017C125.339 410.599 119.565 411.749 112.653 410.215C108.88 409.377 103.968 405.891 100.866 406.082C97.7633 406.274 91.9415 406.226 89.6535 404.645C87.3655 403.064 88.2759 399.686 88.9228 396.787C89.6295 393.612 90.516 388.677 91.5582 388.892V389.983C92.9118 392.031 99.8717 392.858 102.842 391.36V389.563Z" fill="#263238"/>
<path d="M76.2612 277.175C82.0428 275.358 87.3577 272.3 91.834 268.215C91.834 268.215 88.8153 273.857 79.855 279.116L84.1914 320.947L76.2612 277.175Z" fill="#263238"/>
<path d="M94.0982 226.084C86.767 201.671 88.2165 180.995 86.8389 174.67L105.634 200.916C106.43 209.567 107.713 218.166 109.479 226.671C111.648 236.003 114.606 247.635 118.152 254.87C118.796 256.145 119.882 257.142 121.207 257.673C124.801 259.123 126.406 260.956 129.245 263.052C131.473 264.705 133.162 264.921 133.03 265.592C132.784 266.346 132.263 266.981 131.571 267.369C130.878 267.758 130.065 267.871 129.293 267.688C127.579 267.329 125.914 266.766 124.333 266.011C125.927 268.715 127.95 271.143 130.323 273.198C135.761 277.93 136.54 281.272 127.508 282.913C121.842 283.955 116.727 281.236 110.27 269.473C107.824 265.192 105.69 260.74 103.885 256.152C99.5726 244.173 96.3143 233.476 94.0982 226.084Z" fill="#B16668"/>
<path d="M85.3169 168.597C91.1507 169.627 96.9246 170.993 100.506 176.599C104.088 182.205 109.263 208.667 109.263 208.667C109.263 208.667 101.74 213.95 93.1153 213.722L85.3169 168.597Z" fill="#CFD8DC"/>
<path opacity="0.1" d="M85.3169 168.597C91.1507 169.627 96.9246 170.993 100.506 176.599C104.088 182.205 109.263 208.667 109.263 208.667C109.263 208.667 101.74 213.95 93.1153 213.722L85.3169 168.597Z" fill="black"/>
<path d="M45.1151 178.432C41.1979 181.223 20.534 227.893 19.7434 231.14C18.6773 235.56 19.1684 240.507 21.3366 242.113C23.5048 243.718 28.2845 241.418 30.7881 238.974C35.5798 234.182 52.3505 199.275 52.3505 199.275L45.1151 178.432Z" fill="#9A4A4D"/>
<path d="M65.6587 168.705C56.0754 171.005 44.0963 174.85 39.8198 183.619C35.5432 192.387 29.0386 206.63 29.0386 206.63C33.4711 210.955 38.8776 214.151 44.8031 215.95L49.5947 207.565L48.8879 251.887C56.6144 257.518 84.9929 260.584 101.261 248.701C101.261 248.701 99.272 195.562 99.272 187.284C99.272 179.007 94.672 169.076 81.9862 168.333L65.6587 168.705Z" fill="#CFD8DC"/>
<path opacity="0.1" d="M49.6675 207.457C49.6675 207.457 54.4591 199.18 55.4773 197.179L49.4878 217.544L49.6675 207.457Z" fill="black"/>
<path d="M83.8199 147.19C92.3345 147.19 99.237 140.288 99.237 131.773C99.237 123.258 92.3345 116.356 83.8199 116.356C75.3053 116.356 68.4028 123.258 68.4028 131.773C68.4028 140.288 75.3053 147.19 83.8199 147.19Z" fill="#263238"/>
<path d="M57.1538 142.734C57.1538 142.734 59.6574 154.474 60.6637 156.402C61.3284 157.593 62.4269 158.481 63.7303 158.882L63.5626 150.628L57.1538 142.734Z" fill="#263238"/>
<path d="M60.2921 125.915C59.4177 125.816 58.532 125.916 57.7019 126.208C56.8718 126.501 56.1191 126.978 55.5005 127.604C53.4521 129.701 54.6021 136.289 57.1536 142.734L61.8614 143.273L60.2921 125.915Z" fill="#263238"/>
<path d="M63.2765 143.285C62.3301 143.848 60.9885 142.027 59.8265 140.817C58.6645 139.607 54.8552 137.93 52.9625 141.919C51.0698 145.908 54.6395 151.371 57.6343 152.317C62.7853 153.934 63.6239 150.628 63.6239 150.628L63.9952 169.795C70.404 178.012 88.193 177.318 80.7659 168.741V163.075C83.0619 163.447 85.3917 163.567 87.7138 163.434C91.5112 162.847 93.895 159.84 95.045 155.755C96.8898 149.167 97.5966 143.776 96.0273 130.875C94.3143 116.668 77.7831 116.5 68.8587 122.142C59.9343 127.784 63.2765 143.285 63.2765 143.285Z" fill="#B16668"/>
<path d="M63.2751 144.866C62.796 144.866 60.9991 141.883 59.8251 140.817C58.196 139.332 60.2923 125.915 60.2923 125.915C59.7409 124.742 59.5534 123.43 59.7541 122.149C59.9548 120.868 60.5344 119.677 61.4184 118.728C63.6465 116.272 66.761 113.265 76.8714 114.463C84.0588 115.326 91.9411 117.566 98.29 114.463C98.8801 116.533 98.8373 118.732 98.1669 120.777C97.4966 122.823 96.2294 124.62 94.5286 125.939C94.5286 125.939 92.2286 127.413 86.1432 128.155C80.5552 128.575 74.9401 128.466 69.3725 127.832C67.6235 127.592 67.2522 129.293 66.3058 133.929C65.5631 137.942 64.8683 144.842 63.2751 144.866Z" fill="#263238"/>
<path d="M60.3051 126.958L54.603 123.891C54.7862 123.508 55.0447 123.167 55.3631 122.887C55.6814 122.606 56.0531 122.393 56.4558 122.26C56.8585 122.127 57.2839 122.077 57.7066 122.112C58.1293 122.147 58.5404 122.267 58.9155 122.465C59.6808 122.891 60.2524 123.596 60.5113 124.433C60.7701 125.27 60.6963 126.174 60.3051 126.958Z" fill="#263238"/>
<path d="M80.7053 163.063C80.7053 163.063 72.2481 161.362 69.2892 159.792C67.5484 158.884 66.1209 157.473 65.1924 155.743C65.6394 157.48 66.4296 159.109 67.5163 160.535C69.6845 163.302 80.6933 165.327 80.6933 165.327L80.7053 163.063Z" fill="#9A4A4D"/>
<path d="M78.6566 141.153C78.663 141.612 78.4878 142.054 78.1691 142.384C77.8504 142.714 77.4142 142.904 76.9556 142.914C76.5022 142.895 76.0738 142.701 75.7609 142.373C75.448 142.044 75.275 141.607 75.2785 141.153C75.2721 140.694 75.4473 140.252 75.766 139.922C76.0847 139.592 76.5209 139.401 76.9795 139.392C77.4329 139.411 77.8612 139.605 78.1742 139.933C78.4871 140.262 78.6601 140.699 78.6566 141.153Z" fill="#263238"/>
<path d="M76.8722 134.756L73.2785 136.769C73.0174 136.27 72.9589 135.691 73.1152 135.151C73.2714 134.61 73.6304 134.151 74.117 133.87C74.3552 133.742 74.6165 133.664 74.8855 133.64C75.1545 133.616 75.4256 133.646 75.6827 133.728C75.9398 133.811 76.1776 133.945 76.382 134.121C76.5863 134.298 76.7531 134.514 76.8722 134.756Z" fill="#263238"/>
<path d="M79.9389 152.88L83.8201 154.33C83.7368 154.591 83.6014 154.832 83.4221 155.039C83.2428 155.247 83.0232 155.415 82.7768 155.535C82.5305 155.655 82.2623 155.723 81.9886 155.737C81.7149 155.75 81.4414 155.707 81.1847 155.612C80.6628 155.407 80.241 155.008 80.0084 154.498C79.7759 153.988 79.7509 153.408 79.9389 152.88Z" fill="#9A4A4D"/>
<path d="M93.7994 136.17L90.4932 133.63C90.6467 133.404 90.8449 133.213 91.0756 133.067C91.3064 132.921 91.5646 132.825 91.8343 132.783C92.104 132.742 92.3793 132.756 92.6432 132.825C92.9071 132.895 93.1538 133.018 93.3681 133.187C93.8078 133.535 94.0974 134.037 94.1776 134.592C94.2579 135.147 94.1225 135.711 93.7994 136.17Z" fill="#263238"/>
<path d="M92.7799 140.686C92.7659 141.019 92.6542 141.34 92.459 141.61C92.2637 141.88 91.9934 142.087 91.6816 142.205C91.3698 142.323 91.0303 142.346 90.7052 142.273C90.3801 142.199 90.0837 142.032 89.853 141.791C89.6222 141.551 89.4672 141.248 89.4072 140.92C89.3472 140.592 89.3848 140.254 89.5154 139.947C89.646 139.641 89.8638 139.379 90.1418 139.195C90.4197 139.011 90.7456 138.913 91.0789 138.913C91.307 138.917 91.532 138.967 91.7409 139.059C91.9499 139.15 92.1388 139.282 92.2967 139.447C92.4547 139.611 92.5787 139.806 92.6616 140.018C92.7445 140.231 92.7847 140.457 92.7799 140.686Z" fill="#263238"/>
<path d="M84.1436 139.068L84.6946 149.275L90.0253 147.454L84.1436 139.068Z" fill="#9A4A4D"/>
<path d="M38.994 259.59C38.8351 259.59 38.6828 259.527 38.5704 259.415C38.4581 259.302 38.395 259.15 38.395 258.991V70.584C38.395 70.4251 38.4581 70.2728 38.5704 70.1604C38.6828 70.0481 38.8351 69.985 38.994 69.985C39.1528 69.985 39.3052 70.0481 39.4175 70.1604C39.5298 70.2728 39.5929 70.4251 39.5929 70.584V258.991C39.5929 259.15 39.5298 259.302 39.4175 259.415C39.3052 259.527 39.1528 259.59 38.994 259.59Z" fill="#37474F"/>
<path d="M43.5461 86.9834C43.5461 85.0548 39.557 79.7959 38.7544 79.7959C37.9518 79.7959 34.394 84.9589 34.394 86.9834C34.4304 87.3847 34.5727 87.7692 34.8063 88.0975C35.0399 88.4258 35.3565 88.6862 35.7237 88.8521C36.7198 89.3601 37.822 89.6249 38.9401 89.6249C40.0582 89.6249 41.1604 89.3601 42.1565 88.8521C42.526 88.6879 42.845 88.4282 43.0808 88.0998C43.3166 87.7713 43.4607 87.386 43.4982 86.9834H43.5461Z" fill="#CFD8DC"/>
<path opacity="0.1" d="M43.5461 86.9834C43.5461 85.0548 39.557 79.7959 38.7544 79.7959C37.9518 79.7959 34.394 84.9589 34.394 86.9834C34.4304 87.3847 34.5727 87.7692 34.8063 88.0975C35.0399 88.4258 35.3565 88.6862 35.7237 88.8521C36.7198 89.3601 37.822 89.6249 38.9401 89.6249C40.0582 89.6249 41.1604 89.3601 42.1565 88.8521C42.526 88.6879 42.845 88.4282 43.0808 88.0998C43.3166 87.7713 43.4607 87.386 43.4982 86.9834H43.5461Z" fill="black"/>
<path d="M65.4801 45.1764C65.4801 59.9107 53.9083 78.5262 38.7907 82.0481C23.5533 77.7955 12.1133 59.9107 12.1133 45.1764C12.1133 30.4422 21.6007 16.6662 38.8027 16.6662C56.0047 16.6662 65.4801 30.4302 65.4801 45.1764Z" fill="#12A8FC"/>
<path opacity="0.05" d="M13.0952 37.0904C12.435 39.7348 12.1051 42.4507 12.1129 45.1763C12.1129 59.9105 23.5889 77.7953 38.8023 82.0479C51.3684 79.113 61.4788 65.7563 64.5334 52.8668C64.5334 52.8668 60.5564 67.0141 43.0549 68.1522C25.5535 69.2902 11.4301 49.2851 13.0952 37.0904Z" fill="black"/>
<path d="M21.9356 242.4C18.7492 241.49 15.4789 231.954 15.7185 225.845C15.958 219.736 24.1757 193.31 25.3017 188.231C26.5835 182.625 26.4997 178.36 27.6377 175.449C29.3147 171.149 34.8251 168.789 34.8251 168.789C34.8251 168.789 42.0126 165.351 44.6001 164.836C47.1875 164.32 48.1938 166.033 47.9063 167.387C47.6188 168.741 46.7084 172.179 46.4688 174.047C46.2981 176.439 45.5984 178.763 44.4204 180.852C43.0667 183.02 37.5444 188.207 37.3287 191.094C37.1131 193.981 35.5199 209.649 34.6095 221.041C33.8548 230.361 32.9204 234.218 30.896 236.686C28.8715 239.154 24.4153 243.095 21.9356 242.4Z" fill="#B16668"/>
<path d="M471.655 377.189H460.275V396.667H471.655V377.189Z" fill="#FFA8A7"/>
<path d="M432.209 376.159L420.84 376.542L420.277 355.938L432.209 355.543V376.159Z" fill="#FFA8A7"/>
<path d="M467.978 232.254C467.978 243.119 469.679 308.369 469.679 308.369C469.942 311.495 472.949 317.054 473.189 328.314C473.524 344.642 472.111 386.928 472.111 386.928C470.146 387.892 467.995 388.413 465.808 388.457C463.62 388.5 461.45 388.064 459.449 387.179C459.449 387.179 449.41 328.949 447.374 312.789C445.601 298.69 442.582 260.369 442.582 260.369L436.437 306.464C437.754 312.394 438.229 318.479 437.85 324.541C437.311 332.016 432.939 369.822 432.939 369.822C430.95 370.943 428.738 371.614 426.461 371.786C424.184 371.958 421.897 371.627 419.762 370.816C419.762 370.816 414.012 313.316 413.88 306.464C413.737 298.642 417.666 218.825 417.666 218.825L467.978 232.254Z" fill="#CFD8DC"/>
<path d="M423.391 209.817C430.723 185.392 429.273 164.716 430.651 158.391L411.856 184.637C411.06 193.291 409.776 201.894 408.01 210.404C405.842 219.736 402.883 231.367 399.337 238.603C398.694 239.874 397.607 240.867 396.283 241.394C392.689 242.843 391.084 244.676 388.245 246.784C386.017 248.426 384.328 248.641 384.459 249.312C384.715 250.058 385.24 250.682 385.931 251.06C386.623 251.439 387.431 251.546 388.197 251.36C389.91 250.999 391.575 250.437 393.156 249.683C391.56 252.386 389.538 254.814 387.167 256.871C381.728 261.591 380.95 264.933 389.982 266.574C395.648 267.616 400.763 264.897 407.22 253.133C409.677 248.845 411.823 244.385 413.64 239.789C417.917 227.834 421.175 217.196 423.391 209.817Z" fill="#FFA8A7"/>
<path d="M432.16 152.317C426.326 153.348 420.564 154.713 416.982 160.319C413.401 165.926 408.226 192.387 408.226 192.387C408.226 192.387 415.748 197.67 424.373 197.443L432.16 152.317Z" fill="#E0E0E0"/>
<path d="M472.362 162.164C476.279 164.943 496.943 211.614 497.734 214.872C498.788 219.292 498.309 224.252 496.141 225.845C493.972 227.438 489.193 225.15 486.689 222.706C481.898 217.915 465.067 183.02 465.067 183.02L472.362 162.164Z" fill="#F28F8F"/>
<path d="M452.021 152.305C461.544 154.605 473.583 158.451 477.848 167.219C482.112 175.988 488.629 190.219 488.629 190.219C484.193 194.546 478.782 197.742 472.852 199.539L468.061 191.154L468.768 235.416C461.041 241.046 432.663 244.101 416.395 232.23C416.395 232.23 418.396 179.079 418.396 170.813C418.396 162.547 422.984 152.605 435.681 151.862L452.021 152.305Z" fill="#F0F0F0"/>
<path d="M467.977 191.118C467.977 191.118 463.186 182.828 462.167 180.84L468.157 201.204L467.977 191.118Z" fill="#E0E0E0"/>
<path d="M460.276 391.049V389.42C459.186 389.899 456.682 399.542 452.142 403.663C448.548 406.933 443.661 410.718 442.415 414.36C441.169 418.002 449.231 420.254 452.585 419.655C456.478 418.972 463.234 416.229 464.923 413.665C466.613 411.102 467.415 407.376 468.793 405.519C470.17 403.663 473.345 401.566 474.087 399.41C474.495 398.212 474.016 395.637 473.441 393.421C472.866 391.204 472.339 389.192 471.656 389.384V390.581C470.034 391.851 468.026 392.528 465.966 392.498C464.301 392.714 460.264 392.318 460.276 391.049Z" fill="#263238"/>
<path d="M420.72 373.032C420.133 373.032 419.654 373.895 418.324 375.296C416.382 377.258 414.122 378.878 411.64 380.088C407.375 382.22 399.098 385.502 395.348 387.191C392.952 388.246 393.12 391.073 395.54 392.678C397.96 394.283 403.794 395.457 410.813 393.876C414.635 393.013 419.618 389.491 422.792 389.671C425.967 389.851 431.837 389.827 434.161 388.222C436.484 386.616 435.562 383.19 434.903 380.255C434.185 377.045 433.286 372.038 432.22 372.265V373.367C430.854 375.44 423.835 376.278 420.792 374.757L420.72 373.032Z" fill="#263238"/>
<path opacity="0.1" d="M442.607 260.369C436.725 258.534 431.316 255.435 426.758 251.289C426.758 251.289 429.825 257.015 438.905 262.333L436.964 302.475L442.607 260.369Z" fill="black"/>
<path d="M455.591 110.007C456.445 109.906 457.311 110.001 458.123 110.285C458.935 110.57 459.671 111.036 460.275 111.648C462.287 113.709 461.868 117.518 460.275 126.263L454.058 126.982L455.591 110.007Z" fill="#263238"/>
<path d="M419.355 107.444C418.017 107.45 416.692 107.181 415.462 106.653C413.557 105.551 413.066 107.719 414.096 109.6C414.786 110.945 415.809 112.092 417.067 112.93C418.325 113.769 419.777 114.272 421.284 114.392C421.284 114.128 423.069 109.6 423.069 109.6L419.355 107.444Z" fill="#263238"/>
<path d="M452.68 126.946C453.603 127.497 454.92 125.748 456.058 124.55C457.196 123.352 460.91 121.723 462.755 125.628C464.599 129.533 460.359 134.9 457.843 136.649C454.848 138.733 452.68 137.104 452.68 137.104L452.021 152.317C452.021 152.317 448.715 160.391 439.779 161.601C430.842 162.811 432.687 155.456 435.622 151.838V146.304C435.622 146.304 431.01 147.214 428.83 146.651C427.249 146.153 425.817 145.271 424.661 144.083C423.505 142.896 422.661 141.44 422.205 139.847C419.749 131.731 419.236 123.15 420.708 114.799C422.984 100.987 438.557 100.759 447.278 106.246C455.998 111.732 452.68 126.946 452.68 126.946Z" fill="#FFA8A7"/>
<path d="M452.68 128.503C453.135 128.503 454.908 125.58 456.058 124.538C457.651 123.088 455.591 109.971 455.591 109.971C455.591 109.971 457.208 105 454.058 101.694C450.907 98.3875 444.81 98.9505 440.354 98.7948C434.88 98.8303 429.457 97.7417 424.421 95.5963C418.096 92.8411 417.617 92.5177 416.827 95.2969C416.036 98.076 415.749 104.449 419.534 108.713L422.672 109.911C422.672 109.911 424.374 111.409 430.279 112.127C435.727 112.54 441.202 112.436 446.631 111.816C448.344 111.588 448.715 113.242 449.637 117.806C450.44 121.723 451.111 128.467 452.68 128.503Z" fill="#263238"/>
<path d="M455.579 110.989L461.161 107.995C460.983 107.62 460.731 107.285 460.42 107.01C460.109 106.735 459.746 106.526 459.352 106.395C458.958 106.264 458.542 106.214 458.128 106.248C457.714 106.282 457.312 106.399 456.945 106.593C456.195 107.009 455.634 107.698 455.38 108.517C455.126 109.336 455.197 110.222 455.579 110.989Z" fill="#263238"/>
<path d="M435.635 146.292C435.635 146.292 443.912 144.627 446.799 143.093C448.504 142.207 449.899 140.825 450.8 139.128C450.364 140.823 449.59 142.412 448.524 143.8C446.416 146.507 435.635 148.496 435.635 148.496V146.292Z" fill="#F28F8F"/>
<path d="M437.61 124.598C437.622 124.924 437.73 125.24 437.92 125.506C438.109 125.772 438.373 125.976 438.679 126.093C438.984 126.21 439.316 126.234 439.635 126.163C439.954 126.093 440.245 125.929 440.472 125.694C440.699 125.459 440.852 125.163 440.911 124.841C440.971 124.52 440.935 124.188 440.807 123.888C440.68 123.587 440.466 123.33 440.194 123.15C439.922 122.969 439.602 122.873 439.275 122.873C439.053 122.876 438.832 122.923 438.628 123.012C438.423 123.1 438.238 123.228 438.084 123.389C437.929 123.549 437.807 123.738 437.726 123.946C437.645 124.153 437.605 124.375 437.61 124.598Z" fill="#263238"/>
<path d="M439.671 117.734L443.265 119.698C443.52 119.212 443.577 118.645 443.422 118.118C443.268 117.59 442.915 117.143 442.438 116.871C442.202 116.736 441.941 116.651 441.67 116.621C441.4 116.591 441.126 116.618 440.866 116.699C440.607 116.78 440.366 116.913 440.161 117.091C439.955 117.269 439.788 117.488 439.671 117.734Z" fill="#263238"/>
<path d="M437.742 136.122L433.957 137.559C434.039 137.814 434.172 138.049 434.347 138.252C434.522 138.454 434.737 138.619 434.977 138.736C435.218 138.854 435.479 138.921 435.747 138.935C436.014 138.949 436.281 138.909 436.533 138.817C437.047 138.616 437.462 138.221 437.689 137.717C437.915 137.213 437.934 136.64 437.742 136.122Z" fill="#F28F8F"/>
<path d="M422.062 120.106L425.296 117.614C425.144 117.391 424.948 117.203 424.719 117.059C424.491 116.916 424.235 116.822 423.968 116.783C423.702 116.743 423.43 116.76 423.17 116.831C422.909 116.902 422.667 117.026 422.457 117.195C422.033 117.539 421.756 118.031 421.683 118.572C421.609 119.113 421.745 119.661 422.062 120.106Z" fill="#263238"/>
<path d="M423.919 124.13C423.93 124.457 424.038 124.774 424.229 125.04C424.419 125.306 424.684 125.51 424.99 125.626C425.296 125.743 425.629 125.767 425.948 125.695C426.267 125.623 426.558 125.459 426.785 125.223C427.011 124.986 427.163 124.689 427.221 124.367C427.279 124.045 427.241 123.713 427.112 123.412C426.983 123.111 426.767 122.856 426.494 122.677C426.22 122.498 425.899 122.403 425.572 122.405C425.125 122.418 424.701 122.606 424.391 122.929C424.082 123.252 423.912 123.683 423.919 124.13Z" fill="#263238"/>
<path d="M432.986 122.837L432.435 132.803L427.236 131.031L432.986 122.837Z" fill="#F28F8F"/>
<path d="M478.495 243.31C478.337 243.31 478.184 243.247 478.072 243.135C477.96 243.023 477.896 242.87 477.896 242.712V54.3044C477.896 54.1455 477.96 53.9932 478.072 53.8808C478.184 53.7685 478.337 53.7054 478.495 53.7054C478.654 53.7054 478.807 53.7685 478.919 53.8808C479.031 53.9932 479.094 54.1455 479.094 54.3044V242.712C479.094 242.87 479.031 243.023 478.919 243.135C478.807 243.247 478.654 243.31 478.495 243.31Z" fill="#37474F"/>
<path d="M473.967 70.7038C473.967 68.7871 477.956 63.5163 478.759 63.5163C479.562 63.5163 483.119 68.6793 483.119 70.7038C483.084 71.1055 482.942 71.4905 482.709 71.819C482.475 72.1475 482.158 72.4077 481.79 72.5725C480.794 73.0805 479.691 73.3453 478.573 73.3453C477.455 73.3453 476.353 73.0805 475.357 72.5725C474.977 72.4172 474.647 72.1611 474.402 71.8317C474.157 71.5024 474.007 71.1123 473.967 70.7038Z" fill="#CFD8DC"/>
<path opacity="0.1" d="M473.967 70.7038C473.967 68.7871 477.956 63.5163 478.759 63.5163C479.562 63.5163 483.119 68.6793 483.119 70.7038C483.084 71.1055 482.942 71.4905 482.709 71.819C482.475 72.1475 482.158 72.4077 481.79 72.5725C480.794 73.0805 479.691 73.3453 478.573 73.3453C477.455 73.3453 476.353 73.0805 475.357 72.5725C474.977 72.4172 474.647 72.1611 474.402 71.8317C474.157 71.5024 474.007 71.1123 473.967 70.7038Z" fill="black"/>
<path d="M451.998 28.8968C451.998 43.6311 463.558 62.2466 478.687 65.7684C493.901 61.5158 505.377 43.6311 505.377 28.8968C505.377 14.1625 495.889 0.386536 478.687 0.386536C461.485 0.386536 451.998 14.1745 451.998 28.8968Z" fill="#12A8FC"/>
<path opacity="0.05" d="M504.227 36.5993C504.227 36.5993 500.322 50.7347 482.748 51.8727C465.882 52.9628 452.166 34.4431 452.681 22.1765C452.224 24.3873 451.995 26.6392 451.998 28.8968C451.998 43.6311 463.558 62.2466 478.687 65.7684C491.301 62.2466 501.328 49.3571 504.407 36.6592L504.227 36.5993Z" fill="black"/>
<path d="M495.529 226.12C498.715 225.21 501.986 215.687 501.746 209.565C501.507 203.444 493.289 177.042 492.163 171.951C490.881 166.345 490.965 162.08 489.827 159.169C488.15 154.881 482.639 152.521 482.639 152.521C482.639 152.521 475.452 149.071 472.864 148.556C470.277 148.041 469.271 149.754 469.558 151.107C469.846 152.461 470.756 155.899 470.996 157.768C471.165 160.16 471.865 162.484 473.044 164.572C474.398 166.74 479.92 171.927 480.136 174.814C480.351 177.701 481.945 193.382 482.855 204.762C483.61 214.081 484.544 217.939 486.569 220.406C488.593 222.874 493.133 226.827 495.529 226.12Z" fill="#FFA8A7"/>
<path d="M186.193 401.063C220.007 401.063 247.418 387.998 247.418 371.882C247.418 355.766 220.007 342.701 186.193 342.701C152.379 342.701 124.968 355.766 124.968 371.882C124.968 387.998 152.379 401.063 186.193 401.063Z" fill="#E0E0E0"/>
<path d="M316.287 409.94C350.101 409.94 377.512 396.875 377.512 380.759C377.512 364.642 350.101 351.578 316.287 351.578C282.473 351.578 255.062 364.642 255.062 380.759C255.062 396.875 282.473 409.94 316.287 409.94Z" fill="#E0E0E0"/>
<path d="M201.599 131.21C204.773 130.755 207.456 131.21 213.003 138.781C217.962 145.561 227.845 156.941 227.845 156.941C227.845 156.941 236.781 133.522 236.518 130.372C236.254 127.221 234.278 125.281 232.984 119.483C231.69 113.685 231.319 112.583 230.348 110.894C229.378 109.205 232.744 108.797 234.098 110.894C235.452 112.99 235.619 115.949 236.566 115.422C237.512 114.895 238.159 108.522 237.356 103.946C236.554 99.3698 238.638 98.3396 239.584 99.801C240.133 100.618 240.52 101.533 240.722 102.496C241.702 102.296 242.716 102.359 243.663 102.679C244.61 102.999 245.456 103.564 246.113 104.317C248.509 106.929 250.497 110.942 250.485 117.734C250.473 124.526 247.335 128.156 246.892 131.222C246.448 134.289 240.902 162.715 236.973 172.322C234.505 178.312 231.091 180.133 226.922 176.623C221.304 171.891 205.887 152.94 205.887 152.94L201.599 131.21Z" fill="#FFA8A7"/>
<path d="M201.599 131.21C204.462 130.36 207.588 131.031 210.487 134.505C213.386 137.978 224 151.419 224 151.419C224 151.419 223.688 158.295 214.812 164.668L204.689 153.767L201.599 131.21Z" fill="#CFD8DC"/>
<path d="M216.597 353.015L216.501 351.422C217.255 353.255 220.657 361.161 225.341 364.934C229.055 367.941 234.098 371.379 235.536 374.889C236.973 378.399 229.139 380.28 225.808 379.884C221.939 379.441 216.848 377.56 213.949 374.41C211.913 372.194 210.547 369.51 209.086 367.761C207.624 366.012 204.378 364.168 203.515 362.071C203.048 360.933 203.372 358.346 203.803 356.166C204.234 353.985 204.881 351.757 205.564 351.901C205.535 352.371 205.479 352.839 205.396 353.303C207.061 354.462 209.075 355.012 211.098 354.86C212.739 354.824 216.692 354.261 216.597 353.015Z" fill="#263238"/>
<path d="M228.707 367.558C227.509 366.647 226.395 365.761 225.341 364.91C222.071 362.263 219.423 357.603 217.866 354.417V354.357C216.674 351.777 216.155 348.938 216.357 346.103L216.501 342.33L204.521 342.569L205.396 353.279V353.554H205.456C206.139 355.842 211.637 361.724 214.8 365.533C216.908 368.109 220.789 371.331 225.305 371.655C229.594 372.062 231.63 370.6 228.707 367.558Z" fill="#FFA8A7"/>
<path d="M149.717 354.381C149.142 354.045 148.196 355.998 147.202 357.483C146.134 359.331 145.627 361.45 145.74 363.581C146.005 365.981 145.88 368.408 145.369 370.768C144.698 374.745 143.536 379.309 147.537 382.975C150.975 386.113 158.642 387.575 161.085 385.371C161.582 384.967 161.976 384.451 162.236 383.867C162.497 383.282 162.615 382.644 162.583 382.004C162.092 380.268 161.418 378.59 160.57 376.997C159.625 375.191 158.777 373.336 158.031 371.439L149.717 354.381Z" fill="#263238"/>
<path d="M160.522 347.648C159.995 347.205 158.857 361.916 158.534 365.413C158.21 368.911 158.821 370.744 159.396 374.47C159.683 375.35 159.618 376.307 159.217 377.141C158.913 377.527 158.523 377.837 158.078 378.045C157.632 378.253 157.144 378.354 156.653 378.339C154.114 378.339 152.101 377.404 149.969 374.997C148.915 373.799 148.843 370.624 148.903 369.474C149.076 367.547 149.112 365.609 149.01 363.676C148.819 361.628 148.22 359.22 148.483 357.687C148.709 356.499 149.113 355.352 149.681 354.285C150.652 352.069 151.298 346.007 151.298 346.007L160.522 347.648Z" fill="#FFA8A7"/>
<path d="M165.542 191.693C159.325 199.683 158.199 207.924 159.552 231.224C160.906 254.523 158.941 273.558 158.594 274.863C158.247 276.169 154.305 289.035 152.449 297.696C150.28 307.842 149.981 349.613 149.981 349.613C149.981 349.613 154.401 352.009 161.229 350.38C161.229 350.38 177.713 285.106 179.462 279.847C181.21 274.588 194.447 220.347 194.447 220.347L192.758 189.117L165.542 191.693Z" fill="#37474F"/>
<path d="M213.087 218.55C212.14 207.769 209.828 189.093 209.828 189.093L182.277 187.476C177.808 194.436 179.749 206.008 180.971 216.466L196.735 278.182C196.412 281.141 193.693 287.406 196.735 303.338C200.125 321.091 204.282 344.558 204.282 344.558C204.282 344.558 210.751 347.193 216.692 344.69C216.692 344.69 218.968 288.484 217.519 273.139C215.926 256.476 213.734 225.929 213.087 218.55Z" fill="#37474F"/>
<path d="M189.632 244.736L194.124 222.096C198.106 220.678 201.887 218.749 205.372 216.358C203.146 219.172 200.49 221.617 197.502 223.605L189.632 244.736Z" fill="#263238"/>
<path d="M167.207 136.864C164.116 138.649 159.001 140.278 156.869 146.292C153.958 154.677 146.232 176.455 143.261 184.278H157.54L167.423 164.033C175.065 157.468 174.035 139.224 167.207 136.864Z" fill="#FFA8A7"/>
<path d="M208.031 171.592C208.714 177.881 211.253 201.144 211.253 201.144C190.469 212.225 164.702 204.882 160.761 200.318C164.355 188.554 168.176 181.858 171.111 178.755L167.422 164.033C167.422 164.033 176.13 153.671 167.206 136.864L178.79 133.055L194.65 131.677L201.598 131.21C204.078 133.534 207.983 141.86 210.522 148.34C212.152 152.521 213.912 159.205 208.031 171.592Z" fill="#F5F5F5"/>
<path d="M167.207 136.864C160.379 138.206 157.313 141.56 154.581 149.011C151.634 157.073 148.101 165.782 148.101 165.782C150.014 168.546 152.683 170.7 155.79 171.986C158.896 173.271 162.307 173.634 165.614 173.029L170.034 160.703C170.034 160.703 175.964 149.826 167.207 136.864Z" fill="#CFD8DC"/>
<path d="M169.302 171.436C169.482 172.155 174.345 178.623 176.729 180.109C179.113 181.594 172.512 183.703 171.578 187.476C169.697 195.059 181.449 204.798 196.051 206.187C179.532 208.895 163.804 203.792 160.797 200.318C164.391 188.554 168.212 181.858 171.147 178.755L169.302 171.436Z" fill="#E6E6E6"/>
<path d="M213.003 129.737H190.805C187.237 129.738 183.703 129.037 180.406 127.672C177.11 126.307 174.114 124.306 171.591 121.783C169.068 119.26 167.066 116.264 165.702 112.967C164.337 109.67 163.635 106.137 163.637 102.568C163.637 96.0236 166.237 89.7469 170.864 85.1191C175.492 80.4913 181.769 77.8914 188.314 77.8914C191.555 77.8898 194.765 78.5269 197.761 79.7663C200.756 81.0058 203.478 82.8232 205.771 85.1148C208.063 87.4065 209.882 90.1274 211.123 93.1221C212.364 96.1168 213.003 99.3267 213.003 102.568V129.737Z" fill="#263238"/>
<path d="M204.185 88.6365C206.797 90.1818 210.019 96.7344 209.696 110.486C209.42 122.13 205.647 125.017 203.706 125.844C201.766 126.67 198.148 126.167 194.602 125.568V132.564C194.382 134.042 193.585 135.373 192.386 136.265C189.487 138.074 186.061 137.391 184.132 136.697C179.88 135.163 179.041 133.103 179.041 133.103L179.113 117.015C179.113 117.015 177.029 119.051 173.471 115.949C170.548 113.385 169.566 109.073 171.842 106.749C172.435 106.198 173.15 105.796 173.928 105.576C174.707 105.356 175.527 105.324 176.32 105.483C177.114 105.642 177.858 105.988 178.491 106.491C179.125 106.994 179.629 107.641 179.964 108.378C179.964 108.378 182.048 108.546 184.132 104.665C184.132 104.665 184.061 94.1469 186.409 92.7813C193.895 88.4449 199.19 88.6365 204.185 88.6365Z" fill="#FFA8A7"/>
<path d="M194.638 106.821C194.653 107.015 194.629 107.211 194.567 107.396C194.506 107.581 194.408 107.752 194.28 107.899C194.152 108.046 193.996 108.167 193.821 108.253C193.646 108.339 193.456 108.39 193.261 108.402C192.958 108.431 192.654 108.368 192.387 108.221C192.12 108.075 191.904 107.852 191.765 107.582C191.626 107.311 191.572 107.005 191.608 106.703C191.645 106.401 191.772 106.117 191.971 105.888C192.171 105.659 192.435 105.495 192.729 105.417C193.023 105.339 193.334 105.351 193.621 105.451C193.908 105.552 194.158 105.736 194.34 105.98C194.521 106.224 194.625 106.517 194.638 106.821Z" fill="#263238"/>
<g style="mix-blend-mode:multiply" opacity="0.5">
<g style="mix-blend-mode:multiply" opacity="0.5">
<path d="M197.083 117.434L200.485 118.512C200.422 118.739 200.314 118.95 200.167 119.134C200.021 119.318 199.838 119.471 199.631 119.582C199.425 119.694 199.197 119.763 198.963 119.785C198.729 119.807 198.493 119.782 198.269 119.71C197.818 119.554 197.444 119.231 197.223 118.808C197.003 118.385 196.952 117.893 197.083 117.434Z" fill="#F28F8F"/>
</g>
</g>
<path d="M207.887 102.257L204.928 100.208C205.051 100.008 205.213 99.8342 205.406 99.699C205.598 99.5638 205.816 99.4697 206.047 99.4225C206.277 99.3753 206.515 99.376 206.745 99.4247C206.975 99.4733 207.192 99.5688 207.384 99.7052C207.78 99.9838 208.054 100.405 208.148 100.88C208.241 101.355 208.148 101.848 207.887 102.257Z" fill="#263238"/>
<path d="M192.602 101.622L189.235 102.916C189.139 102.701 189.087 102.469 189.084 102.234C189.081 101.999 189.126 101.765 189.217 101.549C189.308 101.332 189.443 101.136 189.613 100.973C189.783 100.811 189.985 100.685 190.206 100.604C190.66 100.435 191.161 100.446 191.606 100.636C192.052 100.825 192.408 101.178 192.602 101.622Z" fill="#263238"/>
<path d="M207.084 106.497C207.089 106.787 207.008 107.071 206.852 107.314C206.696 107.558 206.471 107.75 206.207 107.867C205.942 107.984 205.649 108.021 205.364 107.972C205.079 107.924 204.814 107.792 204.603 107.594C204.392 107.396 204.244 107.141 204.177 106.859C204.111 106.578 204.128 106.283 204.228 106.011C204.328 105.74 204.506 105.504 204.739 105.332C204.972 105.161 205.25 105.062 205.539 105.048C205.935 105.038 206.32 105.185 206.609 105.456C206.898 105.727 207.069 106.101 207.084 106.497Z" fill="#263238"/>
<g style="mix-blend-mode:multiply" opacity="0.5">
<g style="mix-blend-mode:multiply" opacity="0.5">
<path d="M200.054 105.659L200.282 114.476L204.93 113.038L200.054 105.659Z" fill="#F28F8F"/>
</g>
</g>
<g style="mix-blend-mode:multiply" opacity="0.5">
<g style="mix-blend-mode:multiply" opacity="0.5">
<path d="M194.65 125.58C190.9 125.089 183.186 122.885 181.988 119.83C182.467 121.376 183.413 122.736 184.695 123.723C186.995 125.7 194.65 127.916 194.65 127.916V125.58Z" fill="#F28F8F"/>
</g>
</g>
<path d="M184.743 79.209L184.18 72.7403C184.604 72.6765 185.036 72.7001 185.45 72.8096C185.864 72.9191 186.251 73.1123 186.588 73.3771C186.925 73.642 187.204 73.9729 187.408 74.3496C187.611 74.7263 187.736 75.1407 187.774 75.5674C187.838 76.4486 187.558 77.3204 186.993 77.9995C186.428 78.6786 185.621 79.1122 184.743 79.209Z" fill="#263238"/>
<path d="M184.396 79.8559L179.161 76.0226C179.395 75.6657 179.7 75.3601 180.056 75.1245C180.412 74.8888 180.812 74.7281 181.233 74.6519C181.653 74.5757 182.084 74.5857 182.5 74.6813C182.916 74.7769 183.309 74.9561 183.653 75.208C184.35 75.7394 184.815 76.5183 184.954 77.3835C185.092 78.2486 184.892 79.1338 184.396 79.8559Z" fill="#263238"/>
<path d="M180.012 108.354V114.475C181.117 114.475 182.178 114.036 182.959 113.254C183.741 112.473 184.18 111.412 184.18 110.307V104.641L180.012 108.354Z" fill="#263238"/>
<path d="M196.687 79.3409C202.183 79.3409 207.454 81.5243 211.341 85.4107C215.227 89.2972 217.41 94.5684 217.41 100.065V102.748H207.276C204.994 102.749 202.789 101.923 201.069 100.423C199.349 98.9234 198.23 96.8512 197.92 94.5902L197.549 102.748C195.673 102.749 193.865 102.048 192.482 100.781C191.098 99.5152 190.239 97.7763 190.074 95.908L189.954 94.5663C189.777 96.7929 188.767 98.871 187.127 100.387C185.486 101.903 183.335 102.746 181.102 102.748H180.191L179.161 88.1096L196.687 79.3409Z" fill="#263238"/>
<path d="M337.549 369.139V367.558C336.914 369.438 333.955 377.536 329.535 381.585C326.001 384.808 321.149 388.533 319.952 392.127C318.754 395.721 326.66 397.122 329.966 396.535C333.799 395.864 338.771 393.684 341.466 390.366C343.371 388.03 344.581 385.263 345.934 383.43C347.288 381.597 350.414 379.537 351.145 377.44C351.552 376.243 351.073 373.715 350.51 371.559C349.947 369.402 349.432 367.402 348.749 367.582V368.78C347.154 370.037 345.174 370.706 343.143 370.672C341.514 370.72 337.537 370.397 337.549 369.139Z" fill="#263238"/>
<path d="M326.336 384.4C327.438 383.418 328.54 382.472 329.534 381.549C332.649 378.722 335.009 373.919 336.374 370.636C337.153 368.768 337.56 366.766 337.572 364.743V358.358H348.773V368.756V369.031H348.713C348.174 371.355 343.035 377.56 340.112 381.597C338.159 384.305 334.434 387.743 329.99 388.342C325.749 388.928 323.605 387.599 326.336 384.4Z" fill="#B16668"/>
<path d="M293.838 358.094V356.489C293.215 358.37 290.244 366.468 285.836 370.517C282.302 373.739 277.451 377.465 276.253 381.058C275.055 384.652 282.961 386.054 286.267 385.467C290.101 384.784 295.06 382.616 297.767 379.297C299.66 376.961 300.87 374.194 302.235 372.361C303.601 370.529 306.716 368.468 307.446 366.372C307.854 365.174 307.374 362.646 306.811 360.49C306.284 358.514 305.721 356.333 305.051 356.513V357.711C303.456 358.969 301.475 359.637 299.444 359.604C297.803 359.676 293.826 359.352 293.838 358.094Z" fill="#263238"/>
<path d="M282.638 373.356C283.728 372.373 284.83 371.427 285.836 370.505C288.939 367.678 291.31 362.874 292.664 359.592C293.449 357.726 293.856 355.722 293.862 353.698V347.313H305.062V357.699V357.974H305.003C304.464 360.298 299.324 366.492 296.402 370.541C294.437 373.248 290.724 376.686 286.279 377.285C282.051 377.884 279.906 376.554 282.638 373.356Z" fill="#B16668"/>
<path d="M346.522 195.059C355.207 214.034 346.211 280.865 346.211 280.865C346.474 283.944 349.984 290.005 351.302 303.553C352.847 319.557 348.906 359.759 348.906 359.759C347.198 360.75 345.275 361.31 343.302 361.389C341.329 361.468 339.367 361.065 337.586 360.215C337.586 360.215 326.864 299.612 324.864 283.704C323.103 269.82 319.749 239.274 319.749 239.274L310.166 283.596C311.557 288.075 312.566 292.663 313.184 297.312C314.095 306.68 305.027 350.272 305.027 350.272C305.027 350.272 301.157 351.685 293.814 350.607C293.814 350.607 290.616 292.748 289.765 281.476C288.34 262.525 293.359 203.42 296.845 192.208L346.522 195.059Z" fill="#37474F"/>
<path d="M319.749 239.262L316.922 221.64C316.922 221.64 304.943 219.161 299.588 214.082C299.588 214.082 305.255 221.137 313.688 223.449L316.862 236.986L311.328 278.062L319.749 239.262Z" fill="#263238"/>
<path d="M313.903 128.587C311.202 128.141 308.431 128.459 305.901 129.505C303.372 130.551 301.185 132.282 299.587 134.505C295.814 139.524 281.295 181.75 281.295 181.75H294.365L312.249 146.364L313.903 128.587Z" fill="#B16668"/>
<path d="M331.2 129.102C342.341 129.869 343.119 135.247 345.899 141.081C347.955 145.618 348.145 150.781 346.426 155.456L338.675 177.905C338.675 177.905 342.269 186.685 346.522 194.987C327.044 205.852 302.726 200.138 296.868 192.208C296.629 190.531 298.066 177.378 299.06 168.789C295.622 160.176 294.724 154.725 296.173 149.035C298.857 138.482 309.279 128.192 313.902 128.563L331.2 129.102Z" fill="#F5F5F5"/>
<path d="M326.217 197.119C327.746 196.769 329.19 196.115 330.463 195.198C331.736 194.281 332.813 193.119 333.63 191.779C334.447 190.44 334.988 188.95 335.22 187.399C335.453 185.847 335.373 184.265 334.985 182.744C334.936 182.535 334.868 182.331 334.782 182.133C334.515 181.317 333.981 180.614 333.266 180.138C332.551 179.662 331.697 179.441 330.84 179.51C332.091 178.685 333.165 177.619 334 176.375C334.835 175.131 335.414 173.733 335.704 172.263L338.1 160.391C338.1 160.391 333.703 146.448 334.147 141.668L345.323 142.315L346.773 143.321C347.96 147.293 347.847 151.541 346.449 155.444L338.699 177.893C338.699 177.893 342.292 186.673 346.545 194.975C340.209 198.383 333.215 200.392 326.036 200.868C318.857 201.343 311.66 200.273 304.93 197.73C312 198.871 319.223 198.663 326.217 197.119Z" fill="#E6E6E6"/>
<path d="M372.204 184.769C372.204 184.769 361.147 163.015 353.84 146.364C348.569 134.385 347.383 131.629 338.986 130.324L336.027 129.869C332.05 142.938 334.829 148.867 340.028 157.816L358.224 192.316C362.345 191.465 372.288 186.015 372.204 184.769Z" fill="#B16668"/>
<path d="M326.576 119.866H318.682C313.113 119.866 307.771 117.654 303.833 113.716C299.895 109.777 297.683 104.436 297.683 98.8668V95.3449C297.683 89.7438 299.908 84.3721 303.868 80.4114C307.829 76.4508 313.201 74.2258 318.802 74.2258H326.396C331.998 74.2258 337.369 76.4508 341.33 80.4114C345.291 84.3721 347.516 89.7438 347.516 95.3449V98.8668C347.516 104.436 345.303 109.777 341.365 113.716C337.427 117.654 332.086 119.866 326.516 119.866H326.576Z" fill="#263238"/>
<path d="M305.924 84.3002C303.288 85.8574 300.03 92.4819 300.353 106.366C300.629 118.129 304.438 121.028 306.343 121.867C308.248 122.705 311.949 122.19 315.543 121.603V128.659C315.543 128.659 310.572 134.421 310.895 137.655C311.218 140.889 318.082 141.656 322.694 138.494C325.706 136.329 328.289 133.624 330.313 130.515V113.457C330.313 113.457 332.709 116.692 336.698 114.056C340.687 111.421 340.819 104.916 338.519 102.568C336.219 100.22 331.235 100.975 330.313 104.209C330.313 104.209 324.587 104.413 316.968 100.22C314.003 98.6245 311.457 96.3506 309.538 93.5839C307.619 90.8173 306.38 87.6363 305.924 84.3002Z" fill="#B16668"/>
<path d="M314.801 103.407C314.797 103.698 314.879 103.985 315.036 104.23C315.193 104.476 315.42 104.67 315.686 104.788C315.953 104.906 316.249 104.942 316.536 104.893C316.824 104.844 317.09 104.712 317.303 104.512C317.516 104.313 317.665 104.055 317.732 103.771C317.799 103.487 317.781 103.19 317.681 102.916C317.58 102.642 317.401 102.404 317.166 102.232C316.931 102.059 316.65 101.959 316.359 101.945C316.16 101.939 315.963 101.972 315.777 102.042C315.592 102.112 315.422 102.218 315.277 102.353C315.133 102.489 315.016 102.652 314.934 102.833C314.853 103.013 314.808 103.208 314.801 103.407Z" fill="#263238"/>
<path d="M313.088 113.373L309.662 114.475C309.726 114.703 309.836 114.914 309.984 115.098C310.131 115.282 310.315 115.435 310.522 115.546C310.73 115.658 310.958 115.727 311.193 115.749C311.428 115.771 311.665 115.745 311.89 115.673C312.343 115.512 312.719 115.185 312.941 114.759C313.163 114.332 313.216 113.837 313.088 113.373Z" fill="#9A4A4D"/>
<path d="M302.666 98.8668L305.66 96.7824C305.533 96.5819 305.367 96.4091 305.171 96.2746C304.976 96.14 304.755 96.0464 304.522 95.9994C304.289 95.9524 304.049 95.953 303.817 96.0011C303.584 96.0492 303.364 96.1438 303.169 96.2793C302.767 96.5625 302.491 96.9898 302.397 97.4719C302.304 97.9541 302.4 98.4538 302.666 98.8668Z" fill="#263238"/>
<path d="M303.361 102.341C303.359 102.632 303.443 102.917 303.602 103.161C303.761 103.405 303.988 103.597 304.255 103.713C304.522 103.829 304.817 103.864 305.104 103.814C305.39 103.764 305.656 103.63 305.868 103.43C306.079 103.23 306.227 102.972 306.293 102.688C306.359 102.405 306.341 102.108 306.24 101.835C306.139 101.562 305.959 101.325 305.725 101.153C305.49 100.981 305.209 100.881 304.919 100.867C304.518 100.861 304.131 101.011 303.84 101.287C303.549 101.562 303.377 101.94 303.361 102.341Z" fill="#263238"/>
<path d="M310.597 101.49L310.357 110.391L305.673 108.941L310.597 101.49Z" fill="#9A4A4D"/>
<path d="M315.555 121.603C319.329 121.1 327.115 118.86 328.325 115.793C327.845 117.348 326.895 118.717 325.606 119.71C323.282 121.711 315.555 123.951 315.555 123.951V121.603Z" fill="#9A4A4D"/>
<path d="M344.472 76.897C339.609 78.9215 340.699 83.0902 342.736 87.9537C344.772 92.8172 346.988 96.5187 351.78 94.4344C353.066 94.0485 354.257 93.3966 355.275 92.5209C356.293 91.6452 357.116 90.5652 357.69 89.3511C358.264 88.1369 358.577 86.8157 358.607 85.473C358.638 84.1304 358.386 82.7963 357.868 81.5573C357.349 80.3183 356.576 79.2021 355.599 78.281C354.622 77.3599 353.462 76.6545 352.194 76.2105C350.927 75.7666 349.58 75.5941 348.241 75.7041C346.903 75.8141 345.603 76.2042 344.425 76.8491L344.472 76.897Z" fill="#263238"/>
<path d="M340.197 81.2574L338.496 73.1476C339.017 73.0164 339.559 72.9912 340.09 73.0734C340.621 73.1556 341.13 73.3437 341.587 73.6263C342.043 73.909 342.439 74.2805 342.75 74.7189C343.06 75.1572 343.28 75.6535 343.395 76.1783C343.62 77.274 343.413 78.4142 342.817 79.3607C342.221 80.3072 341.282 80.9867 340.197 81.2574Z" fill="#263238"/>
<path d="M380.111 181.75H126.214V239.885H380.111V181.75Z" fill="#12A8FC"/>
<path d="M160.751 224.228C160.531 224.024 160.373 223.763 160.296 223.473L154.126 203.444C154.105 203.321 154.105 203.196 154.126 203.073C154.126 202.677 154.366 202.486 154.857 202.486H158.379C158.648 202.458 158.918 202.521 159.146 202.666C159.326 202.832 159.44 203.057 159.469 203.3L163.446 217.28L167.962 205.301C168.049 205.052 168.192 204.826 168.382 204.642C168.59 204.484 168.852 204.411 169.112 204.438H171.077C171.326 204.417 171.575 204.481 171.784 204.618C171.962 204.814 172.093 205.047 172.167 205.301L176.647 217.28L180.66 203.3C180.72 203.068 180.83 202.851 180.984 202.666C181.215 202.518 181.49 202.455 181.762 202.486H185.272C185.763 202.486 186.003 202.677 186.003 203.073C186.018 203.196 186.018 203.321 186.003 203.444L179.738 223.449C179.673 223.745 179.524 224.016 179.307 224.228C179.063 224.367 178.783 224.43 178.504 224.408H175.689C175.429 224.427 175.17 224.355 174.958 224.204C174.759 223.984 174.604 223.728 174.503 223.449L169.939 211.159L165.363 223.449C165.264 223.734 165.1 223.993 164.884 224.204C164.662 224.354 164.396 224.426 164.129 224.408H161.53C161.258 224.422 160.988 224.36 160.751 224.228Z" fill="white"/>
<path d="M192.866 223.904C190.998 223.139 189.4 221.833 188.278 220.155C187.077 218.27 186.479 216.064 186.565 213.83C186.565 209.901 187.615 206.918 189.716 204.882C191.812 202.845 194.795 201.815 198.664 201.815C202.533 201.815 205.408 202.809 207.373 204.786C209.337 206.762 210.32 209.577 210.32 213.375C210.32 214.441 209.829 214.98 208.858 214.98H192.088C192.042 215.865 192.21 216.748 192.577 217.555C192.944 218.362 193.499 219.068 194.196 219.616C195.911 220.788 197.968 221.357 200.042 221.233C202.309 221.267 204.545 220.701 206.522 219.592C206.673 219.491 206.845 219.425 207.026 219.4C207.241 219.4 207.409 219.544 207.529 219.82L208.631 221.784C208.711 221.94 208.756 222.112 208.762 222.287C208.749 222.411 208.705 222.53 208.634 222.633C208.563 222.736 208.467 222.819 208.355 222.874C207.1 223.641 205.734 224.211 204.306 224.563C202.671 224.954 200.993 225.139 199.311 225.114C197.103 225.146 194.912 224.734 192.866 223.904ZM205.013 211.59C205.058 210.786 204.943 209.981 204.673 209.222C204.404 208.463 203.986 207.765 203.444 207.17C202.804 206.597 202.055 206.16 201.242 205.884C200.429 205.608 199.568 205.499 198.712 205.564C196.923 205.448 195.16 206.037 193.801 207.206C193.226 207.777 192.777 208.462 192.482 209.217C192.187 209.972 192.053 210.78 192.088 211.59H205.013Z" fill="white"/>
<path d="M215.219 224.024C214.942 223.689 214.801 223.261 214.824 222.826V195.059C214.786 194.597 214.928 194.138 215.219 193.777C215.395 193.623 215.601 193.508 215.823 193.438C216.046 193.368 216.281 193.345 216.513 193.37H218.909C219.388 193.324 219.866 193.471 220.238 193.777C220.387 193.953 220.5 194.157 220.57 194.377C220.64 194.597 220.666 194.829 220.646 195.059V222.79C220.672 223.224 220.535 223.651 220.262 223.988C219.882 224.296 219.396 224.442 218.909 224.396H216.513C216.283 224.423 216.051 224.404 215.829 224.34C215.606 224.277 215.399 224.169 215.219 224.024Z" fill="white"/>
<path d="M228.516 222.12C227.351 221.032 226.442 219.7 225.854 218.219C225.265 216.738 225.013 215.145 225.114 213.555C225.069 211.411 225.607 209.295 226.671 207.433C227.722 205.655 229.266 204.22 231.116 203.3C233.23 202.275 235.558 201.766 237.908 201.815C239.554 201.787 241.197 201.972 242.795 202.366C244.137 202.734 245.403 203.338 246.533 204.151C246.646 204.206 246.744 204.289 246.817 204.391C246.89 204.494 246.937 204.613 246.952 204.738C246.933 204.97 246.854 205.192 246.724 205.385L245.526 207.529C245.335 207.829 245.167 207.984 245.023 207.984C244.785 207.959 244.56 207.863 244.376 207.709C243.498 207.165 242.557 206.731 241.573 206.415C240.497 206.097 239.377 205.948 238.255 205.972C237.265 205.921 236.274 206.076 235.347 206.426C234.419 206.777 233.574 207.315 232.865 208.008C232.188 208.758 231.666 209.634 231.329 210.585C230.992 211.537 230.846 212.546 230.9 213.555C230.823 214.567 230.959 215.584 231.297 216.541C231.635 217.498 232.169 218.374 232.865 219.113C234.476 220.447 236.54 221.108 238.626 220.958C240.789 221.021 242.916 220.396 244.7 219.173C244.877 219.048 245.083 218.97 245.299 218.945C245.479 218.945 245.658 219.101 245.838 219.4L247.168 221.64C247.282 221.783 247.346 221.96 247.347 222.144C247.347 222.359 247.192 222.575 246.892 222.79C245.683 223.578 244.357 224.168 242.963 224.539C241.35 224.948 239.691 225.142 238.027 225.114C233.955 225.114 230.784 224.116 228.516 222.12Z" fill="white"/>
<path d="M254.138 221.988C252.061 219.637 250.915 216.608 250.915 213.471C250.915 210.334 252.061 207.305 254.138 204.954C256.282 202.869 259.337 201.815 263.302 201.815C267.267 201.815 270.322 202.869 272.478 204.954C274.569 207.298 275.725 210.329 275.725 213.471C275.725 216.612 274.569 219.644 272.478 221.988C270.322 224.072 267.255 225.114 263.302 225.114C259.349 225.114 256.282 224.072 254.138 221.988ZM268.225 218.945C269.463 217.4 270.07 215.445 269.926 213.471C270.069 211.515 269.461 209.579 268.225 208.056C266.867 206.859 265.118 206.199 263.308 206.199C261.497 206.199 259.749 206.859 258.391 208.056C257.146 209.575 256.533 211.513 256.678 213.471C256.54 215.439 257.152 217.386 258.391 218.921C259.738 220.14 261.491 220.815 263.308 220.815C265.125 220.815 266.878 220.14 268.225 218.921V218.945Z" fill="white"/>
<path d="M280.613 224.024C280.323 223.695 280.172 223.265 280.194 222.826V203.78C280.163 203.438 280.247 203.097 280.433 202.809C280.577 202.63 280.9 202.546 281.392 202.546H283.787C284.048 202.519 284.309 202.592 284.518 202.749C284.69 202.945 284.787 203.196 284.794 203.456L284.925 205.373C285.745 204.302 286.782 203.416 287.968 202.773C289.232 202.132 290.636 201.815 292.053 201.851C293.28 201.821 294.49 202.132 295.551 202.749C296.551 203.352 297.315 204.277 297.719 205.373C298.535 204.223 299.628 203.297 300.897 202.681C302.166 202.066 303.57 201.78 304.978 201.851C305.924 201.805 306.87 201.956 307.754 202.294C308.639 202.632 309.444 203.15 310.117 203.816C311.487 205.442 312.167 207.54 312.01 209.661V222.838C312.032 223.271 311.896 223.697 311.627 224.036C311.246 224.344 310.76 224.49 310.273 224.444H308.261C307.786 224.481 307.314 224.335 306.943 224.036C306.657 223.705 306.511 223.275 306.536 222.838V209.949C306.639 208.864 306.317 207.782 305.637 206.93C305.277 206.606 304.854 206.358 304.395 206.202C303.936 206.045 303.45 205.983 302.966 206.02C302.405 205.995 301.845 206.089 301.323 206.295C300.8 206.501 300.328 206.816 299.935 207.218C299.115 208.128 298.684 209.324 298.737 210.548V222.754C298.762 223.191 298.616 223.621 298.33 223.952C297.955 224.253 297.479 224.399 297 224.36H295.132C294.656 224.402 294.183 224.256 293.814 223.952C293.524 223.623 293.373 223.193 293.395 222.754V209.721C293.481 208.722 293.2 207.725 292.604 206.918C292.269 206.596 291.869 206.349 291.431 206.194C290.993 206.039 290.527 205.98 290.064 206.02C289.469 205.998 288.876 206.104 288.325 206.329C287.774 206.554 287.276 206.894 286.866 207.325C286.032 208.256 285.601 209.48 285.668 210.727V222.79C285.69 223.223 285.554 223.649 285.285 223.988C284.904 224.296 284.418 224.442 283.931 224.396H281.919C281.452 224.442 280.985 224.309 280.613 224.024Z" fill="white"/>
<path d="M322.587 223.905C320.727 223.155 319.13 221.871 317.999 220.215C316.798 218.33 316.2 216.124 316.286 213.89C316.286 209.961 317.336 206.978 319.436 204.942C321.533 202.905 324.516 201.875 328.385 201.875C332.254 201.875 335.129 202.869 337.094 204.846C339.058 206.822 340.04 209.637 340.04 213.435C340.04 214.501 339.549 215.04 338.579 215.04H321.832C321.787 215.925 321.955 216.808 322.321 217.615C322.688 218.422 323.244 219.128 323.941 219.676C325.655 220.85 327.712 221.419 329.786 221.293C332.053 221.325 334.289 220.759 336.267 219.652C336.418 219.551 336.59 219.485 336.77 219.46C336.986 219.46 337.154 219.604 337.273 219.88L338.375 221.844C338.456 222 338.501 222.172 338.507 222.347C338.494 222.471 338.45 222.59 338.379 222.693C338.308 222.796 338.212 222.879 338.1 222.934C336.845 223.701 335.479 224.271 334.051 224.623C332.415 225.014 330.737 225.199 329.056 225.174C326.836 225.19 324.636 224.758 322.587 223.905ZM334.734 211.59C334.779 210.786 334.663 209.981 334.394 209.222C334.125 208.463 333.707 207.765 333.164 207.17C332.524 206.598 331.775 206.161 330.962 205.885C330.149 205.609 329.289 205.5 328.433 205.565C326.644 205.445 324.879 206.035 323.521 207.206C322.951 207.779 322.507 208.466 322.216 209.22C321.925 209.975 321.794 210.782 321.832 211.59H334.734Z" fill="white"/>
<path d="M343.599 222.611V221.64C343.599 220.371 344.498 219.724 346.294 219.724H347.492C349.289 219.724 350.188 220.371 350.188 221.64V222.611C350.188 223.857 349.289 224.48 347.492 224.48H346.294C344.498 224.448 343.599 223.825 343.599 222.611ZM344.581 215.423C344.321 215.058 344.198 214.613 344.234 214.166L343.97 195.059C343.93 194.598 344.067 194.14 344.354 193.777C344.533 193.624 344.74 193.51 344.965 193.44C345.189 193.37 345.426 193.346 345.66 193.37H348.187C348.421 193.346 348.657 193.37 348.882 193.44C349.106 193.51 349.314 193.624 349.493 193.777C349.78 194.14 349.917 194.598 349.876 195.059L349.565 214.154C349.601 214.601 349.478 215.046 349.217 215.411C348.883 215.691 348.453 215.828 348.019 215.795H345.779C345.566 215.825 345.349 215.808 345.144 215.744C344.939 215.68 344.751 215.57 344.593 215.423H344.581Z" fill="white"/>
<path d="M126.214 192.244C125.471 194.316 123.818 195.298 122.62 197.359C121.422 199.419 120.919 205.577 122.273 208.14C123.305 209.939 124.755 211.462 126.5 212.582C128.245 213.701 130.235 214.384 132.299 214.573C134.032 214.644 135.742 214.166 137.187 213.207C137.86 212.756 138.455 212.197 138.948 211.554C139.398 210.865 139.738 210.109 139.954 209.314C139.971 209.251 140.004 209.193 140.05 209.146C140.115 209.105 140.189 209.08 140.266 209.074C140.79 208.999 141.284 208.779 141.691 208.44C141.894 208.269 142.057 208.057 142.169 207.817C142.281 207.577 142.338 207.315 142.338 207.05C142.298 206.713 142.178 206.391 141.989 206.109C141.799 205.828 141.545 205.596 141.248 205.433C140.643 205.121 140.003 204.88 139.343 204.714C137.75 204.199 136.277 203.396 134.719 202.809C131.563 201.687 128.666 199.939 126.202 197.67L126.214 192.244Z" fill="#FFA8A7"/>
<path d="M380.123 194.113C380.866 196.209 382.519 197.203 383.717 199.299C384.915 201.396 385.442 207.685 384.076 210.236C383.029 212.063 381.557 213.61 379.784 214.747C378.011 215.883 375.991 216.576 373.894 216.765C372.228 216.881 370.57 216.453 369.168 215.546C367.766 214.638 366.696 213.301 366.119 211.734C365.029 207.96 366.91 206.535 371.438 204.822C374.644 203.687 377.586 201.915 380.087 199.611L380.123 194.113Z" fill="#B16668"/>
<path d="M269.124 176.695C275.833 177.785 277.761 181.75 277.761 181.75H272.275C272.275 181.75 271.58 183.595 273.473 190.507C274.12 192.902 270.538 192.998 270.43 192.088C269.783 193.573 265.064 195.682 261.542 193.286C258.307 191.142 256.87 187.859 257.589 181.714C258.775 174.874 267.927 176.503 269.124 176.695Z" fill="#B16668"/>
</svg>
