<svg width="18" height="21" viewBox="0 0 18 21" fill="none" xmlns="http://www.w3.org/2000/svg">
<path d="M16.875 17.8125H1.125C0.50368 17.8125 0 18.3162 0 18.9375C0 19.5588 0.50368 20.0625 1.125 20.0625H16.875C17.4963 20.0625 18 19.5588 18 18.9375C18 18.3162 17.4963 17.8125 16.875 17.8125Z" fill="#68716D"/>
<path d="M0 16.6875L0 18.9375C0 19.5588 0.50368 20.0625 1.125 20.0625C1.74632 20.0625 2.25 19.5588 2.25 18.9375V16.6875C2.25 16.0662 1.74632 15.5625 1.125 15.5625C0.50368 15.5625 0 16.0662 0 16.6875Z" fill="#68716D"/>
<path d="M15.75 16.6875V18.9375C15.75 19.5588 16.2537 20.0625 16.875 20.0625C17.4963 20.0625 18 19.5588 18 18.9375V16.6875C18 16.0662 17.4963 15.5625 16.875 15.5625C16.2537 15.5625 15.75 16.0662 15.75 16.6875Z" fill="#68716D"/>
<path d="M9.00013 14.4375C8.76689 14.4393 8.53888 14.3685 8.34763 14.235L3.84763 11.0625C3.60509 10.8905 3.44054 10.6294 3.38994 10.3363C3.33935 10.0433 3.40683 9.74217 3.57763 9.49875C3.66289 9.37708 3.7714 9.2735 3.89691 9.194C4.02242 9.11449 4.16243 9.06063 4.30886 9.03553C4.45529 9.01043 4.60525 9.01458 4.75007 9.04774C4.89489 9.08091 5.03171 9.14243 5.15263 9.22875L9.00013 11.9175L12.8251 9.0375C13.0638 8.85848 13.3639 8.78162 13.6592 8.82381C13.9546 8.86601 14.2211 9.02381 14.4001 9.2625C14.5791 9.5012 14.656 9.80123 14.6138 10.0966C14.5716 10.392 14.4138 10.6585 14.1751 10.8375L9.67513 14.2125C9.4804 14.3586 9.24354 14.4375 9.00013 14.4375Z" fill="#68716D"/>
<path d="M9 12.1875C8.70163 12.1875 8.41548 12.069 8.20451 11.858C7.99353 11.647 7.875 11.3609 7.875 11.0625V2.0625C7.875 1.76413 7.99353 1.47798 8.20451 1.267C8.41548 1.05603 8.70163 0.9375 9 0.9375C9.29837 0.9375 9.58452 1.05603 9.79549 1.267C10.0065 1.47798 10.125 1.76413 10.125 2.0625V11.0625C10.125 11.3609 10.0065 11.647 9.79549 11.858C9.58452 12.069 9.29837 12.1875 9 12.1875Z" fill="#68716D"/>
</svg>
