<svg width="17" height="17" viewBox="0 0 17 17" fill="none" xmlns="http://www.w3.org/2000/svg">
<path d="M13.9483 11.0357C13.158 11.0357 12.4401 11.3316 11.8981 11.8134L6.06419 8.9061C6.08745 8.75773 6.1031 8.60696 6.1031 8.45204C6.1031 8.36485 6.09728 8.27897 6.08968 8.19354L11.979 5.25914C12.5107 5.69879 13.1973 5.96494 13.9486 5.96494C15.6337 5.96494 17 4.62983 17 2.98269C17 1.33554 15.6337 0 13.9486 0C12.263 0 10.8967 1.33533 10.8967 2.98269C10.8967 3.07359 10.9025 3.16318 10.9108 3.25189L5.02901 6.18279C4.49644 5.73899 3.80669 5.46957 3.05188 5.46957C1.36653 5.46957 0 6.80489 0 8.45204C0 10.0992 1.36653 11.4345 3.05188 11.4345C3.73157 11.4345 4.35693 11.2147 4.86401 10.8476L10.9047 13.8576C10.9018 13.9109 10.8965 13.9636 10.8965 14.0175C10.8965 15.6649 12.2628 17 13.9483 17C15.6335 17 16.9998 15.6649 16.9998 14.0175C17 12.3708 15.6335 11.0357 13.9483 11.0357Z" fill="#68716D"/>
</svg>
