<svg width="19" height="17" viewBox="0 0 19 17" fill="none" xmlns="http://www.w3.org/2000/svg">
<path fill-rule="evenodd" clip-rule="evenodd" d="M9.5 3C5.43972 3 1.89738 5.2131 0 8.5C1.89717 11.7869 5.43972 14 9.5 14C13.5603 14 17.1026 11.7869 19 8.5C17.1026 5.2131 13.5603 3 9.5 3ZM9.43172 11.8846C7.56732 11.8846 6.05618 10.3693 6.05618 8.50021C6.05618 6.63092 7.56753 5.11581 9.43172 5.11581C11.2961 5.11581 12.8073 6.63113 12.8073 8.50021C12.8075 10.3693 11.2961 11.8846 9.43172 11.8846ZM7.61087 8.50021C7.61087 7.41263 8.49011 6.53108 9.57484 6.53108C10.6596 6.53108 11.5388 7.41263 11.5388 8.50021C11.5388 9.58779 10.6596 10.4693 9.57484 10.4693C8.49011 10.4693 7.61087 9.58779 7.61087 8.50021Z" fill="#68716D"/>
</svg>
