<svg width="13" height="17" viewBox="0 0 13 17" fill="none" xmlns="http://www.w3.org/2000/svg">
<path d="M10.0533 17C9.4222 17.0007 8.8101 16.7841 8.31994 16.3866L1.51995 10.7733C1.25329 10.561 1.03794 10.2913 0.889921 9.98429C0.741907 9.67727 0.665039 9.34081 0.665039 8.99997C0.665039 8.65913 0.741907 8.32267 0.889921 8.01565C1.03794 7.70862 1.25329 7.43893 1.51995 7.22664L8.31994 1.6133C8.72932 1.2853 9.22261 1.07888 9.74359 1.01759C10.2646 0.956301 10.7923 1.04259 11.2666 1.26664C11.6788 1.44834 12.0301 1.74487 12.2783 2.1208C12.5266 2.49672 12.6614 2.93617 12.6666 3.38664V14.6133C12.6614 15.0638 12.5266 15.5032 12.2783 15.8791C12.0301 16.2551 11.6788 16.5516 11.2666 16.7333C10.8855 16.9066 10.472 16.9975 10.0533 17V17Z" fill="#E1E3E2"/>
</svg>
