<svg width="16" height="16" viewBox="0 0 16 16" fill="none" xmlns="http://www.w3.org/2000/svg">
<rect width="16" height="16" rx="4" fill="#12A8FC"/>
<path d="M6.40915 12.4686C6.30691 12.4683 6.20582 12.4469 6.11218 12.4059C6.01853 12.3648 5.93433 12.3049 5.8648 12.23L2.24078 8.37478C2.1053 8.23041 2.03273 8.03814 2.03903 7.84026C2.04532 7.64238 2.12996 7.45511 2.27433 7.31964C2.4187 7.18416 2.61097 7.11159 2.80885 7.11789C3.00673 7.12418 3.194 7.20882 3.32947 7.35319L6.40169 10.6267L12.6729 3.76645C12.7365 3.6872 12.8157 3.6218 12.9056 3.57426C12.9954 3.52672 13.094 3.49805 13.1953 3.49001C13.2966 3.48197 13.3985 3.49472 13.4947 3.5275C13.591 3.56027 13.6795 3.61236 13.7548 3.68058C13.8301 3.7488 13.8908 3.8317 13.9329 3.92419C13.975 4.01669 13.9978 4.11682 13.9999 4.21844C14.0019 4.32006 13.9831 4.42102 13.9447 4.51512C13.9063 4.60923 13.8491 4.69449 13.7765 4.76567L6.96096 12.2225C6.89209 12.2988 6.80818 12.3601 6.7145 12.4024C6.62082 12.4448 6.5194 12.4673 6.41661 12.4686H6.40915Z" fill="white"/>
</svg>
