<svg width="9" height="14" viewBox="0 0 9 14" fill="none" xmlns="http://www.w3.org/2000/svg">
<path d="M8.66659 6.72461C8.6676 6.90008 8.63397 7.07403 8.56762 7.23648C8.50126 7.39893 8.4035 7.54669 8.27992 7.67127L2.94659 13.0046C2.82227 13.1289 2.67468 13.2275 2.51225 13.2948C2.34982 13.3621 2.17573 13.3967 1.99992 13.3967C1.82411 13.3967 1.65002 13.3621 1.48759 13.2948C1.32516 13.2275 1.17757 13.1289 1.05325 13.0046C0.928936 12.8803 0.830322 12.7327 0.763041 12.5703C0.695761 12.4078 0.661133 12.2338 0.661133 12.0579C0.661133 11.8821 0.695761 11.708 0.763041 11.5456C0.830322 11.3832 0.928936 11.2356 1.05325 11.1113L5.46659 6.72461L1.22659 2.3246C1.0902 2.20195 0.980589 2.05247 0.904608 1.88552C0.828626 1.71857 0.78791 1.53774 0.785004 1.35434C0.782099 1.17093 0.817066 0.988899 0.88772 0.819626C0.958375 0.650352 1.0632 0.497478 1.19563 0.370564C1.32806 0.243649 1.48526 0.145424 1.65738 0.0820331C1.82951 0.0186424 2.01286 -0.0085507 2.19598 0.00215333C2.37909 0.0128574 2.55803 0.0612296 2.7216 0.144243C2.88516 0.227257 3.02984 0.343126 3.14659 0.484606L8.29326 5.81794C8.52834 6.06177 8.66182 6.38593 8.66659 6.72461Z" fill="#E1E3E2"/>
</svg>
