<svg width="75" height="75" viewBox="0 0 75 75" fill="none" xmlns="http://www.w3.org/2000/svg">
<path d="M59.1287 34.4534L58.6353 34.534L58.6959 34.9051L59.0692 34.9498L59.1287 34.4534ZM24.0963 28.6399L23.962 29.1215L24.3474 29.229L24.5368 28.8765L24.0963 28.6399ZM59.6222 34.3728C58.128 25.2285 50.1919 18.25 40.625 18.25V19.25C49.694 19.25 57.2188 25.8655 58.6353 34.534L59.6222 34.3728ZM69.25 45.3125C69.25 39.4612 64.8566 34.6368 59.1883 33.9569L59.0692 34.9498C64.2409 35.5701 68.25 39.9735 68.25 45.3125H69.25ZM57.8125 56.75C64.1293 56.75 69.25 51.6293 69.25 45.3125H68.25C68.25 51.077 63.577 55.75 57.8125 55.75V56.75ZM40.625 56.75H57.8125V55.75H40.625V56.75ZM20.3125 56.75H40.625V55.75H20.3125V56.75ZM5.75 42.1875C5.75 50.2301 12.2699 56.75 20.3125 56.75V55.75C12.8221 55.75 6.75 49.6779 6.75 42.1875H5.75ZM20.3125 27.625C12.2699 27.625 5.75 34.1449 5.75 42.1875H6.75C6.75 34.6971 12.8221 28.625 20.3125 28.625V27.625ZM24.2305 28.1583C22.9833 27.8107 21.6692 27.625 20.3125 27.625V28.625C21.5776 28.625 22.8014 28.7981 23.962 29.1215L24.2305 28.1583ZM40.625 18.25C33.283 18.25 26.9018 22.3605 23.6558 28.4033L24.5368 28.8765C27.6155 23.1451 33.6657 19.25 40.625 19.25V18.25Z" fill="black"/>
<path d="M37.5 34.375V46.875" stroke="black" stroke-linecap="round"/>
<path d="M43.75 37.5L37.5 31.25L31.25 37.5" stroke="black" stroke-linecap="round"/>
</svg>
