<svg width="27" height="27" viewBox="0 0 27 27" fill="none" xmlns="http://www.w3.org/2000/svg">
<path fill-rule="evenodd" clip-rule="evenodd" d="M13.5 24.75C19.7132 24.75 24.75 19.7132 24.75 13.5C24.75 7.2868 19.7132 2.25 13.5 2.25C7.2868 2.25 2.25 7.2868 2.25 13.5C2.25 19.7132 7.2868 24.75 13.5 24.75Z" stroke="#777777"/>
<path fill-rule="evenodd" clip-rule="evenodd" d="M13.5 23.625C13.5 23.625 18 19.9432 18 13.5C18 7.05682 13.5 3.375 13.5 3.375C13.5 3.375 9 7.05682 9 13.5C9 19.9432 13.5 23.625 13.5 23.625Z" stroke="#777777"/>
<path d="M2.8125 10.125H24.1875" stroke="#777777" stroke-linecap="round"/>
<path d="M2.8125 16.875H24.1875" stroke="#777777" stroke-linecap="round"/>
</svg>
