<svg width="14" height="20" viewBox="0 0 14 20" fill="none" xmlns="http://www.w3.org/2000/svg">
<path d="M4.25065 18.2497C4.25065 18.7538 4.66315 19.1663 5.16732 19.1663H8.83399C9.33815 19.1663 9.75065 18.7538 9.75065 18.2497V17.333H4.25065V18.2497ZM7.00065 0.833008C3.45773 0.833008 0.583984 3.70676 0.583984 7.24967C0.583984 9.43134 1.67482 11.3518 3.33398 12.5113V14.583C3.33398 15.0872 3.74648 15.4997 4.25065 15.4997H9.75065C10.2548 15.4997 10.6673 15.0872 10.6673 14.583V12.5113C12.3265 11.3518 13.4173 9.43134 13.4173 7.24967C13.4173 3.70676 10.5436 0.833008 7.00065 0.833008ZM9.61773 11.008L8.83399 11.5534V13.6663H5.16732V11.558L4.38357 11.0126C3.15065 10.1509 2.41732 8.74842 2.41732 7.25426C2.41732 4.72884 4.47523 2.67092 7.00065 2.67092C9.52607 2.67092 11.584 4.72884 11.584 7.25426C11.584 8.74384 10.8507 10.1463 9.61773 11.008Z" fill="#12A8FC"/>
</svg>
