<svg width="397" height="51" viewBox="0 0 397 51" fill="none" xmlns="http://www.w3.org/2000/svg">
<path d="M23.0426 47.1571C23.0426 48.9234 24.4803 50.3552 26.2538 50.3552C28.0274 50.3552 29.4651 48.9234 29.4651 47.1571L29.4651 30.441C29.4651 28.6748 28.0274 27.2429 26.2538 27.2429C24.4803 27.2429 23.0426 28.6748 23.0426 30.441L23.0426 47.1571Z" fill="#12A8FC"/>
<path d="M14.7853 45.526C14.7853 47.2922 16.223 48.7241 17.9965 48.7241C19.77 48.7241 21.2078 47.2922 21.2078 45.526V35.2061C21.2078 33.4398 19.77 32.008 17.9965 32.008C16.223 32.008 14.7853 33.4398 14.7853 35.2061L14.7853 45.526Z" fill="#12A8FC"/>
<path d="M39.5039 40.1237C39.5039 41.7861 40.857 43.1337 42.5262 43.1337C44.1954 43.1337 45.5486 41.7861 45.5486 40.1237C45.5486 38.4614 44.1954 37.1138 42.5262 37.1138C40.857 37.1138 39.5039 38.4614 39.5039 40.1237Z" fill="#12A8FC"/>
<path d="M9.93053 37.1142C8.26134 37.1142 6.90819 38.4619 6.90819 40.1242C6.90819 41.7866 8.26134 43.1342 9.93053 43.1342C11.5997 43.1342 12.9529 41.7866 12.9529 40.1242C12.9529 38.4619 11.5997 37.1142 9.93053 37.1142Z" fill="#12A8FC"/>
<path d="M31.3004 45.5528C31.3004 47.3043 32.7261 48.7241 34.4847 48.7241C36.2433 48.7241 37.6689 47.3043 37.6689 45.5528V35.1792C37.6689 33.4278 36.2433 32.008 34.4847 32.008C32.7261 32.008 31.3004 33.4278 31.3004 35.1792V45.5528Z" fill="#12A8FC"/>
<path d="M46.6188 17.272C48.147 16.3758 48.6563 14.4154 47.7564 12.8934C46.8565 11.3715 44.8881 10.8642 43.3598 11.7604L28.8964 20.2426C27.3682 21.1389 26.8589 23.0992 27.7588 24.6212C28.6587 26.1432 30.6271 26.6504 32.1554 25.7542L46.6188 17.272Z" fill="#FFB126"/>
<path d="M49.3973 25.1864C50.9256 24.2901 51.4349 22.3298 50.535 20.8078C49.6351 19.2858 47.6666 18.7785 46.1384 19.6748L37.2093 24.9114C35.681 25.8076 35.1717 27.768 36.0716 29.29C36.9715 30.8119 38.9399 31.3192 40.4682 30.4229L49.3973 25.1864Z" fill="#FFB126"/>
<path d="M32.1806 6.7147C33.6189 5.87118 34.0983 4.02613 33.2513 2.59368C32.4043 1.16123 30.5517 0.683806 29.1134 1.52733C27.675 2.37086 27.1957 4.2159 28.0426 5.64836C28.8896 7.08081 30.7423 7.55823 32.1806 6.7147Z" fill="#FFB126"/>
<path d="M44.5825 33.6207C45.4295 35.0532 47.2821 35.5306 48.7205 34.6871C50.1588 33.8436 50.6382 31.9985 49.7912 30.5661C48.9442 29.1336 47.0916 28.6562 45.6532 29.4997C44.2149 30.3432 43.7355 32.1883 44.5825 33.6207Z" fill="#FFB126"/>
<path d="M41.0407 10.9995C42.5561 10.1108 43.0611 8.16689 42.1688 6.6577C41.2764 5.14851 39.3245 4.64551 37.8091 5.53422L28.8335 10.7981C27.3181 11.6868 26.813 13.6307 27.7054 15.1399C28.5977 16.6491 30.5496 17.1521 32.065 16.2633L41.0407 10.9995Z" fill="#FFB126"/>
<path d="M5.50752 17.3735C3.97161 16.4904 3.44537 14.5345 4.33212 13.0048C5.21888 11.4752 7.18285 10.9511 8.71876 11.8343L23.2548 20.1923C24.7907 21.0754 25.317 23.0314 24.4302 24.561C23.5435 26.0906 21.5795 26.6147 20.0436 25.7316L5.50752 17.3735Z" fill="#2DDA77"/>
<path d="M2.78096 25.3014C1.24505 24.4183 0.718802 22.4624 1.60556 20.9327C2.49232 19.4031 4.45629 18.879 5.9922 19.7622L14.9662 24.9221C16.5021 25.8052 17.0284 27.7612 16.1416 29.2908C15.2549 30.8204 13.2909 31.3445 11.755 30.4614L2.78096 25.3014Z" fill="#2DDA77"/>
<path d="M20.2584 6.92556C18.8129 6.09438 18.3176 4.2535 19.1522 2.81386C19.9868 1.37421 21.8352 0.880945 23.2808 1.71213C24.7263 2.54331 25.2216 4.38418 24.387 5.82383C23.5524 7.26348 21.704 7.75674 20.2584 6.92556Z" fill="#2DDA77"/>
<path d="M8.08916 33.9364C7.25456 35.376 5.40613 35.8693 3.96056 35.0381C2.51499 34.2069 2.01971 32.366 2.85431 30.9264C3.6889 29.4867 5.53734 28.9935 6.98291 29.8247C8.42847 30.6558 8.92376 32.4967 8.08916 33.9364Z" fill="#2DDA77"/>
<path d="M11.015 11.0439C9.49203 10.1682 8.97021 8.22871 9.84952 6.71194C10.7288 5.19516 12.6763 4.67548 14.1993 5.55119L23.2201 10.738C24.7431 11.6137 25.2649 13.5532 24.3856 15.07C23.5063 16.5868 21.5588 17.1064 20.0358 16.2307L11.015 11.0439Z" fill="#2DDA77"/>
<path d="M71.9208 43.1609C74.9802 43.1609 77.4748 42.411 79.3105 40.8642C81.1934 39.317 82.1348 37.3484 82.1348 34.9577C82.1348 32.1452 80.6756 29.9889 77.8043 28.4889C77.0983 28.1137 75.0272 27.2701 71.6384 26.0042C70.1321 25.4887 69.3792 24.7387 69.3792 23.6606C69.3792 22.4886 70.5557 21.5042 72.2973 21.5042C74.4154 21.5042 76.3924 22.348 78.181 24.0355L81.4759 19.7698C79.1224 17.3323 76.11 16.1135 72.4857 16.1135C69.6143 16.1135 67.2611 16.8166 65.5195 18.2698C63.7779 19.7229 62.8836 21.5511 62.8836 23.8012C62.8836 26.8012 64.3427 29.0043 67.3081 30.4107C67.873 30.692 68.9554 31.1606 70.603 31.77C72.2502 32.3793 73.2386 32.7546 73.6624 32.9419C74.8862 33.5044 75.4981 34.2546 75.4981 35.1453C75.4981 36.5982 73.9919 37.6296 71.9678 37.6296C69.3792 37.6296 66.6962 36.2701 64.8606 34.067L61.3303 38.239C63.9192 41.5204 67.4492 43.1609 71.9208 43.1609ZM98.1425 43.1141C105.485 43.1141 109.91 38.8952 109.91 31.7231V16.9573H103.273V31.7231C103.273 34.9577 101.343 37.0671 98.1425 37.0671C94.9417 37.0671 93.012 34.9577 93.012 31.7231V16.9573H86.3753V31.7231C86.3753 38.8952 90.8469 43.1141 98.1425 43.1141ZM124.092 43.1609C127.151 43.1609 129.646 42.411 131.481 40.8642C133.364 39.317 134.306 37.3484 134.306 34.9577C134.306 32.1452 132.846 29.9889 129.975 28.4889C129.269 28.1137 127.198 27.2701 123.809 26.0042C122.303 25.4887 121.55 24.7387 121.55 23.6606C121.55 22.4886 122.727 21.5042 124.468 21.5042C126.586 21.5042 128.563 22.348 130.352 24.0355L133.647 19.7698C131.293 17.3323 128.281 16.1135 124.656 16.1135C121.785 16.1135 119.432 16.8166 117.69 18.2698C115.949 19.7229 115.054 21.5511 115.054 23.8012C115.054 26.8012 116.514 29.0043 119.479 30.4107C120.044 30.692 121.126 31.1606 122.774 31.77C124.421 32.3793 125.409 32.7546 125.833 32.9419C127.057 33.5044 127.669 34.2546 127.669 35.1453C127.669 36.5982 126.163 37.6296 124.139 37.6296C121.55 37.6296 118.867 36.2701 117.031 34.067L113.501 38.239C116.09 41.5204 119.62 43.1609 124.092 43.1609ZM155.03 35.8015C153.477 36.6922 152.018 37.1139 150.747 37.1139C148.346 37.1139 147.123 35.6139 147.123 32.6138V22.4886H155.595V16.9573H147.123V7.9102H140.533V16.9573H136.297V22.4886H140.486V33.0359C140.486 39.6454 143.545 43.1141 149.429 43.1141C152.394 43.1141 154.889 42.411 157.007 41.0047L155.03 35.8015ZM179.323 20.0042C177.064 17.5198 174.334 16.301 171.133 16.301C167.509 16.301 164.45 17.5667 162.049 20.098C159.649 22.5824 158.425 25.7701 158.425 29.6137C158.425 33.4576 159.602 36.6922 162.002 39.2702C164.403 41.8485 167.462 43.1141 171.133 43.1141C174.381 43.1141 177.111 41.9422 179.323 39.5514V42.5047H185.631V16.9573H179.323V20.0042ZM179.417 29.7077C179.417 31.77 178.711 33.5044 177.347 34.9577C175.981 36.4109 174.287 37.1139 172.216 37.1139C170.145 37.1139 168.45 36.4109 167.086 34.9577C165.72 33.5044 165.062 31.77 165.062 29.7077C165.062 27.6919 165.72 25.9574 167.039 24.5043C168.403 23.0512 170.098 22.348 172.216 22.348C174.287 22.348 175.981 23.0512 177.347 24.5043C178.711 25.9574 179.417 27.6919 179.417 29.7077ZM197.952 12.9259C199.505 11.379 199.505 8.66022 197.952 7.16018C196.399 5.61327 193.669 5.61327 192.116 7.16018C190.563 8.66022 190.563 11.379 192.116 12.9259C193.669 14.4728 196.399 14.4728 197.952 12.9259ZM198.329 16.9573H191.692V42.5047H198.329V16.9573ZM210.875 42.5047V28.817C210.875 25.02 213.229 22.348 216.76 22.348C220.005 22.348 222.172 24.5981 222.172 28.6762V42.5047H228.807V26.8949C228.807 23.4731 227.82 20.848 225.89 19.0198C223.96 17.1916 221.56 16.2541 218.782 16.2541C215.158 16.2541 212.099 18.0354 210.734 20.5199V16.9573H204.239V42.5047H210.875ZM252.443 39.5047C250.796 40.7703 248.866 41.3797 246.701 41.3797C243.077 41.3797 241.147 38.989 241.147 34.5357V19.2074H252.443V17.4729H241.147V8.61348H239.264V17.4729H234.793V19.2074H239.264V34.6764C239.264 39.8796 241.711 43.1142 246.559 43.1142C249.148 43.1142 251.408 42.364 253.338 40.9111L252.443 39.5047ZM259.325 42.5516V27.7388C259.325 25.1605 259.937 23.0042 261.114 21.2229C262.337 19.4416 264.22 18.5509 266.715 18.5509C267.703 18.5509 268.597 18.6917 269.445 18.973L269.727 17.2853C268.692 16.9572 267.609 16.8167 266.526 16.8167C262.996 16.8167 260.549 18.4573 259.184 21.6918V17.4729H257.442V42.5516H259.325ZM295.264 23.0982C293.24 19.2074 289.38 16.8636 284.673 16.8636C281.096 16.8636 278.13 18.1292 275.777 20.6135C273.424 23.0982 272.247 26.1919 272.247 29.895C272.247 33.645 273.424 36.7859 275.777 39.3639C278.178 41.8954 281.143 43.161 284.673 43.161C289.333 43.161 293.24 40.7234 295.264 36.7859V42.5516H297.146V17.4729H295.264V23.0982ZM284.626 41.4265C281.567 41.4265 279.072 40.3485 277.095 38.1451C275.118 35.942 274.13 33.1764 274.13 29.9419C274.13 26.7076 275.118 23.9888 277.095 21.8323C279.072 19.676 281.567 18.598 284.626 18.598C287.733 18.598 290.321 19.676 292.345 21.8794C294.416 24.0825 295.452 26.7076 295.452 29.8482C295.452 33.0827 294.416 35.8016 292.345 38.0515C290.321 40.3017 287.733 41.4265 284.626 41.4265ZM316.027 43.1142C320.922 43.1142 325.3 40.6766 327.371 36.739L325.864 35.8016C324.123 39.1297 320.31 41.3797 316.027 41.3797C312.92 41.3797 310.332 40.3485 308.308 38.2391C306.284 36.1297 305.295 33.364 305.295 30.0358C305.295 26.6605 306.331 23.8949 308.402 21.7854C310.473 19.676 313.109 18.598 316.309 18.598C320.64 18.598 324.311 20.7543 325.958 24.1293L327.512 23.2855C325.582 19.3011 321.346 16.8636 316.309 16.8636C312.591 16.8636 309.485 18.0823 307.037 20.5667C304.636 23.0042 303.413 26.1451 303.413 30.0358C303.413 33.8326 304.589 36.9735 306.943 39.4579C309.343 41.8954 312.356 43.1142 316.027 43.1142ZM352.212 42.5516L339.457 27.5043L350.612 17.4729H348.164L334.938 29.2388V7.25392H333.055V42.5516H334.938V31.5359L338.139 28.6294L349.859 42.5516H352.212ZM378.115 28.4418C378.115 24.8792 377.033 22.0667 374.821 20.0041C372.655 17.8947 369.925 16.8636 366.631 16.8636C362.912 16.8636 359.9 18.0823 357.593 20.5667C355.334 23.051 354.204 26.1451 354.204 29.9419C354.204 36.5046 358.017 43.1142 367.101 43.1142C371.243 43.1142 375.244 41.6141 377.551 39.6923L376.562 38.2859C374.303 40.1609 370.584 41.3797 367.148 41.3797C360.512 41.3797 356.417 37.2076 356.087 30.6452H377.974C378.068 29.5201 378.115 28.7699 378.115 28.4418ZM366.631 18.598C369.502 18.598 371.855 19.5355 373.597 21.4105C375.338 23.2387 376.233 25.7698 376.233 28.9107H356.134C356.323 25.7698 357.358 23.2855 359.288 21.4105C361.218 19.5355 363.665 18.598 366.631 18.598ZM386.098 42.5516V27.7388C386.098 25.1605 386.709 23.0042 387.886 21.2229C389.11 19.4416 390.993 18.5509 393.488 18.5509C394.475 18.5509 395.369 18.6917 396.217 18.973L396.5 17.2853C395.464 16.9572 394.383 16.8167 393.298 16.8167C389.769 16.8167 387.321 18.4573 385.956 21.6918V17.4729H384.215V42.5516H386.098Z" fill="#141E30"/>
</svg>
