<svg width="38" height="36" viewBox="0 0 38 36" fill="none" xmlns="http://www.w3.org/2000/svg">
<path d="M16.5048 33.7136C16.5048 34.9763 17.5346 36 18.8049 36C20.0752 36 21.105 34.9763 21.105 33.7136V21.7629C21.105 20.5002 20.0752 19.4765 18.8049 19.4765C17.5346 19.4765 16.5048 20.5002 16.5048 21.7629V33.7136Z" fill="#12A8FC"/>
<path d="M10.5902 32.5476C10.5902 33.8103 11.62 34.834 12.8903 34.834C14.1606 34.834 15.1904 33.8103 15.1904 32.5476L15.1904 25.1697C15.1904 23.9069 14.1606 22.8833 12.8903 22.8833C11.62 22.8833 10.5902 23.9069 10.5902 25.1697V32.5476Z" fill="#12A8FC"/>
<path d="M28.2954 28.6851C28.2954 29.8736 29.2646 30.837 30.4602 30.837C31.6558 30.837 32.625 29.8736 32.625 28.6851C32.625 27.4966 31.6558 26.5332 30.4602 26.5332C29.2646 26.5332 28.2954 27.4966 28.2954 28.6851Z" fill="#12A8FC"/>
<path d="M7.11302 26.5341C5.91743 26.5341 4.94822 27.4975 4.94822 28.686C4.94822 29.8745 5.91743 30.8379 7.11302 30.8379C8.30861 30.8379 9.27783 29.8745 9.27783 28.686C9.27783 27.4975 8.30861 26.5341 7.11302 26.5341Z" fill="#12A8FC"/>
<path d="M22.4194 32.5668C22.4194 33.8189 23.4405 34.834 24.7002 34.834C25.9598 34.834 26.981 33.8189 26.981 32.5668V25.1505C26.981 23.8983 25.9598 22.8833 24.7002 22.8833C23.4405 22.8833 22.4194 23.8983 22.4194 25.1505V32.5668Z" fill="#12A8FC"/>
<path d="M33.3916 12.3486C34.4862 11.7078 34.851 10.3063 34.2064 9.21822C33.5618 8.13012 32.1519 7.76747 31.0573 8.40822L20.6977 14.4723C19.603 15.1131 19.2382 16.5146 19.8828 17.6026C20.5274 18.6907 21.9373 19.0534 23.0319 18.4126L33.3916 12.3486Z" fill="#FFB126"/>
<path d="M35.3816 18.0058C36.4762 17.365 36.841 15.9635 36.1964 14.8754C35.5518 13.7873 34.1419 13.4247 33.0473 14.0654L26.6516 17.8092C25.557 18.4499 25.1922 19.8514 25.8368 20.9395C26.4814 22.0276 27.8913 22.3903 28.9859 21.7495L35.3816 18.0058Z" fill="#FFB126"/>
<path d="M23.0499 4.80022C24.0801 4.19717 24.4235 2.87811 23.8168 1.85402C23.2102 0.829929 21.8832 0.488613 20.853 1.09167C19.8227 1.69472 19.4794 3.01378 20.086 4.03787C20.6927 5.06196 22.0197 5.40328 23.0499 4.80022Z" fill="#FFB126"/>
<path d="M31.9331 24.0362C32.5398 25.0603 33.8667 25.4016 34.897 24.7985C35.9272 24.1955 36.2706 22.8764 35.6639 21.8523C35.0572 20.8282 33.7303 20.4869 32.7 21.09C31.6698 21.693 31.3264 23.0121 31.9331 24.0362Z" fill="#FFB126"/>
<path d="M29.3959 7.86332C30.4814 7.22796 30.8431 5.83823 30.204 4.75928C29.5648 3.68033 28.1667 3.32073 27.0813 3.95609L20.6523 7.71933C19.5669 8.35469 19.2051 9.74441 19.8443 10.8234C20.4835 11.9023 21.8815 12.2619 22.967 11.6266L29.3959 7.86332Z" fill="#FFB126"/>
<path d="M3.94478 12.4207C2.84465 11.7893 2.46772 10.391 3.10288 9.29745C3.73803 8.20389 5.14476 7.82921 6.24488 8.46058L16.6566 14.4359C17.7567 15.0673 18.1336 16.4656 17.4985 17.5592C16.8633 18.6527 15.4566 19.0274 14.3565 18.3961L3.94478 12.4207Z" fill="#2DDA77"/>
<path d="M1.9919 18.0887C0.891771 17.4573 0.514839 16.059 1.15 14.9654C1.78515 13.8719 3.19188 13.4972 4.292 14.1285L10.7198 17.8175C11.8199 18.4489 12.1969 19.8472 11.5617 20.9408C10.9265 22.0343 9.51982 22.409 8.41969 21.7776L1.9919 18.0887Z" fill="#2DDA77"/>
<path d="M14.5105 4.95105C13.4751 4.35682 13.1203 3.04074 13.7181 2.0115C14.3159 0.982268 15.6399 0.629627 16.6753 1.22386C17.7107 1.81809 18.0654 3.13417 17.4676 4.1634C16.8698 5.19264 15.5459 5.54528 14.5105 4.95105Z" fill="#2DDA77"/>
<path d="M5.79386 24.2616C5.19607 25.2908 3.87209 25.6435 2.83668 25.0492C1.80127 24.455 1.44651 23.1389 2.0443 22.1097C2.6421 21.0805 3.96608 20.7278 5.00149 21.322C6.0369 21.9163 6.39166 23.2324 5.79386 24.2616Z" fill="#2DDA77"/>
<path d="M7.88974 7.89541C6.79887 7.26935 6.4251 5.88276 7.05492 4.79839C7.68474 3.71402 9.07965 3.34249 10.1705 3.96855L16.6318 7.67672C17.7227 8.30278 18.0964 9.68936 17.4666 10.7737C16.8368 11.8581 15.4419 12.2296 14.351 11.6036L7.88974 7.89541Z" fill="#2DDA77"/>
</svg>
