<svg width="48" height="48" viewBox="0 0 48 48" fill="none" xmlns="http://www.w3.org/2000/svg">
<mask id="mask0_1108_1739" style="mask-type:alpha" maskUnits="userSpaceOnUse" x="2" y="2" width="44" height="44">
<circle cx="24.0003" cy="24.0003" r="21.3333" fill="#EDEDED"/>
</mask>
<g mask="url(#mask0_1108_1739)">
<path d="M24 22C25.5823 22 27.129 21.5308 28.4446 20.6518C29.7602 19.7727 30.7855 18.5233 31.391 17.0615C31.9965 15.5997 32.155 13.9911 31.8463 12.4393C31.5376 10.8874 30.7757 9.46197 29.6569 8.34315C28.538 7.22433 27.1126 6.4624 25.5607 6.15372C24.0089 5.84504 22.4003 6.00347 20.9385 6.60897C19.4767 7.21447 18.2273 8.23985 17.3482 9.55544C16.4692 10.871 16 12.4178 16 14C16 16.1217 16.8429 18.1566 18.3431 19.6569C19.8434 21.1571 21.8783 22 24 22Z" fill="#B9B9B9"/>
<path d="M36 42C36.5304 42 37.0391 41.7893 37.4142 41.4142C37.7893 41.0391 38 40.5304 38 40C38 36.287 36.525 32.726 33.8995 30.1005C31.274 27.475 27.713 26 24 26C20.287 26 16.726 27.475 14.1005 30.1005C11.475 32.726 10 36.287 10 40C10 40.5304 10.2107 41.0391 10.5858 41.4142C10.9609 41.7893 11.4696 42 12 42L24 49.7778L36 42Z" fill="#B9B9B9"/>
</g>
</svg>
