<svg width="241" height="27" viewBox="0 0 241 27" fill="none" xmlns="http://www.w3.org/2000/svg">
<path d="M8.51456 26.8562C10.7059 26.8562 12.4927 26.3201 13.8075 25.2142C15.1563 24.1081 15.8305 22.7007 15.8305 20.9915C15.8305 18.9808 14.7853 17.4393 12.7287 16.3668C12.2231 16.0986 10.7396 15.4955 8.31226 14.5905C7.23341 14.2219 6.69411 13.6857 6.69411 12.915C6.69411 12.0771 7.53676 11.3734 8.78422 11.3734C10.3013 11.3734 11.7174 11.9766 12.9986 13.183L15.3586 10.1334C13.6728 8.39074 11.5151 7.51942 8.91916 7.51942C6.8625 7.51942 5.17698 8.0221 3.92952 9.06099C2.68206 10.0999 2.04148 11.4069 2.04148 13.0155C2.04148 15.1603 3.08665 16.7353 5.21067 17.7408C5.61526 17.9419 6.39055 18.2769 7.57066 18.7125C8.75054 19.1482 9.45846 19.4165 9.76202 19.5504C10.6386 19.9526 11.0768 20.4889 11.0768 21.1256C11.0768 22.1643 9.998 22.9018 8.54824 22.9018C6.6941 22.9018 4.77239 21.9298 3.45756 20.3547L0.928955 23.3374C2.78331 25.6833 5.3117 26.8562 8.51456 26.8562ZM27.2963 26.8227C32.5556 26.8227 35.7248 23.8066 35.7248 18.6791V8.12265H30.9711V18.6791C30.9711 20.9915 29.5887 22.4996 27.2963 22.4996C25.0037 22.4996 23.6215 20.9915 23.6215 18.6791V8.12265H18.8678V18.6791C18.8678 23.8066 22.0707 26.8227 27.2963 26.8227ZM45.8828 26.8562C48.0742 26.8562 49.8609 26.3201 51.1758 25.2142C52.5245 24.1081 53.1987 22.7007 53.1987 20.9915C53.1987 18.9808 52.1536 17.4393 50.0969 16.3668C49.5913 16.0986 48.1078 15.4955 45.6805 14.5905C44.6017 14.2219 44.0623 13.6857 44.0623 12.915C44.0623 12.0771 44.9052 11.3734 46.1525 11.3734C47.6696 11.3734 49.0857 11.9766 50.3668 13.183L52.7268 10.1334C51.0411 8.39074 48.8834 7.51942 46.2874 7.51942C44.2307 7.51942 42.5452 8.0221 41.2978 9.06099C40.0503 10.0999 39.4097 11.4069 39.4097 13.0155C39.4097 15.1603 40.4549 16.7353 42.5789 17.7408C42.9835 17.9419 43.7588 18.2769 44.9389 18.7125C46.1188 19.1482 46.8267 19.4165 47.1303 19.5504C48.0068 19.9526 48.4451 20.4889 48.4451 21.1256C48.4451 22.1643 47.3662 22.9018 45.9165 22.9018C44.0623 22.9018 42.1406 21.9298 40.8258 20.3547L38.2972 23.3374C40.1515 25.6833 42.6799 26.8562 45.8828 26.8562ZM68.0431 21.5948C66.9305 22.2315 65.8854 22.533 64.9751 22.533C63.2557 22.533 62.3792 21.4606 62.3792 19.3158V12.0771H68.4477V8.12265H62.3792V1.6547H57.6592V8.12265H54.625V12.0771H57.6255V19.6176C57.6255 24.3429 59.8169 26.8227 64.031 26.8227C66.155 26.8227 67.9418 26.3201 69.4589 25.3146L68.0431 21.5948ZM85.4435 10.301C83.8253 8.52479 81.8699 7.65347 79.5773 7.65347C76.9814 7.65347 74.79 8.55831 73.0706 10.368C71.3511 12.1442 70.4746 14.4231 70.4746 17.171C70.4746 19.9191 71.3175 22.2315 73.0369 24.0746C74.7563 25.9179 76.9477 26.8227 79.5773 26.8227C81.9036 26.8227 83.859 25.9849 85.4435 24.2757V26.387H89.9612V8.12265H85.4435V10.301ZM85.5109 17.2382C85.5109 18.7125 85.0052 19.9526 84.0276 20.9915C83.0498 22.0304 81.8361 22.533 80.3528 22.533C78.8694 22.533 77.6556 22.0304 76.678 20.9915C75.7002 19.9526 75.2282 18.7125 75.2282 17.2382C75.2282 15.7971 75.7002 14.557 76.6443 13.5182C77.6219 12.4793 78.8357 11.9766 80.3528 11.9766C81.8361 11.9766 83.0498 12.4793 84.0276 13.5182C85.0052 14.557 85.5109 15.7971 85.5109 17.2382ZM98.7868 5.24055C99.8993 4.13464 99.8993 2.19091 98.7868 1.1185C97.6742 0.0125845 95.7188 0.0125845 94.6063 1.1185C93.4938 2.19091 93.4938 4.13464 94.6063 5.24055C95.7188 6.34646 97.6742 6.34646 98.7868 5.24055ZM99.0564 8.12265H94.3028V26.387H99.0564V8.12265ZM108.043 26.387V16.6014C108.043 13.8868 109.729 11.9766 112.258 11.9766C114.582 11.9766 116.134 13.5852 116.134 16.5008V26.387H120.887V15.2273C120.887 12.7809 120.18 10.9042 118.798 9.5972C117.416 8.2902 115.696 7.61995 113.706 7.61995C111.111 7.61995 108.92 8.89342 107.942 10.6696V8.12265H103.289V26.387H108.043ZM137.817 24.2423C136.637 25.1471 135.255 25.5827 133.704 25.5827C131.108 25.5827 129.726 23.8736 129.726 20.6898V9.73133H137.817V8.4913H129.726V2.15749H128.377V8.4913H125.174V9.73133H128.377V20.7904C128.377 24.5103 130.13 26.8227 133.603 26.8227C135.457 26.8227 137.075 26.2864 138.457 25.2477L137.817 24.2423ZM142.746 26.4206V15.8306C142.746 13.9873 143.184 12.4457 144.027 11.1722C144.904 9.89872 146.252 9.26197 148.039 9.26197C148.747 9.26197 149.387 9.36263 149.994 9.56372L150.197 8.35717C149.455 8.1226 148.68 8.02217 147.904 8.02217C145.376 8.02217 143.623 9.19501 142.645 11.5074V8.4913H141.397V26.4206H142.746ZM168.488 12.5129C167.038 9.73133 164.273 8.05564 160.902 8.05564C158.34 8.05564 156.216 8.96044 154.53 10.7366C152.845 12.5129 152.002 14.7247 152.002 17.3721C152.002 20.053 152.845 22.2985 154.53 24.1416C156.25 25.9514 158.374 26.8562 160.902 26.8562C164.24 26.8562 167.038 25.1136 168.488 22.2985V26.4206H169.836V8.4913H168.488V12.5129ZM160.868 25.6162C158.677 25.6162 156.89 24.8455 155.474 23.2703C154.058 21.6952 153.35 19.718 153.35 17.4056C153.35 15.0934 154.058 13.1497 155.474 11.6079C156.89 10.0663 158.677 9.29567 160.868 9.29567C163.094 9.29567 164.948 10.0663 166.397 11.6416C167.881 13.2166 168.622 15.0934 168.622 17.3386C168.622 19.6511 167.881 21.5948 166.397 23.2033C164.948 24.812 163.094 25.6162 160.868 25.6162ZM183.36 26.8227C186.866 26.8227 190.001 25.0801 191.485 22.265L190.406 21.5948C189.159 23.9742 186.428 25.5827 183.36 25.5827C181.135 25.5827 179.281 24.8455 177.831 23.3375C176.381 21.8294 175.673 19.8522 175.673 17.4728C175.673 15.0597 176.415 13.0825 177.898 11.5744C179.382 10.0663 181.27 9.29567 183.562 9.29567C186.664 9.29567 189.294 10.8372 190.473 13.2501L191.586 12.6468C190.204 9.79829 187.17 8.05564 183.562 8.05564C180.899 8.05564 178.674 8.92696 176.921 10.7031C175.201 12.4457 174.325 14.6912 174.325 17.4728C174.325 20.1872 175.168 22.4327 176.853 24.2088C178.572 25.9514 180.73 26.8227 183.36 26.8227ZM209.278 26.4206L200.142 15.663L208.132 8.4913H206.379L196.905 16.903V1.18551H195.557V26.4206H196.905V18.5452L199.198 16.4673L207.592 26.4206H209.278ZM227.832 16.3332C227.832 13.7862 227.056 11.7755 225.472 10.3009C223.921 8.79283 221.966 8.05564 219.606 8.05564C216.942 8.05564 214.785 8.92696 213.133 10.7031C211.514 12.4792 210.705 14.6912 210.705 17.4056C210.705 22.0974 213.436 26.8227 219.943 26.8227C222.909 26.8227 225.775 25.7503 227.427 24.3764L226.719 23.3709C225.101 24.7114 222.438 25.5827 219.977 25.5827C215.223 25.5827 212.29 22.6 212.054 17.9084H227.731C227.798 17.1041 227.832 16.5678 227.832 16.3332ZM219.606 9.29567C221.662 9.29567 223.348 9.9659 224.595 11.3064C225.843 12.6133 226.483 14.4229 226.483 16.6684H212.087C212.222 14.4229 212.964 12.6468 214.346 11.3064C215.728 9.9659 217.482 9.29567 219.606 9.29567ZM233.549 26.4206V15.8306C233.549 13.9873 233.987 12.4457 234.83 11.1722C235.707 9.89872 237.055 9.26197 238.843 9.26197C239.549 9.26197 240.19 9.36263 240.798 9.56372L241 8.35717C240.258 8.1226 239.483 8.02217 238.706 8.02217C236.179 8.02217 234.426 9.19501 233.448 11.5074V8.4913H232.201V26.4206H233.549Z" fill="white"/>
</svg>
