<svg width="378" height="38" viewBox="0 0 378 38" fill="none" xmlns="http://www.w3.org/2000/svg">
<path d="M20.6821 28.7502C20.6821 29.9216 20.4396 30.9304 19.9547 31.7765C19.4698 32.6063 18.8313 33.2897 18.0393 33.8266C17.2634 34.3635 16.3743 34.7621 15.3722 35.0225C14.37 35.2828 13.3516 35.413 12.3171 35.413C11.0725 35.413 9.90866 35.2503 8.82566 34.9249C7.75882 34.5832 6.81322 34.0788 5.98884 33.4117C5.16447 32.7609 4.48557 31.9555 3.95215 30.9955C3.41873 30.0193 3.07928 28.8885 2.9338 27.6031H0C0.0646568 29.1325 0.396023 30.5074 0.994099 31.7277C1.59217 32.9317 2.40847 33.973 3.44298 34.8516C4.59064 35.893 5.94035 36.6821 7.49211 37.219C9.04388 37.7397 10.6522 38 12.3171 38C13.7073 38 15.0812 37.8048 16.439 37.4143C17.7968 37.0238 19.0172 36.4462 20.1002 35.6814C21.167 34.9167 22.0318 33.9568 22.6946 32.8015C23.3573 31.6301 23.6887 30.2633 23.6887 28.7013C23.6887 27.1394 23.3573 25.7808 22.6946 24.6256C22.048 23.4541 21.2074 22.4697 20.1729 21.6724C19.0899 20.8264 17.9019 20.1267 16.6087 19.5735C15.3156 19.0203 14.0225 18.5404 12.7293 18.1336C11.7918 17.857 10.8058 17.5316 9.77127 17.1574C8.75292 16.7669 7.8154 16.2787 6.95869 15.693C6.10199 15.1235 5.39885 14.432 4.84926 13.6185C4.31584 12.805 4.04105 11.8043 4.02489 10.6166C4.02489 9.51017 4.25927 8.5502 4.72803 7.73667C5.21296 6.92314 5.84336 6.23978 6.61924 5.68658C7.39513 5.14965 8.25991 4.75102 9.2136 4.49069C10.1835 4.21409 11.1614 4.07579 12.1474 4.07579C13.3274 4.07579 14.4023 4.2629 15.3722 4.63712C16.3582 5.01135 17.2068 5.54014 17.918 6.22351C18.6454 6.90687 19.2273 7.72854 19.6638 8.6885C20.1002 9.6322 20.3831 10.6817 20.5124 11.8369H23.4704C23.4219 10.2749 23.0825 8.85934 22.4521 7.59024C21.8379 6.30486 21.0216 5.21473 20.0032 4.31985C18.9687 3.42496 17.7726 2.73346 16.4148 2.24534C15.0731 1.74095 13.6507 1.48876 12.1474 1.48876C10.8058 1.48876 9.47223 1.69214 8.14676 2.09891C6.8213 2.4894 5.63323 3.06701 4.58255 3.83173C3.53188 4.61272 2.67518 5.58082 2.01244 6.73603C1.36588 7.87497 1.04259 9.18476 1.04259 10.6654C1.05876 12.2762 1.41437 13.6348 2.10943 14.7412C2.80449 15.8476 3.7016 16.7994 4.80077 17.5967C5.80295 18.3288 6.92636 18.9553 8.17101 19.4759C9.41565 19.9966 10.628 20.444 11.808 20.8182C12.794 21.1274 13.8123 21.4853 14.863 21.8921C15.9137 22.2989 16.8754 22.7951 17.7483 23.3809C18.605 23.9829 19.3082 24.7232 19.8577 25.6018C20.4235 26.4641 20.6983 27.5136 20.6821 28.7502Z" fill="black"/>
<path d="M48.9533 37.5119H51.6689V11.1047H48.7351V29.702C48.5088 30.5643 48.1693 31.3453 47.7168 32.045C47.2803 32.7283 46.7388 33.3141 46.0923 33.8022C45.3972 34.3228 44.589 34.7296 43.6676 35.0225C42.7463 35.2991 41.7198 35.4374 40.5883 35.4374C39.5053 35.4374 38.5678 35.2665 37.7758 34.9249C36.9837 34.5832 36.321 34.0706 35.7876 33.3873C35.2541 32.7039 34.8581 31.866 34.5995 30.8735C34.3409 29.8647 34.2116 28.7013 34.2116 27.3834V11.1047H31.302V27.3346C31.3182 29.0268 31.5202 30.5399 31.9082 31.8741C32.2961 33.192 32.8699 34.3066 33.6296 35.2177C34.3894 36.1126 35.3188 36.8041 36.418 37.2922C37.5333 37.7641 38.8184 38 40.2731 38C42.2452 38 43.9505 37.5932 45.3891 36.7797C46.8277 35.9499 47.9754 34.8028 48.8321 33.3385L48.9533 37.5119Z" fill="black"/>
<path d="M79.3097 30.7759C79.3097 31.3941 79.1723 31.9555 78.8975 32.4599C78.6389 32.9642 78.2671 33.4117 77.7822 33.8022C77.0386 34.3717 76.1577 34.8028 75.1393 35.0957C74.121 35.3723 73.038 35.5106 71.8903 35.5106C71.0175 35.5106 70.1203 35.4292 69.199 35.2665C68.2938 35.0876 67.4613 34.7866 66.7016 34.3635C65.9419 33.9405 65.2953 33.3873 64.7619 32.7039C64.2447 32.0043 63.9375 31.1338 63.8406 30.0925H60.931C60.9795 31.2965 61.2866 32.3866 61.8524 33.3629C62.4343 34.3391 63.2263 35.1689 64.2285 35.8523C65.1983 36.5194 66.346 37.0482 67.6715 37.4387C68.9969 37.8129 70.4032 38 71.8903 38C73.2643 38 74.6059 37.8292 75.9152 37.4875C77.2407 37.1458 78.4126 36.617 79.4309 35.9011C80.2553 35.2991 80.9261 34.5588 81.4434 33.6802C81.9606 32.7853 82.2193 31.7684 82.2193 30.6294C82.2193 29.4254 81.9445 28.4003 81.3949 27.5543C80.8615 26.6919 80.1422 25.9598 79.237 25.3577C78.3156 24.7557 77.2488 24.2595 76.0365 23.869C74.8241 23.4785 73.5552 23.1368 72.2298 22.8439C71.1953 22.6324 70.2012 22.3965 69.2475 22.1362C68.31 21.8596 67.5017 21.5179 66.8229 21.1111C66.144 20.7369 65.6267 20.2732 65.2711 19.72C64.9155 19.1505 64.7377 18.4834 64.7377 17.7187C64.7377 16.954 64.9397 16.2869 65.3438 15.7174C65.7479 15.1317 66.2733 14.6517 66.9198 14.2775C67.5664 13.887 68.3019 13.6022 69.1263 13.4233C69.9668 13.228 70.8316 13.1304 71.7206 13.1304C72.6581 13.1304 73.5633 13.2524 74.4362 13.4965C75.3252 13.7405 76.1173 14.0903 76.8123 14.5459C77.4912 15.0015 78.0408 15.5628 78.4611 16.2299C78.8975 16.897 79.1238 17.6536 79.14 18.4997H82.0738C82.0253 17.2468 81.7182 16.1323 81.1524 15.1561C80.6028 14.1798 79.8674 13.35 78.946 12.6667C78.0247 11.9996 76.9417 11.4952 75.697 11.1535C74.4685 10.7955 73.1431 10.6166 71.7206 10.6166C70.4598 10.6166 69.2313 10.7793 68.0352 11.1047C66.8552 11.4301 65.8207 11.8857 64.9316 12.4714C63.9941 13.106 63.2425 13.8707 62.6767 14.7656C62.1271 15.6605 61.8524 16.6774 61.8524 17.8163C61.8524 19.0203 62.1271 20.0454 62.6767 20.8915C63.2425 21.7213 63.978 22.4046 64.8831 22.9416C65.853 23.511 66.8956 23.9747 68.0109 24.3327C69.1263 24.6906 70.3547 25.0079 71.6964 25.2845C72.7632 25.5123 73.7896 25.7889 74.7756 26.1143C75.7617 26.4397 76.6022 26.8302 77.2973 27.2858C77.9277 27.6926 78.4207 28.1888 78.7763 28.7746C79.1319 29.344 79.3097 30.0111 79.3097 30.7759Z" fill="black"/>
<path d="M100.525 4.34425H97.5672V11.1047H90.269V13.5209H97.5672V30.0681C97.5833 31.5162 97.7935 32.7446 98.1976 33.7534C98.6179 34.7459 99.1917 35.5594 99.9191 36.194C100.646 36.8285 101.503 37.2841 102.489 37.5607C103.491 37.8536 104.574 38 105.738 38C106.304 38 106.87 37.9756 107.435 37.9268C108.017 37.8942 108.575 37.8373 109.108 37.7559C109.529 37.6909 109.925 37.6095 110.297 37.5119C110.684 37.398 111.032 37.276 111.339 37.1458L110.878 34.9249C110.636 34.9574 110.353 35.0062 110.03 35.0713C109.707 35.1201 109.367 35.1689 109.011 35.2177C108.559 35.2828 108.098 35.3316 107.629 35.3642C107.161 35.3967 106.692 35.413 106.223 35.413C105.431 35.413 104.688 35.3235 103.992 35.1445C103.314 34.9655 102.715 34.6727 102.198 34.2659C101.681 33.8429 101.269 33.2978 100.962 32.6307C100.671 31.9473 100.517 31.0931 100.501 30.0681V13.5209H110.224V11.1047H100.501L100.525 4.34425Z" fill="black"/>
<path d="M138.689 37.5119H141.792V37.1946C141.566 36.3973 141.372 35.5513 141.211 34.6564C141.065 33.7452 140.984 32.8504 140.968 31.9717V19.2075C140.952 17.7756 140.685 16.5228 140.168 15.4489C139.651 14.3751 138.939 13.4802 138.034 12.7643C137.129 12.0484 136.07 11.5115 134.858 11.1535C133.646 10.7955 132.344 10.6166 130.954 10.6166C129.564 10.6166 128.255 10.8118 127.026 11.2023C125.814 11.5928 124.747 12.1297 123.826 12.8131C122.905 13.5127 122.169 14.3344 121.62 15.2781C121.07 16.2218 120.771 17.255 120.722 18.3776L123.632 18.4021C123.664 17.5723 123.883 16.8319 124.287 16.1811C124.691 15.514 125.224 14.9527 125.887 14.4971C126.533 14.0415 127.285 13.6917 128.142 13.4477C128.998 13.2036 129.896 13.0816 130.833 13.0816C131.851 13.0816 132.797 13.2199 133.67 13.4965C134.559 13.7568 135.327 14.1392 135.973 14.6435C136.62 15.1479 137.129 15.7825 137.501 16.5472C137.873 17.2957 138.067 18.1661 138.083 19.1586V22.1362H132.385C130.752 22.1362 129.192 22.2907 127.705 22.5999C126.218 22.8927 124.909 23.3727 123.777 24.0398C122.662 24.7069 121.765 25.5774 121.086 26.6513C120.423 27.7088 120.092 28.9942 120.092 30.5074C120.092 31.6301 120.318 32.6551 120.771 33.5825C121.224 34.51 121.838 35.2991 122.614 35.9499C123.39 36.5845 124.311 37.0888 125.378 37.4631C126.445 37.821 127.584 38 128.796 38C129.766 38 130.696 37.8942 131.585 37.6827C132.49 37.4875 133.339 37.2027 134.131 36.8285C134.939 36.438 135.674 35.9743 136.337 35.4374C137.016 34.8842 137.606 34.274 138.107 33.6069C138.139 34.2903 138.196 34.9655 138.277 35.6326C138.374 36.2997 138.511 36.9261 138.689 37.5119ZM129.136 35.3886C128.279 35.3886 127.479 35.2665 126.736 35.0225C125.992 34.7784 125.345 34.4367 124.796 33.9974C124.23 33.5581 123.786 33.0212 123.462 32.3866C123.155 31.7358 123.002 31.0199 123.002 30.2389C122.985 29.2627 123.196 28.4329 123.632 27.7495C124.068 27.0499 124.658 26.4641 125.402 25.9923C126.291 25.4228 127.382 25.0242 128.675 24.7964C129.985 24.5523 131.358 24.4222 132.797 24.4059H138.083V30.1901C137.711 30.9711 137.226 31.687 136.628 32.3378C136.03 32.9724 135.343 33.5174 134.567 33.973C133.791 34.4286 132.943 34.7784 132.021 35.0225C131.1 35.2665 130.138 35.3886 129.136 35.3886Z" fill="black"/>
<path d="M151.152 11.1047V13.7161H160.438V34.9004H151.152V37.5119H172.27V34.9004H163.323V11.1047H151.152ZM159.589 3.88054C159.589 4.46628 159.759 4.97067 160.098 5.39371C160.438 5.81674 160.996 6.02826 161.771 6.02826C162.547 6.02826 163.105 5.81674 163.444 5.39371C163.8 4.97067 163.978 4.46628 163.978 3.88054C163.978 3.55513 163.929 3.25412 163.832 2.97752C163.752 2.70092 163.606 2.465 163.396 2.26975C163.234 2.0745 163.016 1.91993 162.741 1.80604C162.466 1.69214 162.143 1.6352 161.771 1.6352C161.4 1.6352 161.076 1.69214 160.802 1.80604C160.527 1.91993 160.3 2.0745 160.123 2.26975C159.929 2.465 159.791 2.70906 159.71 3.00193C159.63 3.27853 159.589 3.5714 159.589 3.88054Z" fill="black"/>
<path d="M180.296 37.5119H183.205V19.4759C183.48 18.6136 183.868 17.8082 184.369 17.0597C184.886 16.3113 185.476 15.6605 186.139 15.1073C186.866 14.5215 187.675 14.0578 188.564 13.7161C189.453 13.3582 190.398 13.1792 191.4 13.1792C192.548 13.1629 193.534 13.3175 194.358 13.6429C195.199 13.9683 195.902 14.4483 196.468 15.0829C197.017 15.7174 197.422 16.4984 197.68 17.4258C197.955 18.3532 198.1 19.419 198.117 20.623V37.5119H201.026L201.002 20.5742C201.002 18.9959 200.808 17.5885 200.42 16.352C200.032 15.0991 199.466 14.0497 198.723 13.2036C197.963 12.3575 197.026 11.7148 195.91 11.2755C194.811 10.8362 193.542 10.6166 192.104 10.6166C191.021 10.6166 190.002 10.7793 189.049 11.1047C188.095 11.4138 187.214 11.8531 186.406 12.4226C185.727 12.8945 185.113 13.4558 184.563 14.1066C184.013 14.7574 183.537 15.4652 183.132 16.2299L182.987 11.1047H180.296V37.5119Z" fill="black"/>
<path d="M235.82 8.59088H225.224V37.5119H216.714V8.59088H206.312V1.97688H235.82V8.59088Z" fill="black"/>
<path d="M253.326 18.5485L250.634 18.3532C248.064 18.3532 246.415 19.1668 245.688 20.7938V37.5119H237.517V11.1047H245.179L245.445 14.4971C246.819 11.9101 248.735 10.6166 251.192 10.6166C252.065 10.6166 252.824 10.7142 253.471 10.9094L253.326 18.5485Z" fill="black"/>
<path d="M270.322 37.5119C270.031 36.975 269.773 36.1858 269.546 35.1445C268.043 37.0482 265.942 38 263.242 38C260.769 38 258.668 37.2516 256.938 35.7547C255.209 34.2415 254.344 32.346 254.344 30.0681C254.344 27.2045 255.395 25.0405 257.496 23.5761C259.597 22.1118 262.652 21.3796 266.661 21.3796H269.183V19.9884C269.183 17.5641 268.14 16.352 266.055 16.352C264.115 16.352 263.145 17.3119 263.145 19.2319H254.974C254.974 16.6774 256.049 14.6029 258.199 13.0083C260.365 11.4138 263.121 10.6166 266.467 10.6166C269.813 10.6166 272.456 11.4382 274.396 13.0816C276.335 14.7249 277.329 16.9784 277.378 19.842V31.5324C277.41 33.9568 277.782 35.8116 278.493 37.097V37.5119H270.322ZM265.206 32.1426C266.225 32.1426 267.065 31.9229 267.728 31.4836C268.407 31.0443 268.892 30.5481 269.183 29.9949V25.7726H266.806C263.962 25.7726 262.539 27.058 262.539 29.6288C262.539 30.3772 262.79 30.9874 263.291 31.4592C263.792 31.9148 264.43 32.1426 265.206 32.1426Z" fill="black"/>
<path d="M293.017 31.6545C294.164 31.6545 295.053 31.3453 295.684 30.727C296.314 30.0925 296.621 29.2139 296.605 28.0912H304.267C304.267 30.9874 303.233 33.3629 301.164 35.2177C299.111 37.0726 296.46 38 293.211 38C289.396 38 286.389 36.796 284.191 34.3879C281.993 31.9799 280.894 28.6444 280.894 24.3815V24.0398C280.894 21.3714 281.379 19.0203 282.348 16.9865C283.334 14.9364 284.749 13.3663 286.591 12.2762C288.434 11.1698 290.616 10.6166 293.138 10.6166C296.549 10.6166 299.256 11.5684 301.26 13.4721C303.265 15.3757 304.267 17.9546 304.267 21.2087H296.605C296.605 19.842 296.274 18.7925 295.611 18.0604C294.948 17.3282 294.059 16.9621 292.944 16.9621C290.827 16.9621 289.59 18.3207 289.234 21.0379C289.121 21.9002 289.065 23.088 289.065 24.6012C289.065 27.2533 289.38 29.0918 290.01 30.1169C290.641 31.1419 291.643 31.6545 293.017 31.6545Z" fill="black"/>
<path d="M318.257 27.6763L315.954 29.9949V37.5119H307.783V0H315.954V19.9152L316.778 18.817L322.937 11.1047H332.732L323.543 21.9653L333.338 37.5119H323.979L318.257 27.6763Z" fill="black"/>
<path d="M347.086 38C343.061 38 339.804 36.796 337.315 34.3879C334.825 31.9636 333.581 28.8152 333.581 24.9428V24.2595C333.581 21.5586 334.074 19.1749 335.06 17.1085C336.062 15.0422 337.517 13.4477 339.424 12.325C341.332 11.186 343.595 10.6166 346.213 10.6166C349.899 10.6166 352.808 11.7718 354.942 14.0822C357.076 16.3764 358.142 19.5817 358.142 23.6981V26.8953H341.897C342.188 28.3759 342.827 29.5393 343.813 30.3854C344.799 31.2314 346.076 31.6545 347.644 31.6545C350.23 31.6545 352.25 30.7433 353.705 28.921L357.439 33.3629C356.421 34.7784 354.974 35.9092 353.099 36.7553C351.24 37.5851 349.236 38 347.086 38ZM346.165 16.9621C343.772 16.9621 342.35 18.5566 341.897 21.7457H350.141V21.1111C350.173 19.7932 349.842 18.7763 349.147 18.0604C348.452 17.3282 347.458 16.9621 346.165 16.9621Z" fill="black"/>
<path d="M377.321 18.5485L374.63 18.3532C372.06 18.3532 370.411 19.1668 369.684 20.7938V37.5119H361.513V11.1047H369.174L369.441 14.4971C370.815 11.9101 372.731 10.6166 375.188 10.6166C376.06 10.6166 376.82 10.7142 377.467 10.9094L377.321 18.5485Z" fill="black"/>
</svg>
