<svg width="20" height="21" viewBox="0 0 20 21" fill="none" xmlns="http://www.w3.org/2000/svg">
<path fill-rule="evenodd" clip-rule="evenodd" d="M19.625 1.50637C19.625 0.916044 19.1673 0.4375 18.6026 0.4375H11.6191C11.348 0.437489 11.0879 0.550099 10.8962 0.750544C10.7045 0.951004 10.5967 1.22288 10.5968 1.50637V8.80726C10.5967 9.09075 10.7045 9.36262 10.8962 9.56308C11.0879 9.76353 11.348 9.87614 11.6191 9.87613H18.6026C19.1673 9.87613 19.625 9.39758 19.625 8.80726V1.50637ZM17.1418 6.33188C17.392 6.59378 17.392 7.01812 17.1418 7.28C17.0216 7.40597 16.8585 7.47678 16.6883 7.47678C16.5182 7.47678 16.355 7.40597 16.2348 7.28L15.112 6.10604L13.9868 7.28C13.8668 7.40597 13.7036 7.47678 13.5335 7.47678C13.3633 7.47678 13.2002 7.40597 13.08 7.28C12.8298 7.0181 12.8298 6.59378 13.08 6.33188L14.205 5.15793L13.08 3.98174C12.918 3.81238 12.8548 3.56551 12.914 3.33416C12.9733 3.10281 13.1461 2.9221 13.3675 2.8601C13.5887 2.79812 13.8248 2.86426 13.9868 3.03362L15.112 4.20982L16.2348 3.03362C16.4853 2.77181 16.8914 2.77181 17.1418 3.03362C17.3921 3.29544 17.3921 3.71992 17.1418 3.98174L16.0188 5.15793L17.1418 6.33188ZM1.39739 9.87613H8.38084C8.65199 9.87613 8.91204 9.76353 9.10379 9.56307C9.29552 9.36262 9.40324 9.09075 9.40322 8.80726V1.50637C9.40324 1.22288 9.29552 0.951004 9.10379 0.750559C8.91204 0.550099 8.65199 0.437494 8.38084 0.4375H1.39739C1.12623 0.43749 0.866177 0.550099 0.674434 0.750544C0.482704 0.951004 0.37499 1.22288 0.375 1.50637V8.80726C0.374992 9.09075 0.482704 9.36262 0.674447 9.56307C0.866177 9.76353 1.12623 9.87614 1.39739 9.87613ZM2.65718 4.48487H4.2464V2.82566C4.2464 2.45517 4.53367 2.15484 4.88805 2.15484C5.24244 2.15484 5.52972 2.45517 5.52972 2.82566V4.48487H7.11892C7.4733 4.48487 7.76058 4.7852 7.76058 5.15569C7.76058 5.52619 7.4733 5.82653 7.11892 5.82653H5.52972V7.48796C5.52972 7.85845 5.24244 8.15879 4.88805 8.15879C4.53367 8.15879 4.2464 7.85845 4.2464 7.48796V5.82653H2.65718C2.30279 5.82653 2.01551 5.52619 2.01551 5.15569C2.01551 4.7852 2.30279 4.48487 2.65718 4.48487ZM8.38084 20.5625H1.39739C1.12623 20.5625 0.866177 20.4499 0.674447 20.2494C0.482704 20.049 0.374992 19.7771 0.375 19.4936V12.1927C0.374992 11.9093 0.482704 11.6374 0.674447 11.4369C0.866177 11.2365 1.12623 11.1239 1.39739 11.1239H8.38084C8.65199 11.1239 8.91204 11.2365 9.10379 11.4369C9.29552 11.6374 9.40324 11.9093 9.40322 12.1927V19.4936C9.40324 19.7771 9.29552 20.049 9.10379 20.2494C8.91204 20.4499 8.65199 20.5625 8.38084 20.5625ZM7.11892 15.1735H2.65718C2.30279 15.1735 2.01551 15.4738 2.01551 15.8443C2.01551 16.2148 2.30279 16.5151 2.65718 16.5151H7.11892C7.4733 16.5151 7.76058 16.2148 7.76058 15.8443C7.76058 15.4738 7.4733 15.1735 7.11892 15.1735ZM11.6191 20.5625H18.6026C19.1673 20.5625 19.625 20.084 19.625 19.4936V12.1927C19.625 11.6024 19.1673 11.1239 18.6026 11.1239H11.6191C11.348 11.1239 11.0879 11.2365 10.8962 11.4369C10.7045 11.6374 10.5967 11.9093 10.5968 12.1927V19.4936C10.5967 19.7771 10.7045 20.049 10.8962 20.2494C11.0879 20.4499 11.348 20.5625 11.6191 20.5625ZM15.112 18.7737C14.7575 18.7735 14.4703 18.4732 14.4703 18.1028C14.4703 17.7324 14.7575 17.4319 15.112 17.4319C15.4663 17.4319 15.7535 17.7324 15.7535 18.1028C15.7538 18.2808 15.6863 18.4515 15.5659 18.5775C15.4455 18.7032 15.2822 18.7738 15.112 18.7737ZM15.7535 13.5836C15.7535 13.2131 15.4663 12.9128 15.112 12.9128C14.7576 12.9131 14.4705 13.2132 14.4703 13.5836C14.4703 13.954 14.7575 14.2545 15.112 14.2545C15.4663 14.2545 15.7535 13.954 15.7535 13.5836ZM12.881 15.1735H17.3407C17.6951 15.1735 17.9823 15.4738 17.9823 15.8443C17.9823 16.2148 17.6951 16.5151 17.3407 16.5151H12.881C12.5267 16.5151 12.2394 16.2148 12.2394 15.8443C12.2394 15.4738 12.5267 15.1735 12.881 15.1735Z" fill="#E1E3E2"/>
</svg>
