<svg width="16" height="18" viewBox="0 0 16 18" fill="none" xmlns="http://www.w3.org/2000/svg">
<path d="M14.2115 1.71231C16.2634 3.76421 16.2634 7.08504 14.2115 9.13693L7.12438 16.2241C5.63271 17.7157 3.21633 17.7157 1.72466 16.2241C0.232987 14.7324 0.232987 12.316 1.72466 10.8243L7.46187 5.08714C8.39332 4.15569 9.90524 4.15569 10.8367 5.08714C11.7681 6.01859 11.7681 7.53051 10.8367 8.46197L5.77445 13.5242L4.42452 12.1743L9.54751 7.05129C9.91874 6.68006 9.24377 6.00509 8.87254 6.37632L3.07459 12.1743C2.33213 12.9167 2.33213 14.1317 3.07459 14.8741C3.81705 15.6166 5.03199 15.6166 5.77445 14.8741L12.8616 7.787C14.1643 6.48432 14.1643 4.36493 12.8616 3.06224C11.5589 1.75956 9.43951 1.75956 8.13683 3.06224L1.72466 9.47441L0.37473 8.12448L6.7869 1.71231C8.8388 -0.339582 12.1596 -0.339582 14.2115 1.71231Z" fill="#E1E3E2"/>
</svg>
