<svg width="22" height="22" viewBox="0 0 22 22" fill="none" xmlns="http://www.w3.org/2000/svg">
<path fill-rule="evenodd" clip-rule="evenodd" d="M15.228 0.107924L21.8056 5.36614C22.0648 5.57369 22.0648 5.91004 21.8056 6.11757L15.228 11.3758C14.9687 11.5833 14.7586 11.4824 14.7586 11.1504V8.44614H3.33319C3.00127 8.44614 2.73196 8.177 2.73196 7.8453V3.63866C2.73196 3.30671 3.00102 3.03758 3.33319 3.03758H14.7586V0.333301C14.7586 0.00110246 14.9687 -0.0996083 15.228 0.107924ZM7.24168 18.9626V21.6668C7.24168 21.9988 7.03134 22.0996 6.77205 21.8922L0.194458 16.6341C-0.0648194 16.4267 -0.0648194 16.0904 0.194458 15.8829L6.7723 10.6246C7.03157 10.4171 7.24168 10.518 7.24168 10.85V13.554H18.667C18.9989 13.554 19.2683 13.8232 19.2683 14.1549V18.3615C19.2683 18.6934 18.9992 18.9626 18.667 18.9626H7.24168Z" fill="#E1E3E2"/>
</svg>
