<svg width="21" height="21" viewBox="0 0 21 21" fill="none" xmlns="http://www.w3.org/2000/svg">
<path fill-rule="evenodd" clip-rule="evenodd" d="M10.5 21C16.299 21 21 16.299 21 10.5C21 4.70101 16.299 0 10.5 0C4.70101 0 0 4.70101 0 10.5C0 16.299 4.70101 21 10.5 21ZM9.5202 11.3115C9.31875 11.776 9.21802 12.3994 9.21802 13.1815H11.2967C11.3089 12.3347 11.5164 11.6908 11.9193 11.2497L13.0456 10.1825C13.9735 9.25336 14.4375 8.30956 14.4375 7.35106C14.4375 6.27495 14.0926 5.437 13.4028 4.8372C12.719 4.2374 11.7637 3.9375 10.5366 3.9375C9.34622 3.9375 8.38779 4.24034 7.66134 4.84602C6.94099 5.4517 6.57471 6.27495 6.5625 7.31578H8.78765C8.78765 6.8277 8.94637 6.44254 9.26381 6.16028C9.58735 5.87214 10.0116 5.72807 10.5366 5.72807C11.086 5.72807 11.5012 5.87508 11.782 6.1691C12.0689 6.45724 12.2124 6.87769 12.2124 7.43044C12.2124 7.84795 12.0903 8.23606 11.8461 8.59476C11.6874 8.82997 11.3089 9.2269 10.7106 9.78553C10.1185 10.3383 9.72166 10.8469 9.5202 11.3115ZM9.40116 15.0867C9.17529 15.2984 9.06236 15.5777 9.06236 15.9246C9.06236 16.2481 9.16919 16.5186 9.38285 16.7361C9.60262 16.9537 9.91395 17.0625 10.3169 17.0625C10.7198 17.0625 11.0311 16.9537 11.2509 16.7361C11.4706 16.5186 11.5805 16.2481 11.5805 15.9246C11.5805 15.5895 11.4676 15.3131 11.2417 15.0955C11.0158 14.8721 10.7076 14.7603 10.3169 14.7603C9.93227 14.7603 9.62704 14.8691 9.40116 15.0867Z" fill="#E1E3E2"/>
</svg>
