<svg width="20" height="21" viewBox="0 0 20 21" fill="none" xmlns="http://www.w3.org/2000/svg">
<path fill-rule="evenodd" clip-rule="evenodd" d="M4.81731 2.75961C4.81731 1.47711 3.8229 0.4375 2.59615 0.4375C1.36941 0.4375 0.375 1.47711 0.375 2.75961C0.375 4.04212 1.36941 5.08173 2.59615 5.08173C3.8229 5.08173 4.81731 4.04212 4.81731 2.75961ZM8.50452 0.4375H17.4407C18.6541 0.4375 19.625 1.48245 19.625 2.75961C19.625 4.03678 18.6321 5.08173 17.4185 5.08173H8.50452C7.29098 5.08173 6.29807 4.03678 6.29807 2.75961C6.29807 1.48245 7.29098 0.4375 8.50452 0.4375ZM17.4407 8.17789H8.50452C7.29098 8.17789 6.29807 9.22284 6.29807 10.5C6.29807 11.7772 7.29098 12.8221 8.50452 12.8221H17.4185C18.6321 12.8221 19.625 11.7772 19.625 10.5C19.625 9.22284 18.6541 8.17789 17.4407 8.17789ZM4.81731 10.5C4.81731 9.21749 3.8229 8.17789 2.59615 8.17789C1.36941 8.17789 0.375 9.21749 0.375 10.5C0.375 11.7825 1.36941 12.8221 2.59615 12.8221C3.8229 12.8221 4.81731 11.7825 4.81731 10.5ZM17.4407 15.9182H8.50452C7.29098 15.9182 6.29807 16.9633 6.29807 18.2404C6.29807 19.5176 7.29098 20.5625 8.50452 20.5625H17.4185C18.6321 20.5625 19.625 19.5176 19.625 18.2404C19.625 16.9633 18.6541 15.9182 17.4407 15.9182ZM4.81731 18.2404C4.81731 16.9581 3.8229 15.9182 2.59615 15.9182C1.36941 15.9182 0.375 16.9581 0.375 18.2404C0.375 19.5229 1.36941 20.5625 2.59615 20.5625C3.8229 20.5625 4.81731 19.5229 4.81731 18.2404Z" fill="#E1E3E2"/>
</svg>
